<svg xmlns="http://www.w3.org/2000/svg" width="32.001" height="32" viewBox="0 0 32.001 32"><defs><style>.a{fill:#354052;}.b{fill:none;}</style></defs><title>dashboard</title><circle class="a" cx="16.001" cy="9" r="2"/><circle class="a" cx="9.637" cy="11.635" r="2"/><circle class="a" cx="7.001" cy="18" r="2"/><circle class="a" cx="9.636" cy="24.365" r="2"/><circle class="a" cx="22.364" cy="11.635" r="2"/><circle class="a" cx="25.001" cy="18" r="2"/><circle class="a" cx="22.365" cy="24.365" r="2"/><path class="a" d="M19.8,9.844l-5.629,6.445a2.659,2.659,0,0,0-.44.654,2.5,2.5,0,1,0,4.531,2.113,2.725,2.725,0,0,0,.218-.759Z"/><path class="a" d="M27.315,29.313a1.5,1.5,0,0,1-2.123-2.121,13,13,0,1,0-18.385,0,1.5,1.5,0,1,1-2.121,2.123,16,16,0,1,1,22.627,0Z"/><rect class="b" x="0.001" width="32" height="32"/></svg>