<svg xmlns="http://www.w3.org/2000/svg" width="32" height="32" viewBox="0 0 32 32"><defs><style>.a{fill:#354052;}.b{fill:none;}</style></defs><title>dataset</title><path class="a" d="M24,0H2V32H30V6Zm4,30H4V2H22V8h6Z"/><path class="a" d="M10,14v4H4V14h6m2-2H2v8H12V12Z"/><path class="a" d="M16,14v4H12V14h4m2-2H10v8h8V12Z"/><path class="a" d="M22,14v4H18V14h4m2-2H16v8h8V12Z"/><path class="a" d="M28,14v4H24V14h4m2-2H22v8h8V12Z"/><path class="a" d="M10,20v4H4V20h6m2-2H2v8H12V18Z"/><path class="a" d="M16,20v4H12V20h4m2-2H10v8h8V18Z"/><path class="a" d="M22,20v4H18V20h4m2-2H16v8h8V18Z"/><path class="a" d="M28,20v4H24V20h4m2-2H22v8h8V18Z"/><path class="a" d="M10,26v4H4V26h6m2-2H2v8H12V24Z"/><path class="a" d="M16,26v4H12V26h4m2-2H10v8h8V24Z"/><path class="a" d="M22,26v4H18V26h4m2-2H16v8h8V24Z"/><rect class="b" width="32" height="32"/></svg>