<svg xmlns="http://www.w3.org/2000/svg" width="32" height="32" viewBox="0 0 32 32"><defs><style>.a{fill:none;}.b{fill:#354052;}</style></defs><title>story</title><rect class="a" width="32" height="32"/><path class="b" d="M25.554,3.171A9.573,9.573,0,0,1,29,3.817V24.309q-.286-.011-.581-.011A23.914,23.914,0,0,0,16,28.158,23.914,23.914,0,0,0,3.581,24.3q-.294,0-.581.011V3.817a9.562,9.562,0,0,1,3.446-.646,8.17,8.17,0,0,1,7.061,3.972L16,10.87l2.494-3.727a8.167,8.167,0,0,1,7.06-3.972m0-3A11.172,11.172,0,0,0,16,5.475,11.174,11.174,0,0,0,6.446.171,12.041,12.041,0,0,0,0,2V28a8.1,8.1,0,0,1,3.581-.7C7.857,27.3,13.4,29.4,16,32c2.6-2.6,8.143-4.7,12.419-4.7A8.1,8.1,0,0,1,32,28V2A12.045,12.045,0,0,0,25.554.171Z"/><path class="b" d="M6,.18a11.466,11.466,0,0,1,4,.551V18L6,22Z"/></svg>