<svg xmlns="http://www.w3.org/2000/svg" width="32" height="32" viewBox="0 0 32 32"><defs><style>.a{fill:#354052;}.b{fill:#fff;}.c{fill:none;}</style></defs><title>user_group</title><path class="a" d="M30,16a6,6,0,0,0-5.051-5.925,7.383,7.383,0,0,0-.493-2.11,3,3,0,1,0-3.163-4.258,7.875,7.875,0,0,0-1.744-.987,5,5,0,1,1,7.8,5.991l-.007.019A8,8,0,0,1,32,16v8a2,2,0,0,1-2,2Z"/><path class="a" d="M2,16a6,6,0,0,1,5.051-5.925,7.383,7.383,0,0,1,.493-2.11A3,3,0,1,1,10.71,3.707a7.786,7.786,0,0,1,1.741-.987,5,5,0,1,0-7.8,5.991l.007.019A8,8,0,0,0,0,16v8a2,2,0,0,0,2,2Z"/><path class="a" d="M10,32a3,3,0,0,1-3-3V23a9,9,0,0,1,4.65-7.881l-.008.008a6,6,0,1,1,8.715,0l-.008-.008A8.991,8.991,0,0,1,25,23v6a3,3,0,0,1-3,3"/><circle class="b" cx="16" cy="11" r="3"/><path class="b" d="M13.5,32V25a1,1,0,0,0-2,0v4H10V23a6,6,0,0,1,12,0v6H20.5V25a1,1,0,0,0-2,0v7Z"/><rect class="c" width="32" height="32"/></svg>