<svg xmlns="http://www.w3.org/2000/svg" width="600" height="48" viewBox="0 0 600 48"><defs><style>.a,.e,.f{fill:#fff;}.b,.d{fill:none;}.b,.f{fill-rule:evenodd;}.c{fill:#354052;}.e{font-size:11.267px;font-family:OpenSans-Semibold, Open Sans;font-weight:700;}</style></defs><title>brand_bar_01</title><circle class="a" cx="475.2" cy="16.667" r="1.733"/><circle class="a" cx="475.2" cy="21.867" r="1.733"/><circle class="a" cx="480.4" cy="16.667" r="1.733"/><circle class="a" cx="480.4" cy="21.867" r="1.733"/><circle class="a" cx="485.6" cy="16.667" r="1.733"/><circle class="a" cx="485.6" cy="21.867" r="1.733"/><path class="b" d="M447.467,16.234a3.9,3.9,0,1,0,3.9,3.9A3.9,3.9,0,0,0,447.467,16.234Z"/><rect class="c" width="600" height="48"/><path class="a" d="M565,0V36h23V0Zm9.731,31.161h-5.6v-.292a3.786,3.786,0,0,0,1.146-.263.692.692,0,0,0,.478-.671V19.9a1.056,1.056,0,0,0-.043-.35.674.674,0,0,0-.246-.263c-.174-.1-.378-.21-.608-.336s-.463-.237-.7-.336v-.174l3.8-1.37h.2l.005,3.984v9.056a.756.756,0,0,0,.2.424.876.876,0,0,0,.349.19,2.105,2.105,0,0,0,.463.073,3.889,3.889,0,0,1,.553.073Zm9.138,0h-5.922V30.84a6.447,6.447,0,0,0,1.247-.191.572.572,0,0,0,.465-.6V22.7a5.15,5.15,0,0,0-.639-2.728,2.32,2.32,0,0,0-2.146-1.035,2.9,2.9,0,0,0-1.595.408,8.316,8.316,0,0,0-1.388,1.172v-.267a10.555,10.555,0,0,1,.8-1.065,6.971,6.971,0,0,1,1.088-1.035,6.094,6.094,0,0,1,1.334-.774,3.845,3.845,0,0,1,1.508-.305,2.982,2.982,0,0,1,2.582,1.253,5.443,5.443,0,0,1,.9,3.239V30.14a.43.43,0,0,0,.187.35,1.3,1.3,0,0,0,.449.218,4.367,4.367,0,0,0,.566.117c.2.03.392.055.566.072Z"/><path class="a" d="M46.744,31.912l-2.687-7.249-.889-2.448v9.7h-2.3V15.926H43.12l2.5,7.321.816,2.472V15.926h2.28V31.912Z"/><path class="a" d="M50.487,31.912V15.926h2.545V31.912Z"/><path class="a" d="M54.831,31.912V15.926h6.385v2.257h-3.84V22.6H60.04v2.112H57.376v4.873h3.84v2.328Z"/><path class="a" d="M62.583,31.912V15.926h2.545V29.607H68.8v2.3Z"/><path class="a" d="M73.288,32.2a3.448,3.448,0,0,1-3.744-3.672V27.111h2.328v1.368c0,1.008.456,1.584,1.344,1.584.912,0,1.344-.552,1.344-1.44,0-1.392-.7-2.424-2.04-3.84-1.32-1.32-2.856-3.192-2.856-5.232a3.577,3.577,0,0,1,3.721-3.912,3.4,3.4,0,0,1,3.528,3.672V20.75h-2.3V19.311c0-.889-.408-1.488-1.225-1.488a1.186,1.186,0,0,0-1.248,1.3c0,1.56.7,2.328,2.185,3.912,1.56,1.607,2.712,3.216,2.712,5.232A3.618,3.618,0,0,1,73.288,32.2Z"/><path class="a" d="M78.423,31.912V15.926h6.385v2.257h-3.84V22.6h2.664v2.112H80.968v4.873h3.84v2.328Z"/><path class="a" d="M92.031,31.912l-2.687-7.249-.889-2.448v9.7h-2.3V15.926h2.256l2.5,7.321.816,2.472V15.926H94V31.912Z"/><path class="a" d="M103.7,31.912l-.408-3.121h-2.328l-.48,3.121H98.15l2.664-15.986h2.809l2.664,15.986Zm-1.488-11.785-.937,6.528H103Z"/><path class="a" d="M111.352,25.6h-1.536v6.313h-2.545V15.926h4.081a2.888,2.888,0,0,1,3.12,3.24v3.217A2.881,2.881,0,0,1,111.352,25.6ZM112,19.166c0-.7-.264-1.056-.864-1.056h-1.319v5.448h1.319c.6,0,.864-.359.864-1.056Z"/><path class="a" d="M119.919,25.6h-1.536v6.313h-2.545V15.926h4.081a2.888,2.888,0,0,1,3.12,3.24v3.217A2.881,2.881,0,0,1,119.919,25.6Zm.647-6.434c0-.7-.264-1.056-.864-1.056h-1.319v5.448H119.7c.6,0,.864-.359.864-1.056Z"/><path class="a" d="M133.431,31.912l-2.687-7.249-.889-2.448v9.7h-2.3V15.926h2.256l2.5,7.321.816,2.472V15.926h2.28V31.912Z"/><path class="a" d="M141.927,31.912l-.408-3.121H139.19l-.48,3.121h-2.328l2.664-15.986h2.809l2.664,15.986Zm-1.488-11.785-.937,6.528h1.729Z"/><path class="a" d="M153.566,31.912V20.031l-.5,3.359-1.488,8.521h-1.921l-1.416-8.521-.479-3.359V31.912H145.5V15.926h3.433l1.393,8.09.432,3.1.456-3.1,1.368-8.09h3.384V31.912Z"/><path class="a" d="M157.741,31.912V15.926h6.385v2.257h-3.84V22.6h2.664v2.112h-2.664v4.873h3.84v2.328Z"/><rect class="d" x="473.467" y="15.6" width="13.866" height="13.867"/><circle class="a" cx="475.2" cy="17.334" r="1.733"/><circle class="a" cx="475.2" cy="22.534" r="1.733"/><circle class="a" cx="475.2" cy="27.733" r="1.733"/><circle class="a" cx="480.4" cy="17.334" r="1.733"/><circle class="a" cx="480.4" cy="22.534" r="1.733"/><circle class="a" cx="480.4" cy="27.733" r="1.733"/><circle class="a" cx="485.6" cy="17.334" r="1.733"/><circle class="a" cx="485.6" cy="22.534" r="1.733"/><circle class="a" cx="485.6" cy="27.733" r="1.733"/><rect class="d" x="442.267" y="15.6" width="13.867" height="13.867"/><path class="b" d="M450.649,24.9a5.213,5.213,0,1,1,.92-.919l4.4,4.4a.652.652,0,0,1-.919.919Zm-3.183-8a3.9,3.9,0,1,0,3.9,3.9A3.9,3.9,0,0,0,447.467,16.9Z"/><rect class="d" x="504.667" y="15.6" width="13.866" height="13.867"/><path class="a" d="M511.6,29.467a1.44,1.44,0,0,0,1.45-1.422h-2.9a1.438,1.438,0,0,0,1.453,1.422"/><path class="a" d="M511.6,16.467a.21.21,0,0,1,.222.2v1.171l.67.156a3.474,3.474,0,0,1,2.6,3.651v3.919l.26.255.662.648h-8.82l.661-.648.26-.255V21.645a3.472,3.472,0,0,1,2.6-3.651l.671-.156V16.667a.209.209,0,0,1,.221-.2m0-.867a1.075,1.075,0,0,0-1.088,1.066v.483a4.33,4.33,0,0,0-3.268,4.5V25.2l-1.45,1.422v.712h11.612v-.712L515.954,25.2V21.645a4.343,4.343,0,0,0-3.266-4.5v-.483A1.075,1.075,0,0,0,511.6,15.6Z"/><text class="e" transform="translate(538.064 26.707)">LJ</text><path class="f" d="M14,20a.961.961,0,0,1,.916-1H25.084a1,1,0,0,1,0,2H14.916A.961.961,0,0,1,14,20Z"/><path class="f" d="M14,24a.961.961,0,0,1,.916-1H25.084a1,1,0,0,1,0,2H14.916A.961.961,0,0,1,14,24Z"/><path class="f" d="M14,28a.961.961,0,0,1,.916-1H25.084a1,1,0,0,1,0,2H14.916A.961.961,0,0,1,14,28Z"/><rect class="d" x="12" y="16" width="16" height="16"/></svg>