<svg xmlns="http://www.w3.org/2000/svg" width="600" height="769" viewBox="0 0 600 769"><defs><style>.a{fill:#fafafa;}.ad,.b,.w{fill:#26b910;}.ad,.ai,.ak,.aq,.ar,.as,.at,.au,.c,.k,.w{font-size:15px;}.c,.k,.t,.v{fill:#fff;}.ad,.ai,.ak,.aq,.ar,.as,.at,.au,.bd,.c,.k,.w{font-family:OpenSans-Semibold, Open Sans;font-weight:700;}.d{letter-spacing:-0.013em;}.e{letter-spacing:-0.002em;}.f{letter-spacing:-0.008em;}.g{letter-spacing:-0.008em;}.h{letter-spacing:-0.007em;}.i{letter-spacing:0.04em;}.ar,.j{fill:#1d8d0c;}.ad,.ak,.ar,.at,.k{letter-spacing:-0.002em;}.l{letter-spacing:-0.011em;}.m{letter-spacing:-0.001em;}.n{letter-spacing:0em;}.as,.o{fill:#135807;}.p{letter-spacing:-0.001em;}.q{letter-spacing:-0.006em;}.r{letter-spacing:0.002em;}.s,.u{fill:#272525;}.ay,.ba,.s,.t{fill-rule:evenodd;}.x{letter-spacing:0.001em;}.y{letter-spacing:-0.002em;}.z{letter-spacing:0.023em;}.aa{letter-spacing:-0.008em;}.ab{letter-spacing:-0.004em;}.ac{fill:#d0f7cc;}.ae{fill:#b6eeaf;}.af,.ai,.ak{fill:#0098f3;}.ag,.at{fill:#007bc4;}.ah,.au{fill:#00568a;}.aj{fill:#d4eefd;}.al{fill:#b4e0fc;}.am{letter-spacing:-0.076em;}.an{letter-spacing:0.029em;}.ao{letter-spacing:-0.006em;}.ap{letter-spacing:-0.011em;}.aq,.bb{fill:#ccc;}.av,.ba{fill:#354052;}.aw{fill:#151921;}.ax{fill:#838f93;}.ay{fill:#edeef0;}.az{fill:none;}.bc,.bd{fill:#ff8300;}.bd{font-size:13px;}.be{letter-spacing:-0.001em;}.bf{letter-spacing:0.007em;}.bg{letter-spacing:-0.005em;}.bh{letter-spacing:0.001em;}.bi{letter-spacing:-0.014em;}.bj{letter-spacing:-0.003em;}.bk{letter-spacing:-0.002em;}.bl{letter-spacing:-0.025em;}.bm{letter-spacing:-0.003em;}.bn{letter-spacing:0.054em;}.bo{letter-spacing:0.012em;}.bp{letter-spacing:0.005em;}.bq{letter-spacing:-0.002em;}.br{letter-spacing:-0.006em;}.bs{letter-spacing:0.044em;}.bt{letter-spacing:-0.054em;}.bu{letter-spacing:-0.004em;}.bv{letter-spacing:0.012em;}</style></defs><title>button_01</title><rect class="a" y="25" width="600" height="204"/><rect class="a" y="253" width="600" height="204"/><rect class="a" y="481" width="600" height="84"/><rect class="a" y="589" width="600" height="180"/><rect class="b" x="147" y="49" width="98" height="36" rx="4" ry="4"/><text class="c" transform="translate(167.265 72.311)"><tspan class="d">P</tspan><tspan class="e" x="9.041" y="0">r</tspan><tspan class="f" x="15.482" y="0">i</tspan><tspan class="g" x="19.55" y="0">m</tspan><tspan class="h" x="33.766" y="0">a</tspan><tspan class="i" x="42.369" y="0">r</tspan><tspan x="49.43" y="0">y</tspan></text><rect class="j" x="147" y="109" width="98" height="36" rx="4" ry="4"/><text class="k" transform="translate(174.398 132.311)">H<tspan class="l" x="11.23" y="0">ov</tspan><tspan class="m" x="28.103" y="0">e</tspan><tspan class="n" x="36.735" y="0">r</tspan></text><rect class="o" x="147" y="169" width="98" height="36" rx="4" ry="4"/><text class="c" transform="translate(175.064 192.311)"><tspan class="p">D</tspan><tspan class="q" x="10.99" y="0">o</tspan><tspan class="r" x="20.065" y="0">w</tspan><tspan x="32.35" y="0">n</tspan></text><polygon class="s" points="224 150 224 147 223 147 223 145 222 145 222 143 221 143 221 141 220 141 220 140 219 140 219 137 222 137 222 138 223 138 223 129 224 129 224 128 226 128 226 129 227 129 227 133 229 133 229 134 232 134 232 135 234 135 234 136 235 136 235 137 236 137 236 144 235 144 235 147 234 147 234 150 224 150"/><polygon class="t" points="225 149 225 147 224 147 224 145 223 145 223 143 222 143 222 141 221 141 221 140 220 140 220 138 222 138 222 139 223 139 223 142 224 142 224 129 226 129 226 138 227 138 227 134 229 134 229 138 230 138 230 135 232 135 232 139 233 139 233 136 234 136 234 137 235 137 235 144 234 144 234 147 233 147 233 149 225 149"/><rect class="u" x="226" y="140" width="1" height="4"/><rect class="u" x="229" y="140" width="1" height="4"/><rect class="u" x="232" y="140" width="1" height="4"/><rect class="v" x="257.75" y="49.75" width="88.5" height="34.5" rx="3.25" ry="3.25"/><path class="b" d="M343,50.5a2.5,2.5,0,0,1,2.5,2.5V81a2.5,2.5,0,0,1-2.5,2.5H261a2.5,2.5,0,0,1-2.5-2.5V53a2.5,2.5,0,0,1,2.5-2.5h82m0-1.5H261a4.012,4.012,0,0,0-4,4V81a4.012,4.012,0,0,0,4,4h82a4.012,4.012,0,0,0,4-4V53a4.012,4.012,0,0,0-4-4Z"/><text class="w" transform="translate(276.972 71.767)"><tspan class="x">B</tspan><tspan class="y" x="9.925" y="0">u</tspan><tspan class="z" x="19.416" y="0">t</tspan><tspan class="aa" x="25.657" y="0">t</tspan><tspan class="ab" x="31.431" y="0">o</tspan><tspan x="40.534" y="0">n</tspan></text><rect class="ac" x="257.75" y="109.75" width="88.5" height="34.5" rx="3.25" ry="3.25"/><path class="b" d="M343,110.5a2.5,2.5,0,0,1,2.5,2.5v28a2.5,2.5,0,0,1-2.5,2.5H261a2.5,2.5,0,0,1-2.5-2.5V113a2.5,2.5,0,0,1,2.5-2.5h82m0-1.5H261a4.012,4.012,0,0,0-4,4v28a4.012,4.012,0,0,0,4,4h82a4.012,4.012,0,0,0,4-4V113a4.012,4.012,0,0,0-4-4Z"/><text class="ad" transform="translate(280.398 131.767)">H<tspan class="l" x="11.23" y="0">ov</tspan><tspan class="m" x="28.103" y="0">e</tspan><tspan class="n" x="36.735" y="0">r</tspan></text><rect class="ae" x="257.75" y="169.75" width="88.5" height="34.5" rx="3.25" ry="3.25"/><path class="b" d="M343,170.5a2.5,2.5,0,0,1,2.5,2.5v28a2.5,2.5,0,0,1-2.5,2.5H261a2.5,2.5,0,0,1-2.5-2.5V173a2.5,2.5,0,0,1,2.5-2.5h82m0-1.5H261a4.012,4.012,0,0,0-4,4v28a4.012,4.012,0,0,0,4,4h82a4.012,4.012,0,0,0,4-4V173a4.012,4.012,0,0,0-4-4Z"/><text class="w" transform="translate(281.064 191.767)"><tspan class="p">D</tspan><tspan class="q" x="10.99" y="0">o</tspan><tspan class="r" x="20.065" y="0">w</tspan><tspan x="32.35" y="0">n</tspan></text><polygon class="s" points="329 150 329 147 328 147 328 145 327 145 327 143 326 143 326 141 325 141 325 140 324 140 324 137 327 137 327 138 328 138 328 129 329 129 329 128 331 128 331 129 332 129 332 133 334 133 334 134 337 134 337 135 339 135 339 136 340 136 340 137 341 137 341 144 340 144 340 147 339 147 339 150 329 150"/><polygon class="t" points="330 149 330 147 329 147 329 145 328 145 328 143 327 143 327 141 326 141 326 140 325 140 325 138 327 138 327 139 328 139 328 142 329 142 329 129 331 129 331 138 332 138 332 134 334 134 334 138 335 138 335 135 337 135 337 139 338 139 338 136 339 136 339 137 340 137 340 144 339 144 339 147 338 147 338 149 330 149"/><rect class="u" x="331" y="140" width="1" height="4"/><rect class="u" x="334" y="140" width="1" height="4"/><rect class="u" x="337" y="140" width="1" height="4"/><rect class="af" x="147" y="278" width="98" height="36" rx="4" ry="4"/><text class="c" transform="translate(167.266 301.311)"><tspan class="d">P</tspan><tspan class="e" x="9.041" y="0">r</tspan><tspan class="f" x="15.482" y="0">i</tspan><tspan class="g" x="19.55" y="0">m</tspan><tspan class="h" x="33.766" y="0">a</tspan><tspan class="i" x="42.369" y="0">r</tspan><tspan x="49.43" y="0">y</tspan></text><rect class="ag" x="147" y="338" width="98" height="36" rx="4" ry="4"/><text class="k" transform="translate(174.399 361.311)">H<tspan class="l" x="11.23" y="0">ov</tspan><tspan class="m" x="28.103" y="0">e</tspan><tspan class="n" x="36.735" y="0">r</tspan></text><rect class="ah" x="147" y="398" width="98" height="36" rx="4" ry="4"/><text class="c" transform="translate(175.065 421.311)"><tspan class="p">D</tspan><tspan class="q" x="10.99" y="0">o</tspan><tspan class="r" x="20.065" y="0">w</tspan><tspan x="32.35" y="0">n</tspan></text><polygon class="s" points="224 379 224 376 223 376 223 374 222 374 222 372 221 372 221 370 220 370 220 369 219 369 219 366 222 366 222 367 223 367 223 358 224 358 224 357 226 357 226 358 227 358 227 362 229 362 229 363 232 363 232 364 234 364 234 365 235 365 235 366 236 366 236 373 235 373 235 376 234 376 234 379 224 379"/><polygon class="t" points="225 378 225 376 224 376 224 374 223 374 223 372 222 372 222 370 221 370 221 369 220 369 220 367 222 367 222 368 223 368 223 371 224 371 224 358 226 358 226 367 227 367 227 363 229 363 229 367 230 367 230 364 232 364 232 368 233 368 233 365 234 365 234 366 235 366 235 373 234 373 234 376 233 376 233 378 225 378"/><rect class="u" x="226" y="369" width="1" height="4"/><rect class="u" x="229" y="369" width="1" height="4"/><rect class="u" x="232" y="369" width="1" height="4"/><rect class="v" x="257.75" y="278.75" width="89.5" height="34.5" rx="3.25" ry="3.25"/><path class="af" d="M344,279.5a2.5,2.5,0,0,1,2.5,2.5v28a2.5,2.5,0,0,1-2.5,2.5H261a2.5,2.5,0,0,1-2.5-2.5V282a2.5,2.5,0,0,1,2.5-2.5h83m0-1.5H261a4.012,4.012,0,0,0-4,4v28a4.012,4.012,0,0,0,4,4h83a4.012,4.012,0,0,0,4-4V282a4.012,4.012,0,0,0-4-4Z"/><text class="ai" transform="translate(277.972 300.767)"><tspan class="x">B</tspan><tspan class="y" x="9.925" y="0">u</tspan><tspan class="z" x="19.416" y="0">t</tspan><tspan class="aa" x="25.657" y="0">t</tspan><tspan class="ab" x="31.431" y="0">o</tspan><tspan x="40.534" y="0">n</tspan></text><rect class="aj" x="257.75" y="338.75" width="89.5" height="34.5" rx="3.25" ry="3.25"/><path class="af" d="M344,339.5a2.5,2.5,0,0,1,2.5,2.5v28a2.5,2.5,0,0,1-2.5,2.5H261a2.5,2.5,0,0,1-2.5-2.5V342a2.5,2.5,0,0,1,2.5-2.5h83m0-1.5H261a4.012,4.012,0,0,0-4,4v28a4.012,4.012,0,0,0,4,4h83a4.012,4.012,0,0,0,4-4V342a4.012,4.012,0,0,0-4-4Z"/><text class="ak" transform="translate(281.398 360.767)">H<tspan class="l" x="11.23" y="0">ov</tspan><tspan class="m" x="28.103" y="0">e</tspan><tspan class="n" x="36.735" y="0">r</tspan></text><rect class="al" x="257.75" y="398.75" width="89.5" height="34.5" rx="3.25" ry="3.25"/><path class="af" d="M344,399.5a2.5,2.5,0,0,1,2.5,2.5v28a2.5,2.5,0,0,1-2.5,2.5H261a2.5,2.5,0,0,1-2.5-2.5V402a2.5,2.5,0,0,1,2.5-2.5h83m0-1.5H261a4.012,4.012,0,0,0-4,4v28a4.012,4.012,0,0,0,4,4h83a4.012,4.012,0,0,0,4-4V402a4.012,4.012,0,0,0-4-4Z"/><text class="ai" transform="translate(282.064 420.767)"><tspan class="p">D</tspan><tspan class="q" x="10.99" y="0">o</tspan><tspan class="r" x="20.065" y="0">w</tspan><tspan x="32.35" y="0">n</tspan></text><polygon class="s" points="329 379 329 376 328 376 328 374 327 374 327 372 326 372 326 370 325 370 325 369 324 369 324 366 327 366 327 367 328 367 328 358 329 358 329 357 331 357 331 358 332 358 332 362 334 362 334 363 337 363 337 364 339 364 339 365 340 365 340 366 341 366 341 373 340 373 340 376 339 376 339 379 329 379"/><polygon class="t" points="330 378 330 376 329 376 329 374 328 374 328 372 327 372 327 370 326 370 326 369 325 369 325 367 327 367 327 368 328 368 328 371 329 371 329 358 331 358 331 367 332 367 332 363 334 363 334 367 335 367 335 364 337 364 337 368 338 368 338 365 339 365 339 366 340 366 340 373 339 373 339 376 338 376 338 378 330 378"/><rect class="u" x="331" y="369" width="1" height="4"/><rect class="u" x="334" y="369" width="1" height="4"/><rect class="u" x="337" y="369" width="1" height="4"/><text class="w" transform="translate(371 71.767)"><tspan class="am">T</tspan><tspan class="m" x="7.351" y="0">e</tspan><tspan class="an" x="15.983" y="0">r</tspan><tspan class="ao" x="22.879" y="0">t</tspan><tspan class="ap" x="28.69" y="0">i</tspan><tspan class="h" x="32.714" y="0">a</tspan><tspan class="i" x="41.317" y="0">r</tspan><tspan x="48.377" y="0">y</tspan></text><text class="aq" transform="translate(371 527.766)"><tspan class="am">T</tspan><tspan class="m" x="7.351" y="0">e</tspan><tspan class="an" x="15.983" y="0">r</tspan><tspan class="ao" x="22.879" y="0">t</tspan><tspan class="ap" x="28.69" y="0">i</tspan><tspan class="h" x="32.714" y="0">a</tspan><tspan class="i" x="41.317" y="0">r</tspan><tspan x="48.377" y="0">y</tspan></text><text class="ar" transform="translate(371 131.767)">H<tspan class="l" x="11.23" y="0">ov</tspan><tspan class="m" x="28.103" y="0">e</tspan><tspan class="n" x="36.735" y="0">r</tspan></text><text class="as" transform="translate(371 191.767)"><tspan class="p">D</tspan><tspan class="q" x="10.99" y="0">o</tspan><tspan class="r" x="20.065" y="0">w</tspan><tspan x="32.35" y="0">n</tspan></text><polygon class="s" points="419 150 419 147 418 147 418 145 417 145 417 143 416 143 416 141 415 141 415 140 414 140 414 137 417 137 417 138 418 138 418 129 419 129 419 128 421 128 421 129 422 129 422 133 424 133 424 134 427 134 427 135 429 135 429 136 430 136 430 137 431 137 431 144 430 144 430 147 429 147 429 150 419 150"/><polygon class="t" points="420 149 420 147 419 147 419 145 418 145 418 143 417 143 417 141 416 141 416 140 415 140 415 138 417 138 417 139 418 139 418 142 419 142 419 129 421 129 421 138 422 138 422 134 424 134 424 138 425 138 425 135 427 135 427 139 428 139 428 136 429 136 429 137 430 137 430 144 429 144 429 147 428 147 428 149 420 149"/><rect class="u" x="421" y="140" width="1" height="4"/><rect class="u" x="424" y="140" width="1" height="4"/><rect class="u" x="427" y="140" width="1" height="4"/><text class="ai" transform="translate(371 300.767)"><tspan class="am">T</tspan><tspan class="m" x="7.351" y="0">e</tspan><tspan class="an" x="15.983" y="0">r</tspan><tspan class="ao" x="22.879" y="0">t</tspan><tspan class="ap" x="28.69" y="0">i</tspan><tspan class="h" x="32.714" y="0">a</tspan><tspan class="i" x="41.317" y="0">r</tspan><tspan x="48.377" y="0">y</tspan></text><text class="at" transform="translate(371 360.767)">H<tspan class="l" x="11.23" y="0">ov</tspan><tspan class="m" x="28.103" y="0">e</tspan><tspan class="n" x="36.735" y="0">r</tspan></text><text class="au" transform="translate(371 420.767)"><tspan class="p">D</tspan><tspan class="q" x="10.99" y="0">o</tspan><tspan class="r" x="20.065" y="0">w</tspan><tspan x="32.35" y="0">n</tspan></text><rect class="av" x="147" y="613" width="28" height="28" rx="4" ry="4"/><rect class="aw" x="147" y="665" width="28" height="28" rx="4" ry="4"/><rect class="ax" x="147" y="717" width="28" height="28" rx="4" ry="4"/><polygon class="ay" points="160 621 162 621 162 626 167 626 167 628 162 628 162 633 160 633 160 628 155 628 155 626 160 626 160 621"/><polygon class="ay" points="160 673 162 673 162 678 167 678 167 680 162 680 162 685 160 685 160 680 155 680 155 678 160 678 160 673"/><polygon class="ay" points="160 725 162 725 162 730 167 730 167 732 162 732 162 737 160 737 160 732 155 732 155 730 160 730 160 725"/><polygon class="s" points="171 704 171 701 170 701 170 699 169 699 169 697 168 697 168 695 167 695 167 694 166 694 166 691 169 691 169 692 170 692 170 683 171 683 171 682 173 682 173 683 174 683 174 687 176 687 176 688 179 688 179 689 181 689 181 690 182 690 182 691 183 691 183 698 182 698 182 701 181 701 181 704 171 704"/><polygon class="t" points="172 703 172 701 171 701 171 699 170 699 170 697 169 697 169 695 168 695 168 694 167 694 167 692 169 692 169 693 170 693 170 696 171 696 171 683 173 683 173 692 174 692 174 688 176 688 176 692 177 692 177 689 179 689 179 693 180 693 180 690 181 690 181 691 182 691 182 698 181 698 181 701 180 701 180 703 172 703"/><rect class="u" x="173" y="694" width="1" height="4"/><rect class="u" x="176" y="694" width="1" height="4"/><rect class="u" x="179" y="694" width="1" height="4"/><rect class="az" x="371" y="619" width="16" height="16"/><path class="ba" d="M387,627a8,8,0,1,1-8-8A8,8,0,0,1,387,627Zm-1,0a7,7,0,1,0-7,7A7,7,0,0,0,386,627Z"/><polygon class="ba" points="378 622 380 622 380 626 384 626 384 628 380 628 380 632 378 632 378 628 374 628 374 626 378 626 378 622"/><rect class="bb" x="147" y="505" width="98" height="36" rx="4" ry="4"/><text class="c" transform="translate(167.264 527.767)"><tspan class="d">P</tspan><tspan class="e" x="9.041" y="0">r</tspan><tspan class="f" x="15.482" y="0">i</tspan><tspan class="g" x="19.55" y="0">m</tspan><tspan class="h" x="33.766" y="0">a</tspan><tspan class="i" x="42.369" y="0">r</tspan><tspan x="49.43" y="0">y</tspan></text><rect class="v" x="257.75" y="505.75" width="89.5" height="34.5" rx="3.25" ry="3.25"/><path class="bb" d="M344,506.5a2.5,2.5,0,0,1,2.5,2.5v28a2.5,2.5,0,0,1-2.5,2.5H261a2.5,2.5,0,0,1-2.5-2.5V509a2.5,2.5,0,0,1,2.5-2.5h83m0-1.5H261a4.012,4.012,0,0,0-4,4v28a4.012,4.012,0,0,0,4,4h83a4.012,4.012,0,0,0,4-4V509a4.012,4.012,0,0,0-4-4Z"/><text class="aq" transform="translate(277.972 527.767)"><tspan class="x">B</tspan><tspan class="y" x="9.925" y="0">u</tspan><tspan class="z" x="19.416" y="0">t</tspan><tspan class="aa" x="25.657" y="0">t</tspan><tspan class="ab" x="31.431" y="0">o</tspan><tspan x="40.534" y="0">n</tspan></text><polygon class="s" points="419 379 419 376 418 376 418 374 417 374 417 372 416 372 416 370 415 370 415 369 414 369 414 366 417 366 417 367 418 367 418 358 419 358 419 357 421 357 421 358 422 358 422 362 424 362 424 363 427 363 427 364 429 364 429 365 430 365 430 366 431 366 431 373 430 373 430 376 429 376 429 379 419 379"/><polygon class="t" points="420 378 420 376 419 376 419 374 418 374 418 372 417 372 417 370 416 370 416 369 415 369 415 367 417 367 417 368 418 368 418 371 419 371 419 358 421 358 421 367 422 367 422 363 424 363 424 367 425 367 425 364 427 364 427 368 428 368 428 365 429 365 429 366 430 366 430 373 429 373 429 376 428 376 428 378 420 378"/><rect class="u" x="421" y="369" width="1" height="4"/><rect class="u" x="424" y="369" width="1" height="4"/><rect class="u" x="427" y="369" width="1" height="4"/><rect class="bc" x="98" y="37" width="1" height="180"/><text class="bd" transform="translate(43.621 132.331)"><tspan class="be">G</tspan><tspan class="bf" x="9.426" y="0">R</tspan><tspan class="bg" x="17.822" y="0">EE</tspan><tspan x="32.198" y="0">N</tspan></text><rect class="bc" x="98" y="265" width="1" height="180"/><text class="bd" transform="translate(53.685 360.331)"><tspan class="bh">B</tspan><tspan class="bi" x="8.594" y="0">L</tspan><tspan class="bj" x="15.455" y="0">U</tspan><tspan x="25.059" y="0">E</tspan></text><rect class="bc" x="98" y="601" width="1" height="156"/><text class="bd" transform="translate(53.764 682.963)"><tspan class="bk">I</tspan><tspan class="bl" x="3.94" y="0">C</tspan><tspan class="bm" x="11.858" y="0">O</tspan><tspan x="22.054" y="0">N</tspan></text><text class="bd" transform="translate(147 12.077)"><tspan class="bn">R</tspan><tspan class="bo" x="9.007" y="0">A</tspan><tspan class="bp" x="17.754" y="0">I</tspan><tspan class="bq" x="21.788" y="0">S</tspan><tspan class="bg" x="28.916" y="0">E</tspan><tspan x="36.103" y="0">D</tspan></text><text class="bd" transform="translate(371 12.077)"><tspan class="br">F</tspan><tspan class="bs" x="6.842" y="0">L</tspan><tspan class="bt" x="14.464" y="0">A</tspan><tspan x="22.363" y="0">T</tspan></text><rect class="bc" x="98" y="493" width="1" height="60"/><text class="bd" transform="translate(24.09 528)"><tspan class="bu">D</tspan><tspan class="bp" x="9.494" y="0">I</tspan><tspan class="bv" x="13.527" y="0">SA</tspan><tspan class="bh" x="29.579" y="0">B</tspan><tspan class="bm" x="38.173" y="0">L</tspan><tspan class="bg" x="45.182" y="0">E</tspan><tspan x="52.37" y="0">D</tspan></text><rect class="az" width="600" height="769"/></svg>