<svg xmlns="http://www.w3.org/2000/svg" width="662" height="100" viewBox="0 0 662 100"><defs><style>.a{fill:#fafafa;}.b,.t{font-size:15px;}.b,.s{fill:#ccc;}.aj,.b,.t{font-family:OpenSans-Semibold, Open Sans;font-weight:700;}.c{letter-spacing:-0.003em;}.d{letter-spacing:0em;}.e{letter-spacing:0.005em;}.f{letter-spacing:-0.007em;}.g{letter-spacing:-0.001em;}.h{letter-spacing:-0.003em;}.i{letter-spacing:0.004em;}.j{letter-spacing:0.036em;}.k{letter-spacing:-0.076em;}.l{letter-spacing:-0.001em;}.m{letter-spacing:0.029em;}.n{letter-spacing:-0.006em;}.o{letter-spacing:-0.011em;}.p{letter-spacing:0.04em;}.q{letter-spacing:-0.006em;}.r{letter-spacing:0em;}.aa,.t{fill:#fff;}.u{letter-spacing:-0.004em;}.v{letter-spacing:-0.013em;}.w{letter-spacing:-0.002em;}.x{letter-spacing:-0.008em;}.y{letter-spacing:-0.008em;}.z{letter-spacing:0.039em;}.ab{letter-spacing:-0.003em;}.ac{letter-spacing:0.001em;}.ad{letter-spacing:-0.002em;}.ae{letter-spacing:0.023em;}.af{letter-spacing:-0.004em;}.ag{letter-spacing:-0.039em;}.ah{letter-spacing:0em;}.ai,.aj{fill:#ff8300;}.aj{font-size:13px;}.ak{letter-spacing:-0.004em;}.al{letter-spacing:0.005em;}.am{letter-spacing:0.012em;}.an{letter-spacing:0.001em;}.ao{letter-spacing:-0.003em;}.ap{letter-spacing:-0.005em;}</style></defs><title>button_03</title><rect class="a" width="662" height="100"/><text class="b" transform="translate(497.549 53.767)"><tspan class="c">D</tspan><tspan class="d" x="10.957" y="0">i</tspan><tspan class="e" x="15.132" y="0">s</tspan><tspan class="f" x="22.517" y="0">a</tspan><tspan class="g" x="31.12" y="0">b</tspan><tspan class="h" x="40.449" y="0">l</tspan><tspan class="i" x="44.59" y="0">e</tspan><tspan x="53.288" y="0">d </tspan><tspan class="j" x="66.53" y="0">(</tspan><tspan class="k" x="71.826" y="0">T</tspan><tspan class="l" x="79.177" y="0">e</tspan><tspan class="m" x="87.811" y="0">r</tspan><tspan class="n" x="94.705" y="0">t</tspan><tspan class="o" x="100.517" y="0">i</tspan><tspan class="f" x="104.54" y="0">a</tspan><tspan class="p" x="113.144" y="0">r</tspan><tspan class="q" x="120.203" y="0">y</tspan><tspan class="r" x="128.149" y="0">)</tspan></text><rect class="s" x="123" y="31" width="174" height="36" rx="4" ry="4"/><text class="t" transform="translate(143.324 53.767)"><tspan class="c">D</tspan><tspan class="d" x="10.957" y="0">i</tspan><tspan class="e" x="15.132" y="0">s</tspan><tspan class="f" x="22.517" y="0">a</tspan><tspan class="g" x="31.12" y="0">b</tspan><tspan class="h" x="40.449" y="0">l</tspan><tspan class="i" x="44.59" y="0">e</tspan><tspan x="53.288" y="0">d </tspan><tspan class="u" x="66.53" y="0">(</tspan><tspan class="v" x="71.224" y="0">P</tspan><tspan class="w" x="80.265" y="0">r</tspan><tspan class="x" x="86.706" y="0">i</tspan><tspan class="y" x="90.772" y="0">m</tspan><tspan class="f" x="104.989" y="0">a</tspan><tspan class="z" x="113.593" y="0">r</tspan><tspan class="q" x="120.652" y="0">y</tspan><tspan x="128.599" y="0">)</tspan></text><rect class="aa" x="307.75" y="31.75" width="164.5" height="34.5" rx="3.25" ry="3.25"/><path class="s" d="M469,32.5a2.5,2.5,0,0,1,2.5,2.5V63a2.5,2.5,0,0,1-2.5,2.5H311a2.5,2.5,0,0,1-2.5-2.5V35a2.5,2.5,0,0,1,2.5-2.5H469m0-1.5H311a4.012,4.012,0,0,0-4,4V63a4.012,4.012,0,0,0,4,4H469a4.012,4.012,0,0,0,4-4V35a4.012,4.012,0,0,0-4-4Z"/><text class="b" transform="translate(327.274 53.767)"><tspan class="ab">D</tspan><tspan class="d" x="10.957" y="0">i</tspan><tspan class="e" x="15.132" y="0">s</tspan><tspan class="f" x="22.517" y="0">a</tspan><tspan class="g" x="31.12" y="0">b</tspan><tspan class="h" x="40.449" y="0">l</tspan><tspan class="i" x="44.59" y="0">e</tspan><tspan x="53.288" y="0">d </tspan><tspan class="u" x="66.53" y="0">(</tspan><tspan class="ac" x="71.224" y="0">B</tspan><tspan class="ad" x="81.148" y="0">u</tspan><tspan class="ae" x="90.64" y="0">t</tspan><tspan class="y" x="96.881" y="0">t</tspan><tspan class="af" x="102.653" y="0">o</tspan><tspan class="ag" x="111.758" y="0">n</tspan><tspan class="ah" x="120.697" y="0">)</tspan></text><rect class="ai" x="89" y="21" width="1" height="59.767"/><text class="aj" transform="translate(15.09 56)"><tspan class="ak">D</tspan><tspan class="al" x="9.494" y="0">I</tspan><tspan class="am" x="13.527" y="0">SA</tspan><tspan class="an" x="29.579" y="0">B</tspan><tspan class="ao" x="38.173" y="0">L</tspan><tspan class="ap" x="45.182" y="0">E</tspan><tspan x="52.37" y="0">D</tspan></text></svg>