<svg xmlns="http://www.w3.org/2000/svg" width="632" height="168" viewBox="0 0 632 168"><defs><style>.a{fill:#fafafa;}.b,.j,.m,.t,.u,.v{font-size:15px;}.b{fill:#26b910;}.b,.j,.m,.t,.u,.v,.w{font-family:OpenSans-Semibold, Open Sans;font-weight:700;}.c{letter-spacing:-0.076em;}.d{letter-spacing:-0.001em;}.e{letter-spacing:0.029em;}.f{letter-spacing:-0.006em;}.g{letter-spacing:-0.011em;}.h{letter-spacing:-0.007em;}.i{letter-spacing:0.04em;}.j{fill:#1d8d0c;}.j,.u{letter-spacing:-0.002em;}.k{letter-spacing:-0.011em;}.l{letter-spacing:0em;}.m{fill:#135807;}.n{letter-spacing:-0.001em;}.o{letter-spacing:-0.006em;}.p{letter-spacing:0.002em;}.q,.s{fill:#272525;}.q,.r{fill-rule:evenodd;}.r{fill:#fff;}.t{fill:#0098f3;}.u{fill:#007bc4;}.v{fill:#00568a;}.w{font-size:13px;fill:#ff8300;}.x{letter-spacing:-0.006em;}.y{letter-spacing:0.044em;}.z{letter-spacing:-0.054em;}</style></defs><title>button_02</title><rect class="a" width="632" height="168"/><text class="b" transform="translate(155.791 46.767)"><tspan class="c">T</tspan><tspan class="d" x="7.351" y="0">e</tspan><tspan class="e" x="15.983" y="0">r</tspan><tspan class="f" x="22.879" y="0">t</tspan><tspan class="g" x="28.69" y="0">i</tspan><tspan class="h" x="32.714" y="0">a</tspan><tspan class="i" x="41.317" y="0">r</tspan><tspan x="48.377" y="0">y</tspan></text><text class="j" transform="translate(162.399 88.767)">H<tspan class="k" x="11.23" y="0">ov</tspan><tspan class="d" x="28.103" y="0">e</tspan><tspan class="l" x="36.735" y="0">r</tspan></text><text class="m" transform="translate(163.065 130.767)"><tspan class="n">D</tspan><tspan class="o" x="10.99" y="0">o</tspan><tspan class="p" x="20.065" y="0">w</tspan><tspan x="32.35" y="0">n</tspan></text><polygon class="q" points="196 105 196 102 195 102 195 100 194 100 194 98 193 98 193 96 192 96 192 95 191 95 191 92 194 92 194 93 195 93 195 84 196 84 196 83 198 83 198 84 199 84 199 88 201 88 201 89 204 89 204 90 206 90 206 91 207 91 207 92 208 92 208 99 207 99 207 102 206 102 206 105 196 105"/><polygon class="r" points="197 104 197 102 196 102 196 100 195 100 195 98 194 98 194 96 193 96 193 95 192 95 192 93 194 93 194 94 195 94 195 97 196 97 196 84 198 84 198 93 199 93 199 89 201 89 201 93 202 93 202 90 204 90 204 94 205 94 205 91 206 91 206 92 207 92 207 99 206 99 206 102 205 102 205 104 197 104"/><rect class="s" x="198" y="95" width="1" height="4"/><rect class="s" x="201" y="95" width="1" height="4"/><rect class="s" x="204" y="95" width="1" height="4"/><text class="t" transform="translate(403.791 46.767)"><tspan class="c">T</tspan><tspan class="d" x="7.351" y="0">e</tspan><tspan class="e" x="15.983" y="0">r</tspan><tspan class="f" x="22.879" y="0">t</tspan><tspan class="g" x="28.69" y="0">i</tspan><tspan class="h" x="32.714" y="0">a</tspan><tspan class="i" x="41.317" y="0">r</tspan><tspan x="48.377" y="0">y</tspan></text><text class="u" transform="translate(410.399 88.767)">H<tspan class="k" x="11.23" y="0">ov</tspan><tspan class="d" x="28.103" y="0">e</tspan><tspan class="l" x="36.735" y="0">r</tspan></text><text class="v" transform="translate(411.065 130.767)"><tspan class="n">D</tspan><tspan class="o" x="10.99" y="0">o</tspan><tspan class="p" x="20.065" y="0">w</tspan><tspan x="32.35" y="0">n</tspan></text><polygon class="q" points="444 105 444 102 443 102 443 100 442 100 442 98 441 98 441 96 440 96 440 95 439 95 439 92 442 92 442 93 443 93 443 84 444 84 444 83 446 83 446 84 447 84 447 88 449 88 449 89 452 89 452 90 454 90 454 91 455 91 455 92 456 92 456 99 455 99 455 102 454 102 454 105 444 105"/><polygon class="r" points="445 104 445 102 444 102 444 100 443 100 443 98 442 98 442 96 441 96 441 95 440 95 440 93 442 93 442 94 443 94 443 97 444 97 444 84 446 84 446 93 447 93 447 89 449 89 449 93 450 93 450 90 452 90 452 94 453 94 453 91 454 91 454 92 455 92 455 99 454 99 454 102 453 102 453 104 445 104"/><rect class="s" x="446" y="95" width="1" height="4"/><rect class="s" x="449" y="95" width="1" height="4"/><rect class="s" x="452" y="95" width="1" height="4"/><text class="w" transform="translate(44.28 88.766)"><tspan class="x">F</tspan><tspan class="y" x="6.842" y="0">L</tspan><tspan class="z" x="14.464" y="0">A</tspan><tspan x="22.363" y="0">T</tspan></text></svg>