<svg xmlns="http://www.w3.org/2000/svg" width="662" height="164" viewBox="0 0 662 164"><defs><style>.a{fill:#fafafa;}.b,.j,.m,.t,.u,.v{font-size:15px;}.b{fill:#26b910;}.b,.j,.m,.t,.u,.v,.x{font-family:OpenSans-Semibold, Open Sans;font-weight:700;}.c{letter-spacing:-0.076em;}.d{letter-spacing:-0.001em;}.e{letter-spacing:0.029em;}.f{letter-spacing:-0.006em;}.g{letter-spacing:-0.011em;}.h{letter-spacing:-0.007em;}.i{letter-spacing:0.04em;}.j{fill:#1d8d0c;}.j,.u{letter-spacing:-0.002em;}.k{letter-spacing:-0.011em;}.l{letter-spacing:0em;}.m{fill:#135807;}.n{letter-spacing:-0.001em;}.o{letter-spacing:-0.006em;}.p{letter-spacing:0.002em;}.q,.s{fill:#272525;}.q,.r{fill-rule:evenodd;}.r{fill:#fff;}.t{fill:#0098f3;}.u{fill:#007bc4;}.v{fill:#00568a;}.w,.x{fill:#ff8300;}.x{font-size:13px;}.y{letter-spacing:-0.006em;}.z{letter-spacing:0.044em;}.aa{letter-spacing:-0.054em;}</style></defs><title>button_02</title><rect class="a" width="662" height="164"/><text class="b" transform="translate(144.791 46.767)"><tspan class="c">T</tspan><tspan class="d" x="7.351" y="0">e</tspan><tspan class="e" x="15.983" y="0">r</tspan><tspan class="f" x="22.879" y="0">t</tspan><tspan class="g" x="28.69" y="0">i</tspan><tspan class="h" x="32.714" y="0">a</tspan><tspan class="i" x="41.317" y="0">r</tspan><tspan x="48.377" y="0">y</tspan></text><text class="j" transform="translate(151.399 88.767)">H<tspan class="k" x="11.23" y="0">ov</tspan><tspan class="d" x="28.103" y="0">e</tspan><tspan class="l" x="36.735" y="0">r</tspan></text><text class="m" transform="translate(152.065 130.767)"><tspan class="n">D</tspan><tspan class="o" x="10.99" y="0">o</tspan><tspan class="p" x="20.065" y="0">w</tspan><tspan x="32.35" y="0">n</tspan></text><polygon class="q" points="179 107 179 104 178 104 178 102 177 102 177 100 176 100 176 98 175 98 175 97 174 97 174 94 177 94 177 95 178 95 178 86 179 86 179 85 181 85 181 86 182 86 182 90 184 90 184 91 187 91 187 92 189 92 189 93 190 93 190 94 191 94 191 101 190 101 190 104 189 104 189 107 179 107"/><polygon class="r" points="180 106 180 104 179 104 179 102 178 102 178 100 177 100 177 98 176 98 176 97 175 97 175 95 177 95 177 96 178 96 178 99 179 99 179 86 181 86 181 95 182 95 182 91 184 91 184 95 185 95 185 92 187 92 187 96 188 96 188 93 189 93 189 94 190 94 190 101 189 101 189 104 188 104 188 106 180 106"/><rect class="s" x="181" y="97" width="1" height="4"/><rect class="s" x="184" y="97" width="1" height="4"/><rect class="s" x="187" y="97" width="1" height="4"/><polygon class="q" points="450 109 450 106 449 106 449 104 448 104 448 102 447 102 447 100 446 100 446 99 445 99 445 96 448 96 448 97 449 97 449 88 450 88 450 87 452 87 452 88 453 88 453 92 455 92 455 93 458 93 458 94 460 94 460 95 461 95 461 96 462 96 462 103 461 103 461 106 460 106 460 109 450 109"/><polygon class="r" points="451 108 451 106 450 106 450 104 449 104 449 102 448 102 448 100 447 100 447 99 446 99 446 97 448 97 448 98 449 98 449 101 450 101 450 88 452 88 452 97 453 97 453 93 455 93 455 97 456 97 456 94 458 94 458 98 459 98 459 95 460 95 460 96 461 96 461 103 460 103 460 106 459 106 459 108 451 108"/><rect class="s" x="452" y="99" width="1" height="4"/><rect class="s" x="455" y="99" width="1" height="4"/><rect class="s" x="458" y="99" width="1" height="4"/><text class="t" transform="translate(416.79 50.767)"><tspan class="c">T</tspan><tspan class="d" x="7.351" y="0">e</tspan><tspan class="e" x="15.983" y="0">r</tspan><tspan class="f" x="22.879" y="0">t</tspan><tspan class="g" x="28.69" y="0">i</tspan><tspan class="h" x="32.714" y="0">a</tspan><tspan class="i" x="41.317" y="0">r</tspan><tspan x="48.377" y="0">y</tspan></text><text class="u" transform="translate(423.398 90.767)">H<tspan class="k" x="11.23" y="0">ov</tspan><tspan class="d" x="28.103" y="0">e</tspan><tspan class="l" x="36.735" y="0">r</tspan></text><text class="v" transform="translate(424.064 130.767)"><tspan class="n">D</tspan><tspan class="o" x="10.99" y="0">o</tspan><tspan class="p" x="20.065" y="0">w</tspan><tspan x="32.35" y="0">n</tspan></text><rect class="w" x="89" y="24" width="1" height="117"/><text class="x" transform="translate(47.28 90.766)"><tspan class="y">F</tspan><tspan class="z" x="6.842" y="0">L</tspan><tspan class="aa" x="14.464" y="0">A</tspan><tspan x="22.363" y="0">T</tspan></text></svg>