<svg xmlns="http://www.w3.org/2000/svg" width="520" height="1076" viewBox="0 0 520 1076"><defs><style>.a{fill:#f5f9fc;}.ad,.b,.dk,.w{fill:#26b810;}.ad,.ai,.ak,.aq,.ar,.as,.at,.au,.av,.c,.k,.w{font-size:15px;}.bd,.c,.dj,.k,.t,.v{fill:#fff;}.ad,.ai,.ak,.aq,.ar,.as,.at,.au,.av,.bd,.bo,.bw,.c,.ct,.k,.w{font-family:OpenSans-Semibold, Open Sans;font-weight:700;}.d{letter-spacing:-0.013em;}.e{letter-spacing:-0.002em;}.f{letter-spacing:-0.008em;}.g{letter-spacing:-0.008em;}.h{letter-spacing:-0.007em;}.i{letter-spacing:0.04em;}.ar,.j{fill:#1d8c0c;}.ad,.ak,.ar,.au,.k{letter-spacing:-0.002em;}.l{letter-spacing:-0.011em;}.m{letter-spacing:-0.001em;}.n{letter-spacing:0em;}.as,.o{fill:#135807;}.p{letter-spacing:-0.001em;}.q{letter-spacing:-0.006em;}.r{letter-spacing:0.002em;}.s,.u{fill:#272525;}.az,.bb,.dk,.dm,.s,.t{fill-rule:evenodd;}.x{letter-spacing:0.001em;}.y{letter-spacing:-0.002em;}.z{letter-spacing:0.023em;}.aa{letter-spacing:-0.008em;}.ab{letter-spacing:-0.004em;}.ac{fill:#cff6cb;}.ae{fill:#b5edae;}.af,.ai,.ak{fill:#0097f2;}.ag,.au{fill:#007bc3;}.ah,.av{fill:#005689;}.aj{fill:#d3edfc;}.al{fill:#b3dffb;}.am{letter-spacing:-0.076em;}.an{letter-spacing:0.029em;}.ao{letter-spacing:-0.006em;}.ap{letter-spacing:-0.011em;}.aq,.bc{fill:#d4d6da;}.at,.dl,.dm{fill:#0098f3;}.aw,.bb,.bo{fill:#354052;}.ax{fill:#151921;}.ay{fill:#828e92;}.az{fill:#ecedef;}.ba{fill:none;}.bd,.bo,.ct{font-size:13px;}.be{letter-spacing:-0.075em;}.bf{letter-spacing:-0.001em;}.bg{letter-spacing:-0.002em;}.bh{letter-spacing:-0.007em;}.bi{letter-spacing:-0.002em;}.bj{letter-spacing:-0.006em;}.bk{letter-spacing:-0.01em;}.bl{letter-spacing:0em;}.bm{letter-spacing:-0.005em;}.bn{letter-spacing:0.003em;}.bp{letter-spacing:-0.075em;}.bq{letter-spacing:0.029em;}.br{letter-spacing:-0.005em;}.bs{letter-spacing:-0.006em;}.bt{letter-spacing:0.04em;}.bu{letter-spacing:-0.01em;}.bv,.bw,.ct{fill:#989ea7;}.bw{font-size:11px;}.bx{letter-spacing:0.004em;}.by{letter-spacing:0.012em;}.bz{letter-spacing:0.006em;}.ca{letter-spacing:-0.01em;}.cb{letter-spacing:0.04em;}.cc{letter-spacing:0.009em;}.cd{letter-spacing:0.005em;}.ce{letter-spacing:0.002em;}.cf{letter-spacing:0.002em;}.cg{letter-spacing:0.006em;}.ch{letter-spacing:-0.009em;}.ci{letter-spacing:0.002em;}.cj{letter-spacing:0.016em;}.ck{letter-spacing:-0.029em;}.cl{letter-spacing:0.063em;}.cm{letter-spacing:0.041em;}.cn{letter-spacing:-0.004em;}.co{letter-spacing:0.005em;}.cp{letter-spacing:0.01em;}.cq{letter-spacing:0.016em;}.cr{letter-spacing:0.003em;}.cs{letter-spacing:-0.019em;}.cu{letter-spacing:0.054em;}.cv{letter-spacing:0.012em;}.cw{letter-spacing:0.005em;}.cx{letter-spacing:-0.002em;}.cy{letter-spacing:-0.005em;}.cz{letter-spacing:-0.006em;}.da{letter-spacing:0.044em;}.db{letter-spacing:-0.054em;}.dc{letter-spacing:0.002em;}.dd{letter-spacing:0.01em;}.de{letter-spacing:0.017em;}.df{letter-spacing:0.002em;}.dg{letter-spacing:0.004em;}.dh{letter-spacing:-0.008em;}.di{letter-spacing:0.009em;}.dj{opacity:0.5;}</style></defs><title>button_01</title><rect class="a" y="28" width="520" height="180"/><rect class="a" y="231" width="520" height="180"/><rect class="a" y="435" width="520" height="156"/><rect class="a" y="615" width="520" height="84"/><rect class="a" y="723" width="520" height="156"/><rect class="a" y="904" width="520" height="172"/><rect class="b" x="147" y="51" width="98" height="36" rx="4" ry="4"/><text class="c" transform="translate(167.265 74.311)"><tspan class="d">P</tspan><tspan class="e" x="9.041" y="0">r</tspan><tspan class="f" x="15.482" y="0">i</tspan><tspan class="g" x="19.55" y="0">m</tspan><tspan class="h" x="33.766" y="0">a</tspan><tspan class="i" x="42.369" y="0">r</tspan><tspan x="49.43" y="0">y</tspan></text><rect class="j" x="147" y="99" width="98" height="36" rx="4" ry="4"/><text class="k" transform="translate(174.398 122.311)">H<tspan class="l" x="11.23" y="0">ov</tspan><tspan class="m" x="28.103" y="0">e</tspan><tspan class="n" x="36.735" y="0">r</tspan></text><rect class="o" x="147" y="147" width="98" height="36" rx="4" ry="4"/><text class="c" transform="translate(175.064 170.311)"><tspan class="p">D</tspan><tspan class="q" x="10.99" y="0">o</tspan><tspan class="r" x="20.065" y="0">w</tspan><tspan x="32.35" y="0">n</tspan></text><polygon class="s" points="224 140 224 137 223 137 223 135 222 135 222 133 221 133 221 131 220 131 220 130 219 130 219 127 222 127 222 128 223 128 223 119 224 119 224 118 226 118 226 119 227 119 227 123 229 123 229 124 232 124 232 125 234 125 234 126 235 126 235 127 236 127 236 134 235 134 235 137 234 137 234 140 224 140"/><polygon class="t" points="225 139 225 137 224 137 224 135 223 135 223 133 222 133 222 131 221 131 221 130 220 130 220 128 222 128 222 129 223 129 223 132 224 132 224 119 226 119 226 128 227 128 227 124 229 124 229 128 230 128 230 125 232 125 232 129 233 129 233 126 234 126 234 127 235 127 235 134 234 134 234 137 233 137 233 139 225 139"/><rect class="u" x="226" y="130" width="1" height="4"/><rect class="u" x="229" y="130" width="1" height="4"/><rect class="u" x="232" y="130" width="1" height="4"/><rect class="v" x="257.75" y="51.75" width="88.5" height="34.5" rx="3.25" ry="3.25"/><path class="b" d="M343,52.5a2.5,2.5,0,0,1,2.5,2.5V83a2.5,2.5,0,0,1-2.5,2.5H261a2.5,2.5,0,0,1-2.5-2.5V55a2.5,2.5,0,0,1,2.5-2.5h82m0-1.5H261a4.012,4.012,0,0,0-4,4V83a4.012,4.012,0,0,0,4,4h82a4.012,4.012,0,0,0,4-4V55a4.012,4.012,0,0,0-4-4Z"/><text class="w" transform="translate(276.972 73.767)"><tspan class="x">B</tspan><tspan class="y" x="9.925" y="0">u</tspan><tspan class="z" x="19.416" y="0">t</tspan><tspan class="aa" x="25.657" y="0">t</tspan><tspan class="ab" x="31.431" y="0">o</tspan><tspan x="40.534" y="0">n</tspan></text><rect class="ac" x="257.75" y="99.75" width="88.5" height="34.5" rx="3.25" ry="3.25"/><path class="b" d="M343,100.5a2.5,2.5,0,0,1,2.5,2.5v28a2.5,2.5,0,0,1-2.5,2.5H261a2.5,2.5,0,0,1-2.5-2.5V103a2.5,2.5,0,0,1,2.5-2.5h82m0-1.5H261a4.012,4.012,0,0,0-4,4v28a4.012,4.012,0,0,0,4,4h82a4.012,4.012,0,0,0,4-4V103a4.012,4.012,0,0,0-4-4Z"/><text class="ad" transform="translate(280.398 121.767)">H<tspan class="l" x="11.23" y="0">ov</tspan><tspan class="m" x="28.103" y="0">e</tspan><tspan class="n" x="36.735" y="0">r</tspan></text><rect class="ae" x="257.75" y="147.75" width="88.5" height="34.5" rx="3.25" ry="3.25"/><path class="b" d="M343,148.5a2.5,2.5,0,0,1,2.5,2.5v28a2.5,2.5,0,0,1-2.5,2.5H261a2.5,2.5,0,0,1-2.5-2.5V151a2.5,2.5,0,0,1,2.5-2.5h82m0-1.5H261a4.012,4.012,0,0,0-4,4v28a4.012,4.012,0,0,0,4,4h82a4.012,4.012,0,0,0,4-4V151a4.012,4.012,0,0,0-4-4Z"/><text class="w" transform="translate(281.064 169.767)"><tspan class="p">D</tspan><tspan class="q" x="10.99" y="0">o</tspan><tspan class="r" x="20.065" y="0">w</tspan><tspan x="32.35" y="0">n</tspan></text><polygon class="s" points="329 140 329 137 328 137 328 135 327 135 327 133 326 133 326 131 325 131 325 130 324 130 324 127 327 127 327 128 328 128 328 119 329 119 329 118 331 118 331 119 332 119 332 123 334 123 334 124 337 124 337 125 339 125 339 126 340 126 340 127 341 127 341 134 340 134 340 137 339 137 339 140 329 140"/><polygon class="t" points="330 139 330 137 329 137 329 135 328 135 328 133 327 133 327 131 326 131 326 130 325 130 325 128 327 128 327 129 328 129 328 132 329 132 329 119 331 119 331 128 332 128 332 124 334 124 334 128 335 128 335 125 337 125 337 129 338 129 338 126 339 126 339 127 340 127 340 134 339 134 339 137 338 137 338 139 330 139"/><rect class="u" x="331" y="130" width="1" height="4"/><rect class="u" x="334" y="130" width="1" height="4"/><rect class="u" x="337" y="130" width="1" height="4"/><rect class="af" x="147" y="256" width="98" height="36" rx="4" ry="4"/><text class="c" transform="translate(167.266 279.311)"><tspan class="d">P</tspan><tspan class="e" x="9.041" y="0">r</tspan><tspan class="f" x="15.482" y="0">i</tspan><tspan class="g" x="19.55" y="0">m</tspan><tspan class="h" x="33.766" y="0">a</tspan><tspan class="i" x="42.369" y="0">r</tspan><tspan x="49.43" y="0">y</tspan></text><rect class="ag" x="147" y="304" width="98" height="36" rx="4" ry="4"/><text class="k" transform="translate(174.399 327.311)">H<tspan class="l" x="11.23" y="0">ov</tspan><tspan class="m" x="28.103" y="0">e</tspan><tspan class="n" x="36.735" y="0">r</tspan></text><rect class="ah" x="147" y="352" width="98" height="36" rx="4" ry="4"/><text class="c" transform="translate(175.065 375.311)"><tspan class="p">D</tspan><tspan class="q" x="10.99" y="0">o</tspan><tspan class="r" x="20.065" y="0">w</tspan><tspan x="32.35" y="0">n</tspan></text><polygon class="s" points="224 345 224 342 223 342 223 340 222 340 222 338 221 338 221 336 220 336 220 335 219 335 219 332 222 332 222 333 223 333 223 324 224 324 224 323 226 323 226 324 227 324 227 328 229 328 229 329 232 329 232 330 234 330 234 331 235 331 235 332 236 332 236 339 235 339 235 342 234 342 234 345 224 345"/><polygon class="t" points="225 344 225 342 224 342 224 340 223 340 223 338 222 338 222 336 221 336 221 335 220 335 220 333 222 333 222 334 223 334 223 337 224 337 224 324 226 324 226 333 227 333 227 329 229 329 229 333 230 333 230 330 232 330 232 334 233 334 233 331 234 331 234 332 235 332 235 339 234 339 234 342 233 342 233 344 225 344"/><rect class="u" x="226" y="335" width="1" height="4"/><rect class="u" x="229" y="335" width="1" height="4"/><rect class="u" x="232" y="335" width="1" height="4"/><rect class="v" x="257.75" y="256.75" width="89.5" height="34.5" rx="3.25" ry="3.25"/><path class="af" d="M344,257.5a2.5,2.5,0,0,1,2.5,2.5v28a2.5,2.5,0,0,1-2.5,2.5H261a2.5,2.5,0,0,1-2.5-2.5V260a2.5,2.5,0,0,1,2.5-2.5h83m0-1.5H261a4.012,4.012,0,0,0-4,4v28a4.012,4.012,0,0,0,4,4h83a4.012,4.012,0,0,0,4-4V260a4.012,4.012,0,0,0-4-4Z"/><text class="ai" transform="translate(277.972 278.767)"><tspan class="x">B</tspan><tspan class="y" x="9.925" y="0">u</tspan><tspan class="z" x="19.416" y="0">t</tspan><tspan class="aa" x="25.657" y="0">t</tspan><tspan class="ab" x="31.431" y="0">o</tspan><tspan x="40.534" y="0">n</tspan></text><rect class="aj" x="257.75" y="304.75" width="89.5" height="34.5" rx="3.25" ry="3.25"/><path class="af" d="M344,305.5a2.5,2.5,0,0,1,2.5,2.5v28a2.5,2.5,0,0,1-2.5,2.5H261a2.5,2.5,0,0,1-2.5-2.5V308a2.5,2.5,0,0,1,2.5-2.5h83m0-1.5H261a4.012,4.012,0,0,0-4,4v28a4.012,4.012,0,0,0,4,4h83a4.012,4.012,0,0,0,4-4V308a4.012,4.012,0,0,0-4-4Z"/><text class="ak" transform="translate(281.398 326.767)">H<tspan class="l" x="11.23" y="0">ov</tspan><tspan class="m" x="28.103" y="0">e</tspan><tspan class="n" x="36.735" y="0">r</tspan></text><rect class="al" x="257.75" y="352.75" width="89.5" height="34.5" rx="3.25" ry="3.25"/><path class="af" d="M344,353.5a2.5,2.5,0,0,1,2.5,2.5v28a2.5,2.5,0,0,1-2.5,2.5H261a2.5,2.5,0,0,1-2.5-2.5V356a2.5,2.5,0,0,1,2.5-2.5h83m0-1.5H261a4.012,4.012,0,0,0-4,4v28a4.012,4.012,0,0,0,4,4h83a4.012,4.012,0,0,0,4-4V356a4.012,4.012,0,0,0-4-4Z"/><text class="ai" transform="translate(282.064 374.767)"><tspan class="p">D</tspan><tspan class="q" x="10.99" y="0">o</tspan><tspan class="r" x="20.065" y="0">w</tspan><tspan x="32.35" y="0">n</tspan></text><polygon class="s" points="329 345 329 342 328 342 328 340 327 340 327 338 326 338 326 336 325 336 325 335 324 335 324 332 327 332 327 333 328 333 328 324 329 324 329 323 331 323 331 324 332 324 332 328 334 328 334 329 337 329 337 330 339 330 339 331 340 331 340 332 341 332 341 339 340 339 340 342 339 342 339 345 329 345"/><polygon class="t" points="330 344 330 342 329 342 329 340 328 340 328 338 327 338 327 336 326 336 326 335 325 335 325 333 327 333 327 334 328 334 328 337 329 337 329 324 331 324 331 333 332 333 332 329 334 329 334 333 335 333 335 330 337 330 337 334 338 334 338 331 339 331 339 332 340 332 340 339 339 339 339 342 338 342 338 344 330 344"/><rect class="u" x="331" y="335" width="1" height="4"/><rect class="u" x="334" y="335" width="1" height="4"/><rect class="u" x="337" y="335" width="1" height="4"/><text class="w" transform="translate(371 73.767)"><tspan class="am">T</tspan><tspan class="m" x="7.351" y="0">e</tspan><tspan class="an" x="15.983" y="0">r</tspan><tspan class="ao" x="22.879" y="0">t</tspan><tspan class="ap" x="28.69" y="0">i</tspan><tspan class="h" x="32.714" y="0">a</tspan><tspan class="i" x="41.317" y="0">r</tspan><tspan x="48.377" y="0">y</tspan></text><text class="aq" transform="translate(371 661.766)"><tspan class="am">T</tspan><tspan class="m" x="7.351" y="0">e</tspan><tspan class="an" x="15.983" y="0">r</tspan><tspan class="ao" x="22.879" y="0">t</tspan><tspan class="ap" x="28.69" y="0">i</tspan><tspan class="h" x="32.714" y="0">a</tspan><tspan class="i" x="41.317" y="0">r</tspan><tspan x="48.377" y="0">y</tspan></text><text class="ar" transform="translate(371 121.767)">H<tspan class="l" x="11.23" y="0">ov</tspan><tspan class="m" x="28.103" y="0">e</tspan><tspan class="n" x="36.735" y="0">r</tspan></text><text class="as" transform="translate(371 169.767)"><tspan class="p">D</tspan><tspan class="q" x="10.99" y="0">o</tspan><tspan class="r" x="20.065" y="0">w</tspan><tspan x="32.35" y="0">n</tspan></text><polygon class="s" points="419 140 419 137 418 137 418 135 417 135 417 133 416 133 416 131 415 131 415 130 414 130 414 127 417 127 417 128 418 128 418 119 419 119 419 118 421 118 421 119 422 119 422 123 424 123 424 124 427 124 427 125 429 125 429 126 430 126 430 127 431 127 431 134 430 134 430 137 429 137 429 140 419 140"/><polygon class="t" points="420 139 420 137 419 137 419 135 418 135 418 133 417 133 417 131 416 131 416 130 415 130 415 128 417 128 417 129 418 129 418 132 419 132 419 119 421 119 421 128 422 128 422 124 424 124 424 128 425 128 425 125 427 125 427 129 428 129 428 126 429 126 429 127 430 127 430 134 429 134 429 137 428 137 428 139 420 139"/><rect class="u" x="421" y="130" width="1" height="4"/><rect class="u" x="424" y="130" width="1" height="4"/><rect class="u" x="427" y="130" width="1" height="4"/><text class="at" transform="translate(371 278.767)"><tspan class="am">T</tspan><tspan class="m" x="7.351" y="0">e</tspan><tspan class="an" x="15.983" y="0">r</tspan><tspan class="ao" x="22.879" y="0">t</tspan><tspan class="ap" x="28.69" y="0">i</tspan><tspan class="h" x="32.714" y="0">a</tspan><tspan class="i" x="41.317" y="0">r</tspan><tspan x="48.377" y="0">y</tspan></text><text class="au" transform="translate(371 326.767)">H<tspan class="l" x="11.23" y="0">ov</tspan><tspan class="m" x="28.103" y="0">e</tspan><tspan class="n" x="36.735" y="0">r</tspan></text><text class="av" transform="translate(371 374.767)"><tspan class="p">D</tspan><tspan class="q" x="10.99" y="0">o</tspan><tspan class="r" x="20.065" y="0">w</tspan><tspan x="32.35" y="0">n</tspan></text><rect class="aw" x="147" y="747" width="28" height="28" rx="4" ry="4"/><rect class="ax" x="147" y="787" width="28" height="28" rx="4" ry="4"/><rect class="ay" x="147" y="827" width="28" height="28" rx="4" ry="4"/><polygon class="az" points="160 755 162 755 162 760 167 760 167 762 162 762 162 767 160 767 160 762 155 762 155 760 160 760 160 755"/><polygon class="az" points="160 795 162 795 162 800 167 800 167 802 162 802 162 807 160 807 160 802 155 802 155 800 160 800 160 795"/><polygon class="az" points="160 835 162 835 162 840 167 840 167 842 162 842 162 847 160 847 160 842 155 842 155 840 160 840 160 835"/><polygon class="s" points="171 826 171 823 170 823 170 821 169 821 169 819 168 819 168 817 167 817 167 816 166 816 166 813 169 813 169 814 170 814 170 805 171 805 171 804 173 804 173 805 174 805 174 809 176 809 176 810 179 810 179 811 181 811 181 812 182 812 182 813 183 813 183 820 182 820 182 823 181 823 181 826 171 826"/><polygon class="t" points="172 825 172 823 171 823 171 821 170 821 170 819 169 819 169 817 168 817 168 816 167 816 167 814 169 814 169 815 170 815 170 818 171 818 171 805 173 805 173 814 174 814 174 810 176 810 176 814 177 814 177 811 179 811 179 815 180 815 180 812 181 812 181 813 182 813 182 820 181 820 181 823 180 823 180 825 172 825"/><rect class="u" x="173" y="816" width="1" height="4"/><rect class="u" x="176" y="816" width="1" height="4"/><rect class="u" x="179" y="816" width="1" height="4"/><rect class="ba" x="371" y="753" width="16" height="16"/><path class="bb" d="M387,761a8,8,0,1,1-8-8A8,8,0,0,1,387,761Zm-1,0a7,7,0,1,0-7,7A7,7,0,0,0,386,761Z"/><polygon class="bb" points="378 756 380 756 380 760 384 760 384 762 380 762 380 766 378 766 378 762 374 762 374 760 378 760 378 756"/><rect class="bc" x="147" y="639" width="98" height="36" rx="4" ry="4"/><text class="c" transform="translate(167.264 661.767)"><tspan class="d">P</tspan><tspan class="e" x="9.041" y="0">r</tspan><tspan class="f" x="15.482" y="0">i</tspan><tspan class="g" x="19.55" y="0">m</tspan><tspan class="h" x="33.766" y="0">a</tspan><tspan class="i" x="42.369" y="0">r</tspan><tspan x="49.43" y="0">y</tspan></text><rect class="v" x="257.75" y="639.75" width="89.5" height="34.5" rx="3.25" ry="3.25"/><path class="bc" d="M344,640.5a2.5,2.5,0,0,1,2.5,2.5v28a2.5,2.5,0,0,1-2.5,2.5H261a2.5,2.5,0,0,1-2.5-2.5V643a2.5,2.5,0,0,1,2.5-2.5h83m0-1.5H261a4.012,4.012,0,0,0-4,4v28a4.012,4.012,0,0,0,4,4h83a4.012,4.012,0,0,0,4-4V643a4.012,4.012,0,0,0-4-4Z"/><text class="aq" transform="translate(277.972 661.767)"><tspan class="x">B</tspan><tspan class="y" x="9.925" y="0">u</tspan><tspan class="z" x="19.416" y="0">t</tspan><tspan class="aa" x="25.657" y="0">t</tspan><tspan class="ab" x="31.431" y="0">o</tspan><tspan x="40.534" y="0">n</tspan></text><polygon class="s" points="419 345 419 342 418 342 418 340 417 340 417 338 416 338 416 336 415 336 415 335 414 335 414 332 417 332 417 333 418 333 418 324 419 324 419 323 421 323 421 324 422 324 422 328 424 328 424 329 427 329 427 330 429 330 429 331 430 331 430 332 431 332 431 339 430 339 430 342 429 342 429 345 419 345"/><polygon class="t" points="420 344 420 342 419 342 419 340 418 340 418 338 417 338 417 336 416 336 416 335 415 335 415 333 417 333 417 334 418 334 418 337 419 337 419 324 421 324 421 333 422 333 422 329 424 329 424 333 425 333 425 330 427 330 427 334 428 334 428 331 429 331 429 332 430 332 430 339 429 339 429 342 428 342 428 344 420 344"/><rect class="u" x="421" y="335" width="1" height="4"/><rect class="u" x="424" y="335" width="1" height="4"/><rect class="u" x="427" y="335" width="1" height="4"/><rect class="aw" x="147" y="459" width="72" height="28" rx="3.528" ry="3.528"/><text class="bd" transform="translate(159.549 478.311)"><tspan class="be">T</tspan><tspan class="bf" x="6.382" y="0">o</tspan><tspan class="bg" x="14.316" y="0">o</tspan><tspan class="bh" x="22.228" y="0">l</tspan><tspan class="bi" x="25.757" y="0">b</tspan><tspan class="bj" x="33.836" y="0">a</tspan><tspan x="41.3" y="0">r</tspan></text><rect class="ax" x="147" y="499" width="72" height="28" rx="3.528" ry="3.528"/><text class="bd" transform="translate(164.264 518.311)"><tspan class="bi">H</tspan><tspan class="bk" x="9.742" y="0">ov</tspan><tspan x="24.38" y="0">er</tspan></text><rect class="ay" x="147" y="539" width="72" height="28" rx="3.528" ry="3.528"/><text class="bd" transform="translate(164.846 558.311)"><tspan class="bl">D</tspan><tspan class="bm" x="9.534" y="0">o</tspan><tspan class="bn" x="17.407" y="0">w</tspan><tspan x="28.06" y="0">n</tspan></text><polygon class="s" points="211 536 211 533 210 533 210 531 209 531 209 529 208 529 208 527 207 527 207 526 206 526 206 523 209 523 209 524 210 524 210 515 211 515 211 514 213 514 213 515 214 515 214 519 216 519 216 520 219 520 219 521 221 521 221 522 222 522 222 523 223 523 223 530 222 530 222 533 221 533 221 536 211 536"/><polygon class="t" points="212 535 212 533 211 533 211 531 210 531 210 529 209 529 209 527 208 527 208 526 207 526 207 524 209 524 209 525 210 525 210 528 211 528 211 515 213 515 213 524 214 524 214 520 216 520 216 524 217 524 217 521 219 521 219 525 220 525 220 522 221 522 221 523 222 523 222 530 221 530 221 533 220 533 220 535 212 535"/><rect class="u" x="213" y="526" width="1" height="4"/><rect class="u" x="216" y="526" width="1" height="4"/><rect class="u" x="219" y="526" width="1" height="4"/><text class="bo" transform="translate(371 477.767)"><tspan class="bp">T</tspan><tspan x="6.382" y="0">e</tspan><tspan class="bq" x="13.872" y="0">r</tspan><tspan class="br" x="19.853" y="0">t</tspan><tspan class="bk" x="24.896" y="0">i</tspan><tspan class="bs" x="28.391" y="0">a</tspan><tspan class="bt" x="35.855" y="0">r</tspan><tspan x="41.979" y="0">y</tspan></text><text class="bo" transform="translate(371 517.767)"><tspan class="bi">H</tspan><tspan class="bu" x="9.742" y="0">ov</tspan><tspan x="24.38" y="0">er</tspan></text><text class="bo" transform="translate(371 557.767)"><tspan class="bf">D</tspan><tspan class="bm" x="9.534" y="0">o</tspan><tspan class="bn" x="17.407" y="0">w</tspan><tspan x="28.06" y="0">n</tspan></text><polygon class="s" points="419 536 419 533 418 533 418 531 417 531 417 529 416 529 416 527 415 527 415 526 414 526 414 523 417 523 417 524 418 524 418 515 419 515 419 514 421 514 421 515 422 515 422 519 424 519 424 520 427 520 427 521 429 521 429 522 430 522 430 523 431 523 431 530 430 530 430 533 429 533 429 536 419 536"/><polygon class="t" points="420 535 420 533 419 533 419 531 418 531 418 529 417 529 417 527 416 527 416 526 415 526 415 524 417 524 417 525 418 525 418 528 419 528 419 515 421 515 421 524 422 524 422 520 424 520 424 524 425 524 425 521 427 521 427 525 428 525 428 522 429 522 429 523 430 523 430 530 429 530 429 533 428 533 428 535 420 535"/><rect class="u" x="421" y="526" width="1" height="4"/><rect class="u" x="424" y="526" width="1" height="4"/><rect class="u" x="427" y="526" width="1" height="4"/><rect class="bv" x="98" y="39" width="1" height="156"/><text class="bw" transform="translate(49.917 113.854)"><tspan class="bx">G</tspan><tspan class="by" x="8.031" y="0">R</tspan><tspan x="15.189" y="0">EEN</tspan><tspan class="bz" x="-12.581" y="18">(</tspan><tspan class="ca" x="-9.026" y="18">A</tspan><tspan class="cb" x="-1.859" y="18">C</tspan><tspan class="cc" x="5.55" y="18">T</tspan><tspan class="cd" x="11.872" y="18">I</tspan><tspan class="ce" x="15.28" y="18">O</tspan><tspan class="cf" x="23.963" y="18">N</tspan><tspan x="32.597" y="18">)</tspan></text><rect class="bv" x="98" y="243" width="1" height="156"/><text class="bw" transform="translate(58.486 316.854)"><tspan class="cg">B</tspan><tspan class="ch" x="7.328" y="0">L</tspan><tspan class="ci" x="13.191" y="0">U</tspan><tspan x="21.375" y="0">E</tspan><tspan class="bz" x="-21.15" y="18">(</tspan><tspan class="ca" x="-17.595" y="18">A</tspan><tspan class="cb" x="-10.428" y="18">C</tspan><tspan class="cc" x="-3.019" y="18">T</tspan><tspan class="cd" x="3.303" y="18">I</tspan><tspan class="ce" x="6.71" y="18">O</tspan><tspan class="cf" x="15.394" y="18">N</tspan><tspan x="24.028" y="18">)</tspan></text><rect class="bv" x="98" y="446" width="1" height="132"/><text class="bw" transform="translate(56.218 507.854)"><tspan class="cj">N</tspan><tspan class="ck" x="8.791" y="0">A</tspan><tspan class="cl" x="15.739" y="0">V</tspan><tspan x="23.273" y="0">Y</tspan><tspan class="cm" x="-29.056" y="18">(</tspan><tspan class="cn" x="-25.117" y="18">T</tspan><tspan class="co" x="-18.941" y="18">O</tspan><tspan class="ce" x="-10.232" y="18">OL</tspan><tspan class="cp" x="4.439" y="18">B</tspan><tspan class="cq" x="11.812" y="18">A</tspan><tspan x="19.266" y="18">R)</tspan></text><rect class="bv" x="98" y="735" width="1" height="132"/><text class="bw" transform="translate(58.551 804.963)"><tspan class="cr">I</tspan><tspan class="cs" x="3.39" y="0">C</tspan><tspan class="ce" x="10.15" y="0">O</tspan><tspan x="18.834" y="0">N</tspan></text><text class="ct" transform="translate(147 12.077)"><tspan class="cu">R</tspan><tspan class="cv" x="9.007" y="0">A</tspan><tspan class="cw" x="17.754" y="0">I</tspan><tspan class="cx" x="21.788" y="0">S</tspan><tspan class="cy" x="28.916" y="0">E</tspan><tspan x="36.103" y="0">D</tspan></text><text class="ct" transform="translate(371 12.077)"><tspan class="cz">F</tspan><tspan class="da" x="6.842" y="0">L</tspan><tspan class="db" x="14.464" y="0">A</tspan><tspan x="22.363" y="0">T</tspan></text><rect class="bv" x="98" y="627" width="1" height="60"/><text class="bw" transform="translate(33.228 662)"><tspan class="dc">D</tspan><tspan class="dd" x="8.089" y="0">I</tspan><tspan class="de" x="11.556" y="0">SA</tspan><tspan class="cg" x="25.244" y="0">B</tspan><tspan class="df" x="32.572" y="0">L</tspan><tspan x="38.56" y="0">ED</tspan></text><rect class="ba" width="520" height="1076"/><rect class="bv" x="98" y="916" width="1" height="148"/><text class="bw" transform="translate(57.558 992.823)"><tspan class="dg">S</tspan><tspan class="dh" x="6.086" y="0">P</tspan><tspan class="df" x="12.77" y="0">L</tspan><tspan class="di" x="18.759" y="0">I</tspan><tspan x="22.217" y="0">T</tspan></text><rect class="b" x="147" y="927" width="129" height="36" rx="4" ry="4"/><text class="c" transform="translate(167.265 950.311)"><tspan class="d">P</tspan><tspan class="e" x="9.041" y="0">r</tspan><tspan class="f" x="15.482" y="0">i</tspan><tspan class="g" x="19.55" y="0">m</tspan><tspan class="h" x="33.766" y="0">a</tspan><tspan class="i" x="42.369" y="0">r</tspan><tspan x="49.43" y="0">y</tspan></text><rect class="dj" x="245" y="927" width="1" height="36"/><polygon class="t" points="266.656 941.879 261 947.535 255.344 941.879 256.757 940.465 261 944.709 265.242 940.465 266.656 941.879"/><rect class="v" x="288.75" y="927.75" width="120.5" height="34.5" rx="3.25" ry="3.25"/><path class="b" d="M406,928.5a2.5,2.5,0,0,1,2.5,2.5v28a2.5,2.5,0,0,1-2.5,2.5H292a2.5,2.5,0,0,1-2.5-2.5V931a2.5,2.5,0,0,1,2.5-2.5H406m0-1.5H292a4.012,4.012,0,0,0-4,4v28a4.012,4.012,0,0,0,4,4H406a4.012,4.012,0,0,0,4-4V931a4.012,4.012,0,0,0-4-4Z"/><text class="w" transform="translate(308.972 950.311)"><tspan class="x">B</tspan><tspan class="y" x="9.925" y="0">u</tspan><tspan class="z" x="19.416" y="0">t</tspan><tspan class="aa" x="25.657" y="0">t</tspan><tspan class="ab" x="31.431" y="0">o</tspan><tspan x="40.534" y="0">n</tspan></text><rect class="b" x="379" y="927" width="1" height="36"/><polygon class="dk" points="399.656 942.879 394 948.535 388.344 942.879 389.757 941.465 394 945.709 398.242 941.465 399.656 942.879"/><rect class="dl" x="147" y="975" width="129" height="36" rx="4" ry="4"/><text class="c" transform="translate(167.265 998.311)"><tspan class="d">P</tspan><tspan class="e" x="9.041" y="0">r</tspan><tspan class="f" x="15.482" y="0">i</tspan><tspan class="g" x="19.55" y="0">m</tspan><tspan class="h" x="33.766" y="0">a</tspan><tspan class="i" x="42.369" y="0">r</tspan><tspan x="49.43" y="0">y</tspan></text><rect class="dj" x="245" y="975" width="1" height="36"/><polygon class="t" points="266.656 989.879 261 995.535 255.344 989.879 256.757 988.465 261 992.709 265.242 988.465 266.656 989.879"/><rect class="v" x="288.75" y="975.75" width="120.5" height="34.5" rx="3.25" ry="3.25"/><path class="dl" d="M406,976.5a2.5,2.5,0,0,1,2.5,2.5v28a2.5,2.5,0,0,1-2.5,2.5H292a2.5,2.5,0,0,1-2.5-2.5V979a2.5,2.5,0,0,1,2.5-2.5H406m0-1.5H292a4.012,4.012,0,0,0-4,4v28a4.012,4.012,0,0,0,4,4H406a4.012,4.012,0,0,0,4-4V979a4.012,4.012,0,0,0-4-4Z"/><text class="at" transform="translate(308.972 998.311)"><tspan class="x">B</tspan><tspan class="y" x="9.925" y="0">u</tspan><tspan class="z" x="19.416" y="0">t</tspan><tspan class="aa" x="25.657" y="0">t</tspan><tspan class="ab" x="31.431" y="0">o</tspan><tspan x="40.534" y="0">n</tspan></text><rect class="dl" x="379" y="975" width="1" height="36"/><polygon class="dm" points="399.656 990.879 394 996.535 388.344 990.879 389.757 989.465 394 993.709 398.242 989.465 399.656 990.879"/><rect class="aw" x="219" y="1023" width="28" height="28" rx="4" ry="4"/><rect class="aw" x="147" y="1023" width="71" height="28" rx="4" ry="4"/><rect class="aw" x="219" y="1023" width="3" height="28"/><rect class="aw" x="215" y="1023" width="3" height="28"/><polygon class="az" points="238.375 1034.402 232.875 1040.002 227.375 1034.401 228.748 1033.002 232.875 1037.202 237 1033.002 238.375 1034.402"/><text class="bd" transform="translate(158.549 1041.331)"><tspan class="be">T</tspan><tspan class="bf" x="6.382" y="0">o</tspan><tspan class="bg" x="14.316" y="0">o</tspan><tspan class="bh" x="22.228" y="0">l</tspan><tspan class="bi" x="25.757" y="0">b</tspan><tspan class="bj" x="33.836" y="0">a</tspan><tspan x="41.3" y="0">r</tspan></text></svg>