<svg xmlns="http://www.w3.org/2000/svg" width="632" height="180" viewBox="0 0 632 180"><defs><style>.a{fill:#fafafa;}.b,.k{fill:#354052;}.c{fill:#151921;}.d{fill:#838f93;}.e{fill:#ccc;}.f{fill:#edeef0;}.f,.g,.h,.k{fill-rule:evenodd;}.g{fill:#fff;}.h,.i{fill:#272525;}.j{fill:none;}.l,.m{fill:#ff8300;}.m{font-size:13px;font-family:OpenSans-Semibold, Open Sans;font-weight:700;}.n{letter-spacing:-0.002em;}.o{letter-spacing:-0.025em;}.p{letter-spacing:-0.003em;}</style></defs><title>button_04</title><rect class="a" width="632" height="180"/><rect class="b" x="128" y="24" width="28" height="28" rx="4" ry="4"/><rect class="c" x="128" y="76" width="28" height="28" rx="4" ry="4"/><rect class="d" x="128" y="128" width="28" height="28" rx="4" ry="4"/><rect class="e" x="288" y="24" width="28" height="28" rx="4" ry="4"/><polygon class="f" points="141 32 143 32 143 37 148 37 148 39 143 39 143 44 141 44 141 39 136 39 136 37 141 37 141 32"/><polygon class="f" points="141 84 143 84 143 89 148 89 148 91 143 91 143 96 141 96 141 91 136 91 136 89 141 89 141 84"/><polygon class="f" points="141 136 143 136 143 141 148 141 148 143 143 143 143 148 141 148 141 143 136 143 136 141 141 141 141 136"/><polygon class="g" points="301 32 303 32 303 37 308 37 308 39 303 39 303 44 301 44 301 39 296 39 296 37 301 37 301 32"/><polygon class="h" points="152 115 152 112 151 112 151 110 150 110 150 108 149 108 149 106 148 106 148 105 147 105 147 102 150 102 150 103 151 103 151 94 152 94 152 93 154 93 154 94 155 94 155 98 157 98 157 99 160 99 160 100 162 100 162 101 163 101 163 102 164 102 164 109 163 109 163 112 162 112 162 115 152 115"/><polygon class="g" points="153 114 153 112 152 112 152 110 151 110 151 108 150 108 150 106 149 106 149 105 148 105 148 103 150 103 150 104 151 104 151 107 152 107 152 94 154 94 154 103 155 103 155 99 157 99 157 103 158 103 158 100 160 100 160 104 161 104 161 101 162 101 162 102 163 102 163 109 162 109 162 112 161 112 161 114 153 114"/><rect class="i" x="154" y="105" width="1" height="4"/><rect class="i" x="157" y="105" width="1" height="4"/><rect class="i" x="160" y="105" width="1" height="4"/><rect class="j" x="212" y="30" width="16" height="16"/><path class="k" d="M228,38a8,8,0,1,1-8-8A8,8,0,0,1,228,38Zm-1,0a7,7,0,1,0-7,7A7,7,0,0,0,227,38Z"/><polygon class="k" points="219 33 221 33 221 37 225 37 225 39 221 39 221 43 219 43 219 39 215 39 215 37 219 37 219 33"/><rect class="l" x="86" y="12" width="1" height="156"/><text class="m" transform="translate(41.764 93.963)"><tspan class="n">I</tspan><tspan class="o" x="3.94" y="0">C</tspan><tspan class="p" x="11.858" y="0">O</tspan><tspan x="22.054" y="0">N</tspan></text></svg>