<svg xmlns="http://www.w3.org/2000/svg" width="662" height="179" viewBox="0 0 662 179"><defs><style>.a{fill:#fafafa;}.b,.k{fill:#354052;}.c{fill:#151921;}.d{fill:#838f93;}.e{fill:#ccc;}.f{fill:#edeef0;}.f,.g,.h,.k{fill-rule:evenodd;}.g{fill:#fff;}.h,.i{fill:#272525;}.j{fill:none;}.l,.m{fill:#ff8300;}.m{font-size:13px;font-family:OpenSans-Semibold, Open Sans;font-weight:700;}.n{letter-spacing:-0.002em;}.o{letter-spacing:-0.025em;}.p{letter-spacing:-0.003em;}</style></defs><title>button_04</title><rect class="a" width="662" height="179"/><rect class="b" x="131" y="33" width="28" height="28" rx="4" ry="4"/><rect class="c" x="131" y="75" width="28" height="28" rx="4" ry="4"/><rect class="d" x="131" y="117" width="28" height="28" rx="4" ry="4"/><rect class="e" x="291" y="33" width="28" height="28" rx="4" ry="4"/><polygon class="f" points="144 41 146 41 146 46 151 46 151 48 146 48 146 53 144 53 144 48 139 48 139 46 144 46 144 41"/><polygon class="f" points="144 83 146 83 146 88 151 88 151 90 146 90 146 95 144 95 144 90 139 90 139 88 144 88 144 83"/><polygon class="f" points="144 125 146 125 146 130 151 130 151 132 146 132 146 137 144 137 144 132 139 132 139 130 144 130 144 125"/><polygon class="g" points="304 41 306 41 306 46 311 46 311 48 306 48 306 53 304 53 304 48 299 48 299 46 304 46 304 41"/><polygon class="h" points="155 114 155 111 154 111 154 109 153 109 153 107 152 107 152 105 151 105 151 104 150 104 150 101 153 101 153 102 154 102 154 93 155 93 155 92 157 92 157 93 158 93 158 97 160 97 160 98 163 98 163 99 165 99 165 100 166 100 166 101 167 101 167 108 166 108 166 111 165 111 165 114 155 114"/><polygon class="g" points="156 113 156 111 155 111 155 109 154 109 154 107 153 107 153 105 152 105 152 104 151 104 151 102 153 102 153 103 154 103 154 106 155 106 155 93 157 93 157 102 158 102 158 98 160 98 160 102 161 102 161 99 163 99 163 103 164 103 164 100 165 100 165 101 166 101 166 108 165 108 165 111 164 111 164 113 156 113"/><rect class="i" x="157" y="104" width="1" height="4"/><rect class="i" x="160" y="104" width="1" height="4"/><rect class="i" x="163" y="104" width="1" height="4"/><rect class="j" x="215" y="39" width="16" height="16"/><path class="k" d="M231,47a8,8,0,1,1-8-8A8,8,0,0,1,231,47Zm-1,0a7,7,0,1,0-7,7A7,7,0,0,0,230,47Z"/><polygon class="k" points="222 42 224 42 224 46 228 46 228 48 224 48 224 52 222 52 222 48 218 48 218 46 222 46 222 42"/><rect class="l" x="89" y="24" width="1" height="131"/><text class="m" transform="translate(44.764 94.963)"><tspan class="n">I</tspan><tspan class="o" x="3.94" y="0">C</tspan><tspan class="p" x="11.858" y="0">O</tspan><tspan x="22.054" y="0">N</tspan></text></svg>