<svg xmlns="http://www.w3.org/2000/svg" width="632" height="84" viewBox="0 0 632 84"><defs><style>.a{fill:#fafafa;}.b,.k{fill:#ccc;}.c,.k{font-size:15px;}.c,.j{fill:#fff;}.c,.k,.r{font-family:OpenSans-Semibold, Open Sans;font-weight:700;}.d{letter-spacing:-0.013em;}.e{letter-spacing:-0.002em;}.f{letter-spacing:-0.008em;}.g{letter-spacing:-0.008em;}.h{letter-spacing:-0.007em;}.i{letter-spacing:0.04em;}.l{letter-spacing:0.001em;}.m{letter-spacing:-0.002em;}.n{letter-spacing:0.023em;}.o{letter-spacing:-0.008em;}.p{letter-spacing:-0.004em;}.q,.r{fill:#ff8300;}.r{font-size:13px;}.s{letter-spacing:-0.004em;}.t{letter-spacing:0.005em;}.u{letter-spacing:0.012em;}.v{letter-spacing:0.001em;}.w{letter-spacing:-0.003em;}.x{letter-spacing:-0.005em;}</style></defs><title>button_03</title><rect class="a" width="632" height="84"/><rect class="b" x="120" y="24" width="98" height="36" rx="4" ry="4"/><text class="c" transform="translate(140.264 46.767)"><tspan class="d">P</tspan><tspan class="e" x="9.041" y="0">r</tspan><tspan class="f" x="15.482" y="0">i</tspan><tspan class="g" x="19.55" y="0">m</tspan><tspan class="h" x="33.766" y="0">a</tspan><tspan class="i" x="42.369" y="0">r</tspan><tspan x="49.43" y="0">y</tspan></text><rect class="j" x="228.75" y="24.75" width="96.5" height="34.5" rx="3.25" ry="3.25"/><path class="b" d="M322,25.5a2.5,2.5,0,0,1,2.5,2.5V56a2.5,2.5,0,0,1-2.5,2.5H232a2.5,2.5,0,0,1-2.5-2.5V28a2.5,2.5,0,0,1,2.5-2.5h90m0-1.5H232a4.012,4.012,0,0,0-4,4V56a4.012,4.012,0,0,0,4,4h90a4.012,4.012,0,0,0,4-4V28a4.012,4.012,0,0,0-4-4Z"/><text class="k" transform="translate(251.972 46.767)"><tspan class="l">B</tspan><tspan class="m" x="9.925" y="0">u</tspan><tspan class="n" x="19.416" y="0">t</tspan><tspan class="o" x="25.657" y="0">t</tspan><tspan class="p" x="31.431" y="0">o</tspan><tspan x="40.534" y="0">n</tspan></text><rect class="q" x="86" y="12" width="1" height="60"/><text class="r" transform="translate(12.09 47)"><tspan class="s">D</tspan><tspan class="t" x="9.494" y="0">I</tspan><tspan class="u" x="13.527" y="0">SA</tspan><tspan class="v" x="29.579" y="0">B</tspan><tspan class="w" x="38.173" y="0">L</tspan><tspan class="x" x="45.182" y="0">E</tspan><tspan x="52.37" y="0">D</tspan></text></svg>