<svg xmlns="http://www.w3.org/2000/svg" width="662" height="251.063" viewBox="0 0 662 251.063"><defs><style>.a{fill:#fafafa;}.ad,.b,.w{fill:#26b910;}.ad,.ai,.ak,.c,.k,.w{font-size:15px;}.c,.k,.t,.v{fill:#fff;}.ad,.ai,.ak,.an,.c,.k,.w{font-family:OpenSans-Semibold, Open Sans;font-weight:700;}.d{letter-spacing:-0.013em;}.e{letter-spacing:-0.002em;}.f{letter-spacing:-0.008em;}.g{letter-spacing:-0.008em;}.h{letter-spacing:-0.007em;}.i{letter-spacing:0.04em;}.j{fill:#1d8d0c;}.ad,.ak,.k{letter-spacing:-0.002em;}.l{letter-spacing:-0.011em;}.m{letter-spacing:-0.001em;}.n{letter-spacing:0em;}.o{fill:#135807;}.p{letter-spacing:-0.001em;}.q{letter-spacing:-0.006em;}.r{letter-spacing:0.002em;}.s,.u{fill:#272525;}.s,.t{fill-rule:evenodd;}.x{letter-spacing:0.001em;}.y{letter-spacing:-0.002em;}.z{letter-spacing:0.023em;}.aa{letter-spacing:-0.008em;}.ab{letter-spacing:-0.004em;}.ac{fill:#d0f7cc;}.ae{fill:#b6eeaf;}.af,.ai,.ak{fill:#0098f3;}.ag{fill:#007bc4;}.ah{fill:#00568a;}.aj{fill:#d4eefd;}.al{fill:#b4e0fc;}.am,.an{fill:#ff8300;}.an{font-size:13px;}.ao{letter-spacing:0.054em;}.ap{letter-spacing:0.012em;}.aq{letter-spacing:0.005em;}.ar{letter-spacing:-0.002em;}.as{letter-spacing:-0.005em;}.at{letter-spacing:-0.003em;}.au{letter-spacing:0.017em;}.av{letter-spacing:0.004em;}.aw{letter-spacing:0em;}.ax{letter-spacing:-0.054em;}.ay{letter-spacing:-0.001em;}.az{letter-spacing:0.007em;}.ba{letter-spacing:0.005em;}.bb{letter-spacing:0.001em;}.bc{letter-spacing:-0.014em;}.bd{letter-spacing:-0.003em;}</style></defs><title>button_01</title><rect class="a" y="30.063" width="662" height="221"/><rect class="b" x="124" y="59.063" width="98" height="36" rx="4" ry="4"/><text class="c" transform="translate(144.265 82.374)"><tspan class="d">P</tspan><tspan class="e" x="9.041" y="0">r</tspan><tspan class="f" x="15.482" y="0">i</tspan><tspan class="g" x="19.55" y="0">m</tspan><tspan class="h" x="33.766" y="0">a</tspan><tspan class="i" x="42.369" y="0">r</tspan><tspan x="49.43" y="0">y</tspan></text><rect class="j" x="124" y="121.063" width="98" height="36" rx="4" ry="4"/><text class="k" transform="translate(151.398 144.374)">H<tspan class="l" x="11.23" y="0">ov</tspan><tspan class="m" x="28.103" y="0">e</tspan><tspan class="n" x="36.735" y="0">r</tspan></text><rect class="o" x="124" y="183.063" width="98" height="36" rx="4" ry="4"/><text class="c" transform="translate(152.064 206.374)"><tspan class="p">D</tspan><tspan class="q" x="10.99" y="0">o</tspan><tspan class="r" x="20.065" y="0">w</tspan><tspan x="32.35" y="0">n</tspan></text><polygon class="s" points="191 162.063 191 159.063 190 159.063 190 157.063 189 157.063 189 155.063 188 155.063 188 153.063 187 153.063 187 152.063 186 152.063 186 149.063 189 149.063 189 150.063 190 150.063 190 141.063 191 141.063 191 140.063 193 140.063 193 141.063 194 141.063 194 145.063 196 145.063 196 146.063 199 146.063 199 147.063 201 147.063 201 148.063 202 148.063 202 149.063 203 149.063 203 156.063 202 156.063 202 159.063 201 159.063 201 162.063 191 162.063"/><polygon class="t" points="192 161.063 192 159.063 191 159.063 191 157.063 190 157.063 190 155.063 189 155.063 189 153.063 188 153.063 188 152.063 187 152.063 187 150.063 189 150.063 189 151.063 190 151.063 190 154.063 191 154.063 191 141.063 193 141.063 193 150.063 194 150.063 194 146.063 196 146.063 196 150.063 197 150.063 197 147.063 199 147.063 199 151.063 200 151.063 200 148.063 201 148.063 201 149.063 202 149.063 202 156.063 201 156.063 201 159.063 200 159.063 200 161.063 192 161.063"/><rect class="u" x="193" y="152.063" width="1" height="4"/><rect class="u" x="196" y="152.063" width="1" height="4"/><rect class="u" x="199" y="152.063" width="1" height="4"/><rect class="v" x="234.75" y="59.813" width="88.5" height="34.5" rx="3.25" ry="3.25"/><path class="b" d="M320,60.563a2.5,2.5,0,0,1,2.5,2.5v28a2.5,2.5,0,0,1-2.5,2.5H238a2.5,2.5,0,0,1-2.5-2.5v-28a2.5,2.5,0,0,1,2.5-2.5h82m0-1.5H238a4.012,4.012,0,0,0-4,4v28a4.012,4.012,0,0,0,4,4h82a4.012,4.012,0,0,0,4-4v-28a4.012,4.012,0,0,0-4-4Z"/><text class="w" transform="translate(253.972 81.83)"><tspan class="x">B</tspan><tspan class="y" x="9.925" y="0">u</tspan><tspan class="z" x="19.416" y="0">t</tspan><tspan class="aa" x="25.657" y="0">t</tspan><tspan class="ab" x="31.431" y="0">o</tspan><tspan x="40.534" y="0">n</tspan></text><rect class="ac" x="234.75" y="121.813" width="88.5" height="34.5" rx="3.25" ry="3.25"/><path class="b" d="M320,122.563a2.5,2.5,0,0,1,2.5,2.5v28a2.5,2.5,0,0,1-2.5,2.5H238a2.5,2.5,0,0,1-2.5-2.5v-28a2.5,2.5,0,0,1,2.5-2.5h82m0-1.5H238a4.012,4.012,0,0,0-4,4v28a4.012,4.012,0,0,0,4,4h82a4.012,4.012,0,0,0,4-4v-28a4.012,4.012,0,0,0-4-4Z"/><text class="ad" transform="translate(257.398 143.83)">H<tspan class="l" x="11.23" y="0">ov</tspan><tspan class="m" x="28.103" y="0">e</tspan><tspan class="n" x="36.735" y="0">r</tspan></text><rect class="ae" x="234.75" y="183.813" width="88.5" height="34.5" rx="3.25" ry="3.25"/><path class="b" d="M320,184.563a2.5,2.5,0,0,1,2.5,2.5v28a2.5,2.5,0,0,1-2.5,2.5H238a2.5,2.5,0,0,1-2.5-2.5v-28a2.5,2.5,0,0,1,2.5-2.5h82m0-1.5H238a4.012,4.012,0,0,0-4,4v28a4.012,4.012,0,0,0,4,4h82a4.012,4.012,0,0,0,4-4v-28a4.012,4.012,0,0,0-4-4Z"/><text class="w" transform="translate(258.064 205.83)"><tspan class="p">D</tspan><tspan class="q" x="10.99" y="0">o</tspan><tspan class="r" x="20.065" y="0">w</tspan><tspan x="32.35" y="0">n</tspan></text><polygon class="s" points="303 162.063 303 159.063 302 159.063 302 157.063 301 157.063 301 155.063 300 155.063 300 153.063 299 153.063 299 152.063 298 152.063 298 149.063 301 149.063 301 150.063 302 150.063 302 141.063 303 141.063 303 140.063 305 140.063 305 141.063 306 141.063 306 145.063 308 145.063 308 146.063 311 146.063 311 147.063 313 147.063 313 148.063 314 148.063 314 149.063 315 149.063 315 156.063 314 156.063 314 159.063 313 159.063 313 162.063 303 162.063"/><polygon class="t" points="304 161.063 304 159.063 303 159.063 303 157.063 302 157.063 302 155.063 301 155.063 301 153.063 300 153.063 300 152.063 299 152.063 299 150.063 301 150.063 301 151.063 302 151.063 302 154.063 303 154.063 303 141.063 305 141.063 305 150.063 306 150.063 306 146.063 308 146.063 308 150.063 309 150.063 309 147.063 311 147.063 311 151.063 312 151.063 312 148.063 313 148.063 313 149.063 314 149.063 314 156.063 313 156.063 313 159.063 312 159.063 312 161.063 304 161.063"/><rect class="u" x="305" y="152.063" width="1" height="4"/><rect class="u" x="308" y="152.063" width="1" height="4"/><rect class="u" x="311" y="152.063" width="1" height="4"/><rect class="af" x="396" y="59.063" width="98" height="36" rx="4" ry="4"/><text class="c" transform="translate(416.265 82.374)"><tspan class="d">P</tspan><tspan class="e" x="9.041" y="0">r</tspan><tspan class="f" x="15.482" y="0">i</tspan><tspan class="g" x="19.55" y="0">m</tspan><tspan class="h" x="33.766" y="0">a</tspan><tspan class="i" x="42.369" y="0">r</tspan><tspan x="49.43" y="0">y</tspan></text><rect class="ag" x="396" y="121.063" width="98" height="36" rx="4" ry="4"/><text class="k" transform="translate(423.399 144.374)">H<tspan class="l" x="11.23" y="0">ov</tspan><tspan class="m" x="28.103" y="0">e</tspan><tspan class="n" x="36.735" y="0">r</tspan></text><rect class="ah" x="396" y="183.063" width="98" height="36" rx="4" ry="4"/><text class="c" transform="translate(424.065 206.374)"><tspan class="p">D</tspan><tspan class="q" x="10.99" y="0">o</tspan><tspan class="r" x="20.065" y="0">w</tspan><tspan x="32.35" y="0">n</tspan></text><polygon class="s" points="463 162.063 463 159.063 462 159.063 462 157.063 461 157.063 461 155.063 460 155.063 460 153.063 459 153.063 459 152.063 458 152.063 458 149.063 461 149.063 461 150.063 462 150.063 462 141.063 463 141.063 463 140.063 465 140.063 465 141.063 466 141.063 466 145.063 468 145.063 468 146.063 471 146.063 471 147.063 473 147.063 473 148.063 474 148.063 474 149.063 475 149.063 475 156.063 474 156.063 474 159.063 473 159.063 473 162.063 463 162.063"/><polygon class="t" points="464 161.063 464 159.063 463 159.063 463 157.063 462 157.063 462 155.063 461 155.063 461 153.063 460 153.063 460 152.063 459 152.063 459 150.063 461 150.063 461 151.063 462 151.063 462 154.063 463 154.063 463 141.063 465 141.063 465 150.063 466 150.063 466 146.063 468 146.063 468 150.063 469 150.063 469 147.063 471 147.063 471 151.063 472 151.063 472 148.063 473 148.063 473 149.063 474 149.063 474 156.063 473 156.063 473 159.063 472 159.063 472 161.063 464 161.063"/><rect class="u" x="465" y="152.063" width="1" height="4"/><rect class="u" x="468" y="152.063" width="1" height="4"/><rect class="u" x="471" y="152.063" width="1" height="4"/><rect class="v" x="506.75" y="59.813" width="89.5" height="34.5" rx="3.25" ry="3.25"/><path class="af" d="M593,60.563a2.5,2.5,0,0,1,2.5,2.5v28a2.5,2.5,0,0,1-2.5,2.5H510a2.5,2.5,0,0,1-2.5-2.5v-28a2.5,2.5,0,0,1,2.5-2.5h83m0-1.5H510a4.012,4.012,0,0,0-4,4v28a4.012,4.012,0,0,0,4,4h83a4.012,4.012,0,0,0,4-4v-28a4.012,4.012,0,0,0-4-4Z"/><text class="ai" transform="translate(526.972 81.83)"><tspan class="x">B</tspan><tspan class="y" x="9.925" y="0">u</tspan><tspan class="z" x="19.416" y="0">t</tspan><tspan class="aa" x="25.657" y="0">t</tspan><tspan class="ab" x="31.431" y="0">o</tspan><tspan x="40.534" y="0">n</tspan></text><rect class="aj" x="506.75" y="121.813" width="89.5" height="34.5" rx="3.25" ry="3.25"/><path class="af" d="M593,122.563a2.5,2.5,0,0,1,2.5,2.5v28a2.5,2.5,0,0,1-2.5,2.5H510a2.5,2.5,0,0,1-2.5-2.5v-28a2.5,2.5,0,0,1,2.5-2.5h83m0-1.5H510a4.012,4.012,0,0,0-4,4v28a4.012,4.012,0,0,0,4,4h83a4.012,4.012,0,0,0,4-4v-28a4.012,4.012,0,0,0-4-4Z"/><text class="ak" transform="translate(530.398 143.83)">H<tspan class="l" x="11.23" y="0">ov</tspan><tspan class="m" x="28.103" y="0">e</tspan><tspan class="n" x="36.735" y="0">r</tspan></text><rect class="al" x="506.75" y="183.813" width="89.5" height="34.5" rx="3.25" ry="3.25"/><path class="af" d="M593,184.563a2.5,2.5,0,0,1,2.5,2.5v28a2.5,2.5,0,0,1-2.5,2.5H510a2.5,2.5,0,0,1-2.5-2.5v-28a2.5,2.5,0,0,1,2.5-2.5h83m0-1.5H510a4.012,4.012,0,0,0-4,4v28a4.012,4.012,0,0,0,4,4h83a4.012,4.012,0,0,0,4-4v-28a4.012,4.012,0,0,0-4-4Z"/><text class="ai" transform="translate(531.064 205.83)"><tspan class="p">D</tspan><tspan class="q" x="10.99" y="0">o</tspan><tspan class="r" x="20.065" y="0">w</tspan><tspan x="32.35" y="0">n</tspan></text><polygon class="s" points="576 162.063 576 159.063 575 159.063 575 157.063 574 157.063 574 155.063 573 155.063 573 153.063 572 153.063 572 152.063 571 152.063 571 149.063 574 149.063 574 150.063 575 150.063 575 141.063 576 141.063 576 140.063 578 140.063 578 141.063 579 141.063 579 145.063 581 145.063 581 146.063 584 146.063 584 147.063 586 147.063 586 148.063 587 148.063 587 149.063 588 149.063 588 156.063 587 156.063 587 159.063 586 159.063 586 162.063 576 162.063"/><polygon class="t" points="577 161.063 577 159.063 576 159.063 576 157.063 575 157.063 575 155.063 574 155.063 574 153.063 573 153.063 573 152.063 572 152.063 572 150.063 574 150.063 574 151.063 575 151.063 575 154.063 576 154.063 576 141.063 578 141.063 578 150.063 579 150.063 579 146.063 581 146.063 581 150.063 582 150.063 582 147.063 584 147.063 584 151.063 585 151.063 585 148.063 586 148.063 586 149.063 587 149.063 587 156.063 586 156.063 586 159.063 585 159.063 585 161.063 577 161.063"/><rect class="u" x="578" y="152.063" width="1" height="4"/><rect class="u" x="581" y="152.063" width="1" height="4"/><rect class="u" x="584" y="152.063" width="1" height="4"/><rect class="am" x="89" y="54.063" width="1" height="173"/><text class="an" transform="translate(31.356 143.026)"><tspan class="ao">R</tspan><tspan class="ap" x="9.007" y="0">A</tspan><tspan class="aq" x="17.754" y="0">I</tspan><tspan class="ar" x="21.788" y="0">S</tspan><tspan class="as" x="28.916" y="0">E</tspan><tspan x="36.103" y="0">D</tspan></text><text class="an" transform="translate(172.204 11.14)"><tspan class="at">O</tspan><tspan class="au" x="10.196" y="0">P</tspan><tspan class="av" x="18.416" y="0">T</tspan><tspan class="aw" x="25.823" y="0">I</tspan><tspan class="at" x="29.785" y="0">O</tspan><tspan x="39.981" y="0">N </tspan><tspan class="ax" x="53.539" y="0">1</tspan><tspan x="60.262" y="0">: </tspan><tspan class="ay" x="67.212" y="0">G</tspan><tspan class="az" x="76.638" y="0">R</tspan><tspan class="as" x="85.035" y="0">EE</tspan><tspan x="99.41" y="0">N</tspan></text><text class="an" transform="translate(447.856 11.14)"><tspan class="at">O</tspan><tspan class="au" x="10.196" y="0">P</tspan><tspan class="av" x="18.416" y="0">T</tspan><tspan class="aw" x="25.823" y="0">I</tspan><tspan class="at" x="29.785" y="0">O</tspan><tspan x="39.981" y="0">N </tspan><tspan class="ba" x="53.539" y="0">2</tspan><tspan x="61.022" y="0">: </tspan><tspan class="bb" x="67.973" y="0">B</tspan><tspan class="bc" x="76.567" y="0">L</tspan><tspan class="bd" x="83.428" y="0">U</tspan><tspan x="93.032" y="0">E</tspan></text></svg>