<svg xmlns="http://www.w3.org/2000/svg" width="600" height="877" viewBox="0 0 600 877"><defs><style>.a{fill:#fafafa;}.ad,.b,.w{fill:#26b910;}.ad,.ai,.ak,.aq,.ar,.as,.at,.au,.c,.k,.w{font-size:15px;}.bc,.c,.k,.t,.v{fill:#fff;}.ad,.ai,.ak,.aq,.ar,.as,.at,.au,.bc,.bn,.bv,.c,.k,.w{font-family:OpenSans-Semibold, Open Sans;font-weight:700;}.d{letter-spacing:-0.013em;}.e{letter-spacing:-0.002em;}.f{letter-spacing:-0.008em;}.g{letter-spacing:-0.008em;}.h{letter-spacing:-0.007em;}.i{letter-spacing:0.04em;}.ar,.j{fill:#1d8d0c;}.ad,.ak,.ar,.at,.k{letter-spacing:-0.002em;}.l{letter-spacing:-0.011em;}.m{letter-spacing:-0.001em;}.n{letter-spacing:0em;}.as,.o{fill:#135807;}.p{letter-spacing:-0.001em;}.q{letter-spacing:-0.006em;}.r{letter-spacing:0.002em;}.s,.u{fill:#272525;}.ay,.ba,.s,.t{fill-rule:evenodd;}.x{letter-spacing:0.001em;}.y{letter-spacing:-0.002em;}.z{letter-spacing:0.023em;}.aa{letter-spacing:-0.008em;}.ab{letter-spacing:-0.004em;}.ac{fill:#d0f7cc;}.ae{fill:#b6eeaf;}.af,.ai,.ak{fill:#0098f3;}.ag,.at{fill:#007bc4;}.ah,.au{fill:#00568a;}.aj{fill:#d4eefd;}.al{fill:#b4e0fc;}.am{letter-spacing:-0.076em;}.an{letter-spacing:0.029em;}.ao{letter-spacing:-0.006em;}.ap{letter-spacing:-0.011em;}.aq,.bb{fill:#ccc;}.av,.ba,.bn{fill:#354052;}.aw{fill:#151921;}.ax{fill:#838f93;}.ay{fill:#edeef0;}.az{fill:none;}.bc,.bn,.bv{font-size:13px;}.bd{letter-spacing:-0.075em;}.be{letter-spacing:-0.001em;}.bf{letter-spacing:-0.002em;}.bg{letter-spacing:-0.007em;}.bh{letter-spacing:-0.002em;}.bi{letter-spacing:-0.006em;}.bj{letter-spacing:-0.01em;}.bk{letter-spacing:0em;}.bl{letter-spacing:-0.005em;}.bm{letter-spacing:0.003em;}.bo{letter-spacing:-0.075em;}.bp{letter-spacing:0.029em;}.bq{letter-spacing:-0.005em;}.br{letter-spacing:-0.006em;}.bs{letter-spacing:0.04em;}.bt{letter-spacing:-0.01em;}.bu,.bv{fill:#ff8300;}.bw{letter-spacing:-0.001em;}.bx{letter-spacing:0.007em;}.by{letter-spacing:-0.005em;}.bz{letter-spacing:0.001em;}.ca{letter-spacing:-0.015em;}.cb{letter-spacing:0.035em;}.cc{letter-spacing:0.004em;}.cd{letter-spacing:0em;}.ce{letter-spacing:-0.003em;}.cf{letter-spacing:-0.003em;}.cg{letter-spacing:0.001em;}.ch{letter-spacing:-0.014em;}.ci{letter-spacing:0.011em;}.cj{letter-spacing:-0.035em;}.ck{letter-spacing:0.059em;}.cl{letter-spacing:0.037em;}.cm{letter-spacing:-0.01em;}.cn{letter-spacing:0.005em;}.co{letter-spacing:0.012em;}.cp{letter-spacing:-0.005em;}.cq{letter-spacing:-0.002em;}.cr{letter-spacing:-0.025em;}.cs{letter-spacing:0.054em;}.ct{letter-spacing:0.005em;}.cu{letter-spacing:-0.002em;}.cv{letter-spacing:-0.006em;}.cw{letter-spacing:0.044em;}.cx{letter-spacing:-0.054em;}.cy{letter-spacing:-0.004em;}.cz{letter-spacing:0.012em;}</style></defs><title>button_01</title><rect class="a" y="25" width="600" height="180"/><rect class="a" y="229" width="600" height="180"/><rect class="a" y="433" width="600" height="156"/><rect class="a" y="613" width="600" height="84"/><rect class="a" y="721" width="600" height="156"/><rect class="b" x="147" y="49" width="98" height="36" rx="4" ry="4"/><text class="c" transform="translate(167.265 72.311)"><tspan class="d">P</tspan><tspan class="e" x="9.041" y="0">r</tspan><tspan class="f" x="15.482" y="0">i</tspan><tspan class="g" x="19.55" y="0">m</tspan><tspan class="h" x="33.766" y="0">a</tspan><tspan class="i" x="42.369" y="0">r</tspan><tspan x="49.43" y="0">y</tspan></text><rect class="j" x="147" y="97" width="98" height="36" rx="4" ry="4"/><text class="k" transform="translate(174.398 120.311)">H<tspan class="l" x="11.23" y="0">ov</tspan><tspan class="m" x="28.103" y="0">e</tspan><tspan class="n" x="36.735" y="0">r</tspan></text><rect class="o" x="147" y="145" width="98" height="36" rx="4" ry="4"/><text class="c" transform="translate(175.064 168.311)"><tspan class="p">D</tspan><tspan class="q" x="10.99" y="0">o</tspan><tspan class="r" x="20.065" y="0">w</tspan><tspan x="32.35" y="0">n</tspan></text><polygon class="s" points="224 138 224 135 223 135 223 133 222 133 222 131 221 131 221 129 220 129 220 128 219 128 219 125 222 125 222 126 223 126 223 117 224 117 224 116 226 116 226 117 227 117 227 121 229 121 229 122 232 122 232 123 234 123 234 124 235 124 235 125 236 125 236 132 235 132 235 135 234 135 234 138 224 138"/><polygon class="t" points="225 137 225 135 224 135 224 133 223 133 223 131 222 131 222 129 221 129 221 128 220 128 220 126 222 126 222 127 223 127 223 130 224 130 224 117 226 117 226 126 227 126 227 122 229 122 229 126 230 126 230 123 232 123 232 127 233 127 233 124 234 124 234 125 235 125 235 132 234 132 234 135 233 135 233 137 225 137"/><rect class="u" x="226" y="128" width="1" height="4"/><rect class="u" x="229" y="128" width="1" height="4"/><rect class="u" x="232" y="128" width="1" height="4"/><rect class="v" x="257.75" y="49.75" width="88.5" height="34.5" rx="3.25" ry="3.25"/><path class="b" d="M343,50.5a2.5,2.5,0,0,1,2.5,2.5V81a2.5,2.5,0,0,1-2.5,2.5H261a2.5,2.5,0,0,1-2.5-2.5V53a2.5,2.5,0,0,1,2.5-2.5h82m0-1.5H261a4.012,4.012,0,0,0-4,4V81a4.012,4.012,0,0,0,4,4h82a4.012,4.012,0,0,0,4-4V53a4.012,4.012,0,0,0-4-4Z"/><text class="w" transform="translate(276.972 71.767)"><tspan class="x">B</tspan><tspan class="y" x="9.925" y="0">u</tspan><tspan class="z" x="19.416" y="0">t</tspan><tspan class="aa" x="25.657" y="0">t</tspan><tspan class="ab" x="31.431" y="0">o</tspan><tspan x="40.534" y="0">n</tspan></text><rect class="ac" x="257.75" y="97.75" width="88.5" height="34.5" rx="3.25" ry="3.25"/><path class="b" d="M343,98.5a2.5,2.5,0,0,1,2.5,2.5v28a2.5,2.5,0,0,1-2.5,2.5H261a2.5,2.5,0,0,1-2.5-2.5V101a2.5,2.5,0,0,1,2.5-2.5h82m0-1.5H261a4.012,4.012,0,0,0-4,4v28a4.012,4.012,0,0,0,4,4h82a4.012,4.012,0,0,0,4-4V101a4.012,4.012,0,0,0-4-4Z"/><text class="ad" transform="translate(280.398 119.767)">H<tspan class="l" x="11.23" y="0">ov</tspan><tspan class="m" x="28.103" y="0">e</tspan><tspan class="n" x="36.735" y="0">r</tspan></text><rect class="ae" x="257.75" y="145.75" width="88.5" height="34.5" rx="3.25" ry="3.25"/><path class="b" d="M343,146.5a2.5,2.5,0,0,1,2.5,2.5v28a2.5,2.5,0,0,1-2.5,2.5H261a2.5,2.5,0,0,1-2.5-2.5V149a2.5,2.5,0,0,1,2.5-2.5h82m0-1.5H261a4.012,4.012,0,0,0-4,4v28a4.012,4.012,0,0,0,4,4h82a4.012,4.012,0,0,0,4-4V149a4.012,4.012,0,0,0-4-4Z"/><text class="w" transform="translate(281.064 167.767)"><tspan class="p">D</tspan><tspan class="q" x="10.99" y="0">o</tspan><tspan class="r" x="20.065" y="0">w</tspan><tspan x="32.35" y="0">n</tspan></text><polygon class="s" points="329 138 329 135 328 135 328 133 327 133 327 131 326 131 326 129 325 129 325 128 324 128 324 125 327 125 327 126 328 126 328 117 329 117 329 116 331 116 331 117 332 117 332 121 334 121 334 122 337 122 337 123 339 123 339 124 340 124 340 125 341 125 341 132 340 132 340 135 339 135 339 138 329 138"/><polygon class="t" points="330 137 330 135 329 135 329 133 328 133 328 131 327 131 327 129 326 129 326 128 325 128 325 126 327 126 327 127 328 127 328 130 329 130 329 117 331 117 331 126 332 126 332 122 334 122 334 126 335 126 335 123 337 123 337 127 338 127 338 124 339 124 339 125 340 125 340 132 339 132 339 135 338 135 338 137 330 137"/><rect class="u" x="331" y="128" width="1" height="4"/><rect class="u" x="334" y="128" width="1" height="4"/><rect class="u" x="337" y="128" width="1" height="4"/><rect class="af" x="147" y="254" width="98" height="36" rx="4" ry="4"/><text class="c" transform="translate(167.266 277.311)"><tspan class="d">P</tspan><tspan class="e" x="9.041" y="0">r</tspan><tspan class="f" x="15.482" y="0">i</tspan><tspan class="g" x="19.55" y="0">m</tspan><tspan class="h" x="33.766" y="0">a</tspan><tspan class="i" x="42.369" y="0">r</tspan><tspan x="49.43" y="0">y</tspan></text><rect class="ag" x="147" y="302" width="98" height="36" rx="4" ry="4"/><text class="k" transform="translate(174.399 325.311)">H<tspan class="l" x="11.23" y="0">ov</tspan><tspan class="m" x="28.103" y="0">e</tspan><tspan class="n" x="36.735" y="0">r</tspan></text><rect class="ah" x="147" y="350" width="98" height="36" rx="4" ry="4"/><text class="c" transform="translate(175.065 373.311)"><tspan class="p">D</tspan><tspan class="q" x="10.99" y="0">o</tspan><tspan class="r" x="20.065" y="0">w</tspan><tspan x="32.35" y="0">n</tspan></text><polygon class="s" points="224 343 224 340 223 340 223 338 222 338 222 336 221 336 221 334 220 334 220 333 219 333 219 330 222 330 222 331 223 331 223 322 224 322 224 321 226 321 226 322 227 322 227 326 229 326 229 327 232 327 232 328 234 328 234 329 235 329 235 330 236 330 236 337 235 337 235 340 234 340 234 343 224 343"/><polygon class="t" points="225 342 225 340 224 340 224 338 223 338 223 336 222 336 222 334 221 334 221 333 220 333 220 331 222 331 222 332 223 332 223 335 224 335 224 322 226 322 226 331 227 331 227 327 229 327 229 331 230 331 230 328 232 328 232 332 233 332 233 329 234 329 234 330 235 330 235 337 234 337 234 340 233 340 233 342 225 342"/><rect class="u" x="226" y="333" width="1" height="4"/><rect class="u" x="229" y="333" width="1" height="4"/><rect class="u" x="232" y="333" width="1" height="4"/><rect class="v" x="257.75" y="254.75" width="89.5" height="34.5" rx="3.25" ry="3.25"/><path class="af" d="M344,255.5a2.5,2.5,0,0,1,2.5,2.5v28a2.5,2.5,0,0,1-2.5,2.5H261a2.5,2.5,0,0,1-2.5-2.5V258a2.5,2.5,0,0,1,2.5-2.5h83m0-1.5H261a4.012,4.012,0,0,0-4,4v28a4.012,4.012,0,0,0,4,4h83a4.012,4.012,0,0,0,4-4V258a4.012,4.012,0,0,0-4-4Z"/><text class="ai" transform="translate(277.972 276.767)"><tspan class="x">B</tspan><tspan class="y" x="9.925" y="0">u</tspan><tspan class="z" x="19.416" y="0">t</tspan><tspan class="aa" x="25.657" y="0">t</tspan><tspan class="ab" x="31.431" y="0">o</tspan><tspan x="40.534" y="0">n</tspan></text><rect class="aj" x="257.75" y="302.75" width="89.5" height="34.5" rx="3.25" ry="3.25"/><path class="af" d="M344,303.5a2.5,2.5,0,0,1,2.5,2.5v28a2.5,2.5,0,0,1-2.5,2.5H261a2.5,2.5,0,0,1-2.5-2.5V306a2.5,2.5,0,0,1,2.5-2.5h83m0-1.5H261a4.012,4.012,0,0,0-4,4v28a4.012,4.012,0,0,0,4,4h83a4.012,4.012,0,0,0,4-4V306a4.012,4.012,0,0,0-4-4Z"/><text class="ak" transform="translate(281.398 324.767)">H<tspan class="l" x="11.23" y="0">ov</tspan><tspan class="m" x="28.103" y="0">e</tspan><tspan class="n" x="36.735" y="0">r</tspan></text><rect class="al" x="257.75" y="350.75" width="89.5" height="34.5" rx="3.25" ry="3.25"/><path class="af" d="M344,351.5a2.5,2.5,0,0,1,2.5,2.5v28a2.5,2.5,0,0,1-2.5,2.5H261a2.5,2.5,0,0,1-2.5-2.5V354a2.5,2.5,0,0,1,2.5-2.5h83m0-1.5H261a4.012,4.012,0,0,0-4,4v28a4.012,4.012,0,0,0,4,4h83a4.012,4.012,0,0,0,4-4V354a4.012,4.012,0,0,0-4-4Z"/><text class="ai" transform="translate(282.064 372.767)"><tspan class="p">D</tspan><tspan class="q" x="10.99" y="0">o</tspan><tspan class="r" x="20.065" y="0">w</tspan><tspan x="32.35" y="0">n</tspan></text><polygon class="s" points="329 343 329 340 328 340 328 338 327 338 327 336 326 336 326 334 325 334 325 333 324 333 324 330 327 330 327 331 328 331 328 322 329 322 329 321 331 321 331 322 332 322 332 326 334 326 334 327 337 327 337 328 339 328 339 329 340 329 340 330 341 330 341 337 340 337 340 340 339 340 339 343 329 343"/><polygon class="t" points="330 342 330 340 329 340 329 338 328 338 328 336 327 336 327 334 326 334 326 333 325 333 325 331 327 331 327 332 328 332 328 335 329 335 329 322 331 322 331 331 332 331 332 327 334 327 334 331 335 331 335 328 337 328 337 332 338 332 338 329 339 329 339 330 340 330 340 337 339 337 339 340 338 340 338 342 330 342"/><rect class="u" x="331" y="333" width="1" height="4"/><rect class="u" x="334" y="333" width="1" height="4"/><rect class="u" x="337" y="333" width="1" height="4"/><text class="w" transform="translate(371 71.767)"><tspan class="am">T</tspan><tspan class="m" x="7.351" y="0">e</tspan><tspan class="an" x="15.983" y="0">r</tspan><tspan class="ao" x="22.879" y="0">t</tspan><tspan class="ap" x="28.69" y="0">i</tspan><tspan class="h" x="32.714" y="0">a</tspan><tspan class="i" x="41.317" y="0">r</tspan><tspan x="48.377" y="0">y</tspan></text><text class="aq" transform="translate(371 659.766)"><tspan class="am">T</tspan><tspan class="m" x="7.351" y="0">e</tspan><tspan class="an" x="15.983" y="0">r</tspan><tspan class="ao" x="22.879" y="0">t</tspan><tspan class="ap" x="28.69" y="0">i</tspan><tspan class="h" x="32.714" y="0">a</tspan><tspan class="i" x="41.317" y="0">r</tspan><tspan x="48.377" y="0">y</tspan></text><text class="ar" transform="translate(371 119.767)">H<tspan class="l" x="11.23" y="0">ov</tspan><tspan class="m" x="28.103" y="0">e</tspan><tspan class="n" x="36.735" y="0">r</tspan></text><text class="as" transform="translate(371 167.767)"><tspan class="p">D</tspan><tspan class="q" x="10.99" y="0">o</tspan><tspan class="r" x="20.065" y="0">w</tspan><tspan x="32.35" y="0">n</tspan></text><polygon class="s" points="419 138 419 135 418 135 418 133 417 133 417 131 416 131 416 129 415 129 415 128 414 128 414 125 417 125 417 126 418 126 418 117 419 117 419 116 421 116 421 117 422 117 422 121 424 121 424 122 427 122 427 123 429 123 429 124 430 124 430 125 431 125 431 132 430 132 430 135 429 135 429 138 419 138"/><polygon class="t" points="420 137 420 135 419 135 419 133 418 133 418 131 417 131 417 129 416 129 416 128 415 128 415 126 417 126 417 127 418 127 418 130 419 130 419 117 421 117 421 126 422 126 422 122 424 122 424 126 425 126 425 123 427 123 427 127 428 127 428 124 429 124 429 125 430 125 430 132 429 132 429 135 428 135 428 137 420 137"/><rect class="u" x="421" y="128" width="1" height="4"/><rect class="u" x="424" y="128" width="1" height="4"/><rect class="u" x="427" y="128" width="1" height="4"/><text class="ai" transform="translate(371 276.767)"><tspan class="am">T</tspan><tspan class="m" x="7.351" y="0">e</tspan><tspan class="an" x="15.983" y="0">r</tspan><tspan class="ao" x="22.879" y="0">t</tspan><tspan class="ap" x="28.69" y="0">i</tspan><tspan class="h" x="32.714" y="0">a</tspan><tspan class="i" x="41.317" y="0">r</tspan><tspan x="48.377" y="0">y</tspan></text><text class="at" transform="translate(371 324.767)">H<tspan class="l" x="11.23" y="0">ov</tspan><tspan class="m" x="28.103" y="0">e</tspan><tspan class="n" x="36.735" y="0">r</tspan></text><text class="au" transform="translate(371 372.767)"><tspan class="p">D</tspan><tspan class="q" x="10.99" y="0">o</tspan><tspan class="r" x="20.065" y="0">w</tspan><tspan x="32.35" y="0">n</tspan></text><rect class="av" x="147" y="745" width="28" height="28" rx="4" ry="4"/><rect class="aw" x="147" y="785" width="28" height="28" rx="4" ry="4"/><rect class="ax" x="147" y="825" width="28" height="28" rx="4" ry="4"/><polygon class="ay" points="160 753 162 753 162 758 167 758 167 760 162 760 162 765 160 765 160 760 155 760 155 758 160 758 160 753"/><polygon class="ay" points="160 793 162 793 162 798 167 798 167 800 162 800 162 805 160 805 160 800 155 800 155 798 160 798 160 793"/><polygon class="ay" points="160 833 162 833 162 838 167 838 167 840 162 840 162 845 160 845 160 840 155 840 155 838 160 838 160 833"/><polygon class="s" points="171 824 171 821 170 821 170 819 169 819 169 817 168 817 168 815 167 815 167 814 166 814 166 811 169 811 169 812 170 812 170 803 171 803 171 802 173 802 173 803 174 803 174 807 176 807 176 808 179 808 179 809 181 809 181 810 182 810 182 811 183 811 183 818 182 818 182 821 181 821 181 824 171 824"/><polygon class="t" points="172 823 172 821 171 821 171 819 170 819 170 817 169 817 169 815 168 815 168 814 167 814 167 812 169 812 169 813 170 813 170 816 171 816 171 803 173 803 173 812 174 812 174 808 176 808 176 812 177 812 177 809 179 809 179 813 180 813 180 810 181 810 181 811 182 811 182 818 181 818 181 821 180 821 180 823 172 823"/><rect class="u" x="173" y="814" width="1" height="4"/><rect class="u" x="176" y="814" width="1" height="4"/><rect class="u" x="179" y="814" width="1" height="4"/><rect class="az" x="371" y="751" width="16" height="16"/><path class="ba" d="M387,759a8,8,0,1,1-8-8A8,8,0,0,1,387,759Zm-1,0a7,7,0,1,0-7,7A7,7,0,0,0,386,759Z"/><polygon class="ba" points="378 754 380 754 380 758 384 758 384 760 380 760 380 764 378 764 378 760 374 760 374 758 378 758 378 754"/><rect class="bb" x="147" y="637" width="98" height="36" rx="4" ry="4"/><text class="c" transform="translate(167.264 659.767)"><tspan class="d">P</tspan><tspan class="e" x="9.041" y="0">r</tspan><tspan class="f" x="15.482" y="0">i</tspan><tspan class="g" x="19.55" y="0">m</tspan><tspan class="h" x="33.766" y="0">a</tspan><tspan class="i" x="42.369" y="0">r</tspan><tspan x="49.43" y="0">y</tspan></text><rect class="v" x="257.75" y="637.75" width="89.5" height="34.5" rx="3.25" ry="3.25"/><path class="bb" d="M344,638.5a2.5,2.5,0,0,1,2.5,2.5v28a2.5,2.5,0,0,1-2.5,2.5H261a2.5,2.5,0,0,1-2.5-2.5V641a2.5,2.5,0,0,1,2.5-2.5h83m0-1.5H261a4.012,4.012,0,0,0-4,4v28a4.012,4.012,0,0,0,4,4h83a4.012,4.012,0,0,0,4-4V641a4.012,4.012,0,0,0-4-4Z"/><text class="aq" transform="translate(277.972 659.767)"><tspan class="x">B</tspan><tspan class="y" x="9.925" y="0">u</tspan><tspan class="z" x="19.416" y="0">t</tspan><tspan class="aa" x="25.657" y="0">t</tspan><tspan class="ab" x="31.431" y="0">o</tspan><tspan x="40.534" y="0">n</tspan></text><polygon class="s" points="419 343 419 340 418 340 418 338 417 338 417 336 416 336 416 334 415 334 415 333 414 333 414 330 417 330 417 331 418 331 418 322 419 322 419 321 421 321 421 322 422 322 422 326 424 326 424 327 427 327 427 328 429 328 429 329 430 329 430 330 431 330 431 337 430 337 430 340 429 340 429 343 419 343"/><polygon class="t" points="420 342 420 340 419 340 419 338 418 338 418 336 417 336 417 334 416 334 416 333 415 333 415 331 417 331 417 332 418 332 418 335 419 335 419 322 421 322 421 331 422 331 422 327 424 327 424 331 425 331 425 328 427 328 427 332 428 332 428 329 429 329 429 330 430 330 430 337 429 337 429 340 428 340 428 342 420 342"/><rect class="u" x="421" y="333" width="1" height="4"/><rect class="u" x="424" y="333" width="1" height="4"/><rect class="u" x="427" y="333" width="1" height="4"/><rect class="av" x="147" y="457" width="98" height="28" rx="3.528" ry="3.528"/><text class="bc" transform="translate(172.549 476.311)"><tspan class="bd">T</tspan><tspan class="be" x="6.382" y="0">o</tspan><tspan class="bf" x="14.316" y="0">o</tspan><tspan class="bg" x="22.228" y="0">l</tspan><tspan class="bh" x="25.757" y="0">b</tspan><tspan class="bi" x="33.836" y="0">a</tspan><tspan x="41.3" y="0">r</tspan></text><rect class="aw" x="147" y="497" width="98" height="28" rx="3.528" ry="3.528"/><text class="bc" transform="translate(177.264 516.311)"><tspan class="bh">H</tspan><tspan class="bj" x="9.742" y="0">ov</tspan><tspan x="24.38" y="0">er</tspan></text><rect class="ax" x="147" y="537" width="98" height="28" rx="3.528" ry="3.528"/><text class="bc" transform="translate(177.846 556.311)"><tspan class="bk">D</tspan><tspan class="bl" x="9.534" y="0">o</tspan><tspan class="bm" x="17.407" y="0">w</tspan><tspan x="28.06" y="0">n</tspan></text><polygon class="s" points="224 534 224 531 223 531 223 529 222 529 222 527 221 527 221 525 220 525 220 524 219 524 219 521 222 521 222 522 223 522 223 513 224 513 224 512 226 512 226 513 227 513 227 517 229 517 229 518 232 518 232 519 234 519 234 520 235 520 235 521 236 521 236 528 235 528 235 531 234 531 234 534 224 534"/><polygon class="t" points="225 533 225 531 224 531 224 529 223 529 223 527 222 527 222 525 221 525 221 524 220 524 220 522 222 522 222 523 223 523 223 526 224 526 224 513 226 513 226 522 227 522 227 518 229 518 229 522 230 522 230 519 232 519 232 523 233 523 233 520 234 520 234 521 235 521 235 528 234 528 234 531 233 531 233 533 225 533"/><rect class="u" x="226" y="524" width="1" height="4"/><rect class="u" x="229" y="524" width="1" height="4"/><rect class="u" x="232" y="524" width="1" height="4"/><text class="bn" transform="translate(371 475.767)"><tspan class="bo">T</tspan><tspan x="6.382" y="0">e</tspan><tspan class="bp" x="13.872" y="0">r</tspan><tspan class="bq" x="19.853" y="0">t</tspan><tspan class="bj" x="24.896" y="0">i</tspan><tspan class="br" x="28.391" y="0">a</tspan><tspan class="bs" x="35.855" y="0">r</tspan><tspan x="41.979" y="0">y</tspan></text><text class="bn" transform="translate(371 515.767)"><tspan class="bh">H</tspan><tspan class="bt" x="9.742" y="0">ov</tspan><tspan x="24.38" y="0">er</tspan></text><text class="bn" transform="translate(371 555.767)"><tspan class="be">D</tspan><tspan class="bl" x="9.534" y="0">o</tspan><tspan class="bm" x="17.407" y="0">w</tspan><tspan x="28.06" y="0">n</tspan></text><polygon class="s" points="419 534 419 531 418 531 418 529 417 529 417 527 416 527 416 525 415 525 415 524 414 524 414 521 417 521 417 522 418 522 418 513 419 513 419 512 421 512 421 513 422 513 422 517 424 517 424 518 427 518 427 519 429 519 429 520 430 520 430 521 431 521 431 528 430 528 430 531 429 531 429 534 419 534"/><polygon class="t" points="420 533 420 531 419 531 419 529 418 529 418 527 417 527 417 525 416 525 416 524 415 524 415 522 417 522 417 523 418 523 418 526 419 526 419 513 421 513 421 522 422 522 422 518 424 518 424 522 425 522 425 519 427 519 427 523 428 523 428 520 429 520 429 521 430 521 430 528 429 528 429 531 428 531 428 533 420 533"/><rect class="u" x="421" y="524" width="1" height="4"/><rect class="u" x="424" y="524" width="1" height="4"/><rect class="u" x="427" y="524" width="1" height="4"/><rect class="bu" x="98" y="37" width="1" height="156"/><text class="bv" transform="translate(43.621 111.331)"><tspan class="bw">G</tspan><tspan class="bx" x="9.426" y="0">R</tspan><tspan class="by" x="17.822" y="0">EE</tspan><tspan x="32.198" y="0">N</tspan><tspan class="bz" x="-14.679" y="18">(</tspan><tspan class="ca" x="-10.543" y="18">A</tspan><tspan class="cb" x="-2.142" y="18">C</tspan><tspan class="cc" x="6.558" y="18">T</tspan><tspan class="cd" x="13.964" y="18">I</tspan><tspan class="ce" x="17.926" y="18">O</tspan><tspan class="cf" x="28.122" y="18">N</tspan><tspan x="38.26" y="18">)</tspan></text><rect class="bu" x="98" y="241" width="1" height="156"/><text class="bv" transform="translate(53.685 315.331)"><tspan class="cg">B</tspan><tspan class="ch" x="8.594" y="0">L</tspan><tspan class="cf" x="15.455" y="0">U</tspan><tspan x="25.059" y="0">E</tspan><tspan class="bz" x="-24.744" y="18">(</tspan><tspan class="ca" x="-20.607" y="18">A</tspan><tspan class="cb" x="-12.206" y="18">C</tspan><tspan class="cc" x="-3.507" y="18">T</tspan><tspan class="cd" x="3.899" y="18">I</tspan><tspan class="ce" x="7.862" y="18">O</tspan><tspan class="cf" x="18.058" y="18">N</tspan><tspan x="28.195" y="18">)</tspan></text><rect class="bu" x="98" y="445" width="1" height="132"/><text class="bv" transform="translate(50.992 506.331)"><tspan class="ci">N</tspan><tspan class="cj" x="10.326" y="0">A</tspan><tspan class="ck" x="18.463" y="0">V</tspan><tspan x="27.314" y="0">Y</tspan><tspan class="cl" x="-34.014" y="18">(</tspan><tspan class="cm" x="-29.415" y="18">T</tspan><tspan x="-22.185" y="18">O</tspan><tspan class="ce" x="-11.953" y="18">OL</tspan><tspan class="cn" x="5.253" y="18">B</tspan><tspan class="co" x="13.903" y="18">A</tspan><tspan class="cp" x="22.649" y="18">R</tspan><tspan x="30.888" y="18">)</tspan></text><rect class="bu" x="98" y="733" width="1" height="132"/><text class="bv" transform="translate(53.764 802.963)"><tspan class="cq">I</tspan><tspan class="cr" x="3.94" y="0">C</tspan><tspan class="ce" x="11.858" y="0">O</tspan><tspan x="22.054" y="0">N</tspan></text><text class="bv" transform="translate(147 12.077)"><tspan class="cs">R</tspan><tspan class="co" x="9.007" y="0">A</tspan><tspan class="ct" x="17.754" y="0">I</tspan><tspan class="cu" x="21.788" y="0">S</tspan><tspan class="by" x="28.916" y="0">E</tspan><tspan x="36.103" y="0">D</tspan></text><text class="bv" transform="translate(371 12.077)"><tspan class="cv">F</tspan><tspan class="cw" x="6.842" y="0">L</tspan><tspan class="cx" x="14.464" y="0">A</tspan><tspan x="22.363" y="0">T</tspan></text><rect class="bu" x="98" y="625" width="1" height="60"/><text class="bv" transform="translate(24.09 660)"><tspan class="cy">D</tspan><tspan class="ct" x="9.494" y="0">I</tspan><tspan class="cz" x="13.527" y="0">SA</tspan><tspan class="cg" x="29.579" y="0">B</tspan><tspan class="ce" x="38.173" y="0">L</tspan><tspan class="by" x="45.182" y="0">E</tspan><tspan x="52.37" y="0">D</tspan></text><rect class="az" width="600" height="877"/></svg>