<svg xmlns="http://www.w3.org/2000/svg" width="254.001" height="24" viewBox="0 0 254.001 24">
  <defs>
    <style>
      .a {
        fill: #838f93;
      }

      .b {
        font-size: 15px;
        fill: #fff;
        font-family: OpenSans, Open Sans;
      }

      .c {
        letter-spacing: -0.008em;
      }

      .d {
        letter-spacing: -0.009em;
      }

      .e {
        letter-spacing: 0em;
      }
    </style>
  </defs>
  <title>chip_02</title>
  <g>
    <g>
      <path class="a" d="M12,24A12,12,0,1,1,12,0H44a12,12,0,0,1,0,24Z"/>
      <text class="b" transform="translate(12.001 17)">C<tspan class="c" x="9.463" y="0">h</tspan><tspan class="d" x="18.557" y="0">i</tspan><tspan class="e" x="22.221" y="0">p</tspan></text>
    </g>
    <g>
      <path class="a" d="M78,24A12,12,0,0,1,78,0h32a12,12,0,0,1,0,24Z"/>
      <text class="b" transform="translate(78.001 17)">C<tspan class="c" x="9.463" y="0">h</tspan><tspan class="d" x="18.557" y="0">i</tspan><tspan class="e" x="22.221" y="0">p</tspan></text>
    </g>
    <g>
      <path class="a" d="M144,24a12,12,0,0,1,0-24h32a12,12,0,0,1,0,24Z"/>
      <text class="b" transform="translate(144.001 17)">C<tspan class="c" x="9.463" y="0">h</tspan><tspan class="d" x="18.557" y="0">i</tspan><tspan class="e" x="22.221" y="0">p</tspan></text>
    </g>
    <g>
      <path class="a" d="M210,24a12,12,0,0,1,0-24h32a12,12,0,0,1,0,24Z"/>
      <text class="b" transform="translate(210.001 17)">C<tspan class="c" x="9.463" y="0">h</tspan><tspan class="d" x="18.557" y="0">i</tspan><tspan class="e" x="22.221" y="0">p</tspan></text>
    </g>
  </g>
</svg>
