<svg xmlns="http://www.w3.org/2000/svg" width="546" height="188" viewBox="0 0 546 188"><defs><style>.a{fill:#838f93;}.b,.c{fill:#fff;}.b{fill-rule:evenodd;}.c{font-size:15px;font-family:OpenSans, Open Sans;}.d{letter-spacing:-0.01em;}.e{letter-spacing:-0.004em;}.f{letter-spacing:-0.006em;}.g{letter-spacing:-0.002em;}.h{letter-spacing:-0.006em;}.i{letter-spacing:-0.003em;}.j{letter-spacing:-0.008em;}.k{letter-spacing:-0.009em;}.l{letter-spacing:0em;}.m{font-size:13px;fill:#989ea7;font-family:Helvetica-Bold, Helvetica;font-weight:700;}.n{letter-spacing:0.003em;}.o{letter-spacing:-0.079em;}.p{letter-spacing:-0.075em;}.q{letter-spacing:0.006em;}.r{letter-spacing:0.005em;}.s{letter-spacing:-0.005em;}.t{letter-spacing:0.008em;}.u{letter-spacing:0.003em;}.v{letter-spacing:-0.023em;}.w{letter-spacing:-0.013em;}.x{letter-spacing:0.012em;}.y{letter-spacing:0.005em;}.z{letter-spacing:-0.005em;}.aa{letter-spacing:0.008em;}.ab{letter-spacing:0.003em;}.ac{fill:none;}</style></defs><title>chips_01</title><path class="a" d="M24,52a12,12,0,0,1,0-24h99a12,12,0,0,1,0,24Z"/><polygon class="b" points="114.019 35.08 115.08 34.02 119.5 38.44 123.918 34.02 124.979 35.08 120.56 39.5 124.979 43.92 123.918 44.98 119.5 40.56 115.08 44.98 114.019 43.92 118.439 39.5 114.019 35.08"/><text class="c" transform="translate(24 45)"><tspan class="d">R</tspan><tspan class="e" x="9.121" y="0">em</tspan><tspan class="f" x="31.363" y="0">o</tspan><tspan class="g" x="40.33" y="0">v</tspan><tspan class="h" x="47.812" y="0">a</tspan><tspan class="i" x="56.062" y="0">b</tspan><tspan class="e" x="65.203" y="0">l</tspan><tspan x="68.932" y="0">e</tspan></text><path class="a" d="M157,52a12,12,0,1,1,0-24h99a12,12,0,0,1,0,24Z"/><polygon class="b" points="247.019 35.08 248.08 34.02 252.5 38.44 256.918 34.02 257.979 35.08 253.56 39.5 257.979 43.92 256.918 44.98 252.5 40.56 248.08 44.98 247.019 43.92 251.439 39.5 247.019 35.08"/><text class="c" transform="translate(157 45)"><tspan class="d">R</tspan><tspan class="e" x="9.121" y="0">em</tspan><tspan class="f" x="31.363" y="0">o</tspan><tspan class="g" x="40.33" y="0">v</tspan><tspan class="h" x="47.812" y="0">a</tspan><tspan class="i" x="56.062" y="0">b</tspan><tspan class="e" x="65.203" y="0">l</tspan><tspan x="68.932" y="0">e</tspan></text><path class="a" d="M290,52a12,12,0,0,1,0-24h99a12,12,0,0,1,0,24Z"/><polygon class="b" points="380.021 35.08 381.079 34.02 385.5 38.44 389.919 34.02 390.979 35.08 386.56 39.5 390.979 43.92 389.919 44.98 385.5 40.56 381.079 44.98 380.021 43.92 384.439 39.5 380.021 35.08"/><text class="c" transform="translate(290 45)"><tspan class="d">R</tspan><tspan class="e" x="9.121" y="0">em</tspan><tspan class="f" x="31.363" y="0">o</tspan><tspan class="g" x="40.33" y="0">v</tspan><tspan class="h" x="47.812" y="0">a</tspan><tspan class="i" x="56.062" y="0">b</tspan><tspan class="e" x="65.203" y="0">l</tspan><tspan x="68.932" y="0">e</tspan></text><path class="a" d="M423,52a12,12,0,0,1,0-24h99a12,12,0,0,1,0,24Z"/><polygon class="b" points="513.021 35.08 514.079 34.02 518.5 38.44 522.919 34.02 523.978 35.08 519.56 39.5 523.978 43.92 522.919 44.98 518.5 40.56 514.079 44.98 513.021 43.92 517.439 39.5 513.021 35.08"/><text class="c" transform="translate(423 45)"><tspan class="d">R</tspan><tspan class="e" x="9.121" y="0">em</tspan><tspan class="f" x="31.363" y="0">o</tspan><tspan class="g" x="40.33" y="0">v</tspan><tspan class="h" x="47.812" y="0">a</tspan><tspan class="i" x="56.062" y="0">b</tspan><tspan class="e" x="65.203" y="0">l</tspan><tspan x="68.932" y="0">e</tspan></text><path class="a" d="M158,187a12,12,0,1,1,0-24h32a12,12,0,0,1,0,24Z"/><text class="c" transform="translate(158 180)">C<tspan class="j" x="9.463" y="0">h</tspan><tspan class="k" x="18.557" y="0">i</tspan><tspan class="l" x="22.221" y="0">p</tspan></text><path class="a" d="M224,187a12,12,0,0,1,0-24h32a12,12,0,0,1,0,24Z"/><text class="c" transform="translate(224 180)">C<tspan class="j" x="9.463" y="0">h</tspan><tspan class="k" x="18.557" y="0">i</tspan><tspan class="l" x="22.221" y="0">p</tspan></text><path class="a" d="M290,187a12,12,0,0,1,0-24h32a12,12,0,0,1,0,24Z"/><text class="c" transform="translate(290 180)">C<tspan class="j" x="9.463" y="0">h</tspan><tspan class="k" x="18.557" y="0">i</tspan><tspan class="l" x="22.221" y="0">p</tspan></text><path class="a" d="M356,187a12,12,0,0,1,0-24h32a12,12,0,0,1,0,24Z"/><text class="c" transform="translate(356 180)">C<tspan class="j" x="9.463" y="0">h</tspan><tspan class="k" x="18.557" y="0">i</tspan><tspan class="l" x="22.221" y="0">p</tspan></text><text class="m" transform="translate(233.057 147.178)"><tspan class="n">S</tspan><tspan class="o" x="8.711" y="0">T</tspan><tspan class="p" x="15.632" y="0">A</tspan><tspan class="q" x="24.042" y="0">T</tspan><tspan class="r" x="32.063" y="0">I</tspan><tspan x="35.744" y="0">C </tspan><tspan class="s" x="48.744" y="0">C</tspan><tspan class="t" x="58.072" y="0">H</tspan><tspan class="u" x="67.569" y="0">I</tspan><tspan x="71.215" y="0">P</tspan></text><text class="m" transform="translate(235.522 12.141)"><tspan class="v">B</tspan><tspan class="w" x="9.083" y="0">A</tspan><tspan class="x" x="18.308" y="0">S</tspan><tspan class="y" x="27.131" y="0">I</tspan><tspan x="30.813" y="0">C </tspan><tspan class="z" x="43.813" y="0">C</tspan><tspan class="aa" x="53.14" y="0">H</tspan><tspan class="ab" x="62.638" y="0">I</tspan><tspan x="66.283" y="0">P</tspan></text><rect class="ac" width="546" height="188"/></svg>