<svg xmlns="http://www.w3.org/2000/svg" width="550" height="192" viewBox="0 0 550 192"><defs><style>.a{fill:#fff;}.b{fill:#ddd;}.c{fill:#bbb;}.d{fill:#eee;}.e{font-size:13px;fill:#151921;font-family:RobotoMono-Medium, Roboto Mono;}.f{letter-spacing:-0.011em;}.g{letter-spacing:-0.014em;}.h{letter-spacing:-0.033em;}.i{letter-spacing:0.003em;}.j{letter-spacing:-0.025em;}.k{letter-spacing:-0.056em;}.l{letter-spacing:-0.011em;}.m{letter-spacing:-0.013em;}.n{letter-spacing:-0.033em;}.o{letter-spacing:-0.009em;}.p{letter-spacing:-0.023em;}.q{letter-spacing:-0.007em;}.r{letter-spacing:-0.032em;}.s{letter-spacing:-0.004em;}.t{letter-spacing:0.002em;}.u{letter-spacing:0em;}.v{letter-spacing:-0.029em;}.w{letter-spacing:-0.025em;}.x{letter-spacing:-0.009em;}.y{letter-spacing:-0.023em;}.z{letter-spacing:-0.056em;}.aa{letter-spacing:-0.021em;}.ab{letter-spacing:-0.005em;}.ac{letter-spacing:-0.012em;}.ad{letter-spacing:-0.019em;}.ae{letter-spacing:-0.011em;}.af{letter-spacing:-0.034em;}.ag{letter-spacing:-0.002em;}.ah{letter-spacing:-0.001em;}.ai{letter-spacing:0.001em;}.aj{letter-spacing:-0.002em;}.ak{letter-spacing:-0.007em;}.al{letter-spacing:-0.017em;}.am{letter-spacing:-0.012em;}.an{letter-spacing:-0.007em;}.ao{letter-spacing:-0.003em;}.ap{letter-spacing:-0.003em;}.aq{letter-spacing:-0.025em;}.ar{letter-spacing:-0.026em;}.as{letter-spacing:-0.001em;}.at{letter-spacing:-0.06em;}.au{letter-spacing:-0.128em;}.av{letter-spacing:-0.087em;}.aw{letter-spacing:-0.024em;}.ax{letter-spacing:-0.198em;}.ay{letter-spacing:-0.202em;}.az{letter-spacing:-0.087em;}.ba{letter-spacing:-0.025em;}.bb{letter-spacing:-0.201em;}.bc{letter-spacing:-0.072em;}.bd{letter-spacing:-0.113em;}.be{letter-spacing:-0.017em;}.bf{letter-spacing:-0.051em;}.bg{letter-spacing:-0.146em;}.bh{letter-spacing:-0.1em;}.bi{letter-spacing:-0.1em;}.bj{letter-spacing:-0.017em;}.bk{letter-spacing:-0.144em;}.bl{letter-spacing:-0.022em;}.bm{letter-spacing:-0.032em;}.bn{letter-spacing:-0.092em;}.bo{letter-spacing:-0.122em;}.bp{letter-spacing:-0.178em;}.bq{letter-spacing:-0.113em;}.br{letter-spacing:-0.038em;}.bs{letter-spacing:-0.024em;}.bt{letter-spacing:-0.093em;}.bu{letter-spacing:-0.024em;}.bv{letter-spacing:-0.093em;}.bw{letter-spacing:-0.082em;}</style></defs><title>color_02</title><rect class="a" x="0.5" y="143.5" width="549" height="48"/><path class="b" d="M549,144v47H1V144H549m1-1H0v49H550V143Z"/><rect class="c" width="550" height="48"/><rect class="b" y="48" width="550" height="48"/><rect class="d" y="96" width="550" height="48"/><text class="e" transform="translate(24 28.936)"><tspan class="f">P</tspan><tspan class="g" x="7.665" y="0">R</tspan><tspan class="h" x="15.284" y="0">I</tspan><tspan class="i" x="22.663" y="0">M</tspan><tspan x="30.503" y="0">A</tspan><tspan class="j" x="38.304" y="0">R</tspan><tspan x="45.781" y="0">Y </tspan><tspan class="k" x="61.383" y="0">D</tspan><tspan class="l" x="68.455" y="0">I</tspan><tspan class="m" x="76.107" y="0">V</tspan><tspan class="n" x="83.746" y="0">I</tspan><tspan class="o" x="91.118" y="0">D</tspan><tspan class="p" x="98.797" y="0">E</tspan><tspan x="106.299" y="0">R</tspan><tspan class="q" x="0" y="48">S</tspan><tspan class="r" x="7.705" y="48">E</tspan><tspan class="s" x="15.097" y="48">C</tspan><tspan class="t" x="22.846" y="48">O</tspan><tspan class="u" x="30.677" y="48">N</tspan><tspan class="v" x="38.473" y="48">D</tspan><tspan x="45.896" y="48">A</tspan><tspan class="w" x="53.698" y="48">R</tspan><tspan x="61.174" y="48">Y </tspan><tspan class="k" x="76.776" y="48">D</tspan><tspan class="l" x="83.848" y="48">I</tspan><tspan class="m" x="91.5" y="48">V</tspan><tspan class="n" x="99.139" y="48">I</tspan><tspan class="x" x="106.511" y="48">D</tspan><tspan class="y" x="114.19" y="48">E</tspan><tspan x="121.692" y="48">R</tspan><tspan class="z" x="0" y="96">P</tspan><tspan class="aa" x="7.073" y="96">A</tspan><tspan class="ab" x="14.608" y="96">G</tspan><tspan x="22.351" y="96">E </tspan><tspan class="ac" x="37.953" y="96">B</tspan><tspan class="ad" x="45.599" y="96">A</tspan><tspan class="ae" x="53.153" y="96">C</tspan><tspan class="af" x="60.811" y="96">K</tspan><tspan class="ag" x="68.177" y="96">G</tspan><tspan class="s" x="75.952" y="96">R</tspan><tspan class="ah" x="83.702" y="96">O</tspan><tspan class="ai" x="91.494" y="96">U</tspan><tspan class="u" x="99.303" y="96">N</tspan><tspan x="107.099" y="96">D</tspan><tspan class="s" x="0" y="144">C</tspan><tspan class="t" x="7.75" y="144">O</tspan><tspan class="aj" x="15.581" y="144">N</tspan><tspan class="ak" x="23.362" y="144">T</tspan><tspan class="al" x="31.072" y="144">E</tspan><tspan class="aj" x="38.646" y="144">N</tspan><tspan x="46.428" y="144">T </tspan><tspan class="am" x="62.031" y="144">B</tspan><tspan class="ad" x="69.676" y="144">A</tspan><tspan class="ae" x="77.23" y="144">C</tspan><tspan class="af" x="84.888" y="144">K</tspan><tspan class="ag" x="92.254" y="144">G</tspan><tspan class="s" x="100.029" y="144">R</tspan><tspan class="ah" x="107.779" y="144">O</tspan><tspan class="ai" x="115.571" y="144">U</tspan><tspan class="u" x="123.38" y="144">N</tspan><tspan x="131.176" y="144">D</tspan></text><text class="e" transform="translate(287 28.936)"><tspan class="an">#</tspan><tspan class="ao" x="7.71" y="0">BBBBB</tspan><tspan x="46.496" y="0">B</tspan><tspan class="s" x="0" y="48">#</tspan><tspan class="ap" x="7.75" y="48">DDDDD</tspan><tspan x="46.567" y="48">D</tspan><tspan class="f" x="0" y="96">#</tspan><tspan class="aq" x="7.665" y="96">EEEEE</tspan><tspan x="45.014" y="96">E</tspan><tspan class="ac" x="0" y="144">#</tspan><tspan class="ar" x="7.646" y="144">FFFFF</tspan><tspan x="44.994" y="144">F</tspan></text><text class="e" transform="translate(396 28.936)"><tspan class="ab">R</tspan><tspan class="as" x="7.743" y="0">G</tspan><tspan class="at" x="15.531" y="0">B</tspan><tspan class="au" x="22.551" y="0">(</tspan><tspan class="av" x="28.692" y="0">1</tspan><tspan class="aw" x="35.362" y="0">8</tspan><tspan class="ax" x="42.845" y="0">7</tspan><tspan class="ay" x="48.071" y="0">,</tspan><tspan class="az" x="53.253" y="0">1</tspan><tspan class="ba" x="59.923" y="0">8</tspan><tspan class="ax" x="67.406" y="0">7</tspan><tspan class="bb" x="72.632" y="0">,</tspan><tspan class="av" x="77.814" y="0">1</tspan><tspan class="aw" x="84.484" y="0">8</tspan><tspan class="bc" x="91.967" y="0">7</tspan><tspan x="98.837" y="0">)</tspan><tspan class="ab" x="0" y="48">R</tspan><tspan class="as" x="7.743" y="48">G</tspan><tspan class="at" x="15.531" y="48">B</tspan><tspan class="bd" x="22.551" y="48">(</tspan><tspan class="be" x="28.887" y="48">2</tspan><tspan class="bf" x="36.467" y="48">2</tspan><tspan class="bg" x="43.599" y="48">1</tspan><tspan class="bh" x="49.5" y="48">,</tspan><tspan class="be" x="56" y="48">2</tspan><tspan class="bf" x="63.58" y="48">2</tspan><tspan class="bg" x="70.712" y="48">1</tspan><tspan class="bi" x="76.613" y="48">,</tspan><tspan class="bj" x="83.112" y="48">2</tspan><tspan class="bf" x="90.693" y="48">2</tspan><tspan class="bk" x="97.825" y="48">1</tspan><tspan x="103.758" y="48">)</tspan><tspan class="ab" x="0" y="96">R</tspan><tspan class="as" x="7.743" y="96">G</tspan><tspan class="at" x="15.531" y="96">B</tspan><tspan class="bd" x="22.551" y="96">(</tspan><tspan class="bl" x="28.887" y="96">2</tspan><tspan class="bm" x="36.396" y="96">3</tspan><tspan class="bn" x="43.781" y="96">8</tspan><tspan class="bh" x="50.389" y="96">,</tspan><tspan class="bl" x="56.889" y="96">2</tspan><tspan class="bm" x="64.398" y="96">3</tspan><tspan class="bn" x="71.783" y="96">8</tspan><tspan class="bh" x="78.391" y="96">,</tspan><tspan class="bl" x="84.891" y="96">2</tspan><tspan class="bm" x="92.4" y="96">3</tspan><tspan class="bo" x="99.785" y="96">8</tspan><tspan x="105.998" y="96">)</tspan><tspan class="ab" x="0" y="144">R</tspan><tspan class="as" x="7.743" y="144">G</tspan><tspan class="at" x="15.531" y="144">B</tspan><tspan class="bp" x="22.551" y="144">(</tspan><tspan class="bq" x="28.037" y="144">(</tspan><tspan class="br" x="34.373" y="144">2</tspan><tspan class="bs" x="41.68" y="144">5</tspan><tspan class="bt" x="49.17" y="144">5</tspan><tspan class="bh" x="55.759" y="144">,</tspan><tspan class="br" x="62.259" y="144">2</tspan><tspan class="bu" x="69.566" y="144">5</tspan><tspan class="bv" x="77.056" y="144">5</tspan><tspan class="bh" x="83.646" y="144">,</tspan><tspan class="br" x="90.146" y="144">2</tspan><tspan class="bu" x="97.453" y="144">5</tspan><tspan class="bw" x="104.942" y="144">5</tspan><tspan x="111.676" y="144">)</tspan></text></svg>