<svg xmlns="http://www.w3.org/2000/svg" width="600" height="780.063" viewBox="0 0 600 780.063"><defs><style>.a{fill:#fafafa;}.ad,.b,.w{fill:#26b910;}.ad,.ai,.ak,.aq,.ar,.as,.at,.au,.c,.k,.w{font-size:15px;}.c,.k,.t,.v{fill:#fff;}.ad,.ai,.ak,.aq,.ar,.as,.at,.au,.bd,.c,.k,.w{font-family:OpenSans-Semibold, Open Sans;font-weight:700;}.d{letter-spacing:-0.013em;}.e{letter-spacing:-0.002em;}.f{letter-spacing:-0.008em;}.g{letter-spacing:-0.008em;}.h{letter-spacing:-0.007em;}.i{letter-spacing:0.04em;}.ar,.j{fill:#1d8d0c;}.ad,.ak,.ar,.at,.k{letter-spacing:-0.002em;}.l{letter-spacing:-0.011em;}.m{letter-spacing:-0.001em;}.n{letter-spacing:0em;}.as,.o{fill:#135807;}.p{letter-spacing:-0.001em;}.q{letter-spacing:-0.006em;}.r{letter-spacing:0.002em;}.s,.u{fill:#272525;}.az,.bb,.s,.t{fill-rule:evenodd;}.x{letter-spacing:0.001em;}.y{letter-spacing:-0.002em;}.z{letter-spacing:0.023em;}.aa{letter-spacing:-0.008em;}.ab{letter-spacing:-0.004em;}.ac{fill:#d0f7cc;}.ae{fill:#b6eeaf;}.af,.ai,.ak{fill:#0098f3;}.ag,.at{fill:#007bc4;}.ah,.au{fill:#00568a;}.aj{fill:#d4eefd;}.al{fill:#b4e0fc;}.am{letter-spacing:-0.076em;}.an{letter-spacing:0.029em;}.ao{letter-spacing:-0.006em;}.ap{letter-spacing:-0.011em;}.aq,.ay{fill:#ccc;}.av,.bb{fill:#354052;}.aw{fill:#151921;}.ax{fill:#838f93;}.az{fill:#edeef0;}.ba{fill:none;}.bc,.bd{fill:#ff8300;}.bd{font-size:13px;}.be{letter-spacing:-0.001em;}.bf{letter-spacing:0.007em;}.bg{letter-spacing:-0.005em;}.bh{letter-spacing:0.001em;}.bi{letter-spacing:-0.014em;}.bj{letter-spacing:-0.003em;}.bk{letter-spacing:-0.002em;}.bl{letter-spacing:-0.025em;}.bm{letter-spacing:-0.003em;}.bn{letter-spacing:0.054em;}.bo{letter-spacing:0.012em;}.bp{letter-spacing:0.005em;}.bq{letter-spacing:-0.002em;}.br{letter-spacing:-0.006em;}.bs{letter-spacing:0.044em;}.bt{letter-spacing:-0.054em;}.bu{letter-spacing:-0.004em;}.bv{letter-spacing:0.012em;}</style></defs><title>color_01_1</title><rect class="a" y="36.063" width="600" height="204"/><rect class="a" y="264.063" width="600" height="204"/><rect class="a" y="492.063" width="600" height="84"/><rect class="a" y="600.063" width="600" height="180"/><rect class="b" x="147" y="60.063" width="98" height="36" rx="4" ry="4"/><text class="c" transform="translate(167.265 83.374)"><tspan class="d">P</tspan><tspan class="e" x="9.041" y="0">r</tspan><tspan class="f" x="15.482" y="0">i</tspan><tspan class="g" x="19.55" y="0">m</tspan><tspan class="h" x="33.766" y="0">a</tspan><tspan class="i" x="42.369" y="0">r</tspan><tspan x="49.43" y="0">y</tspan></text><rect class="j" x="147" y="120.063" width="98" height="36" rx="4" ry="4"/><text class="k" transform="translate(174.398 143.374)">H<tspan class="l" x="11.23" y="0">ov</tspan><tspan class="m" x="28.103" y="0">e</tspan><tspan class="n" x="36.735" y="0">r</tspan></text><rect class="o" x="147" y="180.063" width="98" height="36" rx="4" ry="4"/><text class="c" transform="translate(175.064 203.374)"><tspan class="p">D</tspan><tspan class="q" x="10.99" y="0">o</tspan><tspan class="r" x="20.065" y="0">w</tspan><tspan x="32.35" y="0">n</tspan></text><polygon class="s" points="224 161.063 224 158.063 223 158.063 223 156.063 222 156.063 222 154.063 221 154.063 221 152.063 220 152.063 220 151.063 219 151.063 219 148.063 222 148.063 222 149.063 223 149.063 223 140.063 224 140.063 224 139.063 226 139.063 226 140.063 227 140.063 227 144.063 229 144.063 229 145.063 232 145.063 232 146.063 234 146.063 234 147.063 235 147.063 235 148.063 236 148.063 236 155.063 235 155.063 235 158.063 234 158.063 234 161.063 224 161.063"/><polygon class="t" points="225 160.063 225 158.063 224 158.063 224 156.063 223 156.063 223 154.063 222 154.063 222 152.063 221 152.063 221 151.063 220 151.063 220 149.063 222 149.063 222 150.063 223 150.063 223 153.063 224 153.063 224 140.063 226 140.063 226 149.063 227 149.063 227 145.063 229 145.063 229 149.063 230 149.063 230 146.063 232 146.063 232 150.063 233 150.063 233 147.063 234 147.063 234 148.063 235 148.063 235 155.063 234 155.063 234 158.063 233 158.063 233 160.063 225 160.063"/><rect class="u" x="226" y="151.063" width="1" height="4"/><rect class="u" x="229" y="151.063" width="1" height="4"/><rect class="u" x="232" y="151.063" width="1" height="4"/><rect class="v" x="257.75" y="60.813" width="88.5" height="34.5" rx="3.25" ry="3.25"/><path class="b" d="M343,61.563a2.5,2.5,0,0,1,2.5,2.5v28a2.5,2.5,0,0,1-2.5,2.5H261a2.5,2.5,0,0,1-2.5-2.5v-28a2.5,2.5,0,0,1,2.5-2.5h82m0-1.5H261a4.012,4.012,0,0,0-4,4v28a4.012,4.012,0,0,0,4,4h82a4.012,4.012,0,0,0,4-4v-28a4.012,4.012,0,0,0-4-4Z"/><text class="w" transform="translate(276.972 82.83)"><tspan class="x">B</tspan><tspan class="y" x="9.925" y="0">u</tspan><tspan class="z" x="19.416" y="0">t</tspan><tspan class="aa" x="25.657" y="0">t</tspan><tspan class="ab" x="31.431" y="0">o</tspan><tspan x="40.534" y="0">n</tspan></text><rect class="ac" x="257.75" y="120.813" width="88.5" height="34.5" rx="3.25" ry="3.25"/><path class="b" d="M343,121.563a2.5,2.5,0,0,1,2.5,2.5v28a2.5,2.5,0,0,1-2.5,2.5H261a2.5,2.5,0,0,1-2.5-2.5v-28a2.5,2.5,0,0,1,2.5-2.5h82m0-1.5H261a4.012,4.012,0,0,0-4,4v28a4.012,4.012,0,0,0,4,4h82a4.012,4.012,0,0,0,4-4v-28a4.012,4.012,0,0,0-4-4Z"/><text class="ad" transform="translate(280.398 142.83)">H<tspan class="l" x="11.23" y="0">ov</tspan><tspan class="m" x="28.103" y="0">e</tspan><tspan class="n" x="36.735" y="0">r</tspan></text><rect class="ae" x="257.75" y="180.813" width="88.5" height="34.5" rx="3.25" ry="3.25"/><path class="b" d="M343,181.563a2.5,2.5,0,0,1,2.5,2.5v28a2.5,2.5,0,0,1-2.5,2.5H261a2.5,2.5,0,0,1-2.5-2.5v-28a2.5,2.5,0,0,1,2.5-2.5h82m0-1.5H261a4.012,4.012,0,0,0-4,4v28a4.012,4.012,0,0,0,4,4h82a4.012,4.012,0,0,0,4-4v-28a4.012,4.012,0,0,0-4-4Z"/><text class="w" transform="translate(281.064 202.83)"><tspan class="p">D</tspan><tspan class="q" x="10.99" y="0">o</tspan><tspan class="r" x="20.065" y="0">w</tspan><tspan x="32.35" y="0">n</tspan></text><polygon class="s" points="329 161.063 329 158.063 328 158.063 328 156.063 327 156.063 327 154.063 326 154.063 326 152.063 325 152.063 325 151.063 324 151.063 324 148.063 327 148.063 327 149.063 328 149.063 328 140.063 329 140.063 329 139.063 331 139.063 331 140.063 332 140.063 332 144.063 334 144.063 334 145.063 337 145.063 337 146.063 339 146.063 339 147.063 340 147.063 340 148.063 341 148.063 341 155.063 340 155.063 340 158.063 339 158.063 339 161.063 329 161.063"/><polygon class="t" points="330 160.063 330 158.063 329 158.063 329 156.063 328 156.063 328 154.063 327 154.063 327 152.063 326 152.063 326 151.063 325 151.063 325 149.063 327 149.063 327 150.063 328 150.063 328 153.063 329 153.063 329 140.063 331 140.063 331 149.063 332 149.063 332 145.063 334 145.063 334 149.063 335 149.063 335 146.063 337 146.063 337 150.063 338 150.063 338 147.063 339 147.063 339 148.063 340 148.063 340 155.063 339 155.063 339 158.063 338 158.063 338 160.063 330 160.063"/><rect class="u" x="331" y="151.063" width="1" height="4"/><rect class="u" x="334" y="151.063" width="1" height="4"/><rect class="u" x="337" y="151.063" width="1" height="4"/><rect class="af" x="147" y="289.063" width="98" height="36" rx="4" ry="4"/><text class="c" transform="translate(167.266 312.374)"><tspan class="d">P</tspan><tspan class="e" x="9.041" y="0">r</tspan><tspan class="f" x="15.482" y="0">i</tspan><tspan class="g" x="19.55" y="0">m</tspan><tspan class="h" x="33.766" y="0">a</tspan><tspan class="i" x="42.369" y="0">r</tspan><tspan x="49.43" y="0">y</tspan></text><rect class="ag" x="147" y="349.063" width="98" height="36" rx="4" ry="4"/><text class="k" transform="translate(174.399 372.374)">H<tspan class="l" x="11.23" y="0">ov</tspan><tspan class="m" x="28.103" y="0">e</tspan><tspan class="n" x="36.735" y="0">r</tspan></text><rect class="ah" x="147" y="409.063" width="98" height="36" rx="4" ry="4"/><text class="c" transform="translate(175.065 432.374)"><tspan class="p">D</tspan><tspan class="q" x="10.99" y="0">o</tspan><tspan class="r" x="20.065" y="0">w</tspan><tspan x="32.35" y="0">n</tspan></text><polygon class="s" points="224 390.063 224 387.063 223 387.063 223 385.063 222 385.063 222 383.063 221 383.063 221 381.063 220 381.063 220 380.063 219 380.063 219 377.063 222 377.063 222 378.063 223 378.063 223 369.063 224 369.063 224 368.063 226 368.063 226 369.063 227 369.063 227 373.063 229 373.063 229 374.063 232 374.063 232 375.063 234 375.063 234 376.063 235 376.063 235 377.063 236 377.063 236 384.063 235 384.063 235 387.063 234 387.063 234 390.063 224 390.063"/><polygon class="t" points="225 389.063 225 387.063 224 387.063 224 385.063 223 385.063 223 383.063 222 383.063 222 381.063 221 381.063 221 380.063 220 380.063 220 378.063 222 378.063 222 379.063 223 379.063 223 382.063 224 382.063 224 369.063 226 369.063 226 378.063 227 378.063 227 374.063 229 374.063 229 378.063 230 378.063 230 375.063 232 375.063 232 379.063 233 379.063 233 376.063 234 376.063 234 377.063 235 377.063 235 384.063 234 384.063 234 387.063 233 387.063 233 389.063 225 389.063"/><rect class="u" x="226" y="380.063" width="1" height="4"/><rect class="u" x="229" y="380.063" width="1" height="4"/><rect class="u" x="232" y="380.063" width="1" height="4"/><rect class="v" x="257.75" y="289.813" width="89.5" height="34.5" rx="3.25" ry="3.25"/><path class="af" d="M344,290.563a2.5,2.5,0,0,1,2.5,2.5v28a2.5,2.5,0,0,1-2.5,2.5H261a2.5,2.5,0,0,1-2.5-2.5v-28a2.5,2.5,0,0,1,2.5-2.5h83m0-1.5H261a4.012,4.012,0,0,0-4,4v28a4.012,4.012,0,0,0,4,4h83a4.012,4.012,0,0,0,4-4v-28a4.012,4.012,0,0,0-4-4Z"/><text class="ai" transform="translate(277.972 311.83)"><tspan class="x">B</tspan><tspan class="y" x="9.925" y="0">u</tspan><tspan class="z" x="19.416" y="0">t</tspan><tspan class="aa" x="25.657" y="0">t</tspan><tspan class="ab" x="31.431" y="0">o</tspan><tspan x="40.534" y="0">n</tspan></text><rect class="aj" x="257.75" y="349.813" width="89.5" height="34.5" rx="3.25" ry="3.25"/><path class="af" d="M344,350.563a2.5,2.5,0,0,1,2.5,2.5v28a2.5,2.5,0,0,1-2.5,2.5H261a2.5,2.5,0,0,1-2.5-2.5v-28a2.5,2.5,0,0,1,2.5-2.5h83m0-1.5H261a4.012,4.012,0,0,0-4,4v28a4.012,4.012,0,0,0,4,4h83a4.012,4.012,0,0,0,4-4v-28a4.012,4.012,0,0,0-4-4Z"/><text class="ak" transform="translate(281.398 371.83)">H<tspan class="l" x="11.23" y="0">ov</tspan><tspan class="m" x="28.103" y="0">e</tspan><tspan class="n" x="36.735" y="0">r</tspan></text><rect class="al" x="257.75" y="409.813" width="89.5" height="34.5" rx="3.25" ry="3.25"/><path class="af" d="M344,410.563a2.5,2.5,0,0,1,2.5,2.5v28a2.5,2.5,0,0,1-2.5,2.5H261a2.5,2.5,0,0,1-2.5-2.5v-28a2.5,2.5,0,0,1,2.5-2.5h83m0-1.5H261a4.012,4.012,0,0,0-4,4v28a4.012,4.012,0,0,0,4,4h83a4.012,4.012,0,0,0,4-4v-28a4.012,4.012,0,0,0-4-4Z"/><text class="ai" transform="translate(282.064 431.83)"><tspan class="p">D</tspan><tspan class="q" x="10.99" y="0">o</tspan><tspan class="r" x="20.065" y="0">w</tspan><tspan x="32.35" y="0">n</tspan></text><polygon class="s" points="329 390.063 329 387.063 328 387.063 328 385.063 327 385.063 327 383.063 326 383.063 326 381.063 325 381.063 325 380.063 324 380.063 324 377.063 327 377.063 327 378.063 328 378.063 328 369.063 329 369.063 329 368.063 331 368.063 331 369.063 332 369.063 332 373.063 334 373.063 334 374.063 337 374.063 337 375.063 339 375.063 339 376.063 340 376.063 340 377.063 341 377.063 341 384.063 340 384.063 340 387.063 339 387.063 339 390.063 329 390.063"/><polygon class="t" points="330 389.063 330 387.063 329 387.063 329 385.063 328 385.063 328 383.063 327 383.063 327 381.063 326 381.063 326 380.063 325 380.063 325 378.063 327 378.063 327 379.063 328 379.063 328 382.063 329 382.063 329 369.063 331 369.063 331 378.063 332 378.063 332 374.063 334 374.063 334 378.063 335 378.063 335 375.063 337 375.063 337 379.063 338 379.063 338 376.063 339 376.063 339 377.063 340 377.063 340 384.063 339 384.063 339 387.063 338 387.063 338 389.063 330 389.063"/><rect class="u" x="331" y="380.063" width="1" height="4"/><rect class="u" x="334" y="380.063" width="1" height="4"/><rect class="u" x="337" y="380.063" width="1" height="4"/><text class="w" transform="translate(371 82.83)"><tspan class="am">T</tspan><tspan class="m" x="7.351" y="0">e</tspan><tspan class="an" x="15.983" y="0">r</tspan><tspan class="ao" x="22.879" y="0">t</tspan><tspan class="ap" x="28.69" y="0">i</tspan><tspan class="h" x="32.714" y="0">a</tspan><tspan class="i" x="41.317" y="0">r</tspan><tspan x="48.377" y="0">y</tspan></text><text class="aq" transform="translate(371 538.829)"><tspan class="am">T</tspan><tspan class="m" x="7.351" y="0">e</tspan><tspan class="an" x="15.983" y="0">r</tspan><tspan class="ao" x="22.879" y="0">t</tspan><tspan class="ap" x="28.69" y="0">i</tspan><tspan class="h" x="32.714" y="0">a</tspan><tspan class="i" x="41.317" y="0">r</tspan><tspan x="48.377" y="0">y</tspan></text><text class="ar" transform="translate(371 142.83)">H<tspan class="l" x="11.23" y="0">ov</tspan><tspan class="m" x="28.103" y="0">e</tspan><tspan class="n" x="36.735" y="0">r</tspan></text><text class="as" transform="translate(371 202.83)"><tspan class="p">D</tspan><tspan class="q" x="10.99" y="0">o</tspan><tspan class="r" x="20.065" y="0">w</tspan><tspan x="32.35" y="0">n</tspan></text><polygon class="s" points="419 161.063 419 158.063 418 158.063 418 156.063 417 156.063 417 154.063 416 154.063 416 152.063 415 152.063 415 151.063 414 151.063 414 148.063 417 148.063 417 149.063 418 149.063 418 140.063 419 140.063 419 139.063 421 139.063 421 140.063 422 140.063 422 144.063 424 144.063 424 145.063 427 145.063 427 146.063 429 146.063 429 147.063 430 147.063 430 148.063 431 148.063 431 155.063 430 155.063 430 158.063 429 158.063 429 161.063 419 161.063"/><polygon class="t" points="420 160.063 420 158.063 419 158.063 419 156.063 418 156.063 418 154.063 417 154.063 417 152.063 416 152.063 416 151.063 415 151.063 415 149.063 417 149.063 417 150.063 418 150.063 418 153.063 419 153.063 419 140.063 421 140.063 421 149.063 422 149.063 422 145.063 424 145.063 424 149.063 425 149.063 425 146.063 427 146.063 427 150.063 428 150.063 428 147.063 429 147.063 429 148.063 430 148.063 430 155.063 429 155.063 429 158.063 428 158.063 428 160.063 420 160.063"/><rect class="u" x="421" y="151.063" width="1" height="4"/><rect class="u" x="424" y="151.063" width="1" height="4"/><rect class="u" x="427" y="151.063" width="1" height="4"/><text class="ai" transform="translate(371 311.83)"><tspan class="am">T</tspan><tspan class="m" x="7.351" y="0">e</tspan><tspan class="an" x="15.983" y="0">r</tspan><tspan class="ao" x="22.879" y="0">t</tspan><tspan class="ap" x="28.69" y="0">i</tspan><tspan class="h" x="32.714" y="0">a</tspan><tspan class="i" x="41.317" y="0">r</tspan><tspan x="48.377" y="0">y</tspan></text><text class="at" transform="translate(371 371.83)">H<tspan class="l" x="11.23" y="0">ov</tspan><tspan class="m" x="28.103" y="0">e</tspan><tspan class="n" x="36.735" y="0">r</tspan></text><text class="au" transform="translate(371 431.83)"><tspan class="p">D</tspan><tspan class="q" x="10.99" y="0">o</tspan><tspan class="r" x="20.065" y="0">w</tspan><tspan x="32.35" y="0">n</tspan></text><rect class="av" x="140" y="624.063" width="28" height="28" rx="4" ry="4"/><rect class="aw" x="140" y="676.063" width="28" height="28" rx="4" ry="4"/><rect class="ax" x="140" y="728.063" width="28" height="28" rx="4" ry="4"/><rect class="ay" x="216.541" y="624.063" width="28" height="28" rx="4" ry="4"/><polygon class="az" points="153 632.063 155 632.063 155 637.063 160 637.063 160 639.063 155 639.063 155 644.063 153 644.063 153 639.063 148 639.063 148 637.063 153 637.063 153 632.063"/><polygon class="az" points="153 684.063 155 684.063 155 689.063 160 689.063 160 691.063 155 691.063 155 696.063 153 696.063 153 691.063 148 691.063 148 689.063 153 689.063 153 684.063"/><polygon class="az" points="153 736.063 155 736.063 155 741.063 160 741.063 160 743.063 155 743.063 155 748.063 153 748.063 153 743.063 148 743.063 148 741.063 153 741.063 153 736.063"/><polygon class="t" points="229.541 632.063 231.541 632.063 231.541 637.063 236.541 637.063 236.541 639.063 231.541 639.063 231.541 644.063 229.541 644.063 229.541 639.063 224.541 639.063 224.541 637.063 229.541 637.063 229.541 632.063"/><polygon class="s" points="164 715.063 164 712.063 163 712.063 163 710.063 162 710.063 162 708.063 161 708.063 161 706.063 160 706.063 160 705.063 159 705.063 159 702.063 162 702.063 162 703.063 163 703.063 163 694.063 164 694.063 164 693.063 166 693.063 166 694.063 167 694.063 167 698.063 169 698.063 169 699.063 172 699.063 172 700.063 174 700.063 174 701.063 175 701.063 175 702.063 176 702.063 176 709.063 175 709.063 175 712.063 174 712.063 174 715.063 164 715.063"/><polygon class="t" points="165 714.063 165 712.063 164 712.063 164 710.063 163 710.063 163 708.063 162 708.063 162 706.063 161 706.063 161 705.063 160 705.063 160 703.063 162 703.063 162 704.063 163 704.063 163 707.063 164 707.063 164 694.063 166 694.063 166 703.063 167 703.063 167 699.063 169 699.063 169 703.063 170 703.063 170 700.063 172 700.063 172 704.063 173 704.063 173 701.063 174 701.063 174 702.063 175 702.063 175 709.063 174 709.063 174 712.063 173 712.063 173 714.063 165 714.063"/><rect class="u" x="166" y="705.063" width="1" height="4"/><rect class="u" x="169" y="705.063" width="1" height="4"/><rect class="u" x="172" y="705.063" width="1" height="4"/><rect class="ba" x="371" y="630.063" width="16" height="16"/><path class="bb" d="M387,638.063a8,8,0,1,1-8-8A8,8,0,0,1,387,638.063Zm-1,0a7,7,0,1,0-7,7A7,7,0,0,0,386,638.063Z"/><polygon class="bb" points="378 633.063 380 633.063 380 637.063 384 637.063 384 639.063 380 639.063 380 643.063 378 643.063 378 639.063 374 639.063 374 637.063 378 637.063 378 633.063"/><rect class="ay" x="147" y="516.063" width="98" height="36" rx="4" ry="4"/><text class="c" transform="translate(167.264 538.83)"><tspan class="d">P</tspan><tspan class="e" x="9.041" y="0">r</tspan><tspan class="f" x="15.482" y="0">i</tspan><tspan class="g" x="19.55" y="0">m</tspan><tspan class="h" x="33.766" y="0">a</tspan><tspan class="i" x="42.369" y="0">r</tspan><tspan x="49.43" y="0">y</tspan></text><rect class="v" x="257.75" y="516.813" width="89.5" height="34.5" rx="3.25" ry="3.25"/><path class="ay" d="M344,517.563a2.5,2.5,0,0,1,2.5,2.5v28a2.5,2.5,0,0,1-2.5,2.5H261a2.5,2.5,0,0,1-2.5-2.5v-28a2.5,2.5,0,0,1,2.5-2.5h83m0-1.5H261a4.012,4.012,0,0,0-4,4v28a4.012,4.012,0,0,0,4,4h83a4.012,4.012,0,0,0,4-4v-28a4.012,4.012,0,0,0-4-4Z"/><text class="aq" transform="translate(277.972 538.83)"><tspan class="x">B</tspan><tspan class="y" x="9.925" y="0">u</tspan><tspan class="z" x="19.416" y="0">t</tspan><tspan class="aa" x="25.657" y="0">t</tspan><tspan class="ab" x="31.431" y="0">o</tspan><tspan x="40.534" y="0">n</tspan></text><polygon class="s" points="419 390.063 419 387.063 418 387.063 418 385.063 417 385.063 417 383.063 416 383.063 416 381.063 415 381.063 415 380.063 414 380.063 414 377.063 417 377.063 417 378.063 418 378.063 418 369.063 419 369.063 419 368.063 421 368.063 421 369.063 422 369.063 422 373.063 424 373.063 424 374.063 427 374.063 427 375.063 429 375.063 429 376.063 430 376.063 430 377.063 431 377.063 431 384.063 430 384.063 430 387.063 429 387.063 429 390.063 419 390.063"/><polygon class="t" points="420 389.063 420 387.063 419 387.063 419 385.063 418 385.063 418 383.063 417 383.063 417 381.063 416 381.063 416 380.063 415 380.063 415 378.063 417 378.063 417 379.063 418 379.063 418 382.063 419 382.063 419 369.063 421 369.063 421 378.063 422 378.063 422 374.063 424 374.063 424 378.063 425 378.063 425 375.063 427 375.063 427 379.063 428 379.063 428 376.063 429 376.063 429 377.063 430 377.063 430 384.063 429 384.063 429 387.063 428 387.063 428 389.063 420 389.063"/><rect class="u" x="421" y="380.063" width="1" height="4"/><rect class="u" x="424" y="380.063" width="1" height="4"/><rect class="u" x="427" y="380.063" width="1" height="4"/><rect class="bc" x="98" y="48.063" width="1" height="180"/><text class="bd" transform="translate(43.621 143.394)"><tspan class="be">G</tspan><tspan class="bf" x="9.426" y="0">R</tspan><tspan class="bg" x="17.822" y="0">EE</tspan><tspan x="32.198" y="0">N</tspan></text><rect class="bc" x="98" y="276.063" width="1" height="180"/><text class="bd" transform="translate(53.685 371.394)"><tspan class="bh">B</tspan><tspan class="bi" x="8.594" y="0">L</tspan><tspan class="bj" x="15.455" y="0">U</tspan><tspan x="25.059" y="0">E</tspan></text><rect class="bc" x="98" y="612.063" width="1" height="156"/><text class="bd" transform="translate(53.764 694.026)"><tspan class="bk">I</tspan><tspan class="bl" x="3.94" y="0">C</tspan><tspan class="bm" x="11.858" y="0">O</tspan><tspan x="22.054" y="0">N</tspan></text><text class="bd" transform="translate(147 11.14)"><tspan class="bn">R</tspan><tspan class="bo" x="9.007" y="0">A</tspan><tspan class="bp" x="17.754" y="0">I</tspan><tspan class="bq" x="21.788" y="0">S</tspan><tspan class="bg" x="28.916" y="0">E</tspan><tspan x="36.103" y="0">D</tspan></text><text class="bd" transform="translate(371 11.14)"><tspan class="br">F</tspan><tspan class="bs" x="6.842" y="0">L</tspan><tspan class="bt" x="14.464" y="0">A</tspan><tspan x="22.363" y="0">T</tspan></text><rect class="bc" x="98" y="504.063" width="1" height="60"/><text class="bd" transform="translate(24.09 539.063)"><tspan class="bu">D</tspan><tspan class="bp" x="9.494" y="0">I</tspan><tspan class="bv" x="13.527" y="0">SA</tspan><tspan class="bh" x="29.579" y="0">B</tspan><tspan class="bm" x="38.173" y="0">L</tspan><tspan class="bg" x="45.182" y="0">E</tspan><tspan x="52.37" y="0">D</tspan></text></svg>