<svg xmlns="http://www.w3.org/2000/svg" width="720" height="624" viewBox="0 0 720 624"><defs><style>.a{fill:#354052;}.b{fill:#151921;}.c{fill:#989ea7;}.d{fill:#bbb;}.e{fill:#ddd;}.f{fill:#eee;}.g{fill:#fff;}.h{fill:#009dd9;}.i{fill:#0098f3;}.j{fill:#26b910;}.k{fill:#ff8300;}.l{font-size:13px;fill:#707276;font-family:Helvetica-Bold, Helvetica;}.m{font-weight:700;}.n{letter-spacing:-0.006em;}.o{letter-spacing:0.003em;}.p{letter-spacing:-0.001em;}.q{letter-spacing:0.004em;}.r{letter-spacing:-0.023em;}.s{letter-spacing:-0.004em;}.t{letter-spacing:0.006em;}.u{letter-spacing:0.003em;}.v{letter-spacing:0em;}.w{letter-spacing:-0.009em;}.x{letter-spacing:-0.004em;}.y{font-family:Helvetica, Helvetica;}.z{letter-spacing:0.018em;}.aa{letter-spacing:0.001em;}.ab{letter-spacing:0.005em;}.ac{letter-spacing:0.001em;}.ad{letter-spacing:-0.017em;}.ae{letter-spacing:-0.003em;}.af{letter-spacing:-0.004em;}.ag{letter-spacing:-0.01em;}.ah{letter-spacing:-0.034em;}.ai{letter-spacing:0.006em;}.aj{letter-spacing:-0.011em;}.ak{letter-spacing:-0.02em;}.al{letter-spacing:0.007em;}.am{letter-spacing:-0.02em;}.an{letter-spacing:-0.007em;}.ao{letter-spacing:-0.01em;}.ap{letter-spacing:-0.04em;}.aq{letter-spacing:-0.019em;}.ar{letter-spacing:0.006em;}.as{letter-spacing:-0.001em;}.at{letter-spacing:-0.004em;}.au{letter-spacing:-0.035em;}.av{letter-spacing:-0.002em;}.aw{letter-spacing:0.015em;}.ax{letter-spacing:0.023em;}.ay{letter-spacing:-0.009em;}.az{letter-spacing:-0.064em;}.ba{letter-spacing:-0.063em;}.bb{letter-spacing:-0.059em;}.bc{letter-spacing:-0.011em;}.bd{letter-spacing:-0.03em;}.be{letter-spacing:-0.037em;}.bf{letter-spacing:-0.03em;}.bg{letter-spacing:-0.07em;}.bh{letter-spacing:0.007em;}.bi{letter-spacing:-0.009em;}.bj{letter-spacing:-0.015em;}.bk{letter-spacing:-0.002em;}.bl{letter-spacing:0.005em;}.bm{letter-spacing:-0.034em;}.bn{letter-spacing:0.004em;}.bo{letter-spacing:-0.013em;}.bp{letter-spacing:-0.007em;}.bq{letter-spacing:0.004em;}.br{letter-spacing:-0.032em;}.bs{letter-spacing:0.02em;}.bt{letter-spacing:-0.001em;}.bu{letter-spacing:-0.001em;}.bv{letter-spacing:-0.007em;}.bw{letter-spacing:0.005em;}.bx{letter-spacing:-0.035em;}.by{letter-spacing:-0.064em;}.bz{letter-spacing:-0.064em;}.ca{letter-spacing:-0.1em;}.cb{letter-spacing:0.001em;}.cc{letter-spacing:-0.009em;}.cd{letter-spacing:-0.058em;}.ce{letter-spacing:-0.012em;}.cf{letter-spacing:-0.005em;}.cg{letter-spacing:0.01em;}.ch{letter-spacing:0.005em;}.ci{letter-spacing:0.004em;}.cj{letter-spacing:0.002em;}.ck{letter-spacing:-0.004em;}.cl{letter-spacing:0.002em;}.cm{letter-spacing:-0.059em;}.cn{letter-spacing:-0.018em;}.co{letter-spacing:-0.121em;}.cp{letter-spacing:-0.059em;}.cq{letter-spacing:-0.018em;}.cr{letter-spacing:-0.002em;}.cs{letter-spacing:-0.07em;}.ct{letter-spacing:-0.086em;}.cu{letter-spacing:-0.064em;}.cv{letter-spacing:-0.028em;}.cw{letter-spacing:-0.029em;}.cx{letter-spacing:-0.047em;}.cy{letter-spacing:-0.014em;}.cz{letter-spacing:-0.001em;}.da{letter-spacing:0.004em;}.db{letter-spacing:-0.004em;}.dc{letter-spacing:-0.026em;}.dd{letter-spacing:-0.003em;}.de{letter-spacing:0.003em;}.df{letter-spacing:-0.024em;}.dg{letter-spacing:-0.029em;}.dh{letter-spacing:-0.001em;}.di{letter-spacing:-0.001em;}.dj{letter-spacing:0.002em;}.dk{letter-spacing:-0.018em;}.dl{letter-spacing:-0.015em;}.dm{letter-spacing:-0.029em;}.dn{letter-spacing:0.01em;}.do{letter-spacing:0.002em;}.dp{letter-spacing:0.004em;}.dq{letter-spacing:-0.005em;}.dr{letter-spacing:-0.016em;}.ds{letter-spacing:0.016em;}.dt{letter-spacing:0.011em;}.du{letter-spacing:0.005em;}.dv{letter-spacing:-0.004em;}.dw{letter-spacing:-0.007em;}.dx{letter-spacing:-0.029em;}.dy{letter-spacing:-0.022em;}.dz{letter-spacing:-0.1em;}.ea{letter-spacing:-0.02em;}.eb{letter-spacing:-0.08em;}.ec{letter-spacing:-0.005em;}.ed{letter-spacing:-0.001em;}.ee{letter-spacing:0.006em;}.ef{letter-spacing:0.003em;}.eg{letter-spacing:-0.026em;}.eh{letter-spacing:-0.01em;}.ei{letter-spacing:0.001em;}.ej{letter-spacing:0.03em;}.ek{letter-spacing:-0.011em;}.el{letter-spacing:0.007em;}.em{letter-spacing:-0.008em;}.en{letter-spacing:-0.013em;}.eo{letter-spacing:-0.032em;}.ep{letter-spacing:0.001em;}.eq{letter-spacing:-0.011em;}.er{letter-spacing:0.007em;}.es{letter-spacing:0.014em;}.et{letter-spacing:-0.007em;}.eu{letter-spacing:0.002em;}.ev{letter-spacing:-0.037em;}.ew{letter-spacing:-0.055em;}.ex{letter-spacing:-0.033em;}.ey{letter-spacing:0.004em;}.ez{letter-spacing:-0.032em;}.fa{letter-spacing:-0.009em;}.fb{letter-spacing:-0.008em;}.fc{letter-spacing:-0.017em;}.fd{letter-spacing:0.004em;}.fe{letter-spacing:-0.06em;}.ff{letter-spacing:-0.044em;}.fg{letter-spacing:-0.017em;}.fh{letter-spacing:-0.034em;}.fi{fill:none;}</style></defs><title>color_01</title><path class="a" d="M224,59a48,48,0,1,1-48-48A48.141,48.141,0,0,1,224,59Z"/><path class="b" d="M408,59a48,48,0,1,1-48-48A48.141,48.141,0,0,1,408,59Z"/><path class="c" d="M592,59a48,48,0,1,1-48-48A48.141,48.141,0,0,1,592,59Z"/><path class="d" d="M132,281a48,48,0,1,1-48-48A48.141,48.141,0,0,1,132,281Z"/><path class="e" d="M316,281a48,48,0,1,1-48-48A48.141,48.141,0,0,1,316,281Z"/><path class="f" d="M500,281a48,48,0,1,1-48-48A48.141,48.141,0,0,1,500,281Z"/><path class="g" d="M636,328.5A47.5,47.5,0,1,1,683.5,281,47.554,47.554,0,0,1,636,328.5Z"/><path class="e" d="M636,234a47,47,0,1,1-47,47,47.053,47.053,0,0,1,47-47m0-1a48,48,0,1,0,48,48,48.141,48.141,0,0,0-48-48Z"/><path class="h" d="M132,502a48,48,0,1,1-48-48A48.141,48.141,0,0,1,132,502Z"/><path class="i" d="M316,502a48,48,0,1,1-48-48A48.141,48.141,0,0,1,316,502Z"/><path class="j" d="M500,502a48,48,0,1,1-48-48A48.141,48.141,0,0,1,500,502Z"/><path class="k" d="M684,502a48,48,0,1,1-48-48A48.141,48.141,0,0,1,684,502Z"/><text class="l" transform="translate(106.159 136.347)"><tspan class="m"><tspan class="n">B</tspan><tspan class="o" x="9.306" y="0">R</tspan><tspan class="p" x="18.733" y="0">A</tspan><tspan class="q" x="28.109" y="0">N</tspan><tspan x="37.551" y="0">D </tspan><tspan class="r" x="50.551" y="0">B</tspan><tspan class="s" x="59.634" y="0">A</tspan><tspan x="68.97" y="0">R &amp; </tspan><tspan class="t" x="94.97" y="0">T</tspan><tspan class="u" x="102.991" y="0">I</tspan><tspan class="v" x="106.643" y="0">T</tspan><tspan class="w" x="114.578" y="0">L</tspan><tspan class="x" x="122.397" y="0">E</tspan><tspan x="131.011" y="0">S</tspan></tspan><tspan class="y"><tspan class="z" x="44.449" y="18">#</tspan><tspan class="aa" x="51.912" y="18">3</tspan><tspan class="ab" x="59.153" y="18">54</tspan><tspan class="ac" x="73.74" y="18">0</tspan><tspan class="ad" x="80.989" y="18">5</tspan><tspan x="88.003" y="18">2</tspan><tspan class="ae" x="31.751" y="36">r</tspan><tspan class="af" x="36.039" y="36">g</tspan><tspan class="ag" x="43.221" y="36">b</tspan><tspan class="ah" x="50.327" y="36">(</tspan><tspan class="ai" x="54.22" y="36">5</tspan><tspan class="aj" x="61.526" y="36">3</tspan><tspan class="ak" x="68.615" y="36">,</tspan><tspan class="al" x="71.966" y="36">6</tspan><tspan class="am" x="79.286" y="36">4</tspan><tspan class="an" x="86.261" y="36">,</tspan><tspan class="ao" x="89.786" y="36">8</tspan><tspan class="ap" x="96.887" y="36">2</tspan><tspan x="103.601" y="36">)</tspan></tspan></text><text class="l" transform="translate(311.724 136.347)"><tspan class="m"><tspan class="aq">P</tspan><tspan x="8.43" y="0">R</tspan><tspan class="ar" x="17.818" y="0">I</tspan><tspan class="as" x="21.503" y="0">M</tspan><tspan class="at" x="32.326" y="0">A</tspan><tspan class="au" x="41.662" y="0">R</tspan><tspan x="50.594" y="0">Y </tspan><tspan class="av" x="62.876" y="0">T</tspan><tspan class="aw" x="70.786" y="0">E</tspan><tspan class="ax" x="79.647" y="0">X</tspan><tspan x="88.612" y="0">T</tspan></tspan><tspan class="y"><tspan class="ay" x="24.504" y="18">#</tspan><tspan class="az" x="31.616" y="18">1</tspan><tspan class="ba" x="38.008" y="18">5</tspan><tspan class="bb" x="44.416" y="18">1</tspan><tspan class="bc" x="50.882" y="18">9</tspan><tspan class="bd" x="57.975" y="18">2</tspan><tspan x="64.818" y="18">1</tspan><tspan class="ae" x="10.556" y="36">r</tspan><tspan class="af" x="14.844" y="36">g</tspan><tspan class="ag" x="22.025" y="36">b</tspan><tspan class="be" x="29.132" y="36">(</tspan><tspan class="bf" x="32.98" y="36">2</tspan><tspan class="bg" x="39.824" y="36">1</tspan><tspan class="bh" x="46.143" y="36">,</tspan><tspan class="bi" x="49.843" y="36">2</tspan><tspan class="bj" x="56.961" y="36">5</tspan><tspan class="bk" x="64.001" y="36">,</tspan><tspan class="bl" x="67.584" y="36">3</tspan><tspan class="bm" x="74.885" y="36">3</tspan><tspan x="81.667" y="36">)</tspan></tspan></text><text class="l" transform="translate(484.338 136.347)"><tspan class="m"><tspan class="bn">S</tspan><tspan class="bo" x="8.719" y="0">E</tspan><tspan class="bp" x="17.218" y="0">C</tspan><tspan class="bq" x="26.516" y="0">ON</tspan><tspan class="br" x="46.13" y="0">D</tspan><tspan class="at" x="55.097" y="0">A</tspan><tspan class="au" x="64.433" y="0">R</tspan><tspan x="73.365" y="0">Y </tspan><tspan class="av" x="85.647" y="0">T</tspan><tspan class="aw" x="93.557" y="0">E</tspan><tspan class="ax" x="102.418" y="0">X</tspan><tspan x="111.383" y="0">T</tspan></tspan><tspan class="y"><tspan class="bs" x="33.037" y="18">#</tspan><tspan class="bt" x="40.532" y="18">9</tspan><tspan class="bu" x="47.748" y="18">8</tspan><tspan class="bv" x="54.97" y="18">9</tspan><tspan class="bw" x="62.112" y="18">E</tspan><tspan class="bx" x="70.842" y="18">A</tspan><tspan x="79.057" y="18">7</tspan><tspan class="ae" x="13.162" y="36">r</tspan><tspan class="af" x="17.449" y="36">g</tspan><tspan class="ag" x="24.631" y="36">b</tspan><tspan class="by" x="31.737" y="36">(</tspan><tspan class="bz" x="35.238" y="36">1</tspan><tspan class="ad" x="41.631" y="36">5</tspan><tspan class="ao" x="48.646" y="36">2</tspan><tspan class="ca" x="55.747" y="36">,</tspan><tspan class="bz" x="58.053" y="36">1</tspan><tspan class="cb" x="64.446" y="36">5</tspan><tspan class="cc" x="71.694" y="36">8</tspan><tspan class="ca" x="78.809" y="36">,</tspan><tspan class="cd" x="81.115" y="36">1</tspan><tspan class="ce" x="87.59" y="36">6</tspan><tspan class="cf" x="94.663" y="36">7</tspan><tspan x="101.833" y="36">)</tspan></tspan></text><text class="l" transform="translate(26.085 358.347)"><tspan class="m"><tspan class="aq">P</tspan><tspan x="8.43" y="0">R</tspan><tspan class="ar" x="17.818" y="0">I</tspan><tspan class="as" x="21.503" y="0">M</tspan><tspan class="at" x="32.326" y="0">A</tspan><tspan class="au" x="41.662" y="0">R</tspan><tspan x="50.594" y="0">Y </tspan><tspan class="cg" x="62.876" y="0">D</tspan><tspan x="72.392" y="0">I</tspan><tspan class="ch" x="76.004" y="0">V</tspan><tspan class="ci" x="84.741" y="0">I</tspan><tspan class="cj" x="88.406" y="0">D</tspan><tspan class="ck" x="97.818" y="0">E</tspan><tspan x="106.441" y="0">R</tspan></tspan><tspan class="y"><tspan class="cl" x="28.274" y="18">#</tspan><tspan x="35.529" y="18">BBBBBB</tspan><tspan class="ae" x="12.975" y="36">r</tspan><tspan class="af" x="17.263" y="36">g</tspan><tspan class="ag" x="24.444" y="36">b</tspan><tspan class="by" x="31.551" y="36">(</tspan><tspan class="cm" x="35.052" y="36">1</tspan><tspan class="cn" x="41.518" y="36">8</tspan><tspan class="co" x="48.512" y="36">7</tspan><tspan class="ca" x="54.167" y="36">,</tspan><tspan class="cm" x="56.473" y="36">1</tspan><tspan class="cn" x="62.939" y="36">8</tspan><tspan class="co" x="69.934" y="36">7</tspan><tspan class="ca" x="75.588" y="36">,</tspan><tspan class="cp" x="77.895" y="36">1</tspan><tspan class="cq" x="84.36" y="36">8</tspan><tspan class="cf" x="91.355" y="36">7</tspan><tspan x="98.525" y="36">)</tspan></tspan></text><text class="l" transform="translate(198.7 358.347)"><tspan class="m"><tspan class="bn">S</tspan><tspan class="bo" x="8.719" y="0">E</tspan><tspan class="bp" x="17.218" y="0">C</tspan><tspan class="bq" x="26.516" y="0">ON</tspan><tspan class="br" x="46.13" y="0">D</tspan><tspan class="at" x="55.097" y="0">A</tspan><tspan class="au" x="64.433" y="0">R</tspan><tspan x="73.365" y="0">Y </tspan><tspan class="cg" x="85.647" y="0">D</tspan><tspan x="95.163" y="0">I</tspan><tspan class="ch" x="98.775" y="0">V</tspan><tspan class="ci" x="107.512" y="0">I</tspan><tspan class="cj" x="111.177" y="0">D</tspan><tspan class="ck" x="120.589" y="0">E</tspan><tspan x="129.212" y="0">R</tspan></tspan><tspan class="y"><tspan class="cr" x="37.924" y="18">#</tspan><tspan class="ce" x="45.133" y="18">DDDDD</tspan><tspan x="91.288" y="18">D</tspan><tspan class="ae" x="21.721" y="36">r</tspan><tspan class="af" x="26.009" y="36">g</tspan><tspan class="ag" x="33.19" y="36">b</tspan><tspan class="be" x="40.297" y="36">(</tspan><tspan class="aa" x="44.145" y="36">2</tspan><tspan class="bf" x="51.387" y="36">2</tspan><tspan class="bg" x="58.231" y="36">1</tspan><tspan class="bh" x="64.549" y="36">,</tspan><tspan class="aa" x="68.25" y="36">2</tspan><tspan class="bd" x="75.491" y="36">2</tspan><tspan class="cs" x="82.335" y="36">1</tspan><tspan class="bh" x="88.654" y="36">,</tspan><tspan class="aa" x="92.354" y="36">2</tspan><tspan class="bd" x="99.596" y="36">2</tspan><tspan class="ct" x="106.439" y="36">1</tspan><tspan x="112.549" y="36">)</tspan></tspan></text><text class="l" transform="translate(385.469 358.347)"><tspan class="m"><tspan class="cu">P</tspan><tspan class="cv" x="7.839" y="0">A</tspan><tspan class="cr" x="16.862" y="0">G</tspan><tspan x="26.953" y="0">E </tspan><tspan class="r" x="39.235" y="0">B</tspan><tspan class="cw" x="48.318" y="0">A</tspan><tspan class="n" x="57.328" y="0">C</tspan><tspan class="cx" x="66.634" y="0">K</tspan><tspan class="bt" x="75.416" y="0">G</tspan><tspan class="cy" x="85.513" y="0">R</tspan><tspan class="cz" x="94.715" y="0">O</tspan><tspan class="cl" x="104.818" y="0">U</tspan><tspan class="da" x="114.231" y="0">N</tspan><tspan x="123.674" y="0">D</tspan></tspan><tspan class="y"><tspan class="db" x="37.762" y="18">#</tspan><tspan class="dc" x="44.938" y="18">EEEEE</tspan><tspan x="86.629" y="18">E</tspan><tspan class="ae" x="17.241" y="36">r</tspan><tspan class="af" x="21.528" y="36">g</tspan><tspan class="ag" x="28.71" y="36">b</tspan><tspan class="be" x="35.816" y="36">(</tspan><tspan class="dd" x="39.665" y="36">2</tspan><tspan class="de" x="46.861" y="36">3</tspan><tspan class="cc" x="54.136" y="36">8</tspan><tspan class="bh" x="61.25" y="36">,</tspan><tspan class="dd" x="64.951" y="36">2</tspan><tspan class="de" x="72.147" y="36">3</tspan><tspan class="cc" x="79.422" y="36">8</tspan><tspan class="bh" x="86.537" y="36">,</tspan><tspan class="dd" x="90.237" y="36">2</tspan><tspan class="de" x="97.433" y="36">3</tspan><tspan class="bm" x="104.708" y="36">8</tspan><tspan x="111.491" y="36">)</tspan></tspan></text><text class="l" transform="translate(555.864 358.347)"><tspan class="m"><tspan class="bp">C</tspan><tspan class="bq" x="9.297" y="0">O</tspan><tspan class="o" x="19.466" y="0">N</tspan><tspan class="av" x="28.894" y="0">T</tspan><tspan class="cz" x="36.803" y="0">E</tspan><tspan class="o" x="45.465" y="0">N</tspan><tspan x="54.892" y="0">T </tspan><tspan class="df" x="66.445" y="0">B</tspan><tspan class="dg" x="75.527" y="0">A</tspan><tspan class="n" x="84.538" y="0">C</tspan><tspan class="cx" x="93.844" y="0">K</tspan><tspan class="dh" x="102.625" y="0">G</tspan><tspan class="cy" x="112.722" y="0">R</tspan><tspan class="di" x="121.924" y="0">O</tspan><tspan class="dj" x="132.027" y="0">U</tspan><tspan class="da" x="141.44" y="0">N</tspan><tspan x="150.883" y="0">D</tspan></tspan><tspan class="y"><tspan class="db" x="53.293" y="18">#</tspan><tspan class="dk" x="60.47" y="18">FFFFF</tspan><tspan x="99.037" y="18">F</tspan><tspan class="ae" x="31.067" y="36">r</tspan><tspan class="af" x="35.355" y="36">g</tspan><tspan class="ag" x="42.537" y="36">b</tspan><tspan class="be" x="49.643" y="36">(</tspan><tspan class="bi" x="53.491" y="36">2</tspan><tspan x="60.609" y="36">5</tspan><tspan class="bj" x="67.839" y="36">5</tspan><tspan class="bh" x="74.88" y="36">,</tspan><tspan class="bi" x="78.58" y="36">2</tspan><tspan x="85.698" y="36">5</tspan><tspan class="dl" x="92.928" y="36">5</tspan><tspan class="bh" x="99.968" y="36">,</tspan><tspan class="bi" x="103.668" y="36">2</tspan><tspan x="110.787" y="36">5</tspan><tspan class="dm" x="118.017" y="36">5</tspan><tspan x="124.875" y="36">)</tspan></tspan></text><text class="l" transform="translate(36.368 579.347)"><tspan class="m"><tspan class="dn">N</tspan><tspan class="do" x="9.523" y="0">I</tspan><tspan class="bk" x="13.163" y="0">E</tspan><tspan class="dp" x="21.805" y="0">LS</tspan><tspan class="cz" x="38.51" y="0">E</tspan><tspan x="47.172" y="0">N </tspan><tspan class="dq" x="60.172" y="0">B</tspan><tspan class="dr" x="69.498" y="0">L</tspan><tspan class="cr" x="77.226" y="0">U</tspan><tspan x="86.593" y="0">E</tspan></tspan><tspan class="y"><tspan class="ds" x="20.111" y="18">#</tspan><tspan class="dt" x="27.547" y="18">0</tspan><tspan class="du" x="34.927" y="18">0</tspan><tspan class="dv" x="42.221" y="18">9</tspan><tspan class="ce" x="49.396" y="18">D</tspan><tspan class="dw" x="58.627" y="18">D</tspan><tspan x="67.923" y="18">9</tspan><tspan class="ae" x="8.119" y="36">r</tspan><tspan class="af" x="12.407" y="36">g</tspan><tspan class="ag" x="19.588" y="36">b</tspan><tspan class="dx" x="26.695" y="36">(</tspan><tspan class="dy" x="30.642" y="36">0</tspan><tspan class="dz" x="37.591" y="36">,</tspan><tspan class="bz" x="39.897" y="36">1</tspan><tspan class="ea" x="46.291" y="36">5</tspan><tspan class="co" x="53.259" y="36">7</tspan><tspan class="bh" x="58.914" y="36">,</tspan><tspan class="bd" x="62.614" y="36">2</tspan><tspan class="eb" x="69.458" y="36">1</tspan><tspan class="ec" x="75.645" y="36">7</tspan><tspan x="82.815" y="36">)</tspan></tspan></text><text class="l" transform="translate(208.759 579.347)"><tspan class="m"><tspan class="ed">L</tspan><tspan class="ee" x="7.929" y="0">I</tspan><tspan class="ef" x="11.614" y="0">N</tspan><tspan class="eg" x="21.043" y="0">K</tspan><tspan x="30.092" y="0">S &amp; </tspan><tspan class="eh" x="55.375" y="0">B</tspan><tspan class="ei" x="64.629" y="0">U</tspan><tspan class="ej" x="74.031" y="0">T</tspan><tspan class="ek" x="82.358" y="0">T</tspan><tspan class="bq" x="90.158" y="0">O</tspan><tspan class="el" x="100.327" y="0">N</tspan><tspan x="109.811" y="0">S</tspan></tspan><tspan class="y"><tspan class="ds" x="33.517" y="18">#</tspan><tspan class="dt" x="40.954" y="18">0</tspan><tspan class="du" x="48.333" y="18">0</tspan><tspan class="bt" x="55.627" y="18">9</tspan><tspan class="em" x="62.843" y="18">8</tspan><tspan class="en" x="69.967" y="18">F</tspan><tspan x="77.734" y="18">3</tspan><tspan class="ae" x="18.603" y="36">r</tspan><tspan class="af" x="22.891" y="36">g</tspan><tspan class="ag" x="30.072" y="36">b</tspan><tspan class="dx" x="37.179" y="36">(</tspan><tspan class="dy" x="41.126" y="36">0</tspan><tspan class="dz" x="48.075" y="36">,</tspan><tspan class="bz" x="50.381" y="36">1</tspan><tspan class="ad" x="56.774" y="36">5</tspan><tspan class="ao" x="63.789" y="36">2</tspan><tspan class="bh" x="70.89" y="36">,</tspan><tspan class="eo" x="74.59" y="36">2</tspan><tspan class="dn" x="81.401" y="36">4</tspan><tspan class="bm" x="88.767" y="36">3</tspan><tspan x="95.549" y="36">)</tspan></tspan></text><text class="l" transform="translate(420.447 579.347)"><tspan class="m"><tspan class="eh">B</tspan><tspan class="ep" x="9.254" y="0">U</tspan><tspan class="ej" x="18.655" y="0">T</tspan><tspan class="eq" x="26.982" y="0">T</tspan><tspan class="bq" x="34.783" y="0">O</tspan><tspan class="er" x="44.952" y="0">N</tspan><tspan x="54.435" y="0">S</tspan></tspan><tspan class="y"><tspan class="es" x="6.065" y="18">#</tspan><tspan class="et" x="13.476" y="18">2</tspan><tspan class="eu" x="20.62" y="18">6</tspan><tspan x="27.88" y="18">B</tspan><tspan class="ev" x="36.551" y="18">9</tspan><tspan class="ew" x="43.297" y="18">1</tspan><tspan x="49.811" y="18">0</tspan><tspan class="ae" x="-8.37" y="36">r</tspan><tspan class="af" x="-4.083" y="36">g</tspan><tspan class="ag" x="3.099" y="36">b</tspan><tspan class="ex" x="10.206" y="36">(</tspan><tspan class="ey" x="14.107" y="36">3</tspan><tspan class="cc" x="21.383" y="36">8</tspan><tspan class="ca" x="28.497" y="36">,</tspan><tspan class="cp" x="30.804" y="36">1</tspan><tspan class="aa" x="37.269" y="36">8</tspan><tspan class="dl" x="44.511" y="36">5</tspan><tspan class="ca" x="51.551" y="36">,</tspan><tspan class="cd" x="53.857" y="36">1</tspan><tspan class="ez" x="60.332" y="36">6</tspan><tspan x="67.147" y="36">)</tspan></tspan></text><text class="l" transform="translate(608.407 579.347)"><tspan class="m"><tspan class="af">E</tspan><tspan class="fa" x="8.623" y="0">R</tspan><tspan class="cy" x="17.894" y="0">R</tspan><tspan class="cb" x="27.096" y="0">O</tspan><tspan class="fb" x="37.226" y="0">R</tspan><tspan x="46.516" y="0">S</tspan></tspan><tspan class="y"><tspan class="db" x="1.692" y="18">#</tspan><tspan class="dk" x="8.869" y="18">F</tspan><tspan class="fc" x="16.582" y="18">F</tspan><tspan class="bl" x="24.303" y="18">8</tspan><tspan class="fd" x="31.604" y="18">3</tspan><tspan class="dt" x="38.885" y="18">0</tspan><tspan x="46.265" y="18">0</tspan><tspan class="ae" x="-12.434" y="36">r</tspan><tspan class="af" x="-8.146" y="36">g</tspan><tspan class="ag" x="-0.964" y="36">b</tspan><tspan class="be" x="6.142" y="36">(</tspan><tspan class="bi" x="9.99" y="36">2</tspan><tspan x="17.108" y="36">5</tspan><tspan class="bj" x="24.338" y="36">5</tspan><tspan class="ca" x="31.379" y="36">,</tspan><tspan class="fe" x="33.686" y="36">1</tspan><tspan class="ff" x="40.137" y="36">3</tspan><tspan class="cs" x="46.792" y="36">1</tspan><tspan class="fg" x="53.111" y="36">,</tspan><tspan class="fh" x="56.501" y="36">0</tspan><tspan x="63.291" y="36">)</tspan></tspan></text><rect class="fi" width="720" height="624"/></svg>