<svg xmlns="http://www.w3.org/2000/svg" width="520" height="826" viewBox="0 0 520 826"><defs><style>.a,.n{fill:#fff;}.b{fill:#dcdcdc;}.c,.ej{fill:#354052;}.d{fill:#151921;}.e,.fm{fill:#989ea7;}.f{fill:#bacbda;}.g{fill:#dce5ec;}.h{fill:#f5f9fc;}.i{fill:#00adee;}.j{fill:#0098f3;}.k{fill:#26b910;}.l{fill:#ff8300;}.m{fill:#d4d6da;}.ej,.fm,.n{font-size:13px;}.ej,.n{font-family:RobotoMono-Medium, Roboto Mono;}.o{letter-spacing:-0.011em;}.p{letter-spacing:-0.012em;}.q{letter-spacing:-0.009em;}.r{letter-spacing:-0.025em;}.s{letter-spacing:-0.024em;}.t{letter-spacing:-0.011em;}.u{letter-spacing:-0.014em;}.v{letter-spacing:-0.033em;}.w{letter-spacing:0.003em;}.x{letter-spacing:-0.025em;}.y{letter-spacing:-0.007em;}.z{letter-spacing:0.001em;}.aa{letter-spacing:0.022em;}.ab{letter-spacing:-0.007em;}.ac{letter-spacing:-0.032em;}.ad{letter-spacing:-0.004em;}.ae{letter-spacing:0.002em;}.af{letter-spacing:0em;}.ag{letter-spacing:-0.029em;}.ah{letter-spacing:-0.007em;}.ai{letter-spacing:0em;}.aj{letter-spacing:-0.002em;}.ak{letter-spacing:-0.034em;}.al{letter-spacing:-0.003em;}.am{letter-spacing:-0.016em;}.an{letter-spacing:-0.028em;}.ao{letter-spacing:-0.027em;}.ap{letter-spacing:-0.017em;}.aq{letter-spacing:-0.093em;}.ar{letter-spacing:-0.045em;}.as{letter-spacing:-0.09em;}.at{letter-spacing:-0.014em;}.au{letter-spacing:-0.051em;}.av{letter-spacing:0em;}.aw{letter-spacing:-0.038em;}.ax{letter-spacing:-0.026em;}.ay{letter-spacing:-0.025em;}.az{letter-spacing:0.001em;}.ba{letter-spacing:-0.026em;}.bb{letter-spacing:-0.005em;}.bc{letter-spacing:-0.001em;}.bd{letter-spacing:-0.06em;}.be{letter-spacing:-0.109em;}.bf{letter-spacing:-0.027em;}.bg{letter-spacing:-0.095em;}.bh{letter-spacing:-0.126em;}.bi{letter-spacing:-0.008em;}.bj{letter-spacing:-0.092em;}.bk{letter-spacing:-0.118em;}.bl{letter-spacing:-0.122em;}.bm{letter-spacing:-0.113em;}.bn{letter-spacing:-0.146em;}.bo{letter-spacing:-0.1em;}.bp{letter-spacing:-0.038em;}.bq{letter-spacing:-0.093em;}.br{letter-spacing:-0.106em;}.bs{letter-spacing:-0.021em;}.bt{letter-spacing:-0.129em;}.bu{letter-spacing:0em;}.bv{letter-spacing:-0.128em;}.bw{letter-spacing:-0.093em;}.bx{letter-spacing:-0.201em;}.by{letter-spacing:-0.021em;}.bz{letter-spacing:-0.092em;}.ca{letter-spacing:-0.202em;}.cb{letter-spacing:-0.082em;}.cc{letter-spacing:-0.066em;}.cd{letter-spacing:-0.072em;}.ce{letter-spacing:-0.034em;}.cf{letter-spacing:-0.04em;}.cg{letter-spacing:-0.027em;}.ch{letter-spacing:-0.024em;}.ci{letter-spacing:-0.018em;}.cj{letter-spacing:-0.009em;}.ck{letter-spacing:-0.031em;}.cl{letter-spacing:-0.029em;}.cm{letter-spacing:-0.003em;}.cn{letter-spacing:-0.004em;}.co{letter-spacing:0.021em;}.cp{letter-spacing:-0.013em;}.cq{letter-spacing:-0.012em;}.cr{letter-spacing:-0.023em;}.cs{letter-spacing:-0.003em;}.ct{letter-spacing:-0.056em;}.cu{letter-spacing:-0.01em;}.cv{letter-spacing:0.001em;}.cw{letter-spacing:-0.019em;}.cx{letter-spacing:-0.005em;}.cy{letter-spacing:-0.015em;}.cz{letter-spacing:-0.003em;}.da{letter-spacing:-0.026em;}.db{letter-spacing:-0.022em;}.dc{letter-spacing:-0.018em;}.dd{letter-spacing:0.011em;}.de{letter-spacing:-0.04em;}.df{letter-spacing:-0.028em;}.dg{letter-spacing:-0.043em;}.dh{letter-spacing:-0.079em;}.di{letter-spacing:-0.012em;}.dj{letter-spacing:-0.032em;}.dk{letter-spacing:-0.023em;}.dl{letter-spacing:-0.016em;}.dm{letter-spacing:-0.034em;}.dn{letter-spacing:-0.021em;}.do{letter-spacing:-0.006em;}.dp{letter-spacing:-0.126em;}.dq{letter-spacing:-0.102em;}.dr{letter-spacing:-0.082em;}.ds{letter-spacing:-0.092em;}.dt{letter-spacing:-0.022em;}.du{letter-spacing:-0.033em;}.dv{letter-spacing:-0.134em;}.dw{letter-spacing:-0.129em;}.dx{letter-spacing:-0.115em;}.dy{letter-spacing:-0.087em;}.dz{letter-spacing:-0.082em;}.ea{letter-spacing:-0.038em;}.eb{letter-spacing:-0.093em;}.ec{letter-spacing:-0.083em;}.ed{letter-spacing:-0.049em;}.ee{letter-spacing:-0.146em;}.ef{letter-spacing:-0.128em;}.eg{letter-spacing:-0.121em;}.eh{letter-spacing:-0.083em;}.ei{letter-spacing:-0.104em;}.ek{letter-spacing:-0.013em;}.el{letter-spacing:-0.033em;}.em{letter-spacing:-0.009em;}.en{letter-spacing:-0.009em;}.eo{letter-spacing:-0.023em;}.ep{letter-spacing:-0.056em;}.eq{letter-spacing:-0.011em;}.er{letter-spacing:-0.002em;}.es{letter-spacing:-0.001em;}.et{letter-spacing:0.001em;}.eu{letter-spacing:-0.017em;}.ev{letter-spacing:-0.005em;}.ew,.ex{font-size:12px;font-family:MyriadPro-Regular, Myriad Pro;}.ex{letter-spacing:-0.021em;}.ey{letter-spacing:-0.003em;}.ez{letter-spacing:-0.034em;}.fa{letter-spacing:-0.045em;}.fb{letter-spacing:-0.027em;}.fc{letter-spacing:-0.029em;}.fd{letter-spacing:-0.198em;}.fe{letter-spacing:-0.041em;}.ff{letter-spacing:-0.006em;}.fg{letter-spacing:-0.052em;}.fh{letter-spacing:-0.128em;}.fi{letter-spacing:-0.178em;}.fj{letter-spacing:-0.113em;}.fk{letter-spacing:-0.024em;}.fl{letter-spacing:-0.082em;}.fm{font-family:OpenSans-Semibold, Open Sans;font-weight:700;}.fn{letter-spacing:0.004em;}.fo{letter-spacing:0.028em;}.fp{letter-spacing:0.042em;}.fq{letter-spacing:-0.025em;}.fr{letter-spacing:-0.003em;}.fs{letter-spacing:-0.015em;}.ft{letter-spacing:0.027em;}.fu{letter-spacing:0.044em;}.fv{letter-spacing:-0.003em;}.fw{letter-spacing:0.007em;}.fx{letter-spacing:-0.025em;}.fy{letter-spacing:-0.015em;}.fz{letter-spacing:0.027em;}.ga{letter-spacing:0.004em;}.gb{letter-spacing:-0.005em;}.gc{letter-spacing:0.004em;}.gd{fill:none;}</style></defs><title>colors_01</title><rect class="a" x="0.5" y="425.5" width="519" height="48"/><path class="b" d="M519,426v47H1V426H519m1-1H0v49H520V425Z"/><rect class="c" y="28" width="520" height="48"/><rect class="d" y="76" width="520" height="48"/><rect class="e" y="124" width="520" height="48"/><rect class="f" y="282" width="520" height="48"/><rect class="g" y="330" width="520" height="48"/><rect class="h" y="378" width="520" height="48"/><rect class="i" y="586" width="520" height="48"/><rect class="j" y="634" width="520" height="48"/><rect class="k" y="682" width="520" height="48"/><rect class="l" y="730" width="520" height="48"/><rect class="m" y="778" width="520" height="48"/><text class="n" transform="translate(24 56.936)"><tspan class="o">T</tspan><tspan class="p" x="7.652" y="0">I</tspan><tspan class="q" x="15.297" y="0">T</tspan><tspan class="r" x="22.981" y="0">L</tspan><tspan class="s" x="30.458" y="0">E</tspan><tspan x="37.94" y="0">S</tspan><tspan class="t" x="0" y="48">P</tspan><tspan class="u" x="7.665" y="48">R</tspan><tspan class="v" x="15.284" y="48">I</tspan><tspan class="w" x="22.663" y="48">M</tspan><tspan x="30.503" y="48">A</tspan><tspan class="x" x="38.304" y="48">R</tspan><tspan x="45.781" y="48">Y </tspan><tspan class="y" x="61.383" y="48">T</tspan><tspan class="z" x="69.093" y="48">E</tspan><tspan class="aa" x="76.901" y="48">X</tspan><tspan x="84.99" y="48">T</tspan><tspan class="ab" x="0" y="96">S</tspan><tspan class="ac" x="7.705" y="96">E</tspan><tspan class="ad" x="15.097" y="96">C</tspan><tspan class="ae" x="22.846" y="96">O</tspan><tspan class="af" x="30.677" y="96">N</tspan><tspan class="ag" x="38.473" y="96">D</tspan><tspan x="45.896" y="96">A</tspan><tspan class="r" x="53.698" y="96">R</tspan><tspan x="61.174" y="96">Y </tspan><tspan class="ah" x="76.776" y="96">T</tspan><tspan class="ai" x="84.487" y="96">E</tspan><tspan class="aa" x="92.294" y="96">X</tspan><tspan x="100.383" y="96">T</tspan></text><text class="n" transform="translate(257 56.936)"><tspan class="aj">#</tspan><tspan class="ak" x="7.782" y="0">3</tspan><tspan class="al" x="15.141" y="0">5</tspan><tspan class="am" x="22.903" y="0">4</tspan><tspan class="an" x="30.503" y="0">0</tspan><tspan class="ao" x="37.94" y="0">5</tspan><tspan x="45.391" y="0">2</tspan><tspan class="ap" x="0" y="48">#</tspan><tspan class="aq" x="7.58" y="48">1</tspan><tspan class="ar" x="14.178" y="48">5</tspan><tspan class="as" x="21.4" y="48">1</tspan><tspan class="at" x="28.037" y="48">9</tspan><tspan class="au" x="35.65" y="48">2</tspan><tspan x="42.782" y="48">1</tspan><tspan class="av" x="0" y="96">#</tspan><tspan class="aw" x="7.795" y="96">9</tspan><tspan class="ax" x="15.096" y="96">8</tspan><tspan class="ay" x="22.559" y="96">9</tspan><tspan class="az" x="30.033" y="96">E</tspan><tspan class="ba" x="37.853" y="96">A</tspan><tspan x="45.31" y="96">7</tspan></text><text class="n" transform="translate(366 56.936)"><tspan class="bb">R</tspan><tspan class="bc" x="7.743" y="0">G</tspan><tspan class="bd" x="15.531" y="0">B</tspan><tspan class="be" x="22.551" y="0">(</tspan><tspan class="bf" x="28.939" y="0">5</tspan><tspan class="bg" x="36.39" y="0">2</tspan><tspan class="bh" x="42.958" y="0">,</tspan><tspan class="bi" x="49.128" y="0">6</tspan><tspan class="bj" x="56.825" y="0">4</tspan><tspan class="bk" x="63.429" y="0">,</tspan><tspan class="at" x="69.699" y="0">8</tspan><tspan class="bl" x="77.312" y="0">2</tspan><tspan x="83.524" y="0">)</tspan><tspan class="bb"><tspan x="0" y="48">R</tspan><tspan class="bc" x="7.743" y="48">G</tspan><tspan class="bd" x="15.531" y="48">B</tspan><tspan class="bm" x="22.551" y="48">(</tspan><tspan class="au" x="28.887" y="48">2</tspan><tspan class="bn" x="36.019" y="48">1</tspan><tspan class="bo" x="41.919" y="48">,</tspan><tspan class="bp" x="48.419" y="48">2</tspan><tspan class="bq" x="55.727" y="48">5</tspan><tspan class="br" x="62.316" y="48">,</tspan><tspan class="bs" x="68.736" y="48">3</tspan><tspan class="bt" x="76.271" y="48">3</tspan><tspan class="bu" x="82.393" y="48">)</tspan></tspan><tspan class="bb" x="0" y="96">R</tspan><tspan class="bc" x="7.743" y="96">G</tspan><tspan class="bd" x="15.531" y="96">B</tspan><tspan class="bv" x="22.551" y="96">(</tspan><tspan class="bw" x="28.692" y="96">1</tspan><tspan class="ao" x="35.29" y="96">5</tspan><tspan class="bg" x="42.74" y="96">2</tspan><tspan class="bx" x="49.309" y="96">,</tspan><tspan class="bw" x="54.491" y="96">1</tspan><tspan class="by" x="61.088" y="96">5</tspan><tspan class="bz" x="68.61" y="96">8</tspan><tspan class="ca" x="75.218" y="96">,</tspan><tspan class="cb" x="80.399" y="96">1</tspan><tspan class="cc" x="87.135" y="96">6</tspan><tspan class="cd" x="94.083" y="96">7</tspan><tspan x="100.954" y="96">)</tspan></text><text class="n" transform="translate(24 614.936)"><tspan class="ce">N</tspan><tspan class="cf" x="7.366" y="0">I</tspan><tspan class="cg" x="14.653" y="0">E</tspan><tspan class="ch" x="22.097" y="0">L</tspan><tspan class="ab" x="29.586" y="0">S</tspan><tspan class="ci" x="37.292" y="0">E</tspan><tspan x="44.865" y="0">N </tspan><tspan class="cj" x="60.468" y="0">B</tspan><tspan class="ck" x="68.153" y="0">L</tspan><tspan class="ab" x="75.552" y="0">U</tspan><tspan x="83.257" y="0">E</tspan><tspan class="cl" x="0" y="48">L</tspan><tspan class="ac" x="7.418" y="48">I</tspan><tspan class="cm" x="14.81" y="48">N</tspan><tspan class="ch" x="22.573" y="48">K</tspan><tspan x="30.063" y="48">S &amp; </tspan><tspan class="cn" x="61.268" y="48">B</tspan><tspan x="69.012" y="48">U</tspan><tspan class="co" x="76.813" y="48">T</tspan><tspan class="cp" x="84.882" y="48">T</tspan><tspan class="ae" x="92.508" y="48">O</tspan><tspan class="cq" x="100.339" y="48">N</tspan><tspan x="107.985" y="48">S</tspan><tspan class="cn" x="0" y="96">B</tspan><tspan x="7.744" y="96">U</tspan><tspan class="co" x="15.545" y="96">T</tspan><tspan class="cp" x="23.614" y="96">T</tspan><tspan class="ae" x="31.24" y="96">O</tspan><tspan class="cq" x="39.071" y="96">N</tspan><tspan x="46.718" y="96">S</tspan><tspan class="cr" x="0" y="144">E</tspan><tspan class="y" x="7.502" y="144">R</tspan><tspan class="ad" x="15.212" y="144">R</tspan><tspan class="cs" x="22.962" y="144">O</tspan><tspan class="am" x="30.722" y="144">R</tspan><tspan x="38.321" y="144">S</tspan><tspan class="c"><tspan class="ct" x="0" y="192">D</tspan><tspan class="aw" x="7.072" y="192">I</tspan><tspan class="cu" x="14.373" y="192">S</tspan><tspan class="cv" x="22.05" y="192">A</tspan><tspan class="cj" x="29.865" y="192">B</tspan><tspan class="x" x="37.55" y="192">L</tspan><tspan class="cw" x="45.027" y="192">E</tspan><tspan x="52.581" y="192">D </tspan><tspan class="cn" x="68.184" y="192">B</tspan><tspan x="75.928" y="192">U</tspan><tspan class="co" x="83.729" y="192">T</tspan><tspan class="cp" x="91.798" y="192">T</tspan><tspan class="ae" x="99.424" y="192">O</tspan><tspan class="cq" x="107.255" y="192">N</tspan><tspan x="114.901" y="192">S</tspan></tspan></text><text class="n" transform="translate(257 614.936)"><tspan class="cx">#</tspan><tspan class="cy" x="7.73" y="0">0</tspan><tspan class="ck" x="15.34" y="0">0</tspan><tspan class="cz" x="22.738" y="0">A</tspan><tspan class="da" x="30.507" y="0">E</tspan><tspan class="bf" x="37.977" y="0">E</tspan><tspan x="45.427" y="0">F</tspan><tspan class="cx" x="0" y="48">#</tspan><tspan class="cy" x="7.73" y="48">0</tspan><tspan class="cw" x="15.34" y="48">0</tspan><tspan class="aw" x="22.894" y="48">9</tspan><tspan class="db" x="30.195" y="48">8</tspan><tspan class="dc" x="37.711" y="48">F</tspan><tspan x="45.272" y="48">3</tspan><tspan class="dd" x="0" y="96">#</tspan><tspan class="de" x="7.938" y="96">2</tspan><tspan class="df" x="15.219" y="96">6</tspan><tspan class="cp" x="22.656" y="96">B</tspan><tspan class="dg" x="30.282" y="96">9</tspan><tspan class="dh" x="37.531" y="96">1</tspan><tspan x="44.311" y="96">0</tspan><tspan class="di" x="0" y="144">#</tspan><tspan class="da" x="7.646" y="144">F</tspan><tspan class="ce" x="15.115" y="144">F</tspan><tspan class="o" x="22.481" y="144">8</tspan><tspan class="dj" x="30.133" y="144">3</tspan><tspan class="cy" x="37.518" y="144">0</tspan><tspan x="45.128" y="144">0</tspan><tspan class="c"><tspan class="ad" x="0" y="192">#</tspan><tspan class="dk" x="7.75" y="192">D</tspan><tspan class="dl" x="15.258" y="192">5</tspan><tspan class="dm" x="22.851" y="192">D</tspan><tspan class="dn" x="30.216" y="192">7</tspan><tspan class="do" x="37.744" y="192">D</tspan><tspan x="45.469" y="192">B</tspan></tspan></text><text class="n" transform="translate(366 614.936)"><tspan class="bb">R</tspan><tspan class="bc" x="7.743" y="0">G</tspan><tspan class="bd" x="15.531" y="0">B</tspan><tspan class="dp" x="22.551" y="0">(</tspan><tspan class="dq" x="28.712" y="0">0</tspan><tspan class="ca" x="35.191" y="0">,</tspan><tspan class="dr" x="40.373" y="0">1</tspan><tspan class="ds" x="47.113" y="0">7</tspan><tspan class="bj" x="53.724" y="0">4</tspan><tspan class="bo" x="60.328" y="0">,</tspan><tspan class="dt" x="66.828" y="0">2</tspan><tspan class="du" x="74.336" y="0">3</tspan><tspan class="dv" x="81.708" y="0">9</tspan><tspan x="87.771" y="0">)</tspan><tspan class="bb" x="0" y="48">R</tspan><tspan class="bc" x="7.743" y="48">G</tspan><tspan class="bd" x="15.531" y="48">B</tspan><tspan class="dp" x="22.551" y="48">(</tspan><tspan class="dq" x="28.712" y="48">0</tspan><tspan class="ca" x="35.191" y="48">,</tspan><tspan class="aq" x="40.373" y="48">1</tspan><tspan class="ao" x="46.97" y="48">5</tspan><tspan class="bg" x="54.42" y="48">2</tspan><tspan class="bo" x="60.989" y="48">,</tspan><tspan class="ac" x="67.489" y="48">2</tspan><tspan class="ad" x="74.881" y="48">4</tspan><tspan class="dw" x="82.63" y="48">3</tspan><tspan x="88.752" y="48">)</tspan><tspan class="bb" x="0" y="96">R</tspan><tspan class="bc" x="7.743" y="96">G</tspan><tspan class="bd" x="15.531" y="96">B</tspan><tspan class="dx" x="22.551" y="96">(</tspan><tspan class="dj" x="28.854" y="96">3</tspan><tspan class="bz" x="36.24" y="96">8</tspan><tspan class="bx" x="42.848" y="96">,</tspan><tspan class="dy" x="48.03" y="96">1</tspan><tspan class="x" x="54.7" y="96">8</tspan><tspan class="bq" x="62.176" y="96">5</tspan><tspan class="bx" x="68.766" y="96">,</tspan><tspan class="dz" x="73.948" y="96">1</tspan><tspan class="bv" x="80.683" y="96">6</tspan><tspan x="86.824" y="96">)</tspan><tspan class="bb" x="0" y="144">R</tspan><tspan class="bc" x="7.743" y="144">G</tspan><tspan class="bd" x="15.531" y="144">B</tspan><tspan class="bm" x="22.551" y="144">(</tspan><tspan class="ea" x="28.887" y="144">2</tspan><tspan class="ch" x="36.194" y="144">5</tspan><tspan class="eb" x="43.684" y="144">5</tspan><tspan class="ca" x="50.273" y="144">,</tspan><tspan class="ec" x="55.455" y="144">1</tspan><tspan class="ed" x="62.176" y="144">3</tspan><tspan class="ee" x="69.34" y="144">1</tspan><tspan class="ef" x="75.241" y="144">,</tspan><tspan class="eg" x="81.376" y="144">0</tspan><tspan x="87.608" y="144">)</tspan><tspan class="c"><tspan class="bb" x="0" y="192">R</tspan><tspan class="bc" x="7.743" y="192">G</tspan><tspan class="bd" x="15.531" y="192">B</tspan><tspan class="bm" x="22.551" y="192">(</tspan><tspan class="au" x="28.887" y="192">2</tspan><tspan class="eh" x="36.019" y="192">1</tspan><tspan class="ei" x="42.74" y="192">3</tspan><tspan class="bo" x="49.193" y="192">,</tspan><tspan class="au" x="55.693" y="192">2</tspan><tspan class="aq" x="62.825" y="192">1</tspan><tspan class="bq" x="69.422" y="192">5</tspan><tspan class="bo" x="76.012" y="192">,</tspan><tspan class="au" x="82.512" y="192">2</tspan><tspan class="as" x="89.644" y="192">1</tspan><tspan class="dv" x="96.28" y="192">9</tspan><tspan x="102.343" y="192">)</tspan></tspan></text><text class="ej" transform="translate(24 310.936)"><tspan class="t">P</tspan><tspan class="u" x="7.665" y="0">R</tspan><tspan class="v" x="15.284" y="0">I</tspan><tspan class="w" x="22.663" y="0">M</tspan><tspan x="30.503" y="0">A</tspan><tspan class="x" x="38.304" y="0">R</tspan><tspan x="45.781" y="0">Y </tspan><tspan class="ct" x="61.383" y="0">D</tspan><tspan class="o" x="68.455" y="0">I</tspan><tspan class="ek" x="76.107" y="0">V</tspan><tspan class="el" x="83.746" y="0">I</tspan><tspan class="em" x="91.118" y="0">D</tspan><tspan class="cr" x="98.797" y="0">E</tspan><tspan x="106.299" y="0">R</tspan><tspan class="ab" x="0" y="48">S</tspan><tspan class="ac" x="7.705" y="48">E</tspan><tspan class="ad" x="15.097" y="48">C</tspan><tspan class="ae" x="22.846" y="48">O</tspan><tspan class="af" x="30.677" y="48">N</tspan><tspan class="ag" x="38.473" y="48">D</tspan><tspan x="45.896" y="48">A</tspan><tspan class="r" x="53.698" y="48">R</tspan><tspan x="61.174" y="48">Y </tspan><tspan class="ct" x="76.776" y="48">D</tspan><tspan class="o" x="83.848" y="48">I</tspan><tspan class="ek" x="91.5" y="48">V</tspan><tspan class="el" x="99.139" y="48">I</tspan><tspan class="en" x="106.511" y="48">D</tspan><tspan class="eo" x="114.19" y="48">E</tspan><tspan x="121.692" y="48">R</tspan><tspan class="ep" x="0" y="96">P</tspan><tspan class="bs" x="7.073" y="96">A</tspan><tspan class="bb" x="14.608" y="96">G</tspan><tspan x="22.351" y="96">E </tspan><tspan class="di" x="37.953" y="96">B</tspan><tspan class="cw" x="45.599" y="96">A</tspan><tspan class="eq" x="53.153" y="96">C</tspan><tspan class="ce" x="60.811" y="96">K</tspan><tspan class="er" x="68.177" y="96">G</tspan><tspan class="ad" x="75.952" y="96">R</tspan><tspan class="es" x="83.702" y="96">O</tspan><tspan class="et" x="91.494" y="96">U</tspan><tspan class="af" x="99.303" y="96">N</tspan><tspan x="107.099" y="96">D</tspan><tspan class="ad" x="0" y="144">C</tspan><tspan class="ae" x="7.75" y="144">O</tspan><tspan class="aj" x="15.581" y="144">N</tspan><tspan class="y" x="23.362" y="144">T</tspan><tspan class="eu" x="31.072" y="144">E</tspan><tspan class="aj" x="38.646" y="144">N</tspan><tspan x="46.428" y="144">T </tspan><tspan class="p" x="62.031" y="144">B</tspan><tspan class="cw" x="69.676" y="144">A</tspan><tspan class="eq" x="77.23" y="144">C</tspan><tspan class="ce" x="84.888" y="144">K</tspan><tspan class="er" x="92.254" y="144">G</tspan><tspan class="ad" x="100.029" y="144">R</tspan><tspan class="es" x="107.779" y="144">O</tspan><tspan class="et" x="115.571" y="144">U</tspan><tspan class="af" x="123.38" y="144">N</tspan><tspan x="131.176" y="144">D</tspan></text><text class="ej" transform="translate(257 310.936)"><tspan class="ev">#</tspan><tspan class="ew" x="7.742" y="0">BB</tspan><tspan class="ex" x="20.75" y="0">C</tspan><tspan class="ew" x="27.457" y="0">CDB</tspan><tspan class="ad" x="0" y="48">#</tspan><tspan class="ey" x="7.75" y="48">D</tspan><tspan class="en" x="15.513" y="48">D</tspan><tspan class="ez" x="23.192" y="48">E</tspan><tspan class="ac" x="30.545" y="48">6</tspan><tspan class="cw" x="37.937" y="48">E</tspan><tspan x="45.491" y="48">D</tspan><tspan class="di" x="0" y="96">#</tspan><tspan class="fa" x="7.646" y="96">F</tspan><tspan class="ch" x="14.861" y="96">5</tspan><tspan class="an" x="22.351" y="96">F</tspan><tspan class="fb" x="29.788" y="96">9</tspan><tspan class="fc" x="37.242" y="96">F</tspan><tspan x="44.673" y="96">C</tspan><tspan class="di" x="0" y="144">#</tspan><tspan class="da" x="7.646" y="144">FFFFF</tspan><tspan x="44.994" y="144">F</tspan></text><text class="ej" transform="translate(366 310.936)"><tspan class="bb">R</tspan><tspan class="bc" x="7.743" y="0">G</tspan><tspan class="bd" x="15.531" y="0">B</tspan><tspan class="bv" x="22.551" y="0">(</tspan><tspan class="dy" x="28.692" y="0">1</tspan><tspan class="s" x="35.362" y="0">8</tspan><tspan class="fd" x="42.845" y="0">7</tspan><tspan class="bo" x="48.071" y="0">,</tspan><tspan class="fe" x="54.571" y="0">2</tspan><tspan class="ff" x="61.839" y="0">0</tspan><tspan class="bj" x="69.563" y="0">4</tspan><tspan class="bo" x="76.167" y="0">,</tspan><tspan class="au" x="82.667" y="0">2</tspan><tspan class="as" x="89.798" y="0">1</tspan><tspan class="dv" x="96.435" y="0">9</tspan><tspan x="102.498" y="0">)</tspan><tspan class="bb" x="0" y="48">R</tspan><tspan class="bc" x="7.743" y="48">G</tspan><tspan class="bd" x="15.531" y="48">B</tspan><tspan class="bm" x="22.551" y="48">(</tspan><tspan class="ap" x="28.887" y="48">2</tspan><tspan class="au" x="36.467" y="48">2</tspan><tspan class="ee" x="43.599" y="48">1</tspan><tspan class="bo" x="49.5" y="48">,</tspan><tspan class="dt" x="56" y="48">2</tspan><tspan class="dj" x="63.509" y="48">3</tspan><tspan class="dq" x="70.894" y="48">0</tspan><tspan class="bo" x="77.373" y="48">,</tspan><tspan class="dt" x="83.873" y="48">2</tspan><tspan class="ac" x="91.382" y="48">3</tspan><tspan class="cd" x="98.773" y="48">7</tspan><tspan x="105.644" y="48">)</tspan><tspan class="bb" x="0" y="96">R</tspan><tspan class="bc" x="7.743" y="96">G</tspan><tspan class="bd" x="15.531" y="96">B</tspan><tspan class="bm" x="22.551" y="96">(</tspan><tspan class="ac" x="28.887" y="96">2</tspan><tspan class="ci" x="36.279" y="96">4</tspan><tspan class="eb" x="43.853" y="96">5</tspan><tspan class="bo" x="50.442" y="96">,</tspan><tspan class="ac" x="56.942" y="96">2</tspan><tspan class="fg" x="64.334" y="96">4</tspan><tspan class="fh" x="71.458" y="96">9</tspan><tspan class="bo" x="77.599" y="96">,</tspan><tspan class="bp" x="84.099" y="96">2</tspan><tspan class="ao" x="91.407" y="96">5</tspan><tspan class="bl" x="98.857" y="96">2</tspan><tspan x="105.069" y="96">)</tspan><tspan class="bb" x="0" y="144">R</tspan><tspan class="bc" x="7.743" y="144">G</tspan><tspan class="bd" x="15.531" y="144">B</tspan><tspan class="fi" x="22.551" y="144">(</tspan><tspan class="fj" x="28.037" y="144">(</tspan><tspan class="ea" x="34.373" y="144">2</tspan><tspan class="fk" x="41.68" y="144">5</tspan><tspan class="bq" x="49.17" y="144">5</tspan><tspan class="bo" x="55.759" y="144">,</tspan><tspan class="ea" x="62.259" y="144">2</tspan><tspan class="ch" x="69.566" y="144">5</tspan><tspan class="eb" x="77.056" y="144">5</tspan><tspan class="bo" x="83.646" y="144">,</tspan><tspan class="ea" x="90.146" y="144">2</tspan><tspan class="ch" x="97.453" y="144">5</tspan><tspan class="fl" x="104.942" y="144">5</tspan><tspan x="111.676" y="144">)</tspan></text><text class="fm" transform="translate(217.32 12)"><tspan class="fn">T</tspan><tspan class="fo" x="7.406" y="0">E</tspan><tspan class="fp" x="15.028" y="0">X</tspan><tspan x="23.665" y="0">T </tspan><tspan class="fq" x="34.399" y="0">C</tspan><tspan class="fr" x="42.317" y="0">O</tspan><tspan class="fs" x="52.513" y="0">L</tspan><tspan class="fr" x="59.36" y="0">O</tspan><tspan class="ft" x="69.556" y="0">R</tspan><tspan x="78.212" y="0">S</tspan></text><text class="fm" transform="translate(207.768 266)"><tspan class="fu">L</tspan><tspan class="ep" x="7.622" y="0">A</tspan><tspan class="fb" x="15.489" y="0">Y</tspan><tspan class="fv" x="22.835" y="0">O</tspan><tspan class="fw" x="33.027" y="0">U</tspan><tspan x="42.769" y="0">T </tspan><tspan class="fx" x="53.503" y="0">C</tspan><tspan class="fr" x="61.421" y="0">O</tspan><tspan class="fy" x="71.617" y="0">L</tspan><tspan class="fr" x="78.464" y="0">O</tspan><tspan class="fz" x="88.66" y="0">R</tspan><tspan x="97.316" y="0">S</tspan></text><text class="fm" transform="translate(202.562 569.5)"><tspan class="fq">C</tspan><tspan class="fr" x="7.918" y="0">O</tspan><tspan class="ga" x="18.114" y="0">NT</tspan><tspan class="gb" x="35.759" y="0">E</tspan><tspan class="gc" x="42.947" y="0">N</tspan><tspan x="53.182" y="0">T </tspan><tspan class="fx" x="63.916" y="0">C</tspan><tspan class="fr" x="71.834" y="0">O</tspan><tspan class="fy" x="82.03" y="0">L</tspan><tspan class="fr" x="88.877" y="0">O</tspan><tspan class="fz" x="99.073" y="0">R</tspan><tspan x="107.729" y="0">S</tspan></text><rect class="gd" width="520" height="826"/></svg>