<svg xmlns="http://www.w3.org/2000/svg" width="520" height="192" viewBox="0 0 520 192"><defs><style>.a{fill:#fff;}.b{fill:#dcdcdc;}.c{fill:#bbccda;}.d{fill:#dde6ed;}.e{fill:#f5f9fc;}.f{fill:#354052;}</style></defs><title>colors_02</title><rect class="a" x="0.5" y="143.5" width="519" height="48"/><path class="b" d="M519,144v47H1V144H519m1-1H0v49H520V143Z"/><rect class="c" width="520" height="48"/><rect class="d" y="48" width="520" height="48"/><rect class="e" y="96" width="520" height="48"/><path class="f" d="M26.584,25.393v3.542H25.061V19.693h3.091a4.065,4.065,0,0,1,1.279.206,3,3,0,0,1,1.013.571,2.6,2.6,0,0,1,.663.9,2.9,2.9,0,0,1,.237,1.2,2.783,2.783,0,0,1-.237,1.168,2.58,2.58,0,0,1-.663.889,2.958,2.958,0,0,1-1.013.565,4.122,4.122,0,0,1-1.279.2Zm0-1.231h1.567a1.917,1.917,0,0,0,.692-.117,1.514,1.514,0,0,0,.52-.327,1.393,1.393,0,0,0,.33-.5,1.73,1.73,0,0,0,.115-.635,1.883,1.883,0,0,0-.115-.667,1.458,1.458,0,0,0-.33-.523,1.473,1.473,0,0,0-.52-.34,1.956,1.956,0,0,0-.692-.127H26.584Z"/><path class="f" d="M35.708,25.33H34.159v3.605H32.636V19.693h2.92a4.836,4.836,0,0,1,1.312.181,3.021,3.021,0,0,1,1.037.521,2.341,2.341,0,0,1,.68.867,2.881,2.881,0,0,1,.24,1.219,2.789,2.789,0,0,1-.123.854,2.467,2.467,0,0,1-.879,1.24,3.446,3.446,0,0,1-.686.4l1.955,3.885v.076H37.467ZM34.159,24.1h1.4a2.14,2.14,0,0,0,.7-.108,1.61,1.61,0,0,0,.549-.308,1.339,1.339,0,0,0,.359-.488,1.646,1.646,0,0,0,.127-.663,1.8,1.8,0,0,0-.121-.686,1.336,1.336,0,0,0-.346-.5,1.483,1.483,0,0,0-.549-.308,2.445,2.445,0,0,0-.724-.111h-1.4Z"/><path class="f" d="M40.434,19.693h5.5v1.264h-2v6.722h2v1.257h-5.5V27.679h1.955V20.957H40.434Z"/><path class="f" d="M49.411,19.693l1.149,3.992,1.27-3.992h1.891v9.242H52.287V25.762l.088-4.05-1.422,4.431h-.8l-1.289-4.278.089,3.9v3.174H47.52V19.693Z"/><path class="f" d="M59.93,26.79H57.042l-.635,2.146H54.833l3-9.242h1.339l2.945,9.242H60.553Zm-2.5-1.3h2.119L58.5,21.864Z"/><path class="f" d="M66.348,25.33H64.8v3.605H63.275V19.693H66.2a4.824,4.824,0,0,1,1.311.181,3.008,3.008,0,0,1,1.038.521,2.329,2.329,0,0,1,.679.867,2.866,2.866,0,0,1,.242,1.219,2.73,2.73,0,0,1-.125.854,2.5,2.5,0,0,1-.346.7,2.474,2.474,0,0,1-.533.545,3.392,3.392,0,0,1-.686.4l1.955,3.885v.076H68.105ZM64.8,24.1h1.4a2.156,2.156,0,0,0,.7-.108,1.62,1.62,0,0,0,.549-.308,1.359,1.359,0,0,0,.358-.488,1.629,1.629,0,0,0,.127-.663,1.82,1.82,0,0,0-.12-.686,1.358,1.358,0,0,0-.346-.5,1.487,1.487,0,0,0-.55-.308,2.445,2.445,0,0,0-.724-.111H64.8Z"/><path class="f" d="M73.691,24.111l1.923-4.418h1.7l-2.882,5.922-.013,3.32H72.941l-.012-3.357-2.863-5.885h1.7Z"/><path class="f" d="M86.253,28.935V19.693h2.26a4.548,4.548,0,0,1,1.71.317,3.622,3.622,0,0,1,1.289.876,3.909,3.909,0,0,1,.816,1.349,5.158,5.158,0,0,1,.291,1.736v.7a5.158,5.158,0,0,1-.291,1.736,3.915,3.915,0,0,1-.812,1.346,3.659,3.659,0,0,1-1.276.873,4.353,4.353,0,0,1-1.683.311ZM87.8,20.925v6.786h.755a2.658,2.658,0,0,0,1.1-.226,2.135,2.135,0,0,0,.784-.616,2.68,2.68,0,0,0,.469-.955,4.751,4.751,0,0,0,.162-1.244v-.711a4.605,4.605,0,0,0-.162-1.219,2.7,2.7,0,0,0-.473-.955,2.17,2.17,0,0,0-.8-.629,2.673,2.673,0,0,0-1.126-.231Z"/><path class="f" d="M93.6,19.693h5.5v1.264h-2v6.722h2v1.257H93.6V27.679h1.955V20.957H93.6Z"/><path class="f" d="M103.992,26.619l1.923-6.926h1.663l-2.856,9.242h-1.454l-2.85-9.242h1.663Z"/><path class="f" d="M108.895,19.693h5.5v1.264h-2v6.722h2v1.257h-5.5V27.679h1.955V20.957h-1.955Z"/><path class="f" d="M115.988,28.935V19.693h2.26a4.548,4.548,0,0,1,1.71.317,3.622,3.622,0,0,1,1.289.876,3.907,3.907,0,0,1,.815,1.349,5.158,5.158,0,0,1,.292,1.736v.7a5.158,5.158,0,0,1-.292,1.736,3.885,3.885,0,0,1-.812,1.346,3.655,3.655,0,0,1-1.275.873,4.36,4.36,0,0,1-1.683.311Zm1.549-8.011v6.786h.755a2.661,2.661,0,0,0,1.1-.226,2.14,2.14,0,0,0,.783-.616,2.666,2.666,0,0,0,.47-.955,4.793,4.793,0,0,0,.162-1.244v-.711a4.646,4.646,0,0,0-.162-1.219,2.7,2.7,0,0,0-.473-.955,2.186,2.186,0,0,0-.8-.629,2.676,2.676,0,0,0-1.126-.231Z"/><path class="f" d="M129.157,24.791h-3.8v2.9H129.8v1.244h-5.979V19.693h5.935V20.95h-4.4v2.608h3.8Z"/><path class="f" d="M134.343,25.33h-1.549v3.605h-1.523V19.693h2.92a4.836,4.836,0,0,1,1.312.181,3.021,3.021,0,0,1,1.037.521,2.341,2.341,0,0,1,.68.867,2.881,2.881,0,0,1,.24,1.219,2.789,2.789,0,0,1-.123.854,2.467,2.467,0,0,1-.879,1.24,3.446,3.446,0,0,1-.686.4l1.955,3.885v.076H136.1ZM132.794,24.1h1.4a2.14,2.14,0,0,0,.7-.108,1.61,1.61,0,0,0,.549-.308,1.339,1.339,0,0,0,.359-.488,1.646,1.646,0,0,0,.127-.663,1.8,1.8,0,0,0-.121-.686,1.336,1.336,0,0,0-.346-.5,1.483,1.483,0,0,0-.549-.308,2.445,2.445,0,0,0-.724-.111h-1.4Z"/><path class="f" d="M29.744,74.555a1.2,1.2,0,0,0-.136-.58,1.378,1.378,0,0,0-.388-.441,2.62,2.62,0,0,0-.6-.333,7.559,7.559,0,0,0-.752-.264,8.528,8.528,0,0,1-1.076-.394,4.11,4.11,0,0,1-.945-.574,2.792,2.792,0,0,1-.673-.794,2.088,2.088,0,0,1-.258-1.05,2.2,2.2,0,0,1,.258-1.07,2.493,2.493,0,0,1,.688-.8,3.2,3.2,0,0,1,1-.508,4.007,4.007,0,0,1,1.193-.178,3.692,3.692,0,0,1,1.247.206,3.183,3.183,0,0,1,1.016.578,2.738,2.738,0,0,1,.688.889,2.625,2.625,0,0,1,.261,1.146H29.751a2.2,2.2,0,0,0-.149-.638,1.422,1.422,0,0,0-.848-.822,2,2,0,0,0-.7-.114,2.159,2.159,0,0,0-.635.089,1.483,1.483,0,0,0-.5.261,1.227,1.227,0,0,0-.333.412,1.2,1.2,0,0,0-.12.546.963.963,0,0,0,.164.562,1.584,1.584,0,0,0,.432.416,3.048,3.048,0,0,0,.613.308q.346.13.721.238a7.58,7.58,0,0,1,1.1.422,3.978,3.978,0,0,1,.928.6,2.739,2.739,0,0,1,.635.815,2.316,2.316,0,0,1,.234,1.061,2.21,2.21,0,0,1-.26,1.085,2.39,2.39,0,0,1-.7.787,3.159,3.159,0,0,1-1.016.479,4.465,4.465,0,0,1-1.205.162,4.384,4.384,0,0,1-.845-.083,3.985,3.985,0,0,1-.8-.247,3.531,3.531,0,0,1-.714-.41,2.84,2.84,0,0,1-.575-.564,2.611,2.611,0,0,1-.384-.718,2.725,2.725,0,0,1-.146-.872h1.53a1.973,1.973,0,0,0,.185.729,1.512,1.512,0,0,0,.406.518,1.735,1.735,0,0,0,.593.311,2.533,2.533,0,0,0,.753.1,2.408,2.408,0,0,0,.641-.082,1.592,1.592,0,0,0,.521-.244,1.172,1.172,0,0,0,.349-.4A1.131,1.131,0,0,0,29.744,74.555Z"/><path class="f" d="M38.065,72.791h-3.8v2.9h4.449v1.244H32.733V67.693h5.935V68.95h-4.4v2.608h3.8Z"/><path class="f" d="M46.282,74.1a3.685,3.685,0,0,1-.317,1.216,2.977,2.977,0,0,1-.673.939,2.934,2.934,0,0,1-.987.6,3.592,3.592,0,0,1-1.266.212,3.146,3.146,0,0,1-1.473-.326,3.047,3.047,0,0,1-1.048-.886,3.891,3.891,0,0,1-.628-1.308,6.068,6.068,0,0,1-.217-1.6V71.685a5.919,5.919,0,0,1,.223-1.6,4.018,4.018,0,0,1,.638-1.314,3.08,3.08,0,0,1,1.051-.889,3.121,3.121,0,0,1,1.46-.326,3.67,3.67,0,0,1,1.3.215,2.844,2.844,0,0,1,.979.609,2.9,2.9,0,0,1,.646.959,4.253,4.253,0,0,1,.312,1.257H44.759a3.093,3.093,0,0,0-.155-.739,1.78,1.78,0,0,0-.32-.571,1.327,1.327,0,0,0-.512-.365,1.891,1.891,0,0,0-.727-.127,1.506,1.506,0,0,0-.863.235,1.75,1.75,0,0,0-.564.631,2.989,2.989,0,0,0-.309.918,6.341,6.341,0,0,0-.092,1.092v1.275a6.551,6.551,0,0,0,.092,1.12,3.068,3.068,0,0,0,.3.917,1.653,1.653,0,0,0,.559.623,1.557,1.557,0,0,0,.87.229,1.576,1.576,0,0,0,1.219-.454,2.127,2.127,0,0,0,.494-1.286Z"/><path class="f" d="M54.057,72.911a5.833,5.833,0,0,1-.209,1.571,4.126,4.126,0,0,1-.625,1.326,3.1,3.1,0,0,1-1.041.914,3.017,3.017,0,0,1-1.463.34,2.926,2.926,0,0,1-1.447-.343,3.089,3.089,0,0,1-1.025-.917,4.129,4.129,0,0,1-.615-1.324,5.827,5.827,0,0,1-.207-1.567V71.73a6.187,6.187,0,0,1,.092-1.066,5.08,5.08,0,0,1,.273-.98,4.156,4.156,0,0,1,.451-.851A2.883,2.883,0,0,1,49.7,67.724a3.1,3.1,0,0,1,1.013-.158,3,3,0,0,1,1.464.343,3.157,3.157,0,0,1,1.043.917,4.084,4.084,0,0,1,.629,1.33,5.866,5.866,0,0,1,.209,1.574Zm-1.529-1.193a6.445,6.445,0,0,0-.1-1.034,3.11,3.11,0,0,0-.3-.918,1.841,1.841,0,0,0-.556-.653,1.439,1.439,0,0,0-.866-.251,1.4,1.4,0,0,0-.854.251,1.771,1.771,0,0,0-.539.657,3.169,3.169,0,0,0-.279.917,7.419,7.419,0,0,0-.086,1.031v1.193a7,7,0,0,0,.09,1.031,3.288,3.288,0,0,0,.281.921,1.813,1.813,0,0,0,.541.663,1.384,1.384,0,0,0,.854.254,1.424,1.424,0,0,0,.865-.254,1.867,1.867,0,0,0,.557-.66,3.118,3.118,0,0,0,.295-.921,6.8,6.8,0,0,0,.092-1.034Z"/><path class="f" d="M61.6,76.935H60.066l-3.009-6.36-.007,6.36H55.509V67.693h1.542l3,6.342.014-6.342H61.6Z"/><path class="f" d="M63.343,76.935V67.693H65.6a4.548,4.548,0,0,1,1.71.317,3.622,3.622,0,0,1,1.289.876,3.909,3.909,0,0,1,.816,1.349,5.158,5.158,0,0,1,.291,1.736v.7a5.158,5.158,0,0,1-.291,1.736,3.915,3.915,0,0,1-.812,1.346,3.659,3.659,0,0,1-1.276.873,4.353,4.353,0,0,1-1.683.311Zm1.549-8.011v6.786h.755a2.658,2.658,0,0,0,1.1-.226,2.135,2.135,0,0,0,.784-.616A2.68,2.68,0,0,0,68,73.914a4.751,4.751,0,0,0,.162-1.244v-.711A4.605,4.605,0,0,0,68,70.74a2.7,2.7,0,0,0-.473-.955,2.17,2.17,0,0,0-.8-.629,2.673,2.673,0,0,0-1.126-.231Z"/><path class="f" d="M75.324,74.79H72.436L71.8,76.935H70.227l3-9.242h1.34l2.945,9.242H75.945Zm-2.5-1.3h2.121L73.9,69.864Z"/><path class="f" d="M81.741,73.33H80.192v3.605H78.669V67.693h2.92a4.836,4.836,0,0,1,1.312.181,3.021,3.021,0,0,1,1.037.521,2.341,2.341,0,0,1,.68.867,2.881,2.881,0,0,1,.24,1.219,2.789,2.789,0,0,1-.123.854,2.467,2.467,0,0,1-.879,1.24,3.446,3.446,0,0,1-.686.4l1.955,3.885v.076H83.5ZM80.192,72.1h1.4a2.14,2.14,0,0,0,.7-.108,1.61,1.61,0,0,0,.549-.308,1.339,1.339,0,0,0,.359-.488,1.646,1.646,0,0,0,.127-.663,1.8,1.8,0,0,0-.121-.686,1.336,1.336,0,0,0-.346-.5,1.483,1.483,0,0,0-.549-.308,2.445,2.445,0,0,0-.724-.111h-1.4Z"/><path class="f" d="M89.084,72.111l1.924-4.418h1.7l-2.883,5.922-.012,3.32H88.335l-.013-3.357-2.863-5.885h1.7Z"/><path class="f" d="M101.646,76.935V67.693h2.26a4.548,4.548,0,0,1,1.71.317,3.622,3.622,0,0,1,1.289.876,3.907,3.907,0,0,1,.815,1.349,5.158,5.158,0,0,1,.292,1.736v.7a5.158,5.158,0,0,1-.292,1.736,3.885,3.885,0,0,1-.812,1.346,3.655,3.655,0,0,1-1.275.873,4.36,4.36,0,0,1-1.683.311Zm1.549-8.011v6.786h.755a2.661,2.661,0,0,0,1.1-.226,2.14,2.14,0,0,0,.783-.616,2.666,2.666,0,0,0,.47-.955,4.793,4.793,0,0,0,.162-1.244v-.711a4.646,4.646,0,0,0-.162-1.219,2.7,2.7,0,0,0-.473-.955,2.186,2.186,0,0,0-.8-.629,2.676,2.676,0,0,0-1.126-.231Z"/><path class="f" d="M109,67.693h5.5v1.264h-2v6.722h2v1.257H109V75.679h1.955V68.957H109Z"/><path class="f" d="M119.385,74.619l1.924-6.926h1.662l-2.855,9.242h-1.454l-2.851-9.242h1.664Z"/><path class="f" d="M124.287,67.693h5.5v1.264h-2v6.722h2v1.257h-5.5V75.679h1.955V68.957h-1.955Z"/><path class="f" d="M131.381,76.935V67.693h2.26a4.557,4.557,0,0,1,1.711.317,3.622,3.622,0,0,1,1.289.876,3.89,3.89,0,0,1,.814,1.349,5.133,5.133,0,0,1,.293,1.736v.7a5.133,5.133,0,0,1-.293,1.736,3.87,3.87,0,0,1-.812,1.346,3.637,3.637,0,0,1-1.275.873,4.358,4.358,0,0,1-1.682.311Zm1.549-8.011v6.786h.756a2.656,2.656,0,0,0,1.1-.226,2.14,2.14,0,0,0,.783-.616,2.651,2.651,0,0,0,.471-.955,4.835,4.835,0,0,0,.162-1.244v-.711a4.687,4.687,0,0,0-.162-1.219,2.719,2.719,0,0,0-.473-.955,2.186,2.186,0,0,0-.8-.629,2.684,2.684,0,0,0-1.127-.231Z"/><path class="f" d="M144.551,72.791h-3.8v2.9h4.45v1.244h-5.979V67.693h5.936V68.95h-4.406v2.608h3.8Z"/><path class="f" d="M149.736,73.33h-1.549v3.605h-1.523V67.693h2.92a4.829,4.829,0,0,1,1.311.181,3,3,0,0,1,1.037.521,2.322,2.322,0,0,1,.68.867,2.881,2.881,0,0,1,.241,1.219,2.759,2.759,0,0,1-.124.854,2.467,2.467,0,0,1-.879,1.24,3.392,3.392,0,0,1-.686.4l1.955,3.885v.076h-1.625ZM148.188,72.1h1.4a2.15,2.15,0,0,0,.7-.108,1.61,1.61,0,0,0,.549-.308,1.336,1.336,0,0,0,.358-.488,1.629,1.629,0,0,0,.127-.663,1.8,1.8,0,0,0-.12-.686,1.358,1.358,0,0,0-.346-.5,1.48,1.48,0,0,0-.55-.308,2.439,2.439,0,0,0-.723-.111h-1.4Z"/><path class="f" d="M26.584,121.393v3.542H25.061v-9.242h3.091a4.065,4.065,0,0,1,1.279.206,3,3,0,0,1,1.013.571,2.6,2.6,0,0,1,.663.9,2.9,2.9,0,0,1,.237,1.2,2.783,2.783,0,0,1-.237,1.168,2.58,2.58,0,0,1-.663.889,2.958,2.958,0,0,1-1.013.565,4.122,4.122,0,0,1-1.279.2Zm0-1.231h1.567a1.917,1.917,0,0,0,.692-.117,1.514,1.514,0,0,0,.52-.327,1.393,1.393,0,0,0,.33-.5,1.73,1.73,0,0,0,.115-.635,1.883,1.883,0,0,0-.115-.667,1.458,1.458,0,0,0-.33-.523,1.473,1.473,0,0,0-.52-.34,1.956,1.956,0,0,0-.692-.127H26.584Z"/><path class="f" d="M36.5,122.79H33.612l-.635,2.146H31.4l3-9.242h1.339l2.945,9.242H37.123Zm-2.5-1.3h2.119l-1.047-3.624Z"/><path class="f" d="M45.756,123.78a3.285,3.285,0,0,1-.553.515,3.685,3.685,0,0,1-.711.406,4.317,4.317,0,0,1-.854.266,4.764,4.764,0,0,1-.98.1,3.208,3.208,0,0,1-1.473-.324,3.162,3.162,0,0,1-1.082-.885,4,4,0,0,1-.674-1.324,5.768,5.768,0,0,1-.238-1.637V119.75a5.68,5.68,0,0,1,.229-1.639,4.114,4.114,0,0,1,.658-1.326,3.117,3.117,0,0,1,1.05-.892,3.014,3.014,0,0,1,1.422-.327,3.872,3.872,0,0,1,1.282.2,2.763,2.763,0,0,1,.971.567,2.691,2.691,0,0,1,.645.905,3.8,3.8,0,0,1,.3,1.193h-1.5a2.976,2.976,0,0,0-.178-.674,1.6,1.6,0,0,0-.323-.508,1.369,1.369,0,0,0-.492-.32,1.9,1.9,0,0,0-.683-.111,1.434,1.434,0,0,0-.829.238,1.908,1.908,0,0,0-.574.642,3.16,3.16,0,0,0-.336.933,5.894,5.894,0,0,0-.114,1.107v1.156a5.669,5.669,0,0,0,.118,1.1,3.045,3.045,0,0,0,.348.931,1.91,1.91,0,0,0,.613.644,1.664,1.664,0,0,0,.9.248,3.682,3.682,0,0,0,.444-.028,2.569,2.569,0,0,0,.436-.093,1.849,1.849,0,0,0,.377-.161.9.9,0,0,0,.279-.245l.013-1.847H42.582v-1.187h3.16Z"/><path class="f" d="M52.711,120.791h-3.8v2.9h4.45v1.244H47.379v-9.242h5.936v1.257H48.908v2.608h3.8Z"/><path class="f" d="M62.893,124.935v-9.242h2.951a5.282,5.282,0,0,1,1.248.152,3.058,3.058,0,0,1,1.016.451,2.152,2.152,0,0,1,.682.777,2.326,2.326,0,0,1,.242,1.12,1.9,1.9,0,0,1-.381,1.171,2.427,2.427,0,0,1-1.01.752,2.394,2.394,0,0,1,.688.309,1.937,1.937,0,0,1,.5.479,2.155,2.155,0,0,1,.311.619,2.358,2.358,0,0,1,.108.721,2.663,2.663,0,0,1-.241,1.162,2.333,2.333,0,0,1-.67.838,3.02,3.02,0,0,1-1.016.511,4.564,4.564,0,0,1-1.266.181Zm1.529-5.352h1.461a2.411,2.411,0,0,0,.638-.092,1.5,1.5,0,0,0,.511-.254,1.238,1.238,0,0,0,.343-.412,1.2,1.2,0,0,0,.127-.562,1.35,1.35,0,0,0-.12-.6,1.076,1.076,0,0,0-.34-.406,1.459,1.459,0,0,0-.518-.232,2.95,2.95,0,0,0-.654-.079H64.422Zm0,1.162v2.945h1.664a2.078,2.078,0,0,0,.66-.111,1.6,1.6,0,0,0,.514-.289,1.3,1.3,0,0,0,.34-.45,1.408,1.408,0,0,0,.123-.6,1.7,1.7,0,0,0-.107-.625,1.263,1.263,0,0,0-.311-.467,1.4,1.4,0,0,0-.5-.295,2.007,2.007,0,0,0-.653-.111Z"/><path class="f" d="M75.025,122.79H72.138l-.635,2.146H69.929l3-9.242h1.339l2.945,9.242H75.648Zm-2.5-1.3h2.119L73.6,117.864Z"/><path class="f" d="M84.338,122.1a3.709,3.709,0,0,1-.316,1.216,2.98,2.98,0,0,1-.674.939,2.93,2.93,0,0,1-.986.6,3.594,3.594,0,0,1-1.267.212,3.149,3.149,0,0,1-1.473-.326,3.056,3.056,0,0,1-1.048-.886,3.909,3.909,0,0,1-.628-1.308,6.069,6.069,0,0,1-.216-1.6v-1.264a5.881,5.881,0,0,1,.223-1.6,4,4,0,0,1,.637-1.314,3.089,3.089,0,0,1,1.051-.889,3.128,3.128,0,0,1,1.461-.326,3.67,3.67,0,0,1,1.3.215,2.831,2.831,0,0,1,.978.609,2.9,2.9,0,0,1,.647.959,4.283,4.283,0,0,1,.311,1.257H82.814a3.094,3.094,0,0,0-.154-.739,1.782,1.782,0,0,0-.321-.571,1.324,1.324,0,0,0-.511-.365,1.891,1.891,0,0,0-.727-.127,1.5,1.5,0,0,0-.863.235,1.744,1.744,0,0,0-.565.631,2.988,2.988,0,0,0-.308.918,6.245,6.245,0,0,0-.092,1.092v1.275a6.454,6.454,0,0,0,.092,1.12,3.067,3.067,0,0,0,.3.917,1.67,1.67,0,0,0,.559.623,1.56,1.56,0,0,0,.87.229,1.576,1.576,0,0,0,1.219-.454,2.127,2.127,0,0,0,.5-1.286Z"/><path class="f" d="M88.277,120.918l-.99,1.11v2.907H85.744v-9.242h1.543v4.329l.844-1.1,2.432-3.23h1.859l-3.143,4.057,3.3,5.186H90.752Z"/><path class="f" d="M99.324,123.78a3.212,3.212,0,0,1-.553.515,3.656,3.656,0,0,1-.711.406,4.317,4.317,0,0,1-.854.266,4.757,4.757,0,0,1-.98.1,3.211,3.211,0,0,1-1.473-.324,3.171,3.171,0,0,1-1.082-.885A4,4,0,0,1,93,122.529a5.733,5.733,0,0,1-.238-1.637V119.75a5.68,5.68,0,0,1,.229-1.639,4.133,4.133,0,0,1,.657-1.326,3.12,3.12,0,0,1,1.051-.892,3.011,3.011,0,0,1,1.422-.327,3.862,3.862,0,0,1,1.281.2,2.767,2.767,0,0,1,.972.567,2.719,2.719,0,0,1,.645.905,3.831,3.831,0,0,1,.3,1.193h-1.5a3.081,3.081,0,0,0-.178-.674,1.6,1.6,0,0,0-.324-.508,1.353,1.353,0,0,0-.492-.32,1.892,1.892,0,0,0-.682-.111,1.432,1.432,0,0,0-.829.238,1.908,1.908,0,0,0-.574.642,3.161,3.161,0,0,0-.337.933,5.9,5.9,0,0,0-.113,1.107v1.156a5.6,5.6,0,0,0,.117,1.1,3.071,3.071,0,0,0,.349.931,1.907,1.907,0,0,0,.612.644,1.665,1.665,0,0,0,.9.248,3.666,3.666,0,0,0,.443-.028,2.549,2.549,0,0,0,.436-.093,1.826,1.826,0,0,0,.377-.161.875.875,0,0,0,.279-.245l.014-1.847H96.15v-1.187h3.161Z"/><path class="f" d="M104,121.33h-1.549v3.605h-1.523v-9.242h2.92a4.829,4.829,0,0,1,1.311.181,3,3,0,0,1,1.037.521,2.322,2.322,0,0,1,.68.867,2.881,2.881,0,0,1,.241,1.219,2.759,2.759,0,0,1-.124.854,2.467,2.467,0,0,1-.879,1.24,3.392,3.392,0,0,1-.686.4l1.955,3.885v.076h-1.625Zm-1.549-1.231h1.4a2.15,2.15,0,0,0,.7-.108,1.61,1.61,0,0,0,.549-.308,1.336,1.336,0,0,0,.358-.488,1.629,1.629,0,0,0,.127-.663,1.8,1.8,0,0,0-.12-.686,1.358,1.358,0,0,0-.346-.5,1.48,1.48,0,0,0-.55-.308,2.439,2.439,0,0,0-.723-.111h-1.4Z"/><path class="f" d="M114.912,120.911a5.833,5.833,0,0,1-.209,1.571,4.126,4.126,0,0,1-.625,1.326,3.1,3.1,0,0,1-1.041.914,3.017,3.017,0,0,1-1.463.34,2.926,2.926,0,0,1-1.447-.343,3.089,3.089,0,0,1-1.025-.917,4.129,4.129,0,0,1-.615-1.324,5.827,5.827,0,0,1-.207-1.567V119.73a6.187,6.187,0,0,1,.092-1.066,5.08,5.08,0,0,1,.273-.98,4.156,4.156,0,0,1,.451-.851,2.883,2.883,0,0,1,1.459-1.108,3.1,3.1,0,0,1,1.013-.158,3,3,0,0,1,1.464.343,3.157,3.157,0,0,1,1.043.917,4.084,4.084,0,0,1,.629,1.33,5.866,5.866,0,0,1,.209,1.574Zm-1.529-1.193a6.445,6.445,0,0,0-.1-1.034,3.11,3.11,0,0,0-.3-.918,1.841,1.841,0,0,0-.556-.653,1.439,1.439,0,0,0-.866-.251,1.4,1.4,0,0,0-.854.251,1.771,1.771,0,0,0-.539.657,3.169,3.169,0,0,0-.279.917,7.419,7.419,0,0,0-.086,1.031v1.193a7,7,0,0,0,.09,1.031,3.288,3.288,0,0,0,.281.921,1.813,1.813,0,0,0,.541.663,1.384,1.384,0,0,0,.854.254,1.424,1.424,0,0,0,.865-.254,1.867,1.867,0,0,0,.557-.66,3.118,3.118,0,0,0,.295-.921,6.8,6.8,0,0,0,.092-1.034Z"/><path class="f" d="M122.451,115.693l.012,6.189a3.723,3.723,0,0,1-.229,1.3,2.948,2.948,0,0,1-.621,1.006,2.734,2.734,0,0,1-.969.647,3.383,3.383,0,0,1-1.272.229,3.256,3.256,0,0,1-1.244-.229,2.754,2.754,0,0,1-.958-.645,2.906,2.906,0,0,1-.623-1,3.786,3.786,0,0,1-.229-1.3l.014-6.189h1.5l.012,6.189a3.041,3.041,0,0,0,.108.78,1.875,1.875,0,0,0,.292.612,1.333,1.333,0,0,0,.473.4,1.447,1.447,0,0,0,.657.143,1.522,1.522,0,0,0,.673-.143,1.351,1.351,0,0,0,.488-.4,1.81,1.81,0,0,0,.3-.612,2.959,2.959,0,0,0,.107-.78l.014-6.189Z"/><path class="f" d="M130.229,124.935h-1.537l-3.008-6.36-.007,6.36h-1.542v-9.242h1.542l3,6.342.013-6.342h1.543Z"/><path class="f" d="M131.969,124.935v-9.242h2.26a4.548,4.548,0,0,1,1.71.317,3.622,3.622,0,0,1,1.289.876,3.907,3.907,0,0,1,.815,1.349,5.158,5.158,0,0,1,.292,1.736v.7a5.158,5.158,0,0,1-.292,1.736,3.885,3.885,0,0,1-.812,1.346,3.655,3.655,0,0,1-1.275.873,4.36,4.36,0,0,1-1.683.311Zm1.549-8.011v6.786h.755a2.661,2.661,0,0,0,1.1-.226,2.14,2.14,0,0,0,.783-.616,2.666,2.666,0,0,0,.47-.955,4.793,4.793,0,0,0,.162-1.244v-.711a4.646,4.646,0,0,0-.162-1.219,2.7,2.7,0,0,0-.473-.955,2.186,2.186,0,0,0-.8-.629,2.676,2.676,0,0,0-1.126-.231Z"/><path class="f" d="M31.186,170.1a3.734,3.734,0,0,1-.317,1.216,2.906,2.906,0,0,1-1.66,1.543,3.59,3.59,0,0,1-1.267.212,3.154,3.154,0,0,1-1.473-.326,3.062,3.062,0,0,1-1.047-.886,3.93,3.93,0,0,1-.629-1.308,6.11,6.11,0,0,1-.215-1.6v-1.264a5.919,5.919,0,0,1,.222-1.6,4,4,0,0,1,.638-1.314,3.071,3.071,0,0,1,1.051-.889,3.124,3.124,0,0,1,1.46-.326,3.672,3.672,0,0,1,1.3.215,2.827,2.827,0,0,1,.977.609,2.9,2.9,0,0,1,.648.959,4.314,4.314,0,0,1,.311,1.257H29.662a3.093,3.093,0,0,0-.155-.739,1.782,1.782,0,0,0-.321-.571,1.309,1.309,0,0,0-.511-.365,1.891,1.891,0,0,0-.727-.127,1.509,1.509,0,0,0-.863.235,1.752,1.752,0,0,0-.565.631,3.014,3.014,0,0,0-.308.918,6.245,6.245,0,0,0-.092,1.092v1.275a6.454,6.454,0,0,0,.092,1.12,3.068,3.068,0,0,0,.3.917,1.661,1.661,0,0,0,.559.623,1.554,1.554,0,0,0,.869.229,1.576,1.576,0,0,0,1.219-.454,2.128,2.128,0,0,0,.5-1.286Z"/><path class="f" d="M38.961,168.911a5.834,5.834,0,0,1-.21,1.571,4.128,4.128,0,0,1-.626,1.326,3.074,3.074,0,0,1-1.041.914,3.014,3.014,0,0,1-1.463.34,2.932,2.932,0,0,1-1.447-.343,3.1,3.1,0,0,1-1.025-.917,4.192,4.192,0,0,1-.615-1.324,5.906,5.906,0,0,1-.206-1.567V167.73a6,6,0,0,1,.093-1.066,5.149,5.149,0,0,1,.271-.98,4.2,4.2,0,0,1,.451-.851,2.877,2.877,0,0,1,1.461-1.108,3.092,3.092,0,0,1,1.012-.158,2.993,2.993,0,0,1,1.463.343,3.154,3.154,0,0,1,1.045.917,4.083,4.083,0,0,1,.628,1.33,5.866,5.866,0,0,1,.21,1.574Zm-1.53-1.193a6.676,6.676,0,0,0-.095-1.034,3.139,3.139,0,0,0-.3-.918,1.839,1.839,0,0,0-.555-.653,1.442,1.442,0,0,0-.867-.251,1.4,1.4,0,0,0-.854.251,1.761,1.761,0,0,0-.539.657,3.11,3.11,0,0,0-.279.917,7.131,7.131,0,0,0-.086,1.031v1.193a7,7,0,0,0,.088,1.031,3.322,3.322,0,0,0,.283.921,1.789,1.789,0,0,0,.539.663,1.39,1.39,0,0,0,.854.254,1.428,1.428,0,0,0,.867-.254,1.852,1.852,0,0,0,.555-.66,3.062,3.062,0,0,0,.295-.921,6.674,6.674,0,0,0,.093-1.034Z"/><path class="f" d="M46.506,172.935H44.97l-3.009-6.36-.006,6.36H40.412v-9.242h1.543l3,6.342.012-6.342h1.543Z"/><path class="f" d="M54.853,164.95H52.016v7.985H50.5V164.95H47.68v-1.257h7.173Z"/><path class="f" d="M61.433,168.791h-3.8v2.9H62.08v1.244H56.1v-9.242h5.935v1.257h-4.4v2.608h3.8Z"/><path class="f" d="M69.572,172.935H68.035l-3.008-6.36-.007,6.36H63.479v-9.242h1.542l3,6.342.013-6.342h1.543Z"/><path class="f" d="M77.918,164.95H75.081v7.985H73.564V164.95H70.746v-1.257h7.172Z"/><path class="f" d="M86.971,172.935v-9.242h2.951a5.3,5.3,0,0,1,1.248.152,3.067,3.067,0,0,1,1.016.451,2.161,2.161,0,0,1,.682.777,2.326,2.326,0,0,1,.241,1.12,1.9,1.9,0,0,1-.381,1.171,2.423,2.423,0,0,1-1.009.752,2.388,2.388,0,0,1,.688.309,1.956,1.956,0,0,1,.506.479,2.18,2.18,0,0,1,.311.619,2.357,2.357,0,0,1,.107.721,2.663,2.663,0,0,1-.24,1.162,2.353,2.353,0,0,1-.67.838,3.029,3.029,0,0,1-1.016.511,4.577,4.577,0,0,1-1.267.181Zm1.529-5.352h1.46a2.411,2.411,0,0,0,.638-.092,1.5,1.5,0,0,0,.512-.254,1.235,1.235,0,0,0,.342-.412,1.2,1.2,0,0,0,.127-.562,1.336,1.336,0,0,0-.12-.6,1.082,1.082,0,0,0-.339-.406,1.467,1.467,0,0,0-.518-.232,2.957,2.957,0,0,0-.654-.079H88.5Zm0,1.162v2.945h1.663a2.068,2.068,0,0,0,.66-.111,1.6,1.6,0,0,0,.515-.289,1.323,1.323,0,0,0,.34-.45,1.408,1.408,0,0,0,.123-.6,1.719,1.719,0,0,0-.107-.625,1.254,1.254,0,0,0-.312-.467,1.4,1.4,0,0,0-.5-.295,2.013,2.013,0,0,0-.654-.111Z"/><path class="f" d="M99.1,170.79H96.215l-.635,2.146H94.006l3-9.242h1.34l2.945,9.242H99.725Zm-2.5-1.3h2.121l-1.048-3.624Z"/><path class="f" d="M108.416,170.1a3.71,3.71,0,0,1-.318,1.216,2.9,2.9,0,0,1-1.66,1.543,3.588,3.588,0,0,1-1.266.212,3.152,3.152,0,0,1-1.473-.326,3.053,3.053,0,0,1-1.047-.886,3.911,3.911,0,0,1-.629-1.308,6.11,6.11,0,0,1-.216-1.6v-1.264a5.958,5.958,0,0,1,.222-1.6,4.02,4.02,0,0,1,.639-1.314,3.062,3.062,0,0,1,1.051-.889,3.117,3.117,0,0,1,1.459-.326,3.672,3.672,0,0,1,1.3.215,2.84,2.84,0,0,1,.978.609,2.9,2.9,0,0,1,.647.959,4.283,4.283,0,0,1,.312,1.257h-1.523a3.092,3.092,0,0,0-.156-.739,1.78,1.78,0,0,0-.32-.571,1.313,1.313,0,0,0-.512-.365,1.891,1.891,0,0,0-.727-.127,1.511,1.511,0,0,0-.863.235,1.759,1.759,0,0,0-.564.631,3.015,3.015,0,0,0-.309.918,6.341,6.341,0,0,0-.092,1.092v1.275a6.551,6.551,0,0,0,.092,1.12,3.068,3.068,0,0,0,.3.917,1.645,1.645,0,0,0,.559.623,1.552,1.552,0,0,0,.869.229,1.576,1.576,0,0,0,1.219-.454,2.127,2.127,0,0,0,.5-1.286Z"/><path class="f" d="M112.354,168.918l-.99,1.11v2.907h-1.542v-9.242h1.542v4.329l.845-1.1,2.431-3.23h1.86l-3.142,4.057,3.3,5.186H114.83Z"/><path class="f" d="M123.4,171.78a3.278,3.278,0,0,1-.552.515,3.715,3.715,0,0,1-.711.406,4.326,4.326,0,0,1-.854.266,4.764,4.764,0,0,1-.98.1,3.128,3.128,0,0,1-2.555-1.209,4.014,4.014,0,0,1-.673-1.324,5.733,5.733,0,0,1-.238-1.637V167.75a5.68,5.68,0,0,1,.229-1.639,4.133,4.133,0,0,1,.657-1.326,3.126,3.126,0,0,1,1.05-.892,3.014,3.014,0,0,1,1.422-.327,3.874,3.874,0,0,1,1.283.2,2.781,2.781,0,0,1,.971.567,2.7,2.7,0,0,1,.645.905,3.8,3.8,0,0,1,.3,1.193h-1.5a2.925,2.925,0,0,0-.178-.674,1.564,1.564,0,0,0-.323-.508,1.369,1.369,0,0,0-.492-.32,1.894,1.894,0,0,0-.683-.111,1.429,1.429,0,0,0-.828.238,1.908,1.908,0,0,0-.574.642,3.133,3.133,0,0,0-.336.933,5.893,5.893,0,0,0-.115,1.107v1.156a5.668,5.668,0,0,0,.118,1.1,3.046,3.046,0,0,0,.349.931,1.9,1.9,0,0,0,.613.644,1.659,1.659,0,0,0,.9.248,3.685,3.685,0,0,0,.445-.028,2.538,2.538,0,0,0,.435-.093,1.858,1.858,0,0,0,.378-.161.907.907,0,0,0,.279-.245l.012-1.847h-1.669v-1.187h3.161Z"/><path class="f" d="M128.072,169.33h-1.549v3.605H125v-9.242h2.92a4.831,4.831,0,0,1,1.312.181,3.026,3.026,0,0,1,1.038.521,2.349,2.349,0,0,1,.679.867,2.866,2.866,0,0,1,.241,1.219,2.759,2.759,0,0,1-.124.854,2.53,2.53,0,0,1-.346.7,2.474,2.474,0,0,1-.533.545,3.446,3.446,0,0,1-.686.4l1.955,3.885v.076h-1.625Zm-1.549-1.231h1.4a2.146,2.146,0,0,0,.7-.108,1.62,1.62,0,0,0,.549-.308,1.361,1.361,0,0,0,.359-.488,1.646,1.646,0,0,0,.127-.663,1.82,1.82,0,0,0-.121-.686,1.336,1.336,0,0,0-.346-.5,1.491,1.491,0,0,0-.549-.308,2.452,2.452,0,0,0-.725-.111h-1.4Z"/><path class="f" d="M138.99,168.911a5.834,5.834,0,0,1-.21,1.571,4.128,4.128,0,0,1-.626,1.326,3.074,3.074,0,0,1-1.041.914,3.014,3.014,0,0,1-1.463.34,2.932,2.932,0,0,1-1.447-.343,3.1,3.1,0,0,1-1.025-.917,4.192,4.192,0,0,1-.615-1.324,5.906,5.906,0,0,1-.206-1.567V167.73a6,6,0,0,1,.093-1.066,5.149,5.149,0,0,1,.271-.98,4.2,4.2,0,0,1,.451-.851,2.877,2.877,0,0,1,1.461-1.108,3.092,3.092,0,0,1,1.012-.158,2.993,2.993,0,0,1,1.463.343,3.154,3.154,0,0,1,1.045.917,4.083,4.083,0,0,1,.628,1.33,5.866,5.866,0,0,1,.21,1.574Zm-1.53-1.193a6.676,6.676,0,0,0-.095-1.034,3.139,3.139,0,0,0-.3-.918,1.839,1.839,0,0,0-.555-.653,1.442,1.442,0,0,0-.867-.251,1.4,1.4,0,0,0-.854.251,1.761,1.761,0,0,0-.539.657,3.11,3.11,0,0,0-.279.917,7.131,7.131,0,0,0-.086,1.031v1.193a7,7,0,0,0,.088,1.031,3.322,3.322,0,0,0,.283.921,1.789,1.789,0,0,0,.539.663,1.39,1.39,0,0,0,.854.254,1.428,1.428,0,0,0,.867-.254,1.852,1.852,0,0,0,.555-.66,3.062,3.062,0,0,0,.295-.921,6.674,6.674,0,0,0,.093-1.034Z"/><path class="f" d="M146.527,163.693l.014,6.189a3.769,3.769,0,0,1-.229,1.3,2.938,2.938,0,0,1-.623,1.006,2.718,2.718,0,0,1-.967.647,3.388,3.388,0,0,1-1.273.229,3.26,3.26,0,0,1-1.244-.229,2.767,2.767,0,0,1-.959-.645,2.917,2.917,0,0,1-.621-1,3.74,3.74,0,0,1-.229-1.3l.012-6.189h1.5l.014,6.189a2.959,2.959,0,0,0,.107.78,1.9,1.9,0,0,0,.292.612,1.32,1.32,0,0,0,.474.4,1.437,1.437,0,0,0,.656.143,1.519,1.519,0,0,0,.673-.143,1.371,1.371,0,0,0,.489-.4,1.808,1.808,0,0,0,.3-.612,3.041,3.041,0,0,0,.108-.78l.012-6.189Z"/><path class="f" d="M154.3,172.935H152.77l-3.01-6.36-.006,6.36h-1.543v-9.242h1.543l3,6.342.013-6.342H154.3Z"/><path class="f" d="M156.045,172.935v-9.242h2.26a4.557,4.557,0,0,1,1.711.317,3.622,3.622,0,0,1,1.289.876,3.892,3.892,0,0,1,.815,1.349,5.134,5.134,0,0,1,.292,1.736v.7a5.134,5.134,0,0,1-.292,1.736,3.9,3.9,0,0,1-.812,1.346,3.641,3.641,0,0,1-1.276.873,4.351,4.351,0,0,1-1.682.311Zm1.549-8.011v6.786h.756a2.653,2.653,0,0,0,1.1-.226,2.135,2.135,0,0,0,.784-.616,2.666,2.666,0,0,0,.47-.955,4.793,4.793,0,0,0,.162-1.244v-.711a4.646,4.646,0,0,0-.162-1.219,2.719,2.719,0,0,0-.473-.955,2.17,2.17,0,0,0-.8-.629,2.68,2.68,0,0,0-1.127-.231Z"/><path class="f" d="M261.285,26.333h-1.441l-.482,2.6h-1.054l.489-2.6h-1.473v-1h1.656l.375-1.992H257.8v-1.01h1.745l.5-2.641h1.047l-.5,2.641h1.44l.5-2.641h1.06l-.5,2.641h1.314v1.01h-1.5l-.374,1.992h1.4v1h-1.581l-.489,2.6H260.8Zm-1.251-1h1.44l.369-1.992H260.4Z"/><path class="f" d="M265.65,28.935V19.693H268.6a5.3,5.3,0,0,1,1.248.152,3.067,3.067,0,0,1,1.016.451,2.161,2.161,0,0,1,.682.777,2.326,2.326,0,0,1,.241,1.12,1.9,1.9,0,0,1-.381,1.171,2.423,2.423,0,0,1-1.009.752,2.388,2.388,0,0,1,.688.309,1.956,1.956,0,0,1,.506.479,2.18,2.18,0,0,1,.311.619,2.357,2.357,0,0,1,.107.721,2.663,2.663,0,0,1-.24,1.162,2.353,2.353,0,0,1-.67.838,3.029,3.029,0,0,1-1.016.511,4.577,4.577,0,0,1-1.267.181Zm1.529-5.352h1.46a2.411,2.411,0,0,0,.638-.092,1.5,1.5,0,0,0,.512-.254,1.235,1.235,0,0,0,.342-.412,1.2,1.2,0,0,0,.127-.562,1.336,1.336,0,0,0-.12-.6,1.082,1.082,0,0,0-.339-.406,1.467,1.467,0,0,0-.518-.232,2.957,2.957,0,0,0-.654-.079H267.18Zm0,1.162v2.945h1.663a2.068,2.068,0,0,0,.66-.111,1.6,1.6,0,0,0,.515-.289,1.323,1.323,0,0,0,.34-.45,1.408,1.408,0,0,0,.123-.6,1.719,1.719,0,0,0-.107-.625,1.254,1.254,0,0,0-.312-.467,1.4,1.4,0,0,0-.5-.295,2.013,2.013,0,0,0-.654-.111Z"/><path class="f" d="M273.406,28.935V19.693h2.952a5.274,5.274,0,0,1,1.247.152,3.049,3.049,0,0,1,1.016.451,2.155,2.155,0,0,1,.683.777,2.338,2.338,0,0,1,.241,1.12,1.885,1.885,0,0,1-.381,1.171,2.427,2.427,0,0,1-1.01.752,2.4,2.4,0,0,1,.689.309,1.932,1.932,0,0,1,.5.479,2.133,2.133,0,0,1,.312.619,2.388,2.388,0,0,1,.108.721,2.649,2.649,0,0,1-.242,1.162,2.322,2.322,0,0,1-.67.838,3.011,3.011,0,0,1-1.016.511,4.559,4.559,0,0,1-1.266.181Zm1.53-5.352h1.46a2.418,2.418,0,0,0,.639-.092,1.5,1.5,0,0,0,.51-.254,1.241,1.241,0,0,0,.344-.412,1.212,1.212,0,0,0,.127-.562,1.35,1.35,0,0,0-.121-.6,1.058,1.058,0,0,0-.34-.406,1.459,1.459,0,0,0-.518-.232,2.934,2.934,0,0,0-.653-.079h-1.447Zm0,1.162v2.945H276.6a2.073,2.073,0,0,0,.66-.111,1.575,1.575,0,0,0,.514-.289,1.287,1.287,0,0,0,.34-.45,1.409,1.409,0,0,0,.124-.6,1.7,1.7,0,0,0-.108-.625,1.252,1.252,0,0,0-.311-.467,1.4,1.4,0,0,0-.5-.295,2.012,2.012,0,0,0-.653-.111Z"/><path class="f" d="M287.467,26.1a3.709,3.709,0,0,1-.316,1.216,2.98,2.98,0,0,1-.674.939,2.93,2.93,0,0,1-.986.6,3.594,3.594,0,0,1-1.267.212,3.149,3.149,0,0,1-1.473-.326,3.056,3.056,0,0,1-1.048-.886,3.909,3.909,0,0,1-.628-1.308,6.069,6.069,0,0,1-.216-1.6V23.685a5.881,5.881,0,0,1,.223-1.6,4,4,0,0,1,.637-1.314,3.089,3.089,0,0,1,1.051-.889,3.128,3.128,0,0,1,1.461-.326,3.67,3.67,0,0,1,1.3.215,2.831,2.831,0,0,1,.978.609,2.9,2.9,0,0,1,.647.959,4.283,4.283,0,0,1,.311,1.257h-1.523a3.094,3.094,0,0,0-.154-.739,1.782,1.782,0,0,0-.321-.571,1.324,1.324,0,0,0-.511-.365,1.891,1.891,0,0,0-.727-.127,1.5,1.5,0,0,0-.863.235,1.744,1.744,0,0,0-.565.631,2.988,2.988,0,0,0-.308.918,6.245,6.245,0,0,0-.092,1.092v1.275a6.454,6.454,0,0,0,.092,1.12,3.067,3.067,0,0,0,.3.917,1.67,1.67,0,0,0,.559.623,1.56,1.56,0,0,0,.87.229,1.576,1.576,0,0,0,1.219-.454,2.127,2.127,0,0,0,.5-1.286Z"/><path class="f" d="M295.217,26.1a3.71,3.71,0,0,1-.318,1.216,2.9,2.9,0,0,1-1.66,1.543,3.588,3.588,0,0,1-1.266.212,3.152,3.152,0,0,1-1.473-.326,3.053,3.053,0,0,1-1.047-.886,3.911,3.911,0,0,1-.629-1.308,6.11,6.11,0,0,1-.216-1.6V23.685a5.958,5.958,0,0,1,.222-1.6,4.02,4.02,0,0,1,.639-1.314,3.062,3.062,0,0,1,1.051-.889,3.117,3.117,0,0,1,1.459-.326,3.672,3.672,0,0,1,1.3.215,2.84,2.84,0,0,1,.978.609,2.9,2.9,0,0,1,.647.959,4.283,4.283,0,0,1,.312,1.257h-1.523a3.092,3.092,0,0,0-.156-.739,1.78,1.78,0,0,0-.32-.571,1.313,1.313,0,0,0-.512-.365,1.891,1.891,0,0,0-.727-.127,1.511,1.511,0,0,0-.863.235,1.759,1.759,0,0,0-.564.631,3.015,3.015,0,0,0-.309.918,6.341,6.341,0,0,0-.092,1.092v1.275a6.551,6.551,0,0,0,.092,1.12,3.068,3.068,0,0,0,.3.917,1.645,1.645,0,0,0,.559.623,1.552,1.552,0,0,0,.869.229,1.576,1.576,0,0,0,1.219-.454,2.127,2.127,0,0,0,.5-1.286Z"/><path class="f" d="M296.592,28.935V19.693h2.26a4.548,4.548,0,0,1,1.71.317,3.622,3.622,0,0,1,1.289.876,3.907,3.907,0,0,1,.815,1.349,5.158,5.158,0,0,1,.292,1.736v.7a5.158,5.158,0,0,1-.292,1.736,3.885,3.885,0,0,1-.812,1.346,3.655,3.655,0,0,1-1.275.873,4.36,4.36,0,0,1-1.683.311Zm1.549-8.011v6.786h.755a2.661,2.661,0,0,0,1.1-.226,2.14,2.14,0,0,0,.783-.616,2.666,2.666,0,0,0,.47-.955,4.793,4.793,0,0,0,.162-1.244v-.711a4.646,4.646,0,0,0-.162-1.219,2.7,2.7,0,0,0-.473-.955,2.186,2.186,0,0,0-.8-.629,2.676,2.676,0,0,0-1.126-.231Z"/><path class="f" d="M304.386,28.935V19.693h2.952a5.287,5.287,0,0,1,1.247.152,3.058,3.058,0,0,1,1.016.451,2.164,2.164,0,0,1,.683.777,2.337,2.337,0,0,1,.24,1.12,1.885,1.885,0,0,1-.381,1.171,2.423,2.423,0,0,1-1.009.752,2.394,2.394,0,0,1,.688.309,1.952,1.952,0,0,1,.5.479,2.157,2.157,0,0,1,.312.619,2.388,2.388,0,0,1,.107.721,2.649,2.649,0,0,1-.241,1.162,2.343,2.343,0,0,1-.67.838,3.02,3.02,0,0,1-1.016.511,4.571,4.571,0,0,1-1.267.181Zm1.53-5.352h1.459a2.418,2.418,0,0,0,.639-.092,1.492,1.492,0,0,0,.511-.254,1.238,1.238,0,0,0,.343-.412,1.212,1.212,0,0,0,.127-.562,1.336,1.336,0,0,0-.121-.6,1.065,1.065,0,0,0-.339-.406,1.467,1.467,0,0,0-.518-.232,2.941,2.941,0,0,0-.653-.079h-1.447Zm0,1.162v2.945h1.662a2.063,2.063,0,0,0,.66-.111,1.58,1.58,0,0,0,.515-.289,1.311,1.311,0,0,0,.34-.45,1.409,1.409,0,0,0,.124-.6,1.718,1.718,0,0,0-.108-.625,1.242,1.242,0,0,0-.312-.467,1.394,1.394,0,0,0-.494-.295,2.018,2.018,0,0,0-.654-.111Z"/><path class="f" d="M261.285,74.333h-1.441l-.482,2.6h-1.054l.489-2.6h-1.473v-1h1.656l.375-1.992H257.8v-1.01h1.745l.5-2.641h1.047l-.5,2.641h1.44l.5-2.641h1.06l-.5,2.641h1.314v1.01h-1.5l-.374,1.992h1.4v1h-1.581l-.489,2.6H260.8Zm-1.251-1h1.44l.369-1.992H260.4Z"/><path class="f" d="M265.619,76.935V67.693h2.26a4.557,4.557,0,0,1,1.711.317,3.622,3.622,0,0,1,1.289.876,3.89,3.89,0,0,1,.814,1.349,5.133,5.133,0,0,1,.293,1.736v.7a5.133,5.133,0,0,1-.293,1.736,3.87,3.87,0,0,1-.812,1.346,3.637,3.637,0,0,1-1.275.873,4.358,4.358,0,0,1-1.682.311Zm1.549-8.011v6.786h.756a2.656,2.656,0,0,0,1.1-.226,2.14,2.14,0,0,0,.783-.616,2.651,2.651,0,0,0,.471-.955,4.835,4.835,0,0,0,.162-1.244v-.711a4.687,4.687,0,0,0-.162-1.219,2.719,2.719,0,0,0-.473-.955,2.186,2.186,0,0,0-.8-.629,2.684,2.684,0,0,0-1.127-.231Z"/><path class="f" d="M273.383,76.935V67.693h2.26a4.548,4.548,0,0,1,1.71.317,3.622,3.622,0,0,1,1.289.876,3.907,3.907,0,0,1,.815,1.349,5.158,5.158,0,0,1,.292,1.736v.7a5.158,5.158,0,0,1-.292,1.736,3.885,3.885,0,0,1-.812,1.346,3.655,3.655,0,0,1-1.275.873,4.36,4.36,0,0,1-1.683.311Zm1.549-8.011v6.786h.755a2.661,2.661,0,0,0,1.1-.226,2.14,2.14,0,0,0,.783-.616,2.666,2.666,0,0,0,.47-.955,4.793,4.793,0,0,0,.162-1.244v-.711a4.646,4.646,0,0,0-.162-1.219,2.7,2.7,0,0,0-.473-.955,2.186,2.186,0,0,0-.8-.629,2.676,2.676,0,0,0-1.126-.231Z"/><path class="f" d="M286.553,72.791h-3.8v2.9H287.2v1.244h-5.979V67.693h5.935V68.95H282.75v2.608h3.8Z"/><path class="f" d="M293.049,67.655V68.95h-.1a3.7,3.7,0,0,0-1.343.219,2.651,2.651,0,0,0-.934.594,2.533,2.533,0,0,0-.564.873,3.86,3.86,0,0,0-.245,1.063,2.715,2.715,0,0,1,.787-.606,2.537,2.537,0,0,1,.521-.2,2.337,2.337,0,0,1,.6-.073,2.507,2.507,0,0,1,1.178.261,2.426,2.426,0,0,1,.822.688,2.969,2.969,0,0,1,.482.984,4.183,4.183,0,0,1,.158,1.152,3.762,3.762,0,0,1-.2,1.24,2.925,2.925,0,0,1-.581,1,2.7,2.7,0,0,1-.939.67,3.135,3.135,0,0,1-1.27.244,2.862,2.862,0,0,1-1.333-.3,2.9,2.9,0,0,1-.968-.8,3.562,3.562,0,0,1-.594-1.152,4.581,4.581,0,0,1-.2-1.371v-.591a8.646,8.646,0,0,1,.1-1.329,5.823,5.823,0,0,1,.327-1.229,4.6,4.6,0,0,1,.584-1.063,3.613,3.613,0,0,1,.863-.834,4.059,4.059,0,0,1,1.171-.547,5.35,5.35,0,0,1,1.511-.2ZM291.4,72.048a1.6,1.6,0,0,0-.5.079,1.657,1.657,0,0,0-.443.223,1.684,1.684,0,0,0-.362.346,1.759,1.759,0,0,0-.254.444v.432a3.5,3.5,0,0,0,.124.987,2.147,2.147,0,0,0,.34.707,1.436,1.436,0,0,0,.494.429,1.291,1.291,0,0,0,.6.144,1.4,1.4,0,0,0,.635-.141,1.358,1.358,0,0,0,.473-.39,1.805,1.805,0,0,0,.295-.6,2.661,2.661,0,0,0,.1-.759,2.715,2.715,0,0,0-.1-.733,1.816,1.816,0,0,0-.285-.605,1.411,1.411,0,0,0-.47-.413A1.33,1.33,0,0,0,291.4,72.048Z"/><path class="f" d="M301.3,72.791h-3.8v2.9h4.45v1.244h-5.979V67.693H301.9V68.95h-4.406v2.608h3.8Z"/><path class="f" d="M303.36,76.935V67.693h2.26a4.548,4.548,0,0,1,1.71.317,3.622,3.622,0,0,1,1.289.876,3.909,3.909,0,0,1,.816,1.349,5.158,5.158,0,0,1,.291,1.736v.7a5.158,5.158,0,0,1-.291,1.736,3.915,3.915,0,0,1-.812,1.346,3.659,3.659,0,0,1-1.276.873,4.353,4.353,0,0,1-1.683.311Zm1.549-8.011v6.786h.755a2.658,2.658,0,0,0,1.1-.226,2.135,2.135,0,0,0,.784-.616,2.68,2.68,0,0,0,.469-.955,4.751,4.751,0,0,0,.162-1.244v-.711a4.605,4.605,0,0,0-.162-1.219,2.7,2.7,0,0,0-.473-.955,2.17,2.17,0,0,0-.8-.629,2.673,2.673,0,0,0-1.126-.231Z"/><path class="f" d="M261.285,122.333h-1.441l-.482,2.6h-1.054l.489-2.6h-1.473v-1h1.656l.375-1.992H257.8v-1.01h1.745l.5-2.641h1.047l-.5,2.641h1.44l.5-2.641h1.06l-.5,2.641h1.314v1.01h-1.5l-.374,1.992h1.4v1h-1.581l-.489,2.6H260.8Zm-1.251-1h1.44l.369-1.992H260.4Z"/><path class="f" d="M271.127,121h-3.879v3.936h-1.536v-9.242H271.7v1.257h-4.449v2.8h3.879Z"/><path class="f" d="M273.1,120.352l.5-4.659h4.944v1.358h-3.687l-.234,2.19a3.167,3.167,0,0,1,.59-.248,2.746,2.746,0,0,1,.851-.121,3,3,0,0,1,1.171.217,2.339,2.339,0,0,1,.873.618,2.789,2.789,0,0,1,.546.978,4.119,4.119,0,0,1,.19,1.3,3.912,3.912,0,0,1-.181,1.2,2.68,2.68,0,0,1-.553.978,2.6,2.6,0,0,1-.937.657,3.366,3.366,0,0,1-1.332.241,3.637,3.637,0,0,1-1.108-.168,2.946,2.946,0,0,1-.942-.5,2.6,2.6,0,0,1-.676-.815,2.7,2.7,0,0,1-.3-1.137h1.466a1.6,1.6,0,0,0,.5,1.044,1.558,1.558,0,0,0,1.061.358,1.45,1.45,0,0,0,.653-.139,1.283,1.283,0,0,0,.464-.391,1.752,1.752,0,0,0,.275-.6,3.039,3.039,0,0,0,.092-.771,2.458,2.458,0,0,0-.1-.736,1.63,1.63,0,0,0-.313-.58,1.479,1.479,0,0,0-.521-.385,1.735,1.735,0,0,0-.717-.139,2.34,2.34,0,0,0-.47.041,1.572,1.572,0,0,0-.353.114,1.4,1.4,0,0,0-.282.175c-.085.067-.169.139-.254.215Z"/><path class="f" d="M285.832,121h-3.879v3.936h-1.536v-9.242H286.4v1.257h-4.449v2.8h3.879Z"/><path class="f" d="M289.016,123.679a4.306,4.306,0,0,0,1.388-.193,2.394,2.394,0,0,0,.911-.536,2.142,2.142,0,0,0,.517-.81,3.932,3.932,0,0,0,.213-1.013,2.162,2.162,0,0,1-.32.295,2.265,2.265,0,0,1-.406.241,2.4,2.4,0,0,1-.5.165,2.733,2.733,0,0,1-.594.061,2.563,2.563,0,0,1-1.181-.257,2.437,2.437,0,0,1-.831-.686,2.929,2.929,0,0,1-.492-.987,4.156,4.156,0,0,1-.162-1.168,3.9,3.9,0,0,1,.2-1.254,2.994,2.994,0,0,1,.577-1.025,2.723,2.723,0,0,1,.937-.691,3.016,3.016,0,0,1,1.266-.254,2.705,2.705,0,0,1,2.282,1.123,3.628,3.628,0,0,1,.565,1.2,5.4,5.4,0,0,1,.188,1.438v.5a9.809,9.809,0,0,1-.086,1.3,5.917,5.917,0,0,1-.292,1.213,4.418,4.418,0,0,1-.546,1.057,3.416,3.416,0,0,1-.845.835,4.016,4.016,0,0,1-1.193.552,5.7,5.7,0,0,1-1.59.2h-.12v-1.295Zm1.523-2.989a1.524,1.524,0,0,0,.5-.083,1.593,1.593,0,0,0,.435-.229,1.739,1.739,0,0,0,.35-.349,1.72,1.72,0,0,0,.24-.445v-.5a3.591,3.591,0,0,0-.123-.987,2.29,2.29,0,0,0-.334-.717,1.419,1.419,0,0,0-.485-.436,1.232,1.232,0,0,0-.581-.146,1.269,1.269,0,0,0-.628.152,1.386,1.386,0,0,0-.46.416,1.958,1.958,0,0,0-.286.618,2.855,2.855,0,0,0-.1.762,2.935,2.935,0,0,0,.09.73,1.953,1.953,0,0,0,.27.619,1.38,1.38,0,0,0,.46.432A1.286,1.286,0,0,0,290.539,120.689Z"/><path class="f" d="M300.723,121h-3.878v3.936h-1.536v-9.242h5.986v1.257h-4.45v2.8h3.878Z"/><path class="f" d="M308.858,122.1a3.685,3.685,0,0,1-.317,1.216,2.977,2.977,0,0,1-.673.939,2.934,2.934,0,0,1-.987.6,3.592,3.592,0,0,1-1.266.212,3.146,3.146,0,0,1-1.473-.326,3.047,3.047,0,0,1-1.048-.886,3.891,3.891,0,0,1-.628-1.308,6.068,6.068,0,0,1-.217-1.6v-1.264a5.919,5.919,0,0,1,.223-1.6,4.018,4.018,0,0,1,.638-1.314,3.08,3.08,0,0,1,1.051-.889,3.121,3.121,0,0,1,1.46-.326,3.67,3.67,0,0,1,1.3.215,2.844,2.844,0,0,1,.979.609,2.9,2.9,0,0,1,.646.959,4.253,4.253,0,0,1,.312,1.257h-1.523a3.093,3.093,0,0,0-.155-.739,1.78,1.78,0,0,0-.32-.571,1.327,1.327,0,0,0-.512-.365,1.891,1.891,0,0,0-.727-.127,1.506,1.506,0,0,0-.863.235,1.75,1.75,0,0,0-.564.631,2.989,2.989,0,0,0-.309.918,6.341,6.341,0,0,0-.092,1.092v1.275a6.551,6.551,0,0,0,.092,1.12,3.068,3.068,0,0,0,.3.917,1.653,1.653,0,0,0,.559.623,1.557,1.557,0,0,0,.87.229,1.576,1.576,0,0,0,1.219-.454,2.127,2.127,0,0,0,.494-1.286Z"/><path class="f" d="M261.285,170.333h-1.441l-.482,2.6h-1.054l.489-2.6h-1.473v-1h1.656l.375-1.992H257.8v-1.01h1.745l.5-2.641h1.047l-.5,2.641h1.44l.5-2.641h1.06l-.5,2.641h1.314v1.01h-1.5l-.374,1.992h1.4v1h-1.581l-.489,2.6H260.8Zm-1.251-1h1.44l.369-1.992H260.4Z"/><path class="f" d="M271.127,169h-3.879v3.936h-1.536v-9.242H271.7v1.257h-4.449v2.8h3.879Z"/><path class="f" d="M278.6,169h-3.878v3.936h-1.536v-9.242h5.986v1.257h-4.45v2.8H278.6Z"/><path class="f" d="M286.066,169h-3.879v3.936h-1.536v-9.242h5.985v1.257h-4.449v2.8h3.879Z"/><path class="f" d="M293.535,169h-3.878v3.936h-1.536v-9.242h5.986v1.257h-4.45v2.8h3.878Z"/><path class="f" d="M301.006,169h-3.879v3.936h-1.536v-9.242h5.985v1.257h-4.449v2.8h3.879Z"/><path class="f" d="M308.475,169H304.6v3.936h-1.536v-9.242h5.986v1.257H304.6v2.8h3.878Z"/><path class="f" d="M370.043,25.33h-1.549v3.605h-1.523V19.693h2.92a4.831,4.831,0,0,1,1.312.181,3.026,3.026,0,0,1,1.038.521,2.349,2.349,0,0,1,.679.867,2.866,2.866,0,0,1,.241,1.219,2.759,2.759,0,0,1-.124.854,2.53,2.53,0,0,1-.346.7,2.474,2.474,0,0,1-.533.545,3.446,3.446,0,0,1-.686.4l1.955,3.885v.076H371.8ZM368.494,24.1h1.4a2.146,2.146,0,0,0,.7-.108,1.62,1.62,0,0,0,.549-.308,1.361,1.361,0,0,0,.359-.488,1.646,1.646,0,0,0,.127-.663,1.82,1.82,0,0,0-.121-.686,1.336,1.336,0,0,0-.346-.5,1.491,1.491,0,0,0-.549-.308,2.452,2.452,0,0,0-.725-.111h-1.4Z"/><path class="f" d="M380.891,27.78a3.285,3.285,0,0,1-.553.515,3.685,3.685,0,0,1-.711.406,4.317,4.317,0,0,1-.854.266,4.764,4.764,0,0,1-.98.1,3.208,3.208,0,0,1-1.473-.324,3.162,3.162,0,0,1-1.082-.885,4,4,0,0,1-.674-1.324,5.768,5.768,0,0,1-.238-1.637V23.75a5.68,5.68,0,0,1,.229-1.639,4.114,4.114,0,0,1,.658-1.326,3.117,3.117,0,0,1,1.05-.892,3.014,3.014,0,0,1,1.422-.327,3.872,3.872,0,0,1,1.282.2,2.763,2.763,0,0,1,.971.567,2.691,2.691,0,0,1,.645.905,3.8,3.8,0,0,1,.3,1.193h-1.5a2.976,2.976,0,0,0-.178-.674,1.6,1.6,0,0,0-.323-.508,1.369,1.369,0,0,0-.492-.32,1.9,1.9,0,0,0-.683-.111,1.434,1.434,0,0,0-.829.238,1.908,1.908,0,0,0-.574.642,3.16,3.16,0,0,0-.336.933,5.894,5.894,0,0,0-.114,1.107v1.156a5.668,5.668,0,0,0,.118,1.1,3.045,3.045,0,0,0,.348.931,1.91,1.91,0,0,0,.613.644,1.664,1.664,0,0,0,.9.248,3.682,3.682,0,0,0,.444-.028,2.569,2.569,0,0,0,.436-.093,1.849,1.849,0,0,0,.377-.161.9.9,0,0,0,.279-.245l.013-1.847h-1.669V24.258h3.16Z"/><path class="f" d="M382.471,28.935V19.693h2.951a5.282,5.282,0,0,1,1.248.152,3.058,3.058,0,0,1,1.016.451,2.152,2.152,0,0,1,.682.777,2.326,2.326,0,0,1,.242,1.12,1.9,1.9,0,0,1-.381,1.171,2.427,2.427,0,0,1-1.01.752,2.394,2.394,0,0,1,.688.309,1.937,1.937,0,0,1,.5.479,2.155,2.155,0,0,1,.311.619,2.358,2.358,0,0,1,.108.721,2.663,2.663,0,0,1-.241,1.162,2.333,2.333,0,0,1-.67.838,3.02,3.02,0,0,1-1.016.511,4.564,4.564,0,0,1-1.266.181ZM384,23.584h1.461a2.411,2.411,0,0,0,.638-.092,1.5,1.5,0,0,0,.511-.254,1.238,1.238,0,0,0,.343-.412,1.2,1.2,0,0,0,.127-.562,1.35,1.35,0,0,0-.12-.6,1.076,1.076,0,0,0-.34-.406,1.459,1.459,0,0,0-.518-.232,2.95,2.95,0,0,0-.654-.079H384Zm0,1.162v2.945h1.664a2.078,2.078,0,0,0,.66-.111,1.6,1.6,0,0,0,.514-.289,1.3,1.3,0,0,0,.34-.45,1.408,1.408,0,0,0,.123-.6,1.7,1.7,0,0,0-.107-.625,1.263,1.263,0,0,0-.311-.467,1.4,1.4,0,0,0-.5-.295,2.007,2.007,0,0,0-.653-.111Z"/><path class="f" d="M390.76,25.178a9.535,9.535,0,0,1,.533-3.2,7.389,7.389,0,0,1,1.234-2.219,5.387,5.387,0,0,1,.711-.724,3.879,3.879,0,0,1,.683-.46l.3.895a4.174,4.174,0,0,0-.729.756,5.312,5.312,0,0,0-.667,1.174,8.4,8.4,0,0,0-.485,1.635,10.908,10.908,0,0,0-.187,2.13v.127a10.908,10.908,0,0,0,.188,2.13,8.554,8.554,0,0,0,.485,1.641,5.43,5.43,0,0,0,.667,1.188,4.467,4.467,0,0,0,.729.773l-.3.852a3.554,3.554,0,0,1-.683-.457,5.49,5.49,0,0,1-.711-.728,7.381,7.381,0,0,1-.673-.98,7.268,7.268,0,0,1-.562-1.231,9.535,9.535,0,0,1-.533-3.2Z"/><path class="f" d="M399.783,28.935h-1.529V21.566l-2.361.863V21.1l3.795-1.4h.1Z"/><path class="f" d="M408.109,22.131a2.142,2.142,0,0,1-.349,1.209,2.423,2.423,0,0,1-.952.835,2.833,2.833,0,0,1,.619.388,2.526,2.526,0,0,1,.473.514,2.3,2.3,0,0,1,.3.625,2.45,2.45,0,0,1,.1.721,2.627,2.627,0,0,1-.234,1.137,2.384,2.384,0,0,1-.642.828,2.791,2.791,0,0,1-.955.5,3.9,3.9,0,0,1-1.178.172,4.007,4.007,0,0,1-1.2-.172,2.779,2.779,0,0,1-.962-.5,2.34,2.34,0,0,1-.638-.828,2.656,2.656,0,0,1-.232-1.137,2.447,2.447,0,0,1,.105-.724,2.3,2.3,0,0,1,.3-.628,2.464,2.464,0,0,1,.47-.515,2.67,2.67,0,0,1,.619-.381,2.379,2.379,0,0,1-.939-.835,2.176,2.176,0,0,1-.343-1.209,2.693,2.693,0,0,1,.21-1.095,2.261,2.261,0,0,1,.58-.807,2.507,2.507,0,0,1,.886-.5,3.851,3.851,0,0,1,2.25,0,2.6,2.6,0,0,1,.9.5,2.248,2.248,0,0,1,.594.807A2.677,2.677,0,0,1,408.109,22.131Zm-1.32,4.215a1.778,1.778,0,0,0-.107-.635,1.409,1.409,0,0,0-.3-.488,1.35,1.35,0,0,0-.473-.314,1.777,1.777,0,0,0-1.238,0,1.33,1.33,0,0,0-.47.314,1.38,1.38,0,0,0-.3.488,1.822,1.822,0,0,0-.105.635,1.381,1.381,0,0,0,1.5,1.5,1.733,1.733,0,0,0,.606-.1,1.287,1.287,0,0,0,.473-.3,1.369,1.369,0,0,0,.3-.473A1.721,1.721,0,0,0,406.789,26.346Zm-.2-4.164a1.625,1.625,0,0,0-.095-.562,1.3,1.3,0,0,0-.268-.441,1.169,1.169,0,0,0-.415-.286,1.391,1.391,0,0,0-.536-.1,1.438,1.438,0,0,0-.537.1,1.071,1.071,0,0,0-.4.276,1.226,1.226,0,0,0-.254.438,1.766,1.766,0,0,0-.09.581,1.686,1.686,0,0,0,.093.574,1.257,1.257,0,0,0,.26.438,1.18,1.18,0,0,0,.409.282,1.39,1.39,0,0,0,.54.1,1.369,1.369,0,0,0,.533-.1,1.162,1.162,0,0,0,.409-.282,1.259,1.259,0,0,0,.261-.438A1.687,1.687,0,0,0,406.593,22.182Z"/><path class="f" d="M415.8,20.537l-3.7,8.4h-1.6l3.7-7.979H409.41V19.693H415.8Z"/><path class="f" d="M418.395,28.726a2.977,2.977,0,0,1-.086.691,3.613,3.613,0,0,1-.248.7,3.911,3.911,0,0,1-.387.65,3.493,3.493,0,0,1-.5.55l-.857-.451a3.883,3.883,0,0,0,.564-2.088V27.45H418.4Z"/><path class="f" d="M427.445,28.935h-6.207V27.889l3.008-3.282q.381-.425.639-.752a4.678,4.678,0,0,0,.409-.6,2.287,2.287,0,0,0,.216-.508,1.783,1.783,0,0,0,.063-.476,1.679,1.679,0,0,0-.1-.587,1.336,1.336,0,0,0-.279-.464,1.262,1.262,0,0,0-.437-.3,1.485,1.485,0,0,0-.574-.107,1.522,1.522,0,0,0-1.216.451,1.834,1.834,0,0,0-.391,1.244h-1.523a2.994,2.994,0,0,1,.219-1.14,2.748,2.748,0,0,1,.629-.937,2.967,2.967,0,0,1,.993-.632,3.539,3.539,0,0,1,1.314-.231,3.491,3.491,0,0,1,1.219.2,2.553,2.553,0,0,1,.9.549,2.307,2.307,0,0,1,.559.834,2.869,2.869,0,0,1,.191,1.061,2.515,2.515,0,0,1-.141.835,4.023,4.023,0,0,1-.387.8,6.62,6.62,0,0,1-.59.8q-.343.4-.743.829l-2.095,2.246h4.322Z"/><path class="f" d="M434.758,25.419A5.491,5.491,0,0,1,434.553,27a3.2,3.2,0,0,1-.594,1.143,2.477,2.477,0,0,1-.946.7,3.469,3.469,0,0,1-2.507,0,2.487,2.487,0,0,1-.949-.7,3.244,3.244,0,0,1-.6-1.143,5.313,5.313,0,0,1-.213-1.577V23.21a5.383,5.383,0,0,1,.21-1.577,3.163,3.163,0,0,1,.6-1.143,2.488,2.488,0,0,1,.945-.7,3.175,3.175,0,0,1,1.247-.234,3.221,3.221,0,0,1,1.257.234,2.487,2.487,0,0,1,.949.7,3.192,3.192,0,0,1,.6,1.143,5.384,5.384,0,0,1,.209,1.577Zm-4.494-.577,2.959-2.2a2.434,2.434,0,0,0-.416-1.4,1.285,1.285,0,0,0-1.063-.454,1.263,1.263,0,0,0-1.11.527,2.843,2.843,0,0,0-.369,1.618Zm2.971-1.01-2.957,2.2q.114,1.815,1.479,1.814,1.479,0,1.479-2.164Z"/><path class="f" d="M441.549,25.654h1.161v1.225h-1.161v2.057h-1.518V26.879H436.02l-.038-.92,4-6.266h1.568Zm-4.006,0h2.488V21.719l-.165.3Z"/><path class="f" d="M446.489,28.726a2.974,2.974,0,0,1-.085.691,3.748,3.748,0,0,1-.248.7,3.979,3.979,0,0,1-.387.65,3.451,3.451,0,0,1-.5.55l-.856-.451a3.906,3.906,0,0,0,.564-2.088V27.45H446.5Z"/><path class="f" d="M455.541,28.935h-6.208V27.889l3.009-3.282q.381-.425.639-.752a4.764,4.764,0,0,0,.408-.6,2.294,2.294,0,0,0,.217-.508,1.822,1.822,0,0,0,.063-.476,1.7,1.7,0,0,0-.1-.587,1.351,1.351,0,0,0-.279-.464,1.28,1.28,0,0,0-.437-.3,1.487,1.487,0,0,0-.575-.107,1.523,1.523,0,0,0-1.216.451,1.839,1.839,0,0,0-.391,1.244h-1.523a3.012,3.012,0,0,1,.219-1.14A2.748,2.748,0,0,1,450,20.43a2.972,2.972,0,0,1,.994-.632,3.533,3.533,0,0,1,1.313-.231,3.491,3.491,0,0,1,1.219.2,2.566,2.566,0,0,1,.9.549,2.307,2.307,0,0,1,.559.834,2.869,2.869,0,0,1,.19,1.061,2.514,2.514,0,0,1-.14.835,4.132,4.132,0,0,1-.387.8,6.737,6.737,0,0,1-.591.8q-.343.4-.743.829l-2.094,2.246h4.322Z"/><path class="f" d="M460.889,28.935h-1.529V21.566L457,22.43V21.1l3.8-1.4h.095Z"/><path class="f" d="M464.663,27.679a4.31,4.31,0,0,0,1.388-.193,2.39,2.39,0,0,0,.91-.536,2.144,2.144,0,0,0,.518-.81,3.973,3.973,0,0,0,.213-1.013,2.183,2.183,0,0,1-.727.536,2.4,2.4,0,0,1-.5.165,2.727,2.727,0,0,1-.594.061,2.559,2.559,0,0,1-1.18-.257,2.45,2.45,0,0,1-.832-.686,2.929,2.929,0,0,1-.492-.987,4.192,4.192,0,0,1-.162-1.168,3.931,3.931,0,0,1,.2-1.254,3,3,0,0,1,.578-1.025,2.728,2.728,0,0,1,.936-.691,3.024,3.024,0,0,1,1.267-.254,2.788,2.788,0,0,1,1.337.3,2.817,2.817,0,0,1,.945.818,3.626,3.626,0,0,1,.564,1.2,5.4,5.4,0,0,1,.188,1.438v.5a9.81,9.81,0,0,1-.086,1.3,5.916,5.916,0,0,1-.291,1.213,4.457,4.457,0,0,1-.547,1.057,3.429,3.429,0,0,1-.844.835,4.027,4.027,0,0,1-1.193.552,5.7,5.7,0,0,1-1.59.2h-.121V27.679Zm1.523-2.989a1.533,1.533,0,0,0,.5-.083,1.587,1.587,0,0,0,.434-.229,1.714,1.714,0,0,0,.35-.349,1.753,1.753,0,0,0,.241-.445v-.5a3.589,3.589,0,0,0-.124-.987,2.29,2.29,0,0,0-.333-.717,1.437,1.437,0,0,0-.485-.436,1.232,1.232,0,0,0-.581-.146,1.264,1.264,0,0,0-.628.152,1.389,1.389,0,0,0-.461.416,1.957,1.957,0,0,0-.285.618,2.816,2.816,0,0,0-.1.762,2.981,2.981,0,0,0,.089.73,1.953,1.953,0,0,0,.27.619,1.392,1.392,0,0,0,.461.432A1.284,1.284,0,0,0,466.187,24.689Z"/><path class="f" d="M474.008,25.279a9.419,9.419,0,0,1-.146,1.7,9.013,9.013,0,0,1-.393,1.473,7.838,7.838,0,0,1-.572,1.235,7.2,7.2,0,0,1-.682.99,5.6,5.6,0,0,1-.724.732,3.629,3.629,0,0,1-.688.461l-.3-.852a4.03,4.03,0,0,0,.724-.755,5.468,5.468,0,0,0,.667-1.19,8.734,8.734,0,0,0,.488-1.65,10.835,10.835,0,0,0,.19-2.136v-.127a10.3,10.3,0,0,0-.2-2.136,8.877,8.877,0,0,0-.5-1.654,5.726,5.726,0,0,0-.67-1.193,4.519,4.519,0,0,0-.7-.755l.3-.851a4.009,4.009,0,0,1,.688.463,5.4,5.4,0,0,1,.724.73,7.121,7.121,0,0,1,.682.993A7.909,7.909,0,0,1,473.469,22a9.13,9.13,0,0,1,.393,1.476,9.392,9.392,0,0,1,.146,1.7Z"/><path class="f" d="M370.043,73.33h-1.549v3.605h-1.523V67.693h2.92a4.831,4.831,0,0,1,1.312.181,3.026,3.026,0,0,1,1.038.521,2.349,2.349,0,0,1,.679.867,2.866,2.866,0,0,1,.241,1.219,2.759,2.759,0,0,1-.124.854,2.53,2.53,0,0,1-.346.7,2.474,2.474,0,0,1-.533.545,3.446,3.446,0,0,1-.686.4l1.955,3.885v.076H371.8ZM368.494,72.1h1.4a2.146,2.146,0,0,0,.7-.108,1.62,1.62,0,0,0,.549-.308,1.361,1.361,0,0,0,.359-.488,1.646,1.646,0,0,0,.127-.663,1.82,1.82,0,0,0-.121-.686,1.336,1.336,0,0,0-.346-.5,1.491,1.491,0,0,0-.549-.308,2.452,2.452,0,0,0-.725-.111h-1.4Z"/><path class="f" d="M380.891,75.78a3.285,3.285,0,0,1-.553.515,3.685,3.685,0,0,1-.711.406,4.317,4.317,0,0,1-.854.266,4.764,4.764,0,0,1-.98.1,3.208,3.208,0,0,1-1.473-.324,3.162,3.162,0,0,1-1.082-.885,4,4,0,0,1-.674-1.324,5.768,5.768,0,0,1-.238-1.637V71.75a5.68,5.68,0,0,1,.229-1.639,4.114,4.114,0,0,1,.658-1.326,3.117,3.117,0,0,1,1.05-.892,3.014,3.014,0,0,1,1.422-.327,3.872,3.872,0,0,1,1.282.2,2.763,2.763,0,0,1,.971.567,2.691,2.691,0,0,1,.645.905,3.8,3.8,0,0,1,.3,1.193h-1.5a2.976,2.976,0,0,0-.178-.674,1.6,1.6,0,0,0-.323-.508,1.369,1.369,0,0,0-.492-.32,1.9,1.9,0,0,0-.683-.111,1.434,1.434,0,0,0-.829.238,1.908,1.908,0,0,0-.574.642,3.16,3.16,0,0,0-.336.933,5.894,5.894,0,0,0-.114,1.107v1.156a5.668,5.668,0,0,0,.118,1.1,3.045,3.045,0,0,0,.348.931,1.91,1.91,0,0,0,.613.644,1.664,1.664,0,0,0,.9.248,3.682,3.682,0,0,0,.444-.028,2.569,2.569,0,0,0,.436-.093,1.849,1.849,0,0,0,.377-.161.9.9,0,0,0,.279-.245l.013-1.847h-1.669V72.258h3.16Z"/><path class="f" d="M382.471,76.935V67.693h2.951a5.282,5.282,0,0,1,1.248.152,3.058,3.058,0,0,1,1.016.451,2.152,2.152,0,0,1,.682.777,2.326,2.326,0,0,1,.242,1.12,1.9,1.9,0,0,1-.381,1.171,2.427,2.427,0,0,1-1.01.752,2.394,2.394,0,0,1,.688.309,1.937,1.937,0,0,1,.5.479,2.155,2.155,0,0,1,.311.619,2.358,2.358,0,0,1,.108.721,2.663,2.663,0,0,1-.241,1.162,2.333,2.333,0,0,1-.67.838,3.02,3.02,0,0,1-1.016.511,4.564,4.564,0,0,1-1.266.181ZM384,71.584h1.461a2.411,2.411,0,0,0,.638-.092,1.5,1.5,0,0,0,.511-.254,1.238,1.238,0,0,0,.343-.412,1.2,1.2,0,0,0,.127-.562,1.35,1.35,0,0,0-.12-.6,1.076,1.076,0,0,0-.34-.406,1.459,1.459,0,0,0-.518-.232,2.95,2.95,0,0,0-.654-.079H384Zm0,1.162v2.945h1.664a2.078,2.078,0,0,0,.66-.111,1.6,1.6,0,0,0,.514-.289,1.3,1.3,0,0,0,.34-.45,1.408,1.408,0,0,0,.123-.6,1.7,1.7,0,0,0-.107-.625,1.263,1.263,0,0,0-.311-.467,1.4,1.4,0,0,0-.5-.295,2.007,2.007,0,0,0-.653-.111Z"/><path class="f" d="M390.76,73.178a9.535,9.535,0,0,1,.533-3.2,7.389,7.389,0,0,1,1.234-2.219,5.387,5.387,0,0,1,.711-.724,3.879,3.879,0,0,1,.683-.46l.3.895a4.174,4.174,0,0,0-.729.756,5.312,5.312,0,0,0-.667,1.174,8.4,8.4,0,0,0-.485,1.635,10.908,10.908,0,0,0-.187,2.13v.127a10.908,10.908,0,0,0,.188,2.13,8.554,8.554,0,0,0,.485,1.641,5.43,5.43,0,0,0,.667,1.188,4.467,4.467,0,0,0,.729.773l-.3.852a3.554,3.554,0,0,1-.683-.457,5.49,5.49,0,0,1-.711-.728,7.381,7.381,0,0,1-.673-.98,7.268,7.268,0,0,1-.562-1.231,9.535,9.535,0,0,1-.533-3.2Z"/><path class="f" d="M401.762,76.935h-6.208V75.889l3.009-3.282q.381-.425.639-.752a4.764,4.764,0,0,0,.408-.6,2.294,2.294,0,0,0,.217-.508,1.822,1.822,0,0,0,.063-.476,1.7,1.7,0,0,0-.1-.587,1.351,1.351,0,0,0-.279-.464,1.28,1.28,0,0,0-.437-.3,1.487,1.487,0,0,0-.575-.107,1.523,1.523,0,0,0-1.216.451,1.839,1.839,0,0,0-.391,1.244h-1.523a3.012,3.012,0,0,1,.219-1.14,2.748,2.748,0,0,1,.629-.937,2.972,2.972,0,0,1,.994-.632,3.533,3.533,0,0,1,1.313-.231,3.491,3.491,0,0,1,1.219.2,2.566,2.566,0,0,1,.9.549,2.307,2.307,0,0,1,.559.834,2.869,2.869,0,0,1,.19,1.061,2.514,2.514,0,0,1-.14.835,4.132,4.132,0,0,1-.387.8,6.737,6.737,0,0,1-.591.8q-.343.4-.743.829l-2.094,2.246h4.322Z"/><path class="f" d="M409.342,76.935h-6.208V75.889l3.009-3.282q.381-.425.639-.752a4.764,4.764,0,0,0,.408-.6,2.294,2.294,0,0,0,.217-.508,1.822,1.822,0,0,0,.063-.476,1.7,1.7,0,0,0-.1-.587,1.351,1.351,0,0,0-.279-.464,1.28,1.28,0,0,0-.437-.3,1.487,1.487,0,0,0-.575-.107,1.523,1.523,0,0,0-1.216.451,1.839,1.839,0,0,0-.391,1.244h-1.523a3.012,3.012,0,0,1,.219-1.14,2.748,2.748,0,0,1,.629-.937,2.972,2.972,0,0,1,.994-.632,3.533,3.533,0,0,1,1.313-.231,3.491,3.491,0,0,1,1.219.2,2.566,2.566,0,0,1,.9.549,2.307,2.307,0,0,1,.559.834,2.869,2.869,0,0,1,.19,1.061,2.514,2.514,0,0,1-.14.835,4.132,4.132,0,0,1-.387.8,6.737,6.737,0,0,1-.591.8q-.343.4-.743.829l-2.094,2.246h4.322Z"/><path class="f" d="M414.689,76.935H413.16V69.566l-2.361.863V69.1l3.8-1.4h.095Z"/><path class="f" d="M419.822,76.726a2.974,2.974,0,0,1-.085.691,3.613,3.613,0,0,1-.248.7,3.979,3.979,0,0,1-.387.65,3.451,3.451,0,0,1-.5.55l-.856-.451a3.895,3.895,0,0,0,.565-2.088V75.45h1.517Z"/><path class="f" d="M428.875,76.935h-6.209V75.889l3.01-3.282q.381-.425.638-.752a4.678,4.678,0,0,0,.409-.6,2.241,2.241,0,0,0,.216-.508A1.823,1.823,0,0,0,427,70.27a1.7,1.7,0,0,0-.1-.587,1.336,1.336,0,0,0-.279-.464,1.262,1.262,0,0,0-.437-.3,1.487,1.487,0,0,0-.575-.107,1.521,1.521,0,0,0-1.215.451,1.834,1.834,0,0,0-.391,1.244h-1.523a2.994,2.994,0,0,1,.219-1.14,2.748,2.748,0,0,1,.629-.937,2.957,2.957,0,0,1,.993-.632,3.541,3.541,0,0,1,1.313-.231,3.491,3.491,0,0,1,1.219.2,2.57,2.57,0,0,1,.9.549,2.319,2.319,0,0,1,.559.834,2.869,2.869,0,0,1,.189,1.061,2.539,2.539,0,0,1-.139.835,4.082,4.082,0,0,1-.388.8,6.631,6.631,0,0,1-.591.8q-.343.4-.742.829l-2.095,2.246h4.323Z"/><path class="f" d="M432.073,71.629h.907a2.125,2.125,0,0,0,.7-.1,1.343,1.343,0,0,0,.494-.3,1.2,1.2,0,0,0,.3-.453,1.653,1.653,0,0,0,.1-.581,1.437,1.437,0,0,0-.353-1.038,1.415,1.415,0,0,0-1.063-.365,1.727,1.727,0,0,0-.574.093,1.37,1.37,0,0,0-.457.263,1.2,1.2,0,0,0-.3.413,1.335,1.335,0,0,0-.108.546h-1.517a2.342,2.342,0,0,1,.219-1.01,2.448,2.448,0,0,1,.609-.8,2.88,2.88,0,0,1,.931-.533,3.472,3.472,0,0,1,1.18-.193,4.056,4.056,0,0,1,1.2.168,2.6,2.6,0,0,1,.933.5,2.256,2.256,0,0,1,.6.822,2.8,2.8,0,0,1,.216,1.14,1.986,1.986,0,0,1-.083.559,2.162,2.162,0,0,1-.25.552,2.38,2.38,0,0,1-.426.5,2.336,2.336,0,0,1-.605.39,2.367,2.367,0,0,1,.7.375,2.072,2.072,0,0,1,.464.511,2,2,0,0,1,.254.606,2.87,2.87,0,0,1,.076.66,2.713,2.713,0,0,1-.235,1.155,2.422,2.422,0,0,1-.65.854,2.909,2.909,0,0,1-.981.527,3.984,3.984,0,0,1-1.219.181,3.935,3.935,0,0,1-1.148-.165,2.912,2.912,0,0,1-.962-.492,2.416,2.416,0,0,1-.663-.812,2.446,2.446,0,0,1-.248-1.126h1.518a1.449,1.449,0,0,0,.107.562,1.216,1.216,0,0,0,.309.438,1.421,1.421,0,0,0,.479.282,1.82,1.82,0,0,0,.629.1,1.616,1.616,0,0,0,1.14-.384,1.443,1.443,0,0,0,.415-1.114,1.772,1.772,0,0,0-.12-.688,1.231,1.231,0,0,0-.346-.476,1.45,1.45,0,0,0-.543-.276,2.649,2.649,0,0,0-.718-.089h-.907Z"/><path class="f" d="M443.813,73.419A5.491,5.491,0,0,1,443.607,75a3.2,3.2,0,0,1-.594,1.143,2.477,2.477,0,0,1-.946.7,3.469,3.469,0,0,1-2.507,0,2.487,2.487,0,0,1-.949-.7,3.244,3.244,0,0,1-.6-1.143,5.313,5.313,0,0,1-.213-1.577V71.21a5.383,5.383,0,0,1,.21-1.577,3.163,3.163,0,0,1,.6-1.143,2.488,2.488,0,0,1,.945-.7,3.175,3.175,0,0,1,1.247-.234,3.221,3.221,0,0,1,1.257.234,2.487,2.487,0,0,1,.949.7,3.192,3.192,0,0,1,.6,1.143,5.384,5.384,0,0,1,.209,1.577Zm-4.494-.577,2.959-2.2a2.434,2.434,0,0,0-.416-1.4,1.285,1.285,0,0,0-1.063-.454,1.263,1.263,0,0,0-1.11.527,2.843,2.843,0,0,0-.369,1.618Zm2.971-1.01-2.957,2.2q.114,1.815,1.479,1.814,1.479,0,1.479-2.164Z"/><path class="f" d="M447.7,76.726a2.974,2.974,0,0,1-.085.691,3.613,3.613,0,0,1-.248.7,3.979,3.979,0,0,1-.387.65,3.451,3.451,0,0,1-.5.55l-.856-.451a3.895,3.895,0,0,0,.565-2.088V75.45H447.7Z"/><path class="f" d="M456.748,76.935h-6.209V75.889l3.01-3.282q.381-.425.638-.752a4.678,4.678,0,0,0,.409-.6,2.241,2.241,0,0,0,.216-.508,1.823,1.823,0,0,0,.063-.476,1.7,1.7,0,0,0-.1-.587,1.336,1.336,0,0,0-.279-.464,1.262,1.262,0,0,0-.437-.3,1.487,1.487,0,0,0-.575-.107,1.521,1.521,0,0,0-1.215.451,1.834,1.834,0,0,0-.391,1.244h-1.523a2.994,2.994,0,0,1,.219-1.14,2.748,2.748,0,0,1,.629-.937,2.957,2.957,0,0,1,.993-.632,3.541,3.541,0,0,1,1.313-.231,3.491,3.491,0,0,1,1.219.2,2.57,2.57,0,0,1,.9.549,2.319,2.319,0,0,1,.559.834,2.869,2.869,0,0,1,.189,1.061,2.539,2.539,0,0,1-.139.835,4.082,4.082,0,0,1-.388.8,6.631,6.631,0,0,1-.591.8q-.343.4-.742.829l-2.095,2.246h4.323Z"/><path class="f" d="M459.946,71.629h.907a2.125,2.125,0,0,0,.7-.1,1.343,1.343,0,0,0,.494-.3,1.2,1.2,0,0,0,.3-.453,1.653,1.653,0,0,0,.1-.581,1.437,1.437,0,0,0-.353-1.038,1.415,1.415,0,0,0-1.063-.365,1.727,1.727,0,0,0-.574.093,1.37,1.37,0,0,0-.457.263,1.2,1.2,0,0,0-.3.413,1.335,1.335,0,0,0-.108.546h-1.517a2.342,2.342,0,0,1,.219-1.01,2.448,2.448,0,0,1,.609-.8,2.88,2.88,0,0,1,.931-.533,3.472,3.472,0,0,1,1.18-.193,4.056,4.056,0,0,1,1.2.168,2.6,2.6,0,0,1,.933.5,2.256,2.256,0,0,1,.6.822,2.8,2.8,0,0,1,.216,1.14,1.986,1.986,0,0,1-.083.559,2.162,2.162,0,0,1-.25.552,2.38,2.38,0,0,1-.426.5,2.336,2.336,0,0,1-.605.39,2.367,2.367,0,0,1,.7.375,2.072,2.072,0,0,1,.464.511,2,2,0,0,1,.254.606,2.87,2.87,0,0,1,.076.66,2.713,2.713,0,0,1-.235,1.155,2.422,2.422,0,0,1-.65.854,2.909,2.909,0,0,1-.981.527,3.984,3.984,0,0,1-1.219.181,3.935,3.935,0,0,1-1.148-.165,2.912,2.912,0,0,1-.962-.492,2.416,2.416,0,0,1-.663-.812,2.446,2.446,0,0,1-.248-1.126H459.5a1.449,1.449,0,0,0,.107.562,1.216,1.216,0,0,0,.309.438,1.421,1.421,0,0,0,.479.282,1.82,1.82,0,0,0,.629.1,1.616,1.616,0,0,0,1.14-.384,1.443,1.443,0,0,0,.415-1.114,1.772,1.772,0,0,0-.12-.688,1.231,1.231,0,0,0-.346-.476,1.45,1.45,0,0,0-.543-.276,2.649,2.649,0,0,0-.718-.089h-.907Z"/><path class="f" d="M471.73,68.537l-3.7,8.4h-1.6l3.7-7.979h-4.793V67.693h6.393Z"/><path class="f" d="M477.154,73.279a9.419,9.419,0,0,1-.146,1.7,9.012,9.012,0,0,1-.394,1.473,7.837,7.837,0,0,1-.571,1.235,7.289,7.289,0,0,1-.682.99,5.6,5.6,0,0,1-.725.732,3.6,3.6,0,0,1-.688.461l-.3-.852a4.028,4.028,0,0,0,.723-.755,5.388,5.388,0,0,0,.667-1.19,8.731,8.731,0,0,0,.489-1.65,10.84,10.84,0,0,0,.189-2.136v-.127a10.372,10.372,0,0,0-.2-2.136,8.875,8.875,0,0,0-.5-1.654,5.77,5.77,0,0,0-.669-1.193,4.56,4.56,0,0,0-.7-.755l.3-.851a3.972,3.972,0,0,1,.688.463,5.4,5.4,0,0,1,.725.73,7.206,7.206,0,0,1,.682.993A7.907,7.907,0,0,1,476.614,70a9.129,9.129,0,0,1,.394,1.476,9.392,9.392,0,0,1,.146,1.7Z"/><path class="f" d="M370.043,121.33h-1.549v3.605h-1.523v-9.242h2.92a4.831,4.831,0,0,1,1.312.181,3.026,3.026,0,0,1,1.038.521,2.349,2.349,0,0,1,.679.867,2.866,2.866,0,0,1,.241,1.219,2.759,2.759,0,0,1-.124.854,2.53,2.53,0,0,1-.346.7,2.474,2.474,0,0,1-.533.545,3.446,3.446,0,0,1-.686.4l1.955,3.885v.076H371.8Zm-1.549-1.231h1.4a2.146,2.146,0,0,0,.7-.108,1.62,1.62,0,0,0,.549-.308,1.361,1.361,0,0,0,.359-.488,1.646,1.646,0,0,0,.127-.663,1.82,1.82,0,0,0-.121-.686,1.336,1.336,0,0,0-.346-.5,1.491,1.491,0,0,0-.549-.308,2.452,2.452,0,0,0-.725-.111h-1.4Z"/><path class="f" d="M380.891,123.78a3.285,3.285,0,0,1-.553.515,3.685,3.685,0,0,1-.711.406,4.317,4.317,0,0,1-.854.266,4.764,4.764,0,0,1-.98.1,3.208,3.208,0,0,1-1.473-.324,3.162,3.162,0,0,1-1.082-.885,4,4,0,0,1-.674-1.324,5.768,5.768,0,0,1-.238-1.637V119.75a5.68,5.68,0,0,1,.229-1.639,4.114,4.114,0,0,1,.658-1.326,3.117,3.117,0,0,1,1.05-.892,3.014,3.014,0,0,1,1.422-.327,3.872,3.872,0,0,1,1.282.2,2.763,2.763,0,0,1,.971.567,2.691,2.691,0,0,1,.645.905,3.8,3.8,0,0,1,.3,1.193h-1.5a2.976,2.976,0,0,0-.178-.674,1.6,1.6,0,0,0-.323-.508,1.369,1.369,0,0,0-.492-.32,1.9,1.9,0,0,0-.683-.111,1.434,1.434,0,0,0-.829.238,1.908,1.908,0,0,0-.574.642,3.16,3.16,0,0,0-.336.933,5.894,5.894,0,0,0-.114,1.107v1.156a5.668,5.668,0,0,0,.118,1.1,3.045,3.045,0,0,0,.348.931,1.91,1.91,0,0,0,.613.644,1.664,1.664,0,0,0,.9.248,3.682,3.682,0,0,0,.444-.028,2.569,2.569,0,0,0,.436-.093,1.849,1.849,0,0,0,.377-.161.9.9,0,0,0,.279-.245l.013-1.847h-1.669v-1.187h3.16Z"/><path class="f" d="M382.471,124.935v-9.242h2.951a5.282,5.282,0,0,1,1.248.152,3.058,3.058,0,0,1,1.016.451,2.152,2.152,0,0,1,.682.777,2.326,2.326,0,0,1,.242,1.12,1.9,1.9,0,0,1-.381,1.171,2.427,2.427,0,0,1-1.01.752,2.394,2.394,0,0,1,.688.309,1.937,1.937,0,0,1,.5.479,2.155,2.155,0,0,1,.311.619,2.358,2.358,0,0,1,.108.721,2.663,2.663,0,0,1-.241,1.162,2.333,2.333,0,0,1-.67.838,3.02,3.02,0,0,1-1.016.511,4.564,4.564,0,0,1-1.266.181ZM384,119.584h1.461a2.411,2.411,0,0,0,.638-.092,1.5,1.5,0,0,0,.511-.254,1.238,1.238,0,0,0,.343-.412,1.2,1.2,0,0,0,.127-.562,1.35,1.35,0,0,0-.12-.6,1.076,1.076,0,0,0-.34-.406,1.459,1.459,0,0,0-.518-.232,2.95,2.95,0,0,0-.654-.079H384Zm0,1.162v2.945h1.664a2.078,2.078,0,0,0,.66-.111,1.6,1.6,0,0,0,.514-.289,1.3,1.3,0,0,0,.34-.45,1.408,1.408,0,0,0,.123-.6,1.7,1.7,0,0,0-.107-.625,1.263,1.263,0,0,0-.311-.467,1.4,1.4,0,0,0-.5-.295,2.007,2.007,0,0,0-.653-.111Z"/><path class="f" d="M390.76,121.178a9.535,9.535,0,0,1,.533-3.2,7.389,7.389,0,0,1,1.234-2.219,5.387,5.387,0,0,1,.711-.724,3.879,3.879,0,0,1,.683-.46l.3.895a4.174,4.174,0,0,0-.729.756,5.312,5.312,0,0,0-.667,1.174,8.4,8.4,0,0,0-.485,1.635,10.908,10.908,0,0,0-.187,2.13v.127a10.908,10.908,0,0,0,.188,2.13,8.554,8.554,0,0,0,.485,1.641,5.43,5.43,0,0,0,.667,1.188,4.467,4.467,0,0,0,.729.773l-.3.852a3.554,3.554,0,0,1-.683-.457,5.49,5.49,0,0,1-.711-.728,7.381,7.381,0,0,1-.673-.98,7.268,7.268,0,0,1-.562-1.231,9.535,9.535,0,0,1-.533-3.2Z"/><path class="f" d="M401.762,124.935h-6.208v-1.047l3.009-3.282q.381-.425.639-.752a4.764,4.764,0,0,0,.408-.6,2.294,2.294,0,0,0,.217-.508,1.822,1.822,0,0,0,.063-.476,1.7,1.7,0,0,0-.1-.587,1.351,1.351,0,0,0-.279-.464,1.28,1.28,0,0,0-.437-.3,1.487,1.487,0,0,0-.575-.107,1.523,1.523,0,0,0-1.216.451,1.839,1.839,0,0,0-.391,1.244h-1.523a3.012,3.012,0,0,1,.219-1.14,2.748,2.748,0,0,1,.629-.937,2.972,2.972,0,0,1,.994-.632,3.533,3.533,0,0,1,1.313-.231,3.491,3.491,0,0,1,1.219.2,2.566,2.566,0,0,1,.9.549,2.307,2.307,0,0,1,.559.834,2.869,2.869,0,0,1,.19,1.061,2.514,2.514,0,0,1-.14.835,4.132,4.132,0,0,1-.387.8,6.737,6.737,0,0,1-.591.8q-.343.4-.743.829l-2.094,2.246h4.322Z"/><path class="f" d="M408.265,121.654h1.161v1.225h-1.161v2.057h-1.517v-2.057h-4.012l-.039-.92,4-6.266h1.567Zm-4,0h2.488v-3.936l-.166.3Z"/><path class="f" d="M411.09,120.352l.5-4.659h4.945v1.358h-3.688l-.235,2.19a3.238,3.238,0,0,1,.591-.248,2.738,2.738,0,0,1,.851-.121,3,3,0,0,1,1.171.217,2.355,2.355,0,0,1,.873.618,2.774,2.774,0,0,1,.546.978,4.119,4.119,0,0,1,.19,1.3,3.912,3.912,0,0,1-.181,1.2,2.68,2.68,0,0,1-.553.978,2.605,2.605,0,0,1-.936.657,3.376,3.376,0,0,1-1.334.241,3.635,3.635,0,0,1-1.107-.168,2.926,2.926,0,0,1-.942-.5,2.6,2.6,0,0,1-.676-.815,2.7,2.7,0,0,1-.3-1.137h1.467a1.6,1.6,0,0,0,.5,1.044,1.554,1.554,0,0,0,1.06.358,1.448,1.448,0,0,0,.654-.139,1.28,1.28,0,0,0,.463-.391,1.753,1.753,0,0,0,.276-.6,3.038,3.038,0,0,0,.093-.771,2.457,2.457,0,0,0-.105-.736,1.6,1.6,0,0,0-.314-.58,1.463,1.463,0,0,0-.52-.385,1.746,1.746,0,0,0-.718-.139,2.326,2.326,0,0,0-.47.041,1.606,1.606,0,0,0-.353.114,1.371,1.371,0,0,0-.282.175c-.084.067-.17.139-.254.215Z"/><path class="f" d="M420.766,124.726a2.977,2.977,0,0,1-.086.691,3.613,3.613,0,0,1-.248.7,3.911,3.911,0,0,1-.387.65,3.493,3.493,0,0,1-.5.55l-.857-.451a3.883,3.883,0,0,0,.564-2.088V123.45h1.518Z"/><path class="f" d="M429.816,124.935h-6.207v-1.047l3.008-3.282q.381-.425.639-.752a4.678,4.678,0,0,0,.409-.6,2.287,2.287,0,0,0,.216-.508,1.783,1.783,0,0,0,.063-.476,1.679,1.679,0,0,0-.1-.587,1.336,1.336,0,0,0-.279-.464,1.262,1.262,0,0,0-.437-.3,1.485,1.485,0,0,0-.574-.107,1.522,1.522,0,0,0-1.216.451,1.834,1.834,0,0,0-.391,1.244h-1.523a2.994,2.994,0,0,1,.219-1.14,2.748,2.748,0,0,1,.629-.937,2.967,2.967,0,0,1,.993-.632,3.539,3.539,0,0,1,1.314-.231,3.491,3.491,0,0,1,1.219.2,2.553,2.553,0,0,1,.9.549,2.307,2.307,0,0,1,.559.834,2.869,2.869,0,0,1,.191,1.061,2.515,2.515,0,0,1-.141.835,4.023,4.023,0,0,1-.387.8,6.62,6.62,0,0,1-.59.8q-.343.4-.743.829l-2.095,2.246h4.322Z"/><path class="f" d="M436.32,121.654h1.161v1.225H436.32v2.057H434.8v-2.057h-4.012l-.038-.92,4-6.266h1.568Zm-4.006,0H434.8v-3.936l-.165.3Z"/><path class="f" d="M439.686,123.679a4.306,4.306,0,0,0,1.388-.193,2.394,2.394,0,0,0,.911-.536,2.142,2.142,0,0,0,.517-.81,3.932,3.932,0,0,0,.213-1.013,2.162,2.162,0,0,1-.32.295,2.265,2.265,0,0,1-.406.241,2.4,2.4,0,0,1-.5.165,2.733,2.733,0,0,1-.594.061,2.563,2.563,0,0,1-1.181-.257,2.437,2.437,0,0,1-.831-.686,2.929,2.929,0,0,1-.492-.987,4.156,4.156,0,0,1-.162-1.168,3.9,3.9,0,0,1,.2-1.254,2.994,2.994,0,0,1,.577-1.025,2.723,2.723,0,0,1,.937-.691,3.016,3.016,0,0,1,1.266-.254,2.705,2.705,0,0,1,2.282,1.123,3.628,3.628,0,0,1,.565,1.2,5.4,5.4,0,0,1,.188,1.438v.5a9.809,9.809,0,0,1-.086,1.3,5.917,5.917,0,0,1-.292,1.213,4.418,4.418,0,0,1-.546,1.057,3.416,3.416,0,0,1-.845.835,4.016,4.016,0,0,1-1.193.552,5.7,5.7,0,0,1-1.59.2h-.12v-1.295Zm1.523-2.989a1.524,1.524,0,0,0,.5-.083,1.593,1.593,0,0,0,.435-.229,1.739,1.739,0,0,0,.35-.349,1.72,1.72,0,0,0,.24-.445v-.5a3.591,3.591,0,0,0-.123-.987,2.29,2.29,0,0,0-.334-.717,1.419,1.419,0,0,0-.485-.436,1.232,1.232,0,0,0-.581-.146,1.269,1.269,0,0,0-.628.152,1.386,1.386,0,0,0-.46.416,1.958,1.958,0,0,0-.286.618,2.855,2.855,0,0,0-.1.762,2.935,2.935,0,0,0,.09.73,1.953,1.953,0,0,0,.27.619,1.38,1.38,0,0,0,.46.432A1.286,1.286,0,0,0,441.209,120.689Z"/><path class="f" d="M447.922,124.726a2.977,2.977,0,0,1-.086.691,3.487,3.487,0,0,1-.248.7,3.911,3.911,0,0,1-.387.65,3.493,3.493,0,0,1-.5.55l-.857-.451a3.872,3.872,0,0,0,.565-2.088V123.45h1.517Z"/><path class="f" d="M456.974,124.935h-6.208v-1.047l3.009-3.282q.381-.425.638-.752a4.6,4.6,0,0,0,.41-.6,2.235,2.235,0,0,0,.215-.508,1.784,1.784,0,0,0,.064-.476,1.679,1.679,0,0,0-.1-.587,1.321,1.321,0,0,0-.279-.464,1.244,1.244,0,0,0-.437-.3,1.485,1.485,0,0,0-.574-.107,1.52,1.52,0,0,0-1.215.451,1.829,1.829,0,0,0-.391,1.244h-1.523a2.975,2.975,0,0,1,.219-1.14,2.748,2.748,0,0,1,.629-.937,2.953,2.953,0,0,1,.992-.632,3.546,3.546,0,0,1,1.314-.231,3.491,3.491,0,0,1,1.219.2,2.557,2.557,0,0,1,.9.549,2.319,2.319,0,0,1,.559.834,2.869,2.869,0,0,1,.19,1.061,2.54,2.54,0,0,1-.14.835,3.975,3.975,0,0,1-.388.8,6.517,6.517,0,0,1-.59.8q-.343.4-.742.829l-2.1,2.246h4.323Z"/><path class="f" d="M458.645,120.352l.5-4.659h4.944v1.358H460.4l-.234,2.19a3.225,3.225,0,0,1,.59-.248,2.748,2.748,0,0,1,.852-.121,3,3,0,0,1,1.17.217,2.339,2.339,0,0,1,.873.618,2.776,2.776,0,0,1,.547.978,4.12,4.12,0,0,1,.189,1.3,3.942,3.942,0,0,1-.18,1.2,2.68,2.68,0,0,1-.553.978,2.618,2.618,0,0,1-.937.657,3.371,3.371,0,0,1-1.333.241,3.635,3.635,0,0,1-1.107-.168,2.941,2.941,0,0,1-.943-.5,2.614,2.614,0,0,1-.676-.815,2.7,2.7,0,0,1-.3-1.137h1.466a1.6,1.6,0,0,0,.5,1.044,1.558,1.558,0,0,0,1.061.358,1.451,1.451,0,0,0,.654-.139,1.288,1.288,0,0,0,.463-.391,1.734,1.734,0,0,0,.275-.6,2.994,2.994,0,0,0,.093-.771,2.458,2.458,0,0,0-.1-.736,1.632,1.632,0,0,0-.314-.58,1.467,1.467,0,0,0-.521-.385,1.743,1.743,0,0,0-.718-.139,2.323,2.323,0,0,0-.469.041,1.6,1.6,0,0,0-.354.114,1.364,1.364,0,0,0-.281.175c-.085.067-.17.139-.254.215Z"/><path class="f" d="M471.731,124.935h-6.208v-1.047l3.009-3.282q.381-.425.638-.752a4.6,4.6,0,0,0,.41-.6,2.235,2.235,0,0,0,.215-.508,1.784,1.784,0,0,0,.064-.476,1.679,1.679,0,0,0-.1-.587,1.321,1.321,0,0,0-.279-.464,1.244,1.244,0,0,0-.437-.3,1.485,1.485,0,0,0-.574-.107,1.52,1.52,0,0,0-1.215.451,1.829,1.829,0,0,0-.391,1.244H465.34a2.975,2.975,0,0,1,.219-1.14,2.748,2.748,0,0,1,.629-.937,2.953,2.953,0,0,1,.992-.632,3.546,3.546,0,0,1,1.314-.231,3.491,3.491,0,0,1,1.219.2,2.557,2.557,0,0,1,.9.549,2.319,2.319,0,0,1,.559.834,2.869,2.869,0,0,1,.19,1.061,2.54,2.54,0,0,1-.14.835,3.975,3.975,0,0,1-.388.8,6.517,6.517,0,0,1-.59.8q-.343.4-.742.829l-2.1,2.246h4.323Z"/><path class="f" d="M476.579,121.279a9.511,9.511,0,0,1-.146,1.7,8.913,8.913,0,0,1-.395,1.473,7.835,7.835,0,0,1-.57,1.235,7.292,7.292,0,0,1-.683.99,5.6,5.6,0,0,1-.724.732,3.6,3.6,0,0,1-.689.461l-.3-.852a4.03,4.03,0,0,0,.724-.755,5.387,5.387,0,0,0,.666-1.19,8.66,8.66,0,0,0,.489-1.65,10.835,10.835,0,0,0,.19-2.136v-.127a10.3,10.3,0,0,0-.2-2.136,8.875,8.875,0,0,0-.5-1.654,5.725,5.725,0,0,0-.669-1.193,4.519,4.519,0,0,0-.7-.755l.3-.851a3.976,3.976,0,0,1,.689.463,5.4,5.4,0,0,1,.724.73,7.209,7.209,0,0,1,.683.993,7.906,7.906,0,0,1,.57,1.241,9.029,9.029,0,0,1,.395,1.476,9.484,9.484,0,0,1,.146,1.7Z"/><path class="f" d="M370.043,169.33h-1.549v3.605h-1.523v-9.242h2.92a4.831,4.831,0,0,1,1.312.181,3.026,3.026,0,0,1,1.038.521,2.349,2.349,0,0,1,.679.867,2.866,2.866,0,0,1,.241,1.219,2.759,2.759,0,0,1-.124.854,2.53,2.53,0,0,1-.346.7,2.474,2.474,0,0,1-.533.545,3.446,3.446,0,0,1-.686.4l1.955,3.885v.076H371.8Zm-1.549-1.231h1.4a2.146,2.146,0,0,0,.7-.108,1.62,1.62,0,0,0,.549-.308,1.361,1.361,0,0,0,.359-.488,1.646,1.646,0,0,0,.127-.663,1.82,1.82,0,0,0-.121-.686,1.336,1.336,0,0,0-.346-.5,1.491,1.491,0,0,0-.549-.308,2.452,2.452,0,0,0-.725-.111h-1.4Z"/><path class="f" d="M380.891,171.78a3.285,3.285,0,0,1-.553.515,3.685,3.685,0,0,1-.711.406,4.317,4.317,0,0,1-.854.266,4.764,4.764,0,0,1-.98.1,3.208,3.208,0,0,1-1.473-.324,3.162,3.162,0,0,1-1.082-.885,4,4,0,0,1-.674-1.324,5.768,5.768,0,0,1-.238-1.637V167.75a5.68,5.68,0,0,1,.229-1.639,4.114,4.114,0,0,1,.658-1.326,3.117,3.117,0,0,1,1.05-.892,3.014,3.014,0,0,1,1.422-.327,3.872,3.872,0,0,1,1.282.2,2.763,2.763,0,0,1,.971.567,2.691,2.691,0,0,1,.645.905,3.8,3.8,0,0,1,.3,1.193h-1.5a2.976,2.976,0,0,0-.178-.674,1.6,1.6,0,0,0-.323-.508,1.369,1.369,0,0,0-.492-.32,1.9,1.9,0,0,0-.683-.111,1.434,1.434,0,0,0-.829.238,1.908,1.908,0,0,0-.574.642,3.16,3.16,0,0,0-.336.933,5.894,5.894,0,0,0-.114,1.107v1.156a5.668,5.668,0,0,0,.118,1.1,3.045,3.045,0,0,0,.348.931,1.91,1.91,0,0,0,.613.644,1.664,1.664,0,0,0,.9.248,3.682,3.682,0,0,0,.444-.028,2.569,2.569,0,0,0,.436-.093,1.849,1.849,0,0,0,.377-.161.9.9,0,0,0,.279-.245l.013-1.847h-1.669v-1.187h3.16Z"/><path class="f" d="M382.471,172.935v-9.242h2.951a5.282,5.282,0,0,1,1.248.152,3.058,3.058,0,0,1,1.016.451,2.152,2.152,0,0,1,.682.777,2.326,2.326,0,0,1,.242,1.12,1.9,1.9,0,0,1-.381,1.171,2.427,2.427,0,0,1-1.01.752,2.394,2.394,0,0,1,.688.309,1.937,1.937,0,0,1,.5.479,2.155,2.155,0,0,1,.311.619,2.358,2.358,0,0,1,.108.721,2.663,2.663,0,0,1-.241,1.162,2.333,2.333,0,0,1-.67.838,3.02,3.02,0,0,1-1.016.511,4.564,4.564,0,0,1-1.266.181ZM384,167.584h1.461a2.411,2.411,0,0,0,.638-.092,1.5,1.5,0,0,0,.511-.254,1.238,1.238,0,0,0,.343-.412,1.2,1.2,0,0,0,.127-.562,1.35,1.35,0,0,0-.12-.6,1.076,1.076,0,0,0-.34-.406,1.459,1.459,0,0,0-.518-.232,2.95,2.95,0,0,0-.654-.079H384Zm0,1.162v2.945h1.664a2.078,2.078,0,0,0,.66-.111,1.6,1.6,0,0,0,.514-.289,1.3,1.3,0,0,0,.34-.45,1.408,1.408,0,0,0,.123-.6,1.7,1.7,0,0,0-.107-.625,1.263,1.263,0,0,0-.311-.467,1.4,1.4,0,0,0-.5-.295,2.007,2.007,0,0,0-.653-.111Z"/><path class="f" d="M390.76,169.178a9.535,9.535,0,0,1,.533-3.2,7.389,7.389,0,0,1,1.234-2.219,5.387,5.387,0,0,1,.711-.724,3.879,3.879,0,0,1,.683-.46l.3.895a4.174,4.174,0,0,0-.729.756,5.312,5.312,0,0,0-.667,1.174,8.4,8.4,0,0,0-.485,1.635,10.908,10.908,0,0,0-.187,2.13v.127a10.908,10.908,0,0,0,.188,2.13,8.554,8.554,0,0,0,.485,1.641,5.43,5.43,0,0,0,.667,1.188,4.467,4.467,0,0,0,.729.773l-.3.852a3.554,3.554,0,0,1-.683-.457,5.49,5.49,0,0,1-.711-.728,7.381,7.381,0,0,1-.673-.98,7.268,7.268,0,0,1-.562-1.231,9.535,9.535,0,0,1-.533-3.2Z"/><path class="f" d="M396.246,169.178a9.535,9.535,0,0,1,.533-3.2,7.389,7.389,0,0,1,1.234-2.219,5.387,5.387,0,0,1,.711-.724,3.879,3.879,0,0,1,.683-.46l.3.895a4.174,4.174,0,0,0-.729.756,5.312,5.312,0,0,0-.667,1.174,8.4,8.4,0,0,0-.485,1.635,10.908,10.908,0,0,0-.187,2.13v.127a10.908,10.908,0,0,0,.188,2.13,8.554,8.554,0,0,0,.485,1.641,5.43,5.43,0,0,0,.667,1.188,4.467,4.467,0,0,0,.729.773l-.3.852a3.554,3.554,0,0,1-.683-.457,5.49,5.49,0,0,1-.711-.728,7.381,7.381,0,0,1-.673-.98,7.268,7.268,0,0,1-.562-1.231,9.535,9.535,0,0,1-.533-3.2Z"/><path class="f" d="M407.248,172.935h-6.209v-1.047l3.01-3.282q.381-.425.638-.752a4.678,4.678,0,0,0,.409-.6,2.241,2.241,0,0,0,.216-.508,1.823,1.823,0,0,0,.063-.476,1.7,1.7,0,0,0-.1-.587,1.336,1.336,0,0,0-.279-.464,1.262,1.262,0,0,0-.437-.3,1.487,1.487,0,0,0-.575-.107,1.521,1.521,0,0,0-1.215.451,1.834,1.834,0,0,0-.391,1.244h-1.523a2.994,2.994,0,0,1,.219-1.14,2.748,2.748,0,0,1,.629-.937,2.957,2.957,0,0,1,.993-.632,3.541,3.541,0,0,1,1.313-.231,3.491,3.491,0,0,1,1.219.2,2.57,2.57,0,0,1,.9.549,2.319,2.319,0,0,1,.559.834,2.869,2.869,0,0,1,.189,1.061,2.539,2.539,0,0,1-.139.835,4.082,4.082,0,0,1-.388.8,6.631,6.631,0,0,1-.591.8q-.343.4-.742.829l-2.095,2.246h4.323Z"/><path class="f" d="M408.918,168.352l.5-4.659h4.944v1.358h-3.688l-.234,2.19a3.225,3.225,0,0,1,.59-.248,2.748,2.748,0,0,1,.852-.121,3,3,0,0,1,1.17.217,2.339,2.339,0,0,1,.873.618,2.776,2.776,0,0,1,.547.978,4.12,4.12,0,0,1,.189,1.3,3.942,3.942,0,0,1-.18,1.2,2.68,2.68,0,0,1-.553.978,2.618,2.618,0,0,1-.937.657,3.371,3.371,0,0,1-1.333.241,3.635,3.635,0,0,1-1.107-.168,2.941,2.941,0,0,1-.943-.5,2.614,2.614,0,0,1-.676-.815,2.7,2.7,0,0,1-.3-1.137H410.1a1.6,1.6,0,0,0,.5,1.044,1.558,1.558,0,0,0,1.061.358,1.451,1.451,0,0,0,.654-.139,1.288,1.288,0,0,0,.463-.391,1.734,1.734,0,0,0,.275-.6,2.994,2.994,0,0,0,.093-.771,2.458,2.458,0,0,0-.1-.736,1.632,1.632,0,0,0-.314-.58,1.467,1.467,0,0,0-.521-.385,1.743,1.743,0,0,0-.718-.139,2.323,2.323,0,0,0-.469.041,1.6,1.6,0,0,0-.354.114,1.364,1.364,0,0,0-.281.175c-.085.067-.17.139-.254.215Z"/><path class="f" d="M416.408,168.352l.5-4.659h4.944v1.358h-3.687l-.234,2.19a3.167,3.167,0,0,1,.59-.248,2.746,2.746,0,0,1,.851-.121,3,3,0,0,1,1.171.217,2.339,2.339,0,0,1,.873.618,2.789,2.789,0,0,1,.546.978,4.119,4.119,0,0,1,.19,1.3,3.912,3.912,0,0,1-.181,1.2,2.68,2.68,0,0,1-.553.978,2.6,2.6,0,0,1-.937.657,3.366,3.366,0,0,1-1.332.241,3.637,3.637,0,0,1-1.108-.168,2.946,2.946,0,0,1-.942-.5,2.6,2.6,0,0,1-.676-.815,2.7,2.7,0,0,1-.3-1.137h1.466a1.6,1.6,0,0,0,.5,1.044,1.558,1.558,0,0,0,1.061.358,1.45,1.45,0,0,0,.653-.139,1.283,1.283,0,0,0,.464-.391,1.752,1.752,0,0,0,.275-.6,3.039,3.039,0,0,0,.092-.771,2.458,2.458,0,0,0-.1-.736,1.63,1.63,0,0,0-.313-.58,1.479,1.479,0,0,0-.521-.385,1.735,1.735,0,0,0-.717-.139,2.34,2.34,0,0,0-.47.041,1.572,1.572,0,0,0-.353.114,1.4,1.4,0,0,0-.282.175c-.085.067-.169.139-.254.215Z"/><path class="f" d="M426.082,172.726a2.977,2.977,0,0,1-.086.691,3.487,3.487,0,0,1-.248.7,3.911,3.911,0,0,1-.387.65,3.493,3.493,0,0,1-.5.55l-.857-.451a3.872,3.872,0,0,0,.565-2.088V171.45h1.517Z"/><path class="f" d="M435.134,172.935h-6.208v-1.047l3.009-3.282q.381-.425.638-.752a4.6,4.6,0,0,0,.41-.6,2.235,2.235,0,0,0,.215-.508,1.784,1.784,0,0,0,.064-.476,1.679,1.679,0,0,0-.1-.587,1.321,1.321,0,0,0-.279-.464,1.244,1.244,0,0,0-.437-.3,1.485,1.485,0,0,0-.574-.107,1.52,1.52,0,0,0-1.215.451,1.829,1.829,0,0,0-.391,1.244h-1.523a2.975,2.975,0,0,1,.219-1.14,2.748,2.748,0,0,1,.629-.937,2.953,2.953,0,0,1,.992-.632,3.546,3.546,0,0,1,1.314-.231,3.491,3.491,0,0,1,1.219.2,2.557,2.557,0,0,1,.9.549,2.319,2.319,0,0,1,.559.834,2.869,2.869,0,0,1,.19,1.061,2.54,2.54,0,0,1-.14.835,3.975,3.975,0,0,1-.388.8,6.517,6.517,0,0,1-.59.8q-.343.4-.742.829l-2.1,2.246h4.323Z"/><path class="f" d="M436.8,168.352l.5-4.659h4.944v1.358h-3.687l-.234,2.19a3.167,3.167,0,0,1,.59-.248,2.746,2.746,0,0,1,.851-.121,3,3,0,0,1,1.171.217,2.339,2.339,0,0,1,.873.618,2.789,2.789,0,0,1,.546.978,4.119,4.119,0,0,1,.19,1.3,3.912,3.912,0,0,1-.181,1.2,2.68,2.68,0,0,1-.553.978,2.6,2.6,0,0,1-.937.657,3.366,3.366,0,0,1-1.332.241,3.637,3.637,0,0,1-1.108-.168,2.946,2.946,0,0,1-.942-.5,2.6,2.6,0,0,1-.676-.815,2.7,2.7,0,0,1-.3-1.137h1.466a1.6,1.6,0,0,0,.5,1.044,1.558,1.558,0,0,0,1.061.358,1.45,1.45,0,0,0,.653-.139,1.283,1.283,0,0,0,.464-.391,1.752,1.752,0,0,0,.275-.6,3.039,3.039,0,0,0,.092-.771,2.458,2.458,0,0,0-.1-.736,1.63,1.63,0,0,0-.313-.58,1.479,1.479,0,0,0-.521-.385,1.735,1.735,0,0,0-.717-.139,2.34,2.34,0,0,0-.47.041,1.572,1.572,0,0,0-.353.114,1.4,1.4,0,0,0-.282.175c-.085.067-.169.139-.254.215Z"/><path class="f" d="M444.293,168.352l.5-4.659h4.945v1.358h-3.688l-.235,2.19a3.238,3.238,0,0,1,.591-.248,2.738,2.738,0,0,1,.851-.121,3,3,0,0,1,1.171.217,2.355,2.355,0,0,1,.873.618,2.774,2.774,0,0,1,.546.978,4.119,4.119,0,0,1,.19,1.3,3.912,3.912,0,0,1-.181,1.2,2.68,2.68,0,0,1-.553.978,2.605,2.605,0,0,1-.936.657,3.376,3.376,0,0,1-1.334.241,3.635,3.635,0,0,1-1.107-.168,2.926,2.926,0,0,1-.942-.5,2.6,2.6,0,0,1-.676-.815,2.7,2.7,0,0,1-.3-1.137h1.467a1.6,1.6,0,0,0,.5,1.044,1.554,1.554,0,0,0,1.06.358,1.448,1.448,0,0,0,.654-.139,1.28,1.28,0,0,0,.463-.391,1.753,1.753,0,0,0,.276-.6,3.038,3.038,0,0,0,.093-.771,2.457,2.457,0,0,0-.105-.736,1.6,1.6,0,0,0-.314-.58,1.463,1.463,0,0,0-.52-.385,1.746,1.746,0,0,0-.718-.139,2.326,2.326,0,0,0-.47.041,1.606,1.606,0,0,0-.353.114,1.371,1.371,0,0,0-.282.175c-.084.067-.17.139-.254.215Z"/><path class="f" d="M453.969,172.726a2.977,2.977,0,0,1-.086.691,3.613,3.613,0,0,1-.248.7,3.911,3.911,0,0,1-.387.65,3.493,3.493,0,0,1-.5.55l-.857-.451a3.883,3.883,0,0,0,.564-2.088V171.45h1.518Z"/><path class="f" d="M463.02,172.935h-6.207v-1.047l3.008-3.282q.381-.425.639-.752a4.678,4.678,0,0,0,.409-.6,2.287,2.287,0,0,0,.216-.508,1.783,1.783,0,0,0,.063-.476,1.679,1.679,0,0,0-.1-.587,1.336,1.336,0,0,0-.279-.464,1.262,1.262,0,0,0-.437-.3,1.485,1.485,0,0,0-.574-.107,1.522,1.522,0,0,0-1.216.451,1.834,1.834,0,0,0-.391,1.244h-1.523a2.994,2.994,0,0,1,.219-1.14,2.748,2.748,0,0,1,.629-.937,2.967,2.967,0,0,1,.993-.632,3.539,3.539,0,0,1,1.314-.231,3.491,3.491,0,0,1,1.219.2,2.553,2.553,0,0,1,.9.549,2.307,2.307,0,0,1,.559.834,2.869,2.869,0,0,1,.191,1.061,2.515,2.515,0,0,1-.141.835,4.023,4.023,0,0,1-.387.8,6.62,6.62,0,0,1-.59.8q-.343.4-.743.829l-2.095,2.246h4.322Z"/><path class="f" d="M464.69,168.352l.5-4.659h4.945v1.358h-3.687l-.235,2.19a3.18,3.18,0,0,1,.591-.248,2.735,2.735,0,0,1,.85-.121,3.009,3.009,0,0,1,1.172.217,2.355,2.355,0,0,1,.873.618,2.788,2.788,0,0,1,.545.978,4.118,4.118,0,0,1,.191,1.3,3.883,3.883,0,0,1-.182,1.2,2.68,2.68,0,0,1-.553.978,2.589,2.589,0,0,1-.936.657,3.371,3.371,0,0,1-1.333.241,3.637,3.637,0,0,1-1.108-.168,2.931,2.931,0,0,1-.941-.5,2.588,2.588,0,0,1-.676-.815,2.7,2.7,0,0,1-.3-1.137h1.467a1.592,1.592,0,0,0,.5,1.044,1.554,1.554,0,0,0,1.06.358,1.447,1.447,0,0,0,.653-.139,1.275,1.275,0,0,0,.464-.391,1.771,1.771,0,0,0,.276-.6,3.083,3.083,0,0,0,.092-.771,2.457,2.457,0,0,0-.105-.736,1.6,1.6,0,0,0-.313-.58,1.475,1.475,0,0,0-.521-.385,1.738,1.738,0,0,0-.717-.139,2.343,2.343,0,0,0-.471.041,1.58,1.58,0,0,0-.352.114,1.405,1.405,0,0,0-.283.175c-.084.067-.169.139-.254.215Z"/><path class="f" d="M472.18,168.352l.5-4.659h4.944v1.358h-3.688l-.234,2.19a3.225,3.225,0,0,1,.59-.248,2.748,2.748,0,0,1,.852-.121,3,3,0,0,1,1.17.217,2.339,2.339,0,0,1,.873.618,2.776,2.776,0,0,1,.547.978,4.12,4.12,0,0,1,.189,1.3,3.942,3.942,0,0,1-.18,1.2,2.68,2.68,0,0,1-.553.978,2.618,2.618,0,0,1-.937.657,3.371,3.371,0,0,1-1.333.241,3.635,3.635,0,0,1-1.107-.168,2.941,2.941,0,0,1-.943-.5,2.614,2.614,0,0,1-.676-.815,2.7,2.7,0,0,1-.3-1.137h1.466a1.6,1.6,0,0,0,.5,1.044,1.558,1.558,0,0,0,1.061.358,1.451,1.451,0,0,0,.654-.139,1.288,1.288,0,0,0,.463-.391,1.734,1.734,0,0,0,.275-.6,2.994,2.994,0,0,0,.093-.771,2.458,2.458,0,0,0-.1-.736,1.632,1.632,0,0,0-.314-.58,1.467,1.467,0,0,0-.521-.385,1.743,1.743,0,0,0-.718-.139,2.323,2.323,0,0,0-.469.041,1.6,1.6,0,0,0-.354.114,1.364,1.364,0,0,0-.281.175c-.085.067-.17.139-.254.215Z"/><path class="f" d="M483.186,169.279a9.419,9.419,0,0,1-.146,1.7,9.013,9.013,0,0,1-.393,1.473,7.838,7.838,0,0,1-.572,1.235,7.2,7.2,0,0,1-.682.99,5.6,5.6,0,0,1-.724.732,3.629,3.629,0,0,1-.688.461l-.3-.852a4.03,4.03,0,0,0,.724-.755,5.468,5.468,0,0,0,.667-1.19,8.734,8.734,0,0,0,.488-1.65,10.835,10.835,0,0,0,.19-2.136v-.127a10.3,10.3,0,0,0-.2-2.136,8.877,8.877,0,0,0-.5-1.654,5.726,5.726,0,0,0-.67-1.193,4.519,4.519,0,0,0-.7-.755l.3-.851a4.009,4.009,0,0,1,.688.463,5.4,5.4,0,0,1,.724.73,7.121,7.121,0,0,1,.682.993,7.909,7.909,0,0,1,.572,1.241,9.13,9.13,0,0,1,.393,1.476,9.392,9.392,0,0,1,.146,1.7Z"/></svg>