<svg xmlns="http://www.w3.org/2000/svg" width="520" height="240" viewBox="0 0 520 240"><defs><style>.a{fill:#00adee;}.b{fill:#0098f3;}.c{fill:#26b910;}.d{fill:#ff8300;}.e{fill:#d4d6da;}.f{font-size:13px;fill:#fff;font-family:RobotoMono-Medium, Roboto Mono;}.g{letter-spacing:-0.034em;}.h{letter-spacing:-0.04em;}.i{letter-spacing:-0.027em;}.j{letter-spacing:-0.024em;}.k{letter-spacing:-0.007em;}.l{letter-spacing:-0.018em;}.m{letter-spacing:-0.009em;}.n{letter-spacing:-0.031em;}.o{letter-spacing:-0.029em;}.p{letter-spacing:-0.032em;}.q{letter-spacing:-0.003em;}.r{letter-spacing:-0.004em;}.s{letter-spacing:0.021em;}.t{letter-spacing:-0.013em;}.u{letter-spacing:0.002em;}.v{letter-spacing:-0.012em;}.w{letter-spacing:-0.023em;}.x{letter-spacing:-0.007em;}.y{letter-spacing:-0.004em;}.z{letter-spacing:-0.003em;}.aa{letter-spacing:-0.016em;}.ab{fill:#354052;}.ac{letter-spacing:-0.056em;}.ad{letter-spacing:-0.038em;}.ae{letter-spacing:-0.01em;}.af{letter-spacing:0.001em;}.ag{letter-spacing:-0.025em;}.ah{letter-spacing:-0.019em;}.ai{letter-spacing:-0.005em;}.aj{letter-spacing:-0.015em;}.ak{letter-spacing:-0.003em;}.al{letter-spacing:-0.026em;}.am{letter-spacing:-0.027em;}.an{letter-spacing:-0.022em;}.ao{letter-spacing:-0.018em;}.ap{letter-spacing:0.011em;}.aq{letter-spacing:-0.04em;}.ar{letter-spacing:-0.028em;}.as{letter-spacing:-0.043em;}.at{letter-spacing:-0.079em;}.au{letter-spacing:-0.012em;}.av{letter-spacing:-0.011em;}.aw{letter-spacing:-0.032em;}.ax{letter-spacing:-0.023em;}.ay{letter-spacing:-0.016em;}.az{letter-spacing:-0.034em;}.ba{letter-spacing:-0.021em;}.bb{letter-spacing:-0.006em;}.bc{letter-spacing:-0.005em;}.bd{letter-spacing:-0.001em;}.be{letter-spacing:-0.06em;}.bf{letter-spacing:-0.126em;}.bg{letter-spacing:-0.102em;}.bh{letter-spacing:-0.202em;}.bi{letter-spacing:-0.082em;}.bj{letter-spacing:-0.092em;}.bk{letter-spacing:-0.092em;}.bl{letter-spacing:-0.1em;}.bm{letter-spacing:-0.022em;}.bn{letter-spacing:-0.033em;}.bo{letter-spacing:-0.134em;}.bp{letter-spacing:-0.093em;}.bq{letter-spacing:-0.027em;}.br{letter-spacing:-0.095em;}.bs{letter-spacing:-0.129em;}.bt{letter-spacing:-0.115em;}.bu{letter-spacing:-0.092em;}.bv{letter-spacing:-0.201em;}.bw{letter-spacing:-0.087em;}.bx{letter-spacing:-0.093em;}.by{letter-spacing:-0.082em;}.bz{letter-spacing:-0.128em;}.ca{letter-spacing:-0.113em;}.cb{letter-spacing:-0.038em;}.cc{letter-spacing:-0.093em;}.cd{letter-spacing:-0.083em;}.ce{letter-spacing:-0.049em;}.cf{letter-spacing:-0.146em;}.cg{letter-spacing:-0.128em;}.ch{letter-spacing:-0.121em;}.ci{letter-spacing:-0.051em;}.cj{letter-spacing:-0.083em;}.ck{letter-spacing:-0.104em;}.cl{letter-spacing:-0.09em;}</style></defs><title>colors_03</title><rect class="a" width="520" height="48"/><rect class="b" y="48" width="520" height="48"/><rect class="c" y="96" width="520" height="48"/><rect class="d" y="144" width="520" height="48"/><rect class="e" y="192" width="520" height="48"/><text class="f" transform="translate(24 28.936)"><tspan class="g">N</tspan><tspan class="h" x="7.366" y="0">I</tspan><tspan class="i" x="14.653" y="0">E</tspan><tspan class="j" x="22.097" y="0">L</tspan><tspan class="k" x="29.586" y="0">S</tspan><tspan class="l" x="37.292" y="0">E</tspan><tspan x="44.865" y="0">N </tspan><tspan class="m" x="60.468" y="0">B</tspan><tspan class="n" x="68.153" y="0">L</tspan><tspan class="k" x="75.552" y="0">U</tspan><tspan x="83.257" y="0">E</tspan><tspan class="o" x="0" y="48">L</tspan><tspan class="p" x="7.418" y="48">I</tspan><tspan class="q" x="14.81" y="48">N</tspan><tspan class="j" x="22.573" y="48">K</tspan><tspan x="30.063" y="48">S &amp; </tspan><tspan class="r" x="61.268" y="48">B</tspan><tspan x="69.012" y="48">U</tspan><tspan class="s" x="76.813" y="48">T</tspan><tspan class="t" x="84.882" y="48">T</tspan><tspan class="u" x="92.508" y="48">O</tspan><tspan class="v" x="100.339" y="48">N</tspan><tspan x="107.985" y="48">S</tspan><tspan class="r" x="0" y="96">B</tspan><tspan x="7.744" y="96">U</tspan><tspan class="s" x="15.545" y="96">T</tspan><tspan class="t" x="23.614" y="96">T</tspan><tspan class="u" x="31.24" y="96">O</tspan><tspan class="v" x="39.071" y="96">N</tspan><tspan x="46.718" y="96">S</tspan><tspan class="w" x="0" y="144">E</tspan><tspan class="x" x="7.502" y="144">R</tspan><tspan class="y" x="15.212" y="144">R</tspan><tspan class="z" x="22.962" y="144">O</tspan><tspan class="aa" x="30.722" y="144">R</tspan><tspan x="38.321" y="144">S</tspan><tspan class="ab"><tspan class="ac" x="0" y="192">D</tspan><tspan class="ad" x="7.072" y="192">I</tspan><tspan class="ae" x="14.373" y="192">S</tspan><tspan class="af" x="22.05" y="192">A</tspan><tspan class="m" x="29.865" y="192">B</tspan><tspan class="ag" x="37.55" y="192">L</tspan><tspan class="ah" x="45.027" y="192">E</tspan><tspan x="52.581" y="192">D </tspan><tspan class="r" x="68.184" y="192">B</tspan><tspan x="75.928" y="192">U</tspan><tspan class="s" x="83.729" y="192">T</tspan><tspan class="t" x="91.798" y="192">T</tspan><tspan class="u" x="99.424" y="192">O</tspan><tspan class="v" x="107.255" y="192">N</tspan><tspan x="114.901" y="192">S</tspan></tspan></text><text class="f" transform="translate(257 28.936)"><tspan class="ai">#</tspan><tspan class="aj" x="7.73" y="0">0</tspan><tspan class="n" x="15.34" y="0">0</tspan><tspan class="ak" x="22.738" y="0">A</tspan><tspan class="al" x="30.507" y="0">E</tspan><tspan class="am" x="37.977" y="0">E</tspan><tspan x="45.427" y="0">F</tspan><tspan class="ai" x="0" y="48">#</tspan><tspan class="aj" x="7.73" y="48">0</tspan><tspan class="ah" x="15.34" y="48">0</tspan><tspan class="ad" x="22.894" y="48">9</tspan><tspan class="an" x="30.195" y="48">8</tspan><tspan class="ao" x="37.711" y="48">F</tspan><tspan x="45.272" y="48">3</tspan><tspan class="ap" x="0" y="96">#</tspan><tspan class="aq" x="7.938" y="96">2</tspan><tspan class="ar" x="15.219" y="96">6</tspan><tspan class="t" x="22.656" y="96">B</tspan><tspan class="as" x="30.282" y="96">9</tspan><tspan class="at" x="37.531" y="96">1</tspan><tspan x="44.311" y="96">0</tspan><tspan class="au" x="0" y="144">#</tspan><tspan class="al" x="7.646" y="144">F</tspan><tspan class="g" x="15.115" y="144">F</tspan><tspan class="av" x="22.481" y="144">8</tspan><tspan class="aw" x="30.133" y="144">3</tspan><tspan class="aj" x="37.518" y="144">0</tspan><tspan x="45.128" y="144">0</tspan><tspan class="ab"><tspan class="y" x="0" y="192">#</tspan><tspan class="ax" x="7.75" y="192">D</tspan><tspan class="ay" x="15.258" y="192">5</tspan><tspan class="az" x="22.851" y="192">D</tspan><tspan class="ba" x="30.216" y="192">7</tspan><tspan class="bb" x="37.744" y="192">D</tspan><tspan x="45.469" y="192">B</tspan></tspan></text><text class="f" transform="translate(366 28.936)"><tspan class="bc">R</tspan><tspan class="bd" x="7.743" y="0">G</tspan><tspan class="be" x="15.531" y="0">B</tspan><tspan class="bf" x="22.551" y="0">(</tspan><tspan class="bg" x="28.712" y="0">0</tspan><tspan class="bh" x="35.191" y="0">,</tspan><tspan class="bi" x="40.373" y="0">1</tspan><tspan class="bj" x="47.113" y="0">7</tspan><tspan class="bk" x="53.724" y="0">4</tspan><tspan class="bl" x="60.328" y="0">,</tspan><tspan class="bm" x="66.828" y="0">2</tspan><tspan class="bn" x="74.336" y="0">3</tspan><tspan class="bo" x="81.708" y="0">9</tspan><tspan x="87.771" y="0">)</tspan><tspan class="bc" x="0" y="48">R</tspan><tspan class="bd" x="7.743" y="48">G</tspan><tspan class="be" x="15.531" y="48">B</tspan><tspan class="bf" x="22.551" y="48">(</tspan><tspan class="bg" x="28.712" y="48">0</tspan><tspan class="bh" x="35.191" y="48">,</tspan><tspan class="bp" x="40.373" y="48">1</tspan><tspan class="bq" x="46.97" y="48">5</tspan><tspan class="br" x="54.42" y="48">2</tspan><tspan class="bl" x="60.989" y="48">,</tspan><tspan class="p" x="67.489" y="48">2</tspan><tspan class="y" x="74.881" y="48">4</tspan><tspan class="bs" x="82.63" y="48">3</tspan><tspan x="88.752" y="48">)</tspan><tspan class="bc" x="0" y="96">R</tspan><tspan class="bd" x="7.743" y="96">G</tspan><tspan class="be" x="15.531" y="96">B</tspan><tspan class="bt" x="22.551" y="96">(</tspan><tspan class="aw" x="28.854" y="96">3</tspan><tspan class="bu" x="36.24" y="96">8</tspan><tspan class="bv" x="42.848" y="96">,</tspan><tspan class="bw" x="48.03" y="96">1</tspan><tspan class="ag" x="54.7" y="96">8</tspan><tspan class="bx" x="62.176" y="96">5</tspan><tspan class="bv" x="68.766" y="96">,</tspan><tspan class="by" x="73.948" y="96">1</tspan><tspan class="bz" x="80.683" y="96">6</tspan><tspan x="86.824" y="96">)</tspan><tspan class="bc" x="0" y="144">R</tspan><tspan class="bd" x="7.743" y="144">G</tspan><tspan class="be" x="15.531" y="144">B</tspan><tspan class="ca" x="22.551" y="144">(</tspan><tspan class="cb" x="28.887" y="144">2</tspan><tspan class="j" x="36.194" y="144">5</tspan><tspan class="cc" x="43.684" y="144">5</tspan><tspan class="bh" x="50.273" y="144">,</tspan><tspan class="cd" x="55.455" y="144">1</tspan><tspan class="ce" x="62.176" y="144">3</tspan><tspan class="cf" x="69.34" y="144">1</tspan><tspan class="cg" x="75.241" y="144">,</tspan><tspan class="ch" x="81.376" y="144">0</tspan><tspan x="87.608" y="144">)</tspan><tspan class="ab"><tspan class="bc" x="0" y="192">R</tspan><tspan class="bd" x="7.743" y="192">G</tspan><tspan class="be" x="15.531" y="192">B</tspan><tspan class="ca" x="22.551" y="192">(</tspan><tspan class="ci" x="28.887" y="192">2</tspan><tspan class="cj" x="36.019" y="192">1</tspan><tspan class="ck" x="42.74" y="192">3</tspan><tspan class="bl" x="49.193" y="192">,</tspan><tspan class="ci" x="55.693" y="192">2</tspan><tspan class="bp" x="62.825" y="192">1</tspan><tspan class="bx" x="69.422" y="192">5</tspan><tspan class="bl" x="76.012" y="192">,</tspan><tspan class="ci" x="82.512" y="192">2</tspan><tspan class="cl" x="89.644" y="192">1</tspan><tspan class="bo" x="96.28" y="192">9</tspan><tspan x="102.343" y="192">)</tspan></tspan></text></svg>