<svg xmlns="http://www.w3.org/2000/svg" width="708" height="624" viewBox="0 0 708 624"><defs><style>.a,.w{fill:#354052;}.b{fill:#151921;}.c{fill:#989ea7;}.d{fill:#bbb;}.e{fill:#ddd;}.f{fill:#eee;}.g{fill:#fff;}.h{fill:#009dd9;}.i{fill:#0098f3;}.j{fill:#26b910;}.k{fill:#ff8300;}.l{font-size:13px;fill:#00aeef;font-family:RobotoMono-Medium, Roboto Mono;}.m{letter-spacing:-0.004em;}.n{letter-spacing:0.018em;}.o{letter-spacing:0.006em;}.p{letter-spacing:0em;}.q{letter-spacing:-0.012em;}.r{letter-spacing:-0.011em;}.s{letter-spacing:-0.012em;}.t{letter-spacing:-0.009em;}.u{letter-spacing:-0.025em;}.v{letter-spacing:-0.024em;}.w{font-family:RobotoMono-Regular, Roboto Mono;}.x{letter-spacing:0.008em;}.y{letter-spacing:-0.046em;}.z{letter-spacing:0.002em;}.aa{letter-spacing:-0.009em;}.ab{letter-spacing:-0.031em;}.ac{letter-spacing:-0.024em;}.ad{letter-spacing:-0.034em;}.ae{letter-spacing:-0.054em;}.af{letter-spacing:-0.121em;}.ag{letter-spacing:-0.002em;}.ah{letter-spacing:-0.104em;}.ai{letter-spacing:-0.131em;}.aj{letter-spacing:-0.007em;}.ak{letter-spacing:-0.086em;}.al{letter-spacing:-0.129em;}.am{letter-spacing:-0.008em;}.an{letter-spacing:-0.124em;}.ao{letter-spacing:-0.011em;}.ap{letter-spacing:-0.014em;}.aq{letter-spacing:-0.033em;}.ar{letter-spacing:0.003em;}.as{letter-spacing:-0.007em;}.at{letter-spacing:0.001em;}.au{letter-spacing:0.022em;}.av{letter-spacing:-0.016em;}.aw{letter-spacing:-0.102em;}.ax{letter-spacing:-0.044em;}.ay{letter-spacing:-0.096em;}.az{letter-spacing:-0.011em;}.ba{letter-spacing:-0.055em;}.bb{letter-spacing:-0.113em;}.bc{letter-spacing:-0.146em;}.bd{letter-spacing:-0.107em;}.be{letter-spacing:-0.049em;}.bf{letter-spacing:-0.086em;}.bg{letter-spacing:-0.109em;}.bh{letter-spacing:-0.023em;}.bi{letter-spacing:-0.138em;}.bj{letter-spacing:-0.007em;}.bk{letter-spacing:-0.032em;}.bl{letter-spacing:-0.004em;}.bm{letter-spacing:0.002em;}.bn{letter-spacing:-0.029em;}.bo{letter-spacing:-0.025em;}.bp{letter-spacing:-0.007em;}.bq{letter-spacing:0em;}.br{letter-spacing:0.003em;}.bs{letter-spacing:-0.041em;}.bt{letter-spacing:-0.023em;}.bu{letter-spacing:-0.006em;}.bv{letter-spacing:-0.036em;}.bw{letter-spacing:-0.132em;}.bx{letter-spacing:-0.102em;}.by{letter-spacing:-0.095em;}.bz{letter-spacing:-0.213em;}.ca{letter-spacing:-0.022em;}.cb{letter-spacing:-0.083em;}.cc{letter-spacing:-0.085em;}.cd{letter-spacing:-0.067em;}.ce{letter-spacing:-0.073em;}.cf{letter-spacing:-0.056em;}.cg{letter-spacing:-0.013em;}.ch{letter-spacing:-0.033em;}.ci{letter-spacing:-0.009em;}.cj{letter-spacing:-0.003em;}.ck{letter-spacing:-0.011em;}.cl{letter-spacing:-0.096em;}.cm{letter-spacing:-0.026em;}.cn{letter-spacing:-0.191em;}.co{letter-spacing:-0.213em;}.cp{letter-spacing:-0.096em;}.cq{letter-spacing:-0.073em;}.cr{letter-spacing:-0.009em;}.cs{letter-spacing:-0.023em;}.ct{letter-spacing:0.001em;}.cu{letter-spacing:-0.001em;}.cv{letter-spacing:-0.016em;}.cw{letter-spacing:-0.107em;}.cx{letter-spacing:-0.152em;}.cy{letter-spacing:-0.056em;}.cz{letter-spacing:-0.021em;}.da{letter-spacing:-0.005em;}.db{letter-spacing:-0.019em;}.dc{letter-spacing:-0.034em;}.dd{letter-spacing:-0.002em;}.de{letter-spacing:-0.001em;}.df{letter-spacing:0.001em;}.dg{letter-spacing:-0.005em;}.dh{letter-spacing:-0.03em;}.di{letter-spacing:-0.044em;}.dj{letter-spacing:-0.083em;}.dk{letter-spacing:-0.12em;}.dl{letter-spacing:-0.002em;}.dm{letter-spacing:-0.017em;}.dn{letter-spacing:-0.03em;}.do{letter-spacing:-0.049em;}.dp{letter-spacing:-0.025em;}.dq{letter-spacing:-0.082em;}.dr{letter-spacing:-0.04em;}.ds{letter-spacing:-0.027em;}.dt{letter-spacing:-0.018em;}.du{letter-spacing:-0.009em;}.dv{letter-spacing:0.003em;}.dw{letter-spacing:-0.009em;}.dx{letter-spacing:-0.017em;}.dy{letter-spacing:-0.001em;}.dz{letter-spacing:-0.01em;}.ea{letter-spacing:-0.126em;}.eb{letter-spacing:-0.095em;}.ec{letter-spacing:-0.017em;}.ed{letter-spacing:-0.087em;}.ee{letter-spacing:-0.029em;}.ef{letter-spacing:-0.003em;}.eg{letter-spacing:0.021em;}.eh{letter-spacing:-0.013em;}.ei{letter-spacing:-0.012em;}.ej{letter-spacing:-0.018em;}.ek{letter-spacing:-0.043em;}.el{letter-spacing:0.004em;}.em{letter-spacing:0.018em;}.en{letter-spacing:-0.047em;}.eo{letter-spacing:-0.022em;}.ep{letter-spacing:-0.079em;}.eq{letter-spacing:-0.115em;}.er{letter-spacing:-0.086em;}.es{letter-spacing:-0.003em;}.et{letter-spacing:-0.016em;}.eu{letter-spacing:-0.046em;}.ev{letter-spacing:-0.035em;}.ew{letter-spacing:-0.009em;}.ex{letter-spacing:-0.083em;}.ey{letter-spacing:-0.057em;}.ez{letter-spacing:-0.129em;}.fa{letter-spacing:-0.119em;}.fb{fill:none;}</style></defs><title>color_01</title><path class="a" d="M220,59a48,48,0,1,1-48-48A48.141,48.141,0,0,1,220,59Z"/><path class="b" d="M402,59a48,48,0,1,1-48-48A48.141,48.141,0,0,1,402,59Z"/><path class="c" d="M584,59a48,48,0,1,1-48-48A48.141,48.141,0,0,1,584,59Z"/><path class="d" d="M128,281a48,48,0,1,1-48-48A48.141,48.141,0,0,1,128,281Z"/><path class="e" d="M311,281a48,48,0,1,1-48-48A48.141,48.141,0,0,1,311,281Z"/><path class="f" d="M493,281a48,48,0,1,1-48-48A48.141,48.141,0,0,1,493,281Z"/><path class="g" d="M627,328.5A47.5,47.5,0,1,1,674.5,281,47.554,47.554,0,0,1,627,328.5Z"/><path class="e" d="M627,234a47,47,0,1,1-47,47,47.053,47.053,0,0,1,47-47m0-1a48,48,0,1,0,48,48,48.141,48.141,0,0,0-48-48Z"/><path class="h" d="M128,502a48,48,0,1,1-48-48A48.141,48.141,0,0,1,128,502Z"/><path class="i" d="M311,502a48,48,0,1,1-48-48A48.141,48.141,0,0,1,311,502Z"/><path class="j" d="M493,502a48,48,0,1,1-48-48A48.141,48.141,0,0,1,493,502Z"/><path class="k" d="M675,502a48,48,0,1,1-48-48A48.141,48.141,0,0,1,675,502Z"/><text class="l" transform="translate(102.281 136.75)"><tspan class="m">B</tspan><tspan class="n" x="7.744" y="0">R</tspan><tspan class="o" x="15.774" y="0">A</tspan><tspan class="p" x="23.647" y="0">N</tspan><tspan x="31.443" y="0">D </tspan><tspan class="q" x="47.045" y="0">B</tspan><tspan x="54.691" y="0">AR &amp; </tspan><tspan class="r" x="93.697" y="0">T</tspan><tspan class="s" x="101.349" y="0">I</tspan><tspan class="t" x="108.994" y="0">T</tspan><tspan class="u" x="116.678" y="0">L</tspan><tspan class="v" x="124.155" y="0">E</tspan><tspan x="131.638" y="0">S</tspan><tspan class="w"><tspan class="x" x="43.059" y="19">#</tspan><tspan class="y" x="50.971" y="19">3</tspan><tspan class="z" x="58.173" y="19">5</tspan><tspan class="aa" x="66.006" y="19">4</tspan><tspan class="ab" x="73.691" y="19">0</tspan><tspan class="ac" x="81.089" y="19">5</tspan><tspan x="88.579" y="19">2</tspan><tspan class="ad" x="24.217" y="38">r</tspan><tspan x="31.578" y="38">g</tspan><tspan class="ae" x="39.379" y="38">b</tspan><tspan class="af" x="46.481" y="38">(</tspan><tspan class="ag" x="52.707" y="38">5</tspan><tspan class="ah" x="60.476" y="38">3</tspan><tspan class="ai" x="66.927" y="38">,</tspan><tspan class="aj" x="73.029" y="38">6</tspan><tspan class="ak" x="80.733" y="38">4</tspan><tspan class="al" x="87.415" y="38">,</tspan><tspan class="am" x="93.536" y="38">8</tspan><tspan class="an" x="101.233" y="38">2</tspan><tspan x="107.419" y="38">)</tspan></tspan></text><text class="l" transform="translate(307.604 136.75)"><tspan class="ao">P</tspan><tspan class="ap" x="7.665" y="0">R</tspan><tspan class="aq" x="15.284" y="0">I</tspan><tspan class="ar" x="22.663" y="0">M</tspan><tspan x="30.503" y="0">A</tspan><tspan class="u" x="38.304" y="0">R</tspan><tspan x="45.781" y="0">Y </tspan><tspan class="as" x="61.383" y="0">T</tspan><tspan class="at" x="69.093" y="0">E</tspan><tspan class="au" x="76.901" y="0">X</tspan><tspan x="84.99" y="0">T</tspan><tspan class="w"><tspan class="av" x="21.2" y="19">#</tspan><tspan class="aw" x="28.787" y="19">1</tspan><tspan class="ax" x="35.266" y="19">5</tspan><tspan class="ay" x="42.495" y="19">1</tspan><tspan class="az" x="49.047" y="19">9</tspan><tspan class="ba" x="56.705" y="19">2</tspan><tspan x="63.79" y="19">1</tspan><tspan class="ad" x="1.623" y="38">r</tspan><tspan x="8.983" y="38">g</tspan><tspan class="ae" x="16.785" y="38">b</tspan><tspan class="bb" x="23.887" y="38">(</tspan><tspan class="ba" x="30.216" y="38">2</tspan><tspan class="bc" x="37.301" y="38">1</tspan><tspan class="bd" x="43.202" y="38">,</tspan><tspan class="be" x="49.615" y="38">2</tspan><tspan class="bf" x="56.779" y="38">5</tspan><tspan class="bg" x="63.466" y="38">,</tspan><tspan class="bh" x="69.853" y="38">3</tspan><tspan class="bi" x="77.355" y="38">3</tspan><tspan x="83.367" y="38">)</tspan></tspan></text><text class="l" transform="translate(481.908 136.75)"><tspan class="bj">S</tspan><tspan class="bk" x="7.705" y="0">E</tspan><tspan class="bl" x="15.097" y="0">C</tspan><tspan class="bm" x="22.846" y="0">O</tspan><tspan class="p" x="30.677" y="0">N</tspan><tspan class="bn" x="38.473" y="0">D</tspan><tspan x="45.896" y="0">A</tspan><tspan class="bo" x="53.698" y="0">R</tspan><tspan x="61.174" y="0">Y </tspan><tspan class="bp" x="76.776" y="0">T</tspan><tspan class="bq" x="84.487" y="0">E</tspan><tspan class="au" x="92.294" y="0">X</tspan><tspan x="100.383" y="0">T</tspan><tspan class="w"><tspan class="br" x="27.612" y="19">#</tspan><tspan class="bs" x="35.446" y="19">9</tspan><tspan class="ac" x="42.72" y="19">8</tspan><tspan class="bt" x="50.209" y="19">9</tspan><tspan class="bu" x="57.709" y="19">E</tspan><tspan class="bv" x="65.439" y="19">A</tspan><tspan x="72.771" y="19">7</tspan><tspan class="ad" x="0.127" y="38">r</tspan><tspan x="7.488" y="38">g</tspan><tspan class="ae" x="15.289" y="38">b</tspan><tspan class="bw" x="22.391" y="38">(</tspan><tspan class="bx" x="28.474" y="38">1</tspan><tspan class="ac" x="34.953" y="38">5</tspan><tspan class="by" x="42.442" y="38">2</tspan><tspan class="bz" x="49.007" y="38">,</tspan><tspan class="aw" x="54.036" y="38">1</tspan><tspan class="ca" x="60.515" y="38">5</tspan><tspan class="cb" x="68.023" y="38">8</tspan><tspan class="bz" x="74.749" y="38">,</tspan><tspan class="cc" x="79.777" y="38">1</tspan><tspan class="cd" x="86.476" y="38">6</tspan><tspan class="ce" x="93.405" y="38">7</tspan><tspan x="100.255" y="38">)</tspan></tspan></text><text class="l" transform="translate(22.95 358.75)"><tspan class="ao">P</tspan><tspan class="ap" x="7.665" y="0">R</tspan><tspan class="aq" x="15.284" y="0">I</tspan><tspan class="ar" x="22.663" y="0">M</tspan><tspan x="30.503" y="0">A</tspan><tspan class="u" x="38.304" y="0">R</tspan><tspan x="45.781" y="0">Y </tspan><tspan class="cf" x="61.383" y="0">D</tspan><tspan class="r" x="68.455" y="0">I</tspan><tspan class="cg" x="76.107" y="0">V</tspan><tspan class="ch" x="83.746" y="0">I</tspan><tspan class="ci" x="91.118" y="0">D</tspan><tspan class="bh" x="98.797" y="0">E</tspan><tspan x="106.299" y="0">R</tspan><tspan class="w"><tspan class="cj" x="30.126" y="19">#</tspan><tspan class="ck" x="37.888" y="19">BBBBB</tspan><tspan x="76.173" y="19">B</tspan><tspan class="ad" x="4.163" y="38">r</tspan><tspan x="11.523" y="38">g</tspan><tspan class="ae" x="19.325" y="38">b</tspan><tspan class="bw" x="26.427" y="38">(</tspan><tspan class="cl" x="32.509" y="38">1</tspan><tspan class="cm" x="39.068" y="38">8</tspan><tspan class="cn" x="46.538" y="38">7</tspan><tspan class="bz" x="51.854" y="38">,</tspan><tspan class="cl" x="56.883" y="38">1</tspan><tspan class="cm" x="63.441" y="38">8</tspan><tspan class="cn" x="70.911" y="38">7</tspan><tspan class="co" x="76.228" y="38">,</tspan><tspan class="cp" x="81.257" y="38">1</tspan><tspan class="cm" x="87.815" y="38">8</tspan><tspan class="cq" x="95.285" y="38">7</tspan><tspan x="102.136" y="38">)</tspan></tspan></text><text class="l" transform="translate(198.253 358.75)"><tspan class="bj">S</tspan><tspan class="bk" x="7.705" y="0">E</tspan><tspan class="bl" x="15.097" y="0">C</tspan><tspan class="bm" x="22.846" y="0">O</tspan><tspan class="p" x="30.677" y="0">N</tspan><tspan class="bn" x="38.473" y="0">D</tspan><tspan x="45.896" y="0">A</tspan><tspan class="bo" x="53.698" y="0">R</tspan><tspan x="61.174" y="0">Y </tspan><tspan class="cf" x="76.776" y="0">D</tspan><tspan class="r" x="83.848" y="0">I</tspan><tspan class="cg" x="91.5" y="0">V</tspan><tspan class="ch" x="99.139" y="0">I</tspan><tspan class="cr" x="106.511" y="0">D</tspan><tspan class="cs" x="114.19" y="0">E</tspan><tspan x="121.692" y="0">R</tspan><tspan class="w"><tspan class="ct" x="37.481" y="19">#</tspan><tspan class="cu" x="45.296" y="19">DDDDD</tspan><tspan x="84.211" y="19">D</tspan><tspan class="ad" x="9.308" y="38">r</tspan><tspan x="16.668" y="38">g</tspan><tspan class="ae" x="24.469" y="38">b</tspan><tspan class="bb" x="31.571" y="38">(</tspan><tspan class="cv" x="37.901" y="38">2</tspan><tspan class="ba" x="45.494" y="38">2</tspan><tspan class="bc" x="52.579" y="38">1</tspan><tspan class="bd" x="58.48" y="38">,</tspan><tspan class="cv" x="64.893" y="38">2</tspan><tspan class="ba" x="72.486" y="38">2</tspan><tspan class="bc" x="79.571" y="38">1</tspan><tspan class="cw" x="85.472" y="38">,</tspan><tspan class="cv" x="91.885" y="38">2</tspan><tspan class="ba" x="99.478" y="38">2</tspan><tspan class="cx" x="106.563" y="38">1</tspan><tspan x="112.385" y="38">)</tspan></tspan></text><text class="l" transform="translate(387.55 358.75)"><tspan class="cy">P</tspan><tspan class="cz" x="7.073" y="0">A</tspan><tspan class="da" x="14.608" y="0">G</tspan><tspan x="22.351" y="0">E </tspan><tspan class="q" x="37.953" y="0">B</tspan><tspan class="db" x="45.599" y="0">A</tspan><tspan class="az" x="53.153" y="0">C</tspan><tspan class="dc" x="60.811" y="0">K</tspan><tspan class="dd" x="68.177" y="0">G</tspan><tspan class="bl" x="75.952" y="0">R</tspan><tspan class="de" x="83.702" y="0">O</tspan><tspan class="df" x="91.494" y="0">U</tspan><tspan class="p" x="99.303" y="0">N</tspan><tspan x="107.099" y="0">D</tspan><tspan class="w"><tspan class="dg" x="31.157" y="19">#</tspan><tspan class="dh" x="38.887" y="19">EEEEE</tspan><tspan x="75.943" y="19">E</tspan><tspan class="ad" x="0.907" y="38">r</tspan><tspan x="8.267" y="38">g</tspan><tspan class="ae" x="16.068" y="38">b</tspan><tspan class="bb" x="23.17" y="38">(</tspan><tspan class="ac" x="29.5" y="38">2</tspan><tspan class="di" x="36.989" y="38">3</tspan><tspan class="cb" x="44.224" y="38">8</tspan><tspan class="cw" x="50.949" y="38">,</tspan><tspan class="ac" x="57.362" y="38">2</tspan><tspan class="di" x="64.851" y="38">3</tspan><tspan class="dj" x="72.085" y="38">8</tspan><tspan class="cw" x="78.81" y="38">,</tspan><tspan class="ac" x="85.223" y="38">2</tspan><tspan class="di" x="92.712" y="38">3</tspan><tspan class="dk" x="99.947" y="38">8</tspan><tspan x="106.192" y="38">)</tspan></tspan></text><text class="l" transform="translate(557.511 358.347)"><tspan class="bl">C</tspan><tspan class="bm" x="7.75" y="0">O</tspan><tspan class="dl" x="15.581" y="0">N</tspan><tspan class="as" x="23.362" y="0">T</tspan><tspan class="dm" x="31.072" y="0">E</tspan><tspan class="dl" x="38.646" y="0">N</tspan><tspan x="46.428" y="0">T </tspan><tspan class="s" x="62.031" y="0">B</tspan><tspan class="db" x="69.676" y="0">A</tspan><tspan class="az" x="77.23" y="0">C</tspan><tspan class="dc" x="84.888" y="0">K</tspan><tspan class="dd" x="92.254" y="0">G</tspan><tspan class="bl" x="100.029" y="0">R</tspan><tspan class="de" x="107.779" y="0">O</tspan><tspan class="df" x="115.571" y="0">U</tspan><tspan class="p" x="123.38" y="0">N</tspan><tspan x="131.176" y="0">D</tspan><tspan class="w"><tspan class="am" x="43.228" y="19">#</tspan><tspan class="dn" x="50.925" y="19">FFFFF</tspan><tspan x="87.949" y="19">F</tspan><tspan class="ad" x="12.874" y="38">r</tspan><tspan x="20.234" y="38">g</tspan><tspan class="ae" x="28.035" y="38">b</tspan><tspan class="bb" x="35.137" y="38">(</tspan><tspan class="be" x="41.467" y="38">2</tspan><tspan class="cm" x="48.631" y="38">5</tspan><tspan class="bf" x="56.101" y="38">5</tspan><tspan class="cw" x="62.788" y="38">,</tspan><tspan class="do" x="69.201" y="38">2</tspan><tspan class="cm" x="76.365" y="38">5</tspan><tspan class="bf" x="83.835" y="38">5</tspan><tspan class="cw" x="90.522" y="38">,</tspan><tspan class="do" x="96.935" y="38">2</tspan><tspan class="dp" x="104.099" y="38">5</tspan><tspan class="dq" x="111.569" y="38">5</tspan><tspan x="118.303" y="38">)</tspan></tspan></text><text class="l" transform="translate(34.471 579.75)"><tspan class="dc">N</tspan><tspan class="dr" x="7.366" y="0">I</tspan><tspan class="ds" x="14.653" y="0">E</tspan><tspan class="ac" x="22.097" y="0">L</tspan><tspan class="bj" x="29.586" y="0">S</tspan><tspan class="dt" x="37.292" y="0">E</tspan><tspan x="44.865" y="0">N </tspan><tspan class="du" x="60.468" y="0">B</tspan><tspan class="ab" x="68.153" y="0">L</tspan><tspan class="bj" x="75.552" y="0">U</tspan><tspan x="83.257" y="0">E</tspan><tspan class="w"><tspan class="dv" x="18.562" y="19">#</tspan><tspan class="dw" x="26.408" y="19">0</tspan><tspan class="db" x="34.097" y="19">0</tspan><tspan class="dx" x="41.651" y="19">9</tspan><tspan class="dy" x="49.235" y="19">D</tspan><tspan class="dz" x="57.018" y="19">D</tspan><tspan x="64.696" y="19">9</tspan><tspan class="ad" x="-1.58" y="38">r</tspan><tspan x="5.78" y="38">g</tspan><tspan class="ae" x="13.582" y="38">b</tspan><tspan class="ea" x="20.684" y="38">(</tspan><tspan class="eb" x="26.851" y="38">0</tspan><tspan class="bz" x="33.415" y="38">,</tspan><tspan class="aw" x="38.443" y="38">1</tspan><tspan class="ec" x="44.922" y="38">5</tspan><tspan class="cn" x="52.502" y="38">7</tspan><tspan class="bd" x="57.819" y="38">,</tspan><tspan class="ba" x="64.232" y="38">2</tspan><tspan class="ed" x="71.317" y="38">1</tspan><tspan class="cq" x="77.986" y="38">7</tspan><tspan x="84.837" y="38">)</tspan></tspan></text><text class="l" transform="translate(205.106 579.75)"><tspan class="ee">L</tspan><tspan class="bk" x="7.418" y="0">I</tspan><tspan class="ef" x="14.81" y="0">N</tspan><tspan class="ac" x="22.573" y="0">K</tspan><tspan x="30.063" y="0">S &amp; </tspan><tspan class="m" x="61.268" y="0">B</tspan><tspan x="69.012" y="0">U</tspan><tspan class="eg" x="76.813" y="0">T</tspan><tspan class="eh" x="84.882" y="0">T</tspan><tspan class="bm" x="92.508" y="0">O</tspan><tspan class="ei" x="100.339" y="0">N</tspan><tspan x="107.985" y="0">S</tspan><tspan class="w"><tspan class="dv" x="31.275" y="19">#</tspan><tspan class="dw" x="39.122" y="19">0</tspan><tspan class="db" x="46.811" y="19">0</tspan><tspan class="bs" x="54.365" y="19">9</tspan><tspan class="ej" x="61.639" y="19">8</tspan><tspan class="ca" x="69.202" y="19">F</tspan><tspan x="76.71" y="19">3</tspan><tspan class="ad" x="9.952" y="38">r</tspan><tspan x="17.313" y="38">g</tspan><tspan class="ae" x="25.114" y="38">b</tspan><tspan class="ea" x="32.216" y="38">(</tspan><tspan class="eb" x="38.383" y="38">0</tspan><tspan class="bz" x="44.947" y="38">,</tspan><tspan class="aw" x="49.975" y="38">1</tspan><tspan class="ac" x="56.454" y="38">5</tspan><tspan class="by" x="63.943" y="38">2</tspan><tspan class="cw" x="70.508" y="38">,</tspan><tspan class="ek" x="76.921" y="38">2</tspan><tspan class="el" x="84.169" y="38">4</tspan><tspan class="bi" x="92.022" y="38">3</tspan><tspan x="98.033" y="38">)</tspan></tspan></text><text class="l" transform="translate(417.74 579.75)"><tspan class="m">B</tspan><tspan x="7.744" y="0">U</tspan><tspan class="eg" x="15.545" y="0">T</tspan><tspan class="eh" x="23.614" y="0">T</tspan><tspan class="bm" x="31.24" y="0">O</tspan><tspan class="ei" x="39.071" y="0">N</tspan><tspan x="46.718" y="0">S</tspan><tspan class="w"><tspan class="em" x="1.276" y="19">#</tspan><tspan class="en" x="9.312" y="19">2</tspan><tspan class="ab" x="16.502" y="19">6</tspan><tspan class="eo" x="23.9" y="19">B</tspan><tspan class="ek" x="31.422" y="19">9</tspan><tspan class="ep" x="38.669" y="19">1</tspan><tspan x="45.442" y="19">0</tspan><tspan class="ad" x="-19.688" y="38">r</tspan><tspan x="-12.327" y="38">g</tspan><tspan class="ae" x="-4.526" y="38">b</tspan><tspan class="eq" x="2.576" y="38">(</tspan><tspan class="di" x="8.886" y="38">3</tspan><tspan class="cb" x="16.121" y="38">8</tspan><tspan class="bz" x="22.846" y="38">,</tspan><tspan class="cl" x="27.874" y="38">1</tspan><tspan class="bo" x="34.433" y="38">8</tspan><tspan class="er" x="41.909" y="38">5</tspan><tspan class="bz" x="48.596" y="38">,</tspan><tspan class="cc" x="53.625" y="38">1</tspan><tspan class="bw" x="60.323" y="38">6</tspan><tspan x="66.406" y="38">)</tspan></tspan></text><text class="l" transform="translate(603.939 579.75)"><tspan class="bh">E</tspan><tspan class="as" x="7.502" y="0">R</tspan><tspan class="bl" x="15.212" y="0">R</tspan><tspan class="es" x="22.962" y="0">O</tspan><tspan class="et" x="30.722" y="0">R</tspan><tspan x="38.321" y="0">S</tspan><tspan class="w"><tspan class="am" x="-3.394" y="19">#</tspan><tspan class="dn" x="4.303" y="19">F</tspan><tspan class="eu" x="11.708" y="19">F</tspan><tspan class="dd" x="18.911" y="19">8</tspan><tspan class="ev" x="26.687" y="19">3</tspan><tspan class="ew" x="34.026" y="19">0</tspan><tspan x="41.714" y="19">0</tspan><tspan class="ad" x="-24.343" y="38">r</tspan><tspan x="-16.983" y="38">g</tspan><tspan class="ae" x="-9.182" y="38">b</tspan><tspan class="bb" x="-2.08" y="38">(</tspan><tspan class="be" x="4.25" y="38">2</tspan><tspan class="cm" x="11.415" y="38">5</tspan><tspan class="bf" x="18.884" y="38">5</tspan><tspan class="bz" x="25.571" y="38">,</tspan><tspan class="ex" x="30.6" y="38">1</tspan><tspan class="ey" x="37.327" y="38">3</tspan><tspan class="bc" x="44.393" y="38">1</tspan><tspan class="ez" x="50.293" y="38">,</tspan><tspan class="fa" x="56.413" y="38">0</tspan><tspan x="62.664" y="38">)</tspan></tspan></text><rect class="fb" width="708" height="624"/></svg>