<svg xmlns="http://www.w3.org/2000/svg" width="550" height="192" viewBox="0 0 550 192"><defs><style>.a,.f{fill:#fff;}.b{fill:#ddd;}.c{fill:#354052;}.d{fill:#151921;}.e{fill:#989ea7;}.f{font-size:13px;font-family:RobotoMono-Medium, Roboto Mono;}.g{letter-spacing:-0.011em;}.h{letter-spacing:-0.012em;}.i{letter-spacing:-0.009em;}.j{letter-spacing:-0.025em;}.k{letter-spacing:-0.024em;}.l{letter-spacing:-0.011em;}.m{letter-spacing:-0.014em;}.n{letter-spacing:-0.033em;}.o{letter-spacing:0.003em;}.p{letter-spacing:-0.025em;}.q{letter-spacing:-0.007em;}.r{letter-spacing:0.001em;}.s{letter-spacing:0.022em;}.t{letter-spacing:-0.007em;}.u{letter-spacing:-0.032em;}.v{letter-spacing:-0.004em;}.w{letter-spacing:0.002em;}.x{letter-spacing:0em;}.y{letter-spacing:-0.029em;}.z{letter-spacing:-0.007em;}.aa{letter-spacing:0em;}.ab{letter-spacing:-0.004em;}.ac{letter-spacing:0.018em;}.ad{letter-spacing:0.006em;}.ae{letter-spacing:-0.012em;}.af{letter-spacing:0.021em;}.ag{letter-spacing:-0.013em;}.ah{letter-spacing:-0.004em;}.ai{letter-spacing:0.002em;}.aj{letter-spacing:-0.002em;}.ak{letter-spacing:-0.018em;}.al{letter-spacing:-0.034em;}.am{letter-spacing:-0.003em;}.an{letter-spacing:-0.016em;}.ao{letter-spacing:-0.028em;}.ap{letter-spacing:-0.027em;}.aq{letter-spacing:-0.017em;}.ar{letter-spacing:-0.093em;}.as{letter-spacing:-0.045em;}.at{letter-spacing:-0.09em;}.au{letter-spacing:-0.014em;}.av{letter-spacing:-0.051em;}.aw{letter-spacing:0em;}.ax{letter-spacing:-0.038em;}.ay{letter-spacing:-0.026em;}.az{letter-spacing:-0.025em;}.ba{letter-spacing:0.001em;}.bb{letter-spacing:-0.026em;}.bc{letter-spacing:-0.026em;}.bd{letter-spacing:-0.005em;}.be{letter-spacing:-0.001em;}.bf{letter-spacing:-0.06em;}.bg{letter-spacing:-0.109em;}.bh{letter-spacing:-0.027em;}.bi{letter-spacing:-0.095em;}.bj{letter-spacing:-0.126em;}.bk{letter-spacing:-0.008em;}.bl{letter-spacing:-0.092em;}.bm{letter-spacing:-0.118em;}.bn{letter-spacing:-0.122em;}.bo{letter-spacing:-0.113em;}.bp{letter-spacing:-0.146em;}.bq{letter-spacing:-0.1em;}.br{letter-spacing:-0.038em;}.bs{letter-spacing:-0.093em;}.bt{letter-spacing:-0.106em;}.bu{letter-spacing:-0.021em;}.bv{letter-spacing:-0.129em;}.bw{letter-spacing:0em;}.bx{letter-spacing:-0.128em;}.by{letter-spacing:-0.093em;}.bz{letter-spacing:-0.201em;}.ca{letter-spacing:-0.021em;}.cb{letter-spacing:-0.092em;}.cc{letter-spacing:-0.202em;}.cd{letter-spacing:-0.082em;}.ce{letter-spacing:-0.066em;}.cf{letter-spacing:-0.072em;}.cg{letter-spacing:-0.178em;}.ch{letter-spacing:-0.113em;}.ci{letter-spacing:-0.038em;}.cj{letter-spacing:-0.024em;}.ck{letter-spacing:-0.024em;}.cl{letter-spacing:-0.093em;}.cm{letter-spacing:-0.082em;}</style></defs><title>color_01</title><rect class="a" x="0.5" y="143.5" width="549" height="48"/><path class="b" d="M549,144v47H1V144H549m1-1H0v49H550V143Z"/><rect class="c" width="550" height="48"/><rect class="d" y="48" width="550" height="48"/><rect class="e" y="96" width="550" height="48"/><text class="f" transform="translate(24 28.936)"><tspan class="g">T</tspan><tspan class="h" x="7.652" y="0">I</tspan><tspan class="i" x="15.297" y="0">T</tspan><tspan class="j" x="22.981" y="0">L</tspan><tspan class="k" x="30.458" y="0">E</tspan><tspan x="37.94" y="0">S</tspan><tspan class="l" x="0" y="48">P</tspan><tspan class="m" x="7.665" y="48">R</tspan><tspan class="n" x="15.284" y="48">I</tspan><tspan class="o" x="22.663" y="48">M</tspan><tspan x="30.503" y="48">A</tspan><tspan class="p" x="38.304" y="48">R</tspan><tspan x="45.781" y="48">Y </tspan><tspan class="q" x="61.383" y="48">T</tspan><tspan class="r" x="69.093" y="48">E</tspan><tspan class="s" x="76.901" y="48">X</tspan><tspan x="84.99" y="48">T</tspan><tspan class="t" x="0" y="96">S</tspan><tspan class="u" x="7.705" y="96">E</tspan><tspan class="v" x="15.097" y="96">C</tspan><tspan class="w" x="22.846" y="96">O</tspan><tspan class="x" x="30.677" y="96">N</tspan><tspan class="y" x="38.473" y="96">D</tspan><tspan x="45.896" y="96">A</tspan><tspan class="j" x="53.698" y="96">R</tspan><tspan x="61.174" y="96">Y </tspan><tspan class="z" x="76.776" y="96">T</tspan><tspan class="aa" x="84.487" y="96">E</tspan><tspan class="s" x="92.294" y="96">X</tspan><tspan x="100.383" y="96">T</tspan><tspan class="d"><tspan class="ab" x="0" y="144">B</tspan><tspan class="ac" x="7.744" y="144">R</tspan><tspan class="ad" x="15.774" y="144">A</tspan><tspan class="x" x="23.647" y="144">N</tspan><tspan x="31.443" y="144">D </tspan><tspan class="ae" x="47.045" y="144">B</tspan><tspan x="54.691" y="144">AR &amp; </tspan><tspan class="ab" x="93.697" y="144">B</tspan><tspan x="101.441" y="144">U</tspan><tspan class="af" x="109.243" y="144">T</tspan><tspan class="ag" x="117.312" y="144">T</tspan><tspan class="w" x="124.938" y="144">O</tspan><tspan x="132.769" y="144">N </tspan><tspan class="ah" x="148.371" y="144">C</tspan><tspan class="ai" x="156.12" y="144">O</tspan><tspan class="aj" x="163.952" y="144">N</tspan><tspan class="q" x="171.733" y="144">T</tspan><tspan class="ak" x="179.443" y="144">E</tspan><tspan class="aj" x="187.017" y="144">N</tspan><tspan x="194.799" y="144">T</tspan></tspan></text><text class="f" transform="translate(287 28.936)"><tspan class="aj">#</tspan><tspan class="al" x="7.782" y="0">3</tspan><tspan class="am" x="15.141" y="0">5</tspan><tspan class="an" x="22.903" y="0">4</tspan><tspan class="ao" x="30.503" y="0">0</tspan><tspan class="ap" x="37.94" y="0">5</tspan><tspan x="45.391" y="0">2</tspan><tspan class="aq" x="0" y="48">#</tspan><tspan class="ar" x="7.58" y="48">1</tspan><tspan class="as" x="14.178" y="48">5</tspan><tspan class="at" x="21.4" y="48">1</tspan><tspan class="au" x="28.037" y="48">9</tspan><tspan class="av" x="35.65" y="48">2</tspan><tspan x="42.782" y="48">1</tspan><tspan class="aw" x="0" y="96">#</tspan><tspan class="ax" x="7.795" y="96">9</tspan><tspan class="ay" x="15.096" y="96">8</tspan><tspan class="az" x="22.559" y="96">9</tspan><tspan class="ba" x="30.033" y="96">E</tspan><tspan class="bb" x="37.853" y="96">A</tspan><tspan x="45.31" y="96">7</tspan><tspan class="d"><tspan class="ae" x="0" y="144">#</tspan><tspan class="bc" x="7.646" y="144">FFFFF</tspan><tspan x="44.994" y="144">F</tspan></tspan></text><text class="f" transform="translate(396 28.936)"><tspan class="bd">R</tspan><tspan class="be" x="7.743" y="0">G</tspan><tspan class="bf" x="15.531" y="0">B</tspan><tspan class="bg" x="22.551" y="0">(</tspan><tspan class="bh" x="28.939" y="0">5</tspan><tspan class="bi" x="36.39" y="0">2</tspan><tspan class="bj" x="42.958" y="0">,</tspan><tspan class="bk" x="49.128" y="0">6</tspan><tspan class="bl" x="56.825" y="0">4</tspan><tspan class="bm" x="63.429" y="0">,</tspan><tspan class="au" x="69.699" y="0">8</tspan><tspan class="bn" x="77.312" y="0">2</tspan><tspan x="83.524" y="0">)</tspan><tspan class="bd"><tspan x="0" y="48">R</tspan><tspan class="be" x="7.743" y="48">G</tspan><tspan class="bf" x="15.531" y="48">B</tspan><tspan class="bo" x="22.551" y="48">(</tspan><tspan class="av" x="28.887" y="48">2</tspan><tspan class="bp" x="36.019" y="48">1</tspan><tspan class="bq" x="41.919" y="48">,</tspan><tspan class="br" x="48.419" y="48">2</tspan><tspan class="bs" x="55.727" y="48">5</tspan><tspan class="bt" x="62.316" y="48">,</tspan><tspan class="bu" x="68.736" y="48">3</tspan><tspan class="bv" x="76.271" y="48">3</tspan><tspan class="bw" x="82.393" y="48">)</tspan></tspan><tspan class="bd" x="0" y="96">R</tspan><tspan class="be" x="7.743" y="96">G</tspan><tspan class="bf" x="15.531" y="96">B</tspan><tspan class="bx" x="22.551" y="96">(</tspan><tspan class="by" x="28.692" y="96">1</tspan><tspan class="ap" x="35.29" y="96">5</tspan><tspan class="bi" x="42.74" y="96">2</tspan><tspan class="bz" x="49.309" y="96">,</tspan><tspan class="by" x="54.491" y="96">1</tspan><tspan class="ca" x="61.088" y="96">5</tspan><tspan class="cb" x="68.61" y="96">8</tspan><tspan class="cc" x="75.218" y="96">,</tspan><tspan class="cd" x="80.399" y="96">1</tspan><tspan class="ce" x="87.135" y="96">6</tspan><tspan class="cf" x="94.083" y="96">7</tspan><tspan x="100.954" y="96">)</tspan><tspan class="d"><tspan class="bd" x="0" y="144">R</tspan><tspan class="be" x="7.743" y="144">G</tspan><tspan class="bf" x="15.531" y="144">B</tspan><tspan class="cg" x="22.551" y="144">(</tspan><tspan class="ch" x="28.037" y="144">(</tspan><tspan class="ci" x="34.373" y="144">2</tspan><tspan class="cj" x="41.68" y="144">5</tspan><tspan class="bs" x="49.17" y="144">5</tspan><tspan class="bq" x="55.759" y="144">,</tspan><tspan class="ci" x="62.259" y="144">2</tspan><tspan class="ck" x="69.566" y="144">5</tspan><tspan class="cl" x="77.056" y="144">5</tspan><tspan class="bq" x="83.646" y="144">,</tspan><tspan class="ci" x="90.146" y="144">2</tspan><tspan class="ck" x="97.453" y="144">5</tspan><tspan class="cm" x="104.942" y="144">5</tspan><tspan x="111.676" y="144">)</tspan></tspan></text></svg>