<svg xmlns="http://www.w3.org/2000/svg" width="550" height="192" viewBox="0 0 550 192"><defs><style>.a{fill:#00aeef;}.b{fill:#0098f3;}.c{fill:#26b910;}.d{fill:#ff8300;}.e{font-size:13px;fill:#fff;font-family:RobotoMono-Medium, Roboto Mono;}.f{letter-spacing:-0.034em;}.g{letter-spacing:-0.04em;}.h{letter-spacing:-0.027em;}.i{letter-spacing:-0.024em;}.j{letter-spacing:-0.007em;}.k{letter-spacing:-0.018em;}.l{letter-spacing:-0.009em;}.m{letter-spacing:-0.031em;}.n{letter-spacing:-0.029em;}.o{letter-spacing:-0.032em;}.p{letter-spacing:-0.003em;}.q{letter-spacing:-0.004em;}.r{letter-spacing:0.021em;}.s{letter-spacing:-0.013em;}.t{letter-spacing:0.002em;}.u{letter-spacing:-0.012em;}.v{letter-spacing:-0.023em;}.w{letter-spacing:-0.007em;}.x{letter-spacing:-0.004em;}.y{letter-spacing:-0.003em;}.z{letter-spacing:-0.016em;}.aa{letter-spacing:-0.005em;}.ab{letter-spacing:-0.015em;}.ac{letter-spacing:-0.003em;}.ad{letter-spacing:-0.026em;}.ae{letter-spacing:-0.027em;}.af{letter-spacing:-0.019em;}.ag{letter-spacing:-0.038em;}.ah{letter-spacing:-0.022em;}.ai{letter-spacing:-0.018em;}.aj{letter-spacing:0.011em;}.ak{letter-spacing:-0.04em;}.al{letter-spacing:-0.028em;}.am{letter-spacing:-0.043em;}.an{letter-spacing:-0.079em;}.ao{letter-spacing:-0.012em;}.ap{letter-spacing:-0.011em;}.aq{letter-spacing:-0.032em;}.ar{letter-spacing:-0.005em;}.as{letter-spacing:-0.001em;}.at{letter-spacing:-0.06em;}.au{letter-spacing:-0.126em;}.av{letter-spacing:-0.102em;}.aw{letter-spacing:-0.202em;}.ax{letter-spacing:-0.082em;}.ay{letter-spacing:-0.092em;}.az{letter-spacing:-0.092em;}.ba{letter-spacing:-0.1em;}.bb{letter-spacing:-0.022em;}.bc{letter-spacing:-0.033em;}.bd{letter-spacing:-0.134em;}.be{letter-spacing:-0.093em;}.bf{letter-spacing:-0.027em;}.bg{letter-spacing:-0.095em;}.bh{letter-spacing:-0.129em;}.bi{letter-spacing:-0.115em;}.bj{letter-spacing:-0.092em;}.bk{letter-spacing:-0.201em;}.bl{letter-spacing:-0.087em;}.bm{letter-spacing:-0.025em;}.bn{letter-spacing:-0.093em;}.bo{letter-spacing:-0.082em;}.bp{letter-spacing:-0.128em;}.bq{letter-spacing:-0.113em;}.br{letter-spacing:-0.038em;}.bs{letter-spacing:-0.093em;}.bt{letter-spacing:-0.083em;}.bu{letter-spacing:-0.049em;}.bv{letter-spacing:-0.146em;}.bw{letter-spacing:-0.128em;}.bx{letter-spacing:-0.121em;}</style></defs><title>color_03</title><rect class="a" width="550" height="48"/><rect class="b" y="48" width="550" height="48"/><rect class="c" y="96" width="550" height="48"/><rect class="d" y="144" width="550" height="48"/><text class="e" transform="translate(24 28.936)"><tspan class="f">N</tspan><tspan class="g" x="7.366" y="0">I</tspan><tspan class="h" x="14.653" y="0">E</tspan><tspan class="i" x="22.097" y="0">L</tspan><tspan class="j" x="29.586" y="0">S</tspan><tspan class="k" x="37.292" y="0">E</tspan><tspan x="44.865" y="0">N </tspan><tspan class="l" x="60.468" y="0">B</tspan><tspan class="m" x="68.153" y="0">L</tspan><tspan class="j" x="75.552" y="0">U</tspan><tspan x="83.257" y="0">E</tspan><tspan class="n" x="0" y="48">L</tspan><tspan class="o" x="7.418" y="48">I</tspan><tspan class="p" x="14.81" y="48">N</tspan><tspan class="i" x="22.573" y="48">K</tspan><tspan x="30.063" y="48">S &amp; </tspan><tspan class="q" x="61.268" y="48">B</tspan><tspan x="69.012" y="48">U</tspan><tspan class="r" x="76.813" y="48">T</tspan><tspan class="s" x="84.882" y="48">T</tspan><tspan class="t" x="92.508" y="48">O</tspan><tspan class="u" x="100.339" y="48">N</tspan><tspan x="107.985" y="48">S</tspan><tspan class="q" x="0" y="96">B</tspan><tspan x="7.744" y="96">U</tspan><tspan class="r" x="15.545" y="96">T</tspan><tspan class="s" x="23.614" y="96">T</tspan><tspan class="t" x="31.24" y="96">O</tspan><tspan class="u" x="39.071" y="96">N</tspan><tspan x="46.718" y="96">S</tspan><tspan class="v" x="0" y="144">E</tspan><tspan class="w" x="7.502" y="144">R</tspan><tspan class="x" x="15.212" y="144">R</tspan><tspan class="y" x="22.962" y="144">O</tspan><tspan class="z" x="30.722" y="144">R</tspan><tspan x="38.321" y="144">S</tspan></text><text class="e" transform="translate(287 28.936)"><tspan class="aa">#</tspan><tspan class="ab" x="7.73" y="0">0</tspan><tspan class="m" x="15.34" y="0">0</tspan><tspan class="ac" x="22.738" y="0">A</tspan><tspan class="ad" x="30.507" y="0">E</tspan><tspan class="ae" x="37.977" y="0">E</tspan><tspan x="45.427" y="0">F</tspan><tspan class="aa" x="0" y="48">#</tspan><tspan class="ab" x="7.73" y="48">0</tspan><tspan class="af" x="15.34" y="48">0</tspan><tspan class="ag" x="22.894" y="48">9</tspan><tspan class="ah" x="30.195" y="48">8</tspan><tspan class="ai" x="37.711" y="48">F</tspan><tspan x="45.272" y="48">3</tspan><tspan class="aj" x="0" y="96">#</tspan><tspan class="ak" x="7.938" y="96">2</tspan><tspan class="al" x="15.219" y="96">6</tspan><tspan class="s" x="22.656" y="96">B</tspan><tspan class="am" x="30.282" y="96">9</tspan><tspan class="an" x="37.531" y="96">1</tspan><tspan x="44.311" y="96">0</tspan><tspan class="ao" x="0" y="144">#</tspan><tspan class="ad" x="7.646" y="144">F</tspan><tspan class="f" x="15.115" y="144">F</tspan><tspan class="ap" x="22.481" y="144">8</tspan><tspan class="aq" x="30.133" y="144">3</tspan><tspan class="ab" x="37.518" y="144">0</tspan><tspan x="45.128" y="144">0</tspan></text><text class="e" transform="translate(396 28.936)"><tspan class="ar">R</tspan><tspan class="as" x="7.743" y="0">G</tspan><tspan class="at" x="15.531" y="0">B</tspan><tspan class="au" x="22.551" y="0">(</tspan><tspan class="av" x="28.712" y="0">0</tspan><tspan class="aw" x="35.191" y="0">,</tspan><tspan class="ax" x="40.373" y="0">1</tspan><tspan class="ay" x="47.113" y="0">7</tspan><tspan class="az" x="53.724" y="0">4</tspan><tspan class="ba" x="60.328" y="0">,</tspan><tspan class="bb" x="66.828" y="0">2</tspan><tspan class="bc" x="74.336" y="0">3</tspan><tspan class="bd" x="81.708" y="0">9</tspan><tspan x="87.771" y="0">)</tspan><tspan class="ar" x="0" y="48">R</tspan><tspan class="as" x="7.743" y="48">G</tspan><tspan class="at" x="15.531" y="48">B</tspan><tspan class="au" x="22.551" y="48">(</tspan><tspan class="av" x="28.712" y="48">0</tspan><tspan class="aw" x="35.191" y="48">,</tspan><tspan class="be" x="40.373" y="48">1</tspan><tspan class="bf" x="46.97" y="48">5</tspan><tspan class="bg" x="54.42" y="48">2</tspan><tspan class="ba" x="60.989" y="48">,</tspan><tspan class="o" x="67.489" y="48">2</tspan><tspan class="x" x="74.881" y="48">4</tspan><tspan class="bh" x="82.63" y="48">3</tspan><tspan x="88.752" y="48">)</tspan><tspan class="ar" x="0" y="96">R</tspan><tspan class="as" x="7.743" y="96">G</tspan><tspan class="at" x="15.531" y="96">B</tspan><tspan class="bi" x="22.551" y="96">(</tspan><tspan class="aq" x="28.854" y="96">3</tspan><tspan class="bj" x="36.24" y="96">8</tspan><tspan class="bk" x="42.848" y="96">,</tspan><tspan class="bl" x="48.03" y="96">1</tspan><tspan class="bm" x="54.7" y="96">8</tspan><tspan class="bn" x="62.176" y="96">5</tspan><tspan class="bk" x="68.766" y="96">,</tspan><tspan class="bo" x="73.948" y="96">1</tspan><tspan class="bp" x="80.683" y="96">6</tspan><tspan x="86.824" y="96">)</tspan><tspan class="ar" x="0" y="144">R</tspan><tspan class="as" x="7.743" y="144">G</tspan><tspan class="at" x="15.531" y="144">B</tspan><tspan class="bq" x="22.551" y="144">(</tspan><tspan class="br" x="28.887" y="144">2</tspan><tspan class="i" x="36.194" y="144">5</tspan><tspan class="bs" x="43.684" y="144">5</tspan><tspan class="aw" x="50.273" y="144">,</tspan><tspan class="bt" x="55.455" y="144">1</tspan><tspan class="bu" x="62.176" y="144">3</tspan><tspan class="bv" x="69.34" y="144">1</tspan><tspan class="bw" x="75.241" y="144">,</tspan><tspan class="bx" x="81.376" y="144">0</tspan><tspan x="87.608" y="144">)</tspan></text></svg>