<svg xmlns="http://www.w3.org/2000/svg" width="520" height="192" viewBox="0 0 520 192"><defs><style>.a{fill:#fff;}.b{fill:#dcdcdc;}.c{fill:#bacbda;}.d{fill:#dce5ec;}.e{fill:#f5f9fc;}.f{font-size:13px;fill:#354052;font-family:RobotoMono-Medium, Roboto Mono;}.g{letter-spacing:-0.011em;}.h{letter-spacing:-0.014em;}.i{letter-spacing:-0.033em;}.j{letter-spacing:0.003em;}.k{letter-spacing:-0.025em;}.l{letter-spacing:-0.056em;}.m{letter-spacing:-0.011em;}.n{letter-spacing:-0.013em;}.o{letter-spacing:-0.033em;}.p{letter-spacing:-0.009em;}.q{letter-spacing:-0.023em;}.r{letter-spacing:-0.007em;}.s{letter-spacing:-0.032em;}.t{letter-spacing:-0.004em;}.u{letter-spacing:0.002em;}.v{letter-spacing:0em;}.w{letter-spacing:-0.029em;}.x{letter-spacing:-0.025em;}.y{letter-spacing:-0.009em;}.z{letter-spacing:-0.023em;}.aa{letter-spacing:-0.056em;}.ab{letter-spacing:-0.021em;}.ac{letter-spacing:-0.005em;}.ad{letter-spacing:-0.012em;}.ae{letter-spacing:-0.019em;}.af{letter-spacing:-0.011em;}.ag{letter-spacing:-0.034em;}.ah{letter-spacing:-0.002em;}.ai{letter-spacing:-0.001em;}.aj{letter-spacing:0.001em;}.ak{letter-spacing:-0.002em;}.al{letter-spacing:-0.007em;}.am{letter-spacing:-0.017em;}.an{letter-spacing:-0.012em;}.ao{letter-spacing:-0.005em;}.ap,.aq{font-size:12px;font-family:MyriadPro-Regular, Myriad Pro;}.aq{letter-spacing:-0.021em;}.ar{letter-spacing:-0.003em;}.as{letter-spacing:-0.034em;}.at{letter-spacing:-0.045em;}.au{letter-spacing:-0.024em;}.av{letter-spacing:-0.028em;}.aw{letter-spacing:-0.027em;}.ax{letter-spacing:-0.029em;}.ay{letter-spacing:-0.026em;}.az{letter-spacing:-0.001em;}.ba{letter-spacing:-0.06em;}.bb{letter-spacing:-0.128em;}.bc{letter-spacing:-0.087em;}.bd{letter-spacing:-0.024em;}.be{letter-spacing:-0.198em;}.bf{letter-spacing:-0.1em;}.bg{letter-spacing:-0.041em;}.bh{letter-spacing:-0.006em;}.bi{letter-spacing:-0.092em;}.bj{letter-spacing:-0.051em;}.bk{letter-spacing:-0.09em;}.bl{letter-spacing:-0.134em;}.bm{letter-spacing:-0.113em;}.bn{letter-spacing:-0.017em;}.bo{letter-spacing:-0.146em;}.bp{letter-spacing:-0.022em;}.bq{letter-spacing:-0.032em;}.br{letter-spacing:-0.102em;}.bs{letter-spacing:-0.072em;}.bt{letter-spacing:-0.018em;}.bu{letter-spacing:-0.093em;}.bv{letter-spacing:-0.052em;}.bw{letter-spacing:-0.128em;}.bx{letter-spacing:-0.038em;}.by{letter-spacing:-0.027em;}.bz{letter-spacing:-0.122em;}.ca{letter-spacing:-0.178em;}.cb{letter-spacing:-0.113em;}.cc{letter-spacing:-0.038em;}.cd{letter-spacing:-0.024em;}.ce{letter-spacing:-0.093em;}.cf{letter-spacing:-0.082em;}</style></defs><title>colors_02</title><rect class="a" x="0.5" y="143.5" width="519" height="48"/><path class="b" d="M519,144v47H1V144H519m1-1H0v49H520V143Z"/><rect class="c" width="520" height="48"/><rect class="d" y="48" width="520" height="48"/><rect class="e" y="96" width="520" height="48"/><text class="f" transform="translate(24 28.935)"><tspan class="g">P</tspan><tspan class="h" x="7.665" y="0">R</tspan><tspan class="i" x="15.284" y="0">I</tspan><tspan class="j" x="22.663" y="0">M</tspan><tspan x="30.503" y="0">A</tspan><tspan class="k" x="38.304" y="0">R</tspan><tspan x="45.781" y="0">Y </tspan><tspan class="l" x="61.383" y="0">D</tspan><tspan class="m" x="68.455" y="0">I</tspan><tspan class="n" x="76.107" y="0">V</tspan><tspan class="o" x="83.746" y="0">I</tspan><tspan class="p" x="91.118" y="0">D</tspan><tspan class="q" x="98.797" y="0">E</tspan><tspan x="106.299" y="0">R</tspan><tspan class="r" x="0" y="48">S</tspan><tspan class="s" x="7.705" y="48">E</tspan><tspan class="t" x="15.097" y="48">C</tspan><tspan class="u" x="22.846" y="48">O</tspan><tspan class="v" x="30.677" y="48">N</tspan><tspan class="w" x="38.473" y="48">D</tspan><tspan x="45.896" y="48">A</tspan><tspan class="x" x="53.698" y="48">R</tspan><tspan x="61.174" y="48">Y </tspan><tspan class="l" x="76.776" y="48">D</tspan><tspan class="m" x="83.848" y="48">I</tspan><tspan class="n" x="91.5" y="48">V</tspan><tspan class="o" x="99.139" y="48">I</tspan><tspan class="y" x="106.511" y="48">D</tspan><tspan class="z" x="114.19" y="48">E</tspan><tspan x="121.692" y="48">R</tspan><tspan class="aa" x="0" y="96">P</tspan><tspan class="ab" x="7.073" y="96">A</tspan><tspan class="ac" x="14.608" y="96">G</tspan><tspan x="22.351" y="96">E </tspan><tspan class="ad" x="37.953" y="96">B</tspan><tspan class="ae" x="45.599" y="96">A</tspan><tspan class="af" x="53.153" y="96">C</tspan><tspan class="ag" x="60.811" y="96">K</tspan><tspan class="ah" x="68.177" y="96">G</tspan><tspan class="t" x="75.952" y="96">R</tspan><tspan class="ai" x="83.702" y="96">O</tspan><tspan class="aj" x="91.494" y="96">U</tspan><tspan class="v" x="99.303" y="96">N</tspan><tspan x="107.099" y="96">D</tspan><tspan class="t" x="0" y="144">C</tspan><tspan class="u" x="7.75" y="144">O</tspan><tspan class="ak" x="15.581" y="144">N</tspan><tspan class="al" x="23.362" y="144">T</tspan><tspan class="am" x="31.072" y="144">E</tspan><tspan class="ak" x="38.646" y="144">N</tspan><tspan x="46.428" y="144">T </tspan><tspan class="an" x="62.031" y="144">B</tspan><tspan class="ae" x="69.676" y="144">A</tspan><tspan class="af" x="77.23" y="144">C</tspan><tspan class="ag" x="84.888" y="144">K</tspan><tspan class="ah" x="92.254" y="144">G</tspan><tspan class="t" x="100.029" y="144">R</tspan><tspan class="ai" x="107.779" y="144">O</tspan><tspan class="aj" x="115.571" y="144">U</tspan><tspan class="v" x="123.38" y="144">N</tspan><tspan x="131.176" y="144">D</tspan></text><text class="f" transform="translate(257 28.935)"><tspan class="ao">#</tspan><tspan class="ap" x="7.742" y="0">BB</tspan><tspan class="aq" x="20.75" y="0">C</tspan><tspan class="ap" x="27.457" y="0">CDB</tspan><tspan class="t" x="0" y="48">#</tspan><tspan class="ar" x="7.75" y="48">D</tspan><tspan class="y" x="15.513" y="48">D</tspan><tspan class="as" x="23.192" y="48">E</tspan><tspan class="s" x="30.545" y="48">6</tspan><tspan class="ae" x="37.937" y="48">E</tspan><tspan x="45.491" y="48">D</tspan><tspan class="ad" x="0" y="96">#</tspan><tspan class="at" x="7.646" y="96">F</tspan><tspan class="au" x="14.861" y="96">5</tspan><tspan class="av" x="22.351" y="96">F</tspan><tspan class="aw" x="29.788" y="96">9</tspan><tspan class="ax" x="37.242" y="96">F</tspan><tspan x="44.673" y="96">C</tspan><tspan class="ad" x="0" y="144">#</tspan><tspan class="ay" x="7.646" y="144">FFFFF</tspan><tspan x="44.994" y="144">F</tspan></text><text class="f" transform="translate(366 28.935)"><tspan class="ac">R</tspan><tspan class="az" x="7.743" y="0">G</tspan><tspan class="ba" x="15.531" y="0">B</tspan><tspan class="bb" x="22.551" y="0">(</tspan><tspan class="bc" x="28.692" y="0">1</tspan><tspan class="bd" x="35.362" y="0">8</tspan><tspan class="be" x="42.845" y="0">7</tspan><tspan class="bf" x="48.071" y="0">,</tspan><tspan class="bg" x="54.571" y="0">2</tspan><tspan class="bh" x="61.839" y="0">0</tspan><tspan class="bi" x="69.563" y="0">4</tspan><tspan class="bf" x="76.167" y="0">,</tspan><tspan class="bj" x="82.667" y="0">2</tspan><tspan class="bk" x="89.798" y="0">1</tspan><tspan class="bl" x="96.435" y="0">9</tspan><tspan x="102.498" y="0">)</tspan><tspan class="ac" x="0" y="48">R</tspan><tspan class="az" x="7.743" y="48">G</tspan><tspan class="ba" x="15.531" y="48">B</tspan><tspan class="bm" x="22.551" y="48">(</tspan><tspan class="bn" x="28.887" y="48">2</tspan><tspan class="bj" x="36.467" y="48">2</tspan><tspan class="bo" x="43.599" y="48">1</tspan><tspan class="bf" x="49.5" y="48">,</tspan><tspan class="bp" x="56" y="48">2</tspan><tspan class="bq" x="63.509" y="48">3</tspan><tspan class="br" x="70.894" y="48">0</tspan><tspan class="bf" x="77.373" y="48">,</tspan><tspan class="bp" x="83.873" y="48">2</tspan><tspan class="s" x="91.382" y="48">3</tspan><tspan class="bs" x="98.773" y="48">7</tspan><tspan x="105.644" y="48">)</tspan><tspan class="ac" x="0" y="96">R</tspan><tspan class="az" x="7.743" y="96">G</tspan><tspan class="ba" x="15.531" y="96">B</tspan><tspan class="bm" x="22.551" y="96">(</tspan><tspan class="s" x="28.887" y="96">2</tspan><tspan class="bt" x="36.279" y="96">4</tspan><tspan class="bu" x="43.853" y="96">5</tspan><tspan class="bf" x="50.442" y="96">,</tspan><tspan class="s" x="56.942" y="96">2</tspan><tspan class="bv" x="64.334" y="96">4</tspan><tspan class="bw" x="71.458" y="96">9</tspan><tspan class="bf" x="77.599" y="96">,</tspan><tspan class="bx" x="84.099" y="96">2</tspan><tspan class="by" x="91.407" y="96">5</tspan><tspan class="bz" x="98.857" y="96">2</tspan><tspan x="105.069" y="96">)</tspan><tspan class="ac" x="0" y="144">R</tspan><tspan class="az" x="7.743" y="144">G</tspan><tspan class="ba" x="15.531" y="144">B</tspan><tspan class="ca" x="22.551" y="144">(</tspan><tspan class="cb" x="28.037" y="144">(</tspan><tspan class="cc" x="34.373" y="144">2</tspan><tspan class="cd" x="41.68" y="144">5</tspan><tspan class="ce" x="49.17" y="144">5</tspan><tspan class="bf" x="55.759" y="144">,</tspan><tspan class="cc" x="62.259" y="144">2</tspan><tspan class="au" x="69.566" y="144">5</tspan><tspan class="bu" x="77.056" y="144">5</tspan><tspan class="bf" x="83.646" y="144">,</tspan><tspan class="cc" x="90.146" y="144">2</tspan><tspan class="au" x="97.453" y="144">5</tspan><tspan class="cf" x="104.942" y="144">5</tspan><tspan x="111.676" y="144">)</tspan></text></svg>