<svg xmlns="http://www.w3.org/2000/svg" width="602" height="242" viewBox="0 0 602 242"><defs><style>.a{fill:#bbb;}.b{fill:#eee;}.c{fill:#009dd9;}.d,.f{fill:#354052;}.e{fill:#ddd;}.f{font-size:11px;font-family:OpenSans, Open Sans;}.g{letter-spacing:-0.011em;}.h{letter-spacing:0.001em;}.ap,.i{letter-spacing:0.017em;}.ao,.j{letter-spacing:0.011em;}.k{letter-spacing:-0.002em;}.l{letter-spacing:0.006em;}.m{letter-spacing:0.002em;}.n{letter-spacing:-0.006em;}.o{letter-spacing:-0.016em;}.p{letter-spacing:-0.054em;}.q{letter-spacing:0.016em;}.r{letter-spacing:0.002em;}.s{letter-spacing:-0.001em;}.t{letter-spacing:0.002em;}.u{letter-spacing:-0.001em;}.bc,.v{letter-spacing:0.006em;}.w{letter-spacing:0.001em;}.x{letter-spacing:-0.001em;}.y{letter-spacing:0.007em;}.z{letter-spacing:-0.001em;}.aa{letter-spacing:-0.04em;}.ab{letter-spacing:0.021em;}.ac{letter-spacing:-0.003em;}.ad{letter-spacing:0.012em;}.ae{letter-spacing:-0.002em;}.af{letter-spacing:0.002em;}.ag{letter-spacing:0.024em;}.ah{letter-spacing:-0.004em;}.ai{letter-spacing:0.006em;}.aj,.az{letter-spacing:0.001em;}.ak{letter-spacing:0.053em;}.al{letter-spacing:0.007em;}.am{letter-spacing:-0.003em;}.an,.ao,.ap,.aq,.ar,.as,.at,.au,.av,.aw,.ax,.ay,.az,.ba,.bb,.bc,.bd{text-decoration:underline;}.an{letter-spacing:-0.005em;}.aq{letter-spacing:0.004em;}.ar{letter-spacing:0.002em;}.as{letter-spacing:0.042em;}.au{letter-spacing:-0.008em;}.av{letter-spacing:0.002em;}.aw{letter-spacing:-0.003em;}.ax{letter-spacing:-0.048em;}.ay{letter-spacing:-0.072em;}.ba{letter-spacing:-0.001em;}.bb{letter-spacing:-0.003em;}.bd{letter-spacing:-0.011em;}</style></defs><title>copyright_02</title><path class="a" d="M601,1V241H1V1H601m1-1H0V242H602V0Z"/><rect class="b" x="1" y="43" width="600" height="198"/><polyline class="c" points="1 41 601 41 601 44 1 44"/><rect class="d" x="1" y="1" width="600" height="40"/><rect class="e" x="1" y="211" width="600" height="30"/><text class="f" transform="translate(67.288 230.223)"><tspan class="g">C</tspan><tspan class="h" x="6.824" y="0">o</tspan><tspan x="13.479" y="0">p</tspan><tspan class="i" x="20.22" y="0">y</tspan><tspan class="j" x="25.955" y="0">r</tspan><tspan class="k" x="30.571" y="0">i</tspan><tspan class="l" x="33.329" y="0">g</tspan><tspan class="m" x="39.423" y="0">h</tspan><tspan x="46.2" y="0">t © </tspan><tspan class="n" x="64.951" y="0">2</tspan><tspan class="o" x="71.18" y="0">0</tspan><tspan class="p" x="77.29" y="0">1</tspan><tspan x="82.983" y="0">6 </tspan><tspan class="q" x="92.13" y="0">T</tspan><tspan class="r" x="98.391" y="0">h</tspan><tspan x="105.165" y="0">e </tspan><tspan class="s" x="114.194" y="0">N</tspan><tspan class="k" x="122.476" y="0">i</tspan><tspan class="t" x="125.234" y="0">e</tspan><tspan class="u" x="131.432" y="0">l</tspan><tspan class="v" x="134.208" y="0">s</tspan><tspan class="w" x="139.522" y="0">e</tspan><tspan x="145.709" y="0">n </tspan><tspan class="g" x="155.318" y="0">C</tspan><tspan class="h" x="162.142" y="0">o</tspan><tspan class="x" x="168.797" y="0">m</tspan><tspan class="y" x="179.022" y="0">p</tspan><tspan x="185.837" y="0">a</tspan><tspan class="z" x="191.955" y="0">n</tspan><tspan class="aa" x="198.695" y="0">y</tspan><tspan x="203.801" y="0" xml:space="preserve">.  </tspan><tspan class="ab" x="212.443" y="0">A</tspan><tspan class="ac" x="219.629" y="0">l</tspan><tspan x="222.381" y="0">l </tspan><tspan class="ad" x="228.021" y="0">R</tspan><tspan class="ae" x="234.957" y="0">i</tspan><tspan class="l" x="237.715" y="0">g</tspan><tspan class="af" x="243.81" y="0">h</tspan><tspan class="ag" x="250.586" y="0">t</tspan><tspan x="254.731" y="0">s </tspan><tspan class="ah" x="262.836" y="0">R</tspan><tspan class="ai" x="269.592" y="0">es</tspan><tspan class="aj" x="281.143" y="0">e</tspan><tspan class="ak" x="287.33" y="0">r</tspan><tspan x="292.405" y="0">v</tspan><tspan class="al" x="297.916" y="0">e</tspan><tspan class="am" x="304.16" y="0">d</tspan><tspan x="310.869" y="0" xml:space="preserve">.  </tspan><tspan class="an" x="319.511" y="0">P</tspan><tspan class="ao" x="326.082" y="0">r</tspan><tspan class="ap" x="330.697" y="0">i</tspan><tspan class="aq" x="333.672" y="0">v</tspan><tspan class="ar" x="339.224" y="0">a</tspan><tspan class="as" x="345.362" y="0">c</tspan><tspan class="at" x="351.061" y="0">y </tspan><tspan class="au" x="359.461" y="0">P</tspan><tspan class="av" x="365.995" y="0">o</tspan><tspan class="aw" x="372.66" y="0">l</tspan><tspan class="at" x="375.413" y="0">i</tspan><tspan class="as" x="378.195" y="0">c</tspan><tspan class="ax" x="383.895" y="0">y</tspan><tspan x="388.907" y="0" xml:space="preserve">.  </tspan><tspan class="ay" x="397.549" y="0">T</tspan><tspan class="az" x="402.847" y="0">e</tspan><tspan class="ao" x="409.034" y="0">r</tspan><tspan class="ba" x="413.649" y="0">m</tspan><tspan class="at" x="423.872" y="0">s </tspan><tspan class="bb" x="431.977" y="0">o</tspan><tspan class="at" x="438.591" y="0">f </tspan><tspan class="an" x="445.176" y="0">U</tspan><tspan class="bc" x="453.132" y="0">s</tspan><tspan class="bd" x="458.447" y="0">e</tspan><tspan x="464.496" y="0">.</tspan></text></svg>