<svg xmlns="http://www.w3.org/2000/svg" width="600px" height="500px" viewBox="0 0 600 500">
	<polyline fill="#EDEFF1" stroke="none" points="0,0 600,0 600,500 0,500 0,0"/>
	<path fill="#CFD8DC" d="M250.635,250.324h-28.828V288h-10.723v-85.312h44.414v9.199h-33.691v29.238h28.828V250.324L250.635,250.324
		z"/>
	<path fill="#CFD8DC" d="M279.463,254.602V288H268.74v-85.312h27.188c7.93,0,14.159,2.373,18.691,7.119
		c4.531,4.746,6.797,11.065,6.797,18.955c0,8.203-2.159,14.522-6.475,18.955c-4.316,4.434-10.4,6.729-18.252,6.885H279.463z
		 M279.463,245.402h16.465c4.765,0,8.417-1.428,10.957-4.285c2.539-2.855,3.811-6.945,3.811-12.268
		c0-5.125-1.312-9.234-3.928-12.326c-2.617-3.092-6.211-4.637-10.781-4.637h-16.523L279.463,245.402L279.463,245.402z"/>
	<path fill="#CFD8DC" d="M390.732,252.844c0,11.641-2.481,20.605-7.441,26.895c-4.961,6.289-12.012,9.436-21.152,9.436
		c-8.789,0-15.73-3.057-20.83-9.17c-5.098-6.111-7.742-14.756-7.938-25.928V238.02c0-11.406,2.52-20.34,7.559-26.807
		c5.039-6.464,12.07-9.697,21.096-9.697c8.982,0,15.984,3.096,21.006,9.287c5.019,6.192,7.588,15.029,7.705,26.514v15.527H390.732z
		 M380.01,237.902c0-9.023-1.475-15.732-4.424-20.127c-2.95-4.396-7.471-6.592-13.562-6.592c-5.898,0-10.362,2.227-13.391,6.68
		c-3.025,4.453-4.562,11.016-4.6,19.688v15.293c0,8.711,1.514,15.352,4.541,19.922c3.024,4.57,7.549,6.855,13.562,6.855
		c6.017,0,10.468-2.109,13.359-6.328c2.891-4.219,4.395-10.684,4.512-19.395L380.01,237.902L380.01,237.902z"/>
</svg>
