<svg xmlns="http://www.w3.org/2000/svg" width="1260px" height="400px" viewBox="0 0 1260 400">
	<path fill="#EDEFF1" d="M1256,0H4C1.8,0,0,1.8,0,4v392c0,2.2,1.8,4,4,4h1252c2.2,0,4-1.8,4-4V4C1260,1.8,1258.2,0,1256,0L1256,0z"/>
	<path fill="#D0D8DC" d="M580.635,200.324h-28.828V238h-10.723v-85.312h44.414v9.199h-33.691v29.238h28.828V200.324L580.635,200.324z
		"/>
	<path fill="#D0D8DC" d="M609.463,204.602V238H598.74v-85.312h27.188c7.93,0,14.159,2.373,18.691,7.119
		c4.531,4.746,6.797,11.065,6.797,18.955c0,8.203-2.159,14.522-6.475,18.955c-4.316,4.434-10.4,6.729-18.252,6.885H609.463z
		 M609.463,195.402h16.465c4.766,0,8.418-1.428,10.957-4.285c2.539-2.856,3.811-6.945,3.811-12.268c0-5.125-1.312-9.234-3.928-12.326
		c-2.617-3.092-6.211-4.638-10.781-4.638h-16.522L609.463,195.402L609.463,195.402z"/>
	<path fill="#D0D8DC" d="M720.732,202.844c0,11.641-2.481,20.605-7.441,26.896c-4.961,6.287-12.012,9.434-21.152,9.434
		c-8.789,0-15.73-3.057-20.83-9.17c-5.098-6.111-7.742-14.756-7.938-25.928V188.02c0-11.405,2.52-20.34,7.559-26.807
		c5.039-6.464,12.07-9.697,21.096-9.697c8.982,0,15.984,3.096,21.006,9.287c5.019,6.192,7.588,15.029,7.705,26.514v15.527H720.732
		L720.732,202.844z M710.01,187.902c0-9.023-1.475-15.732-4.424-20.127c-2.95-4.396-7.471-6.592-13.562-6.592
		c-5.898,0-10.362,2.227-13.391,6.68c-3.025,4.453-4.562,11.016-4.6,19.688v15.293c0,8.711,1.514,15.352,4.541,19.922
		c3.024,4.57,7.549,6.855,13.562,6.855c6.017,0,10.468-2.109,13.359-6.328c2.891-4.219,4.395-10.684,4.512-19.395L710.01,187.902
		L710.01,187.902z"/>
</svg>
