<svg xmlns="http://www.w3.org/2000/svg" width="900px" height="600px" viewBox="0 0 900 600">
	<polyline fill="#EEEFF1" points="0,0 900,0 900,600 0,600 0,0 "/>
	<path fill="#D1D8DC" d="M400.635,300.324h-28.828V338h-10.723v-85.312h44.414v9.199h-33.691v29.238h28.828V300.324L400.635,300.324z
		"/>
	<path fill="#D1D8DC" d="M429.463,304.602V338H418.74v-85.312h27.188c7.931,0,14.159,2.373,18.691,7.119
		c4.531,4.746,6.797,11.065,6.797,18.955c0,8.203-2.159,14.522-6.475,18.955c-4.316,4.434-10.4,6.729-18.252,6.885H429.463z
		 M429.463,295.402h16.465c4.767,0,8.418-1.428,10.957-4.285c2.539-2.856,3.812-6.945,3.812-12.268c0-5.125-1.312-9.234-3.929-12.326
		s-6.211-4.639-10.78-4.639h-16.522L429.463,295.402L429.463,295.402z"/>
	<path fill="#D1D8DC" d="M540.732,302.844c0,11.641-2.481,20.605-7.441,26.896c-4.961,6.287-12.012,9.434-21.152,9.434
		c-8.789,0-15.729-3.057-20.83-9.17c-5.098-6.111-7.741-14.756-7.938-25.928V288.02c0-11.404,2.52-20.34,7.559-26.807
		c5.039-6.464,12.07-9.697,21.097-9.697c8.981,0,15.983,3.096,21.006,9.287c5.019,6.192,7.588,15.029,7.705,26.514v15.527H540.732
		L540.732,302.844z M530.01,287.902c0-9.023-1.475-15.732-4.424-20.127c-2.95-4.396-7.471-6.592-13.562-6.592
		c-5.898,0-10.362,2.227-13.392,6.68c-3.024,4.453-4.562,11.016-4.6,19.688v15.293c0,8.711,1.514,15.352,4.541,19.922
		c3.023,4.57,7.549,6.855,13.562,6.855c6.018,0,10.469-2.109,13.359-6.328s4.395-10.684,4.512-19.395L530.01,287.902L530.01,287.902z
		"/>
</svg>
