<svg xmlns="http://www.w3.org/2000/svg" width="696" height="326" viewBox="0 0 696 326"><defs><style>.a,.c{fill:#354052;}.b{fill:none;}.c{fill-rule:evenodd;}.d{fill:#edeef0;}.e{font-size:11px;fill:#464646;font-family:OpenSans, Open Sans;}.f{fill:#00aeef;}.g{fill:#fff;}</style></defs><title>i_brand_bar</title><rect class="a" x="616" y="24" width="44" height="80"/><rect class="a" x="6" y="219" width="104" height="48"/><circle class="a" cx="277.999" cy="28" r="4"/><circle class="a" cx="277.999" cy="40" r="4"/><circle class="a" cx="277.999" cy="52" r="4"/><circle class="a" cx="289.999" cy="28" r="4"/><circle class="a" cx="289.999" cy="40" r="4"/><circle class="a" cx="289.999" cy="52" r="4"/><circle class="a" cx="301.999" cy="28" r="4"/><circle class="a" cx="301.999" cy="40" r="4"/><circle class="a" cx="301.999" cy="52" r="4"/><rect class="b" x="273.999" y="24" width="32" height="32"/><path class="a" d="M406,26a.483.483,0,0,1,.511.461v2.7l1.546.36c3.666.854,5.943,4.082,5.943,8.425v7.879l.586.586L417.172,49H394.828l2.586-2.586.586-.586V37.949c0-4.343,2.276-7.572,5.94-8.425l1.546-.36v-2.7A.484.484,0,0,1,406,26m0-2a2.484,2.484,0,0,0-2.513,2.461v1.115C398.7,28.691,396,32.91,396,37.949V45l-4,4v2h28V49l-4-4V37.949c0-5.039-2.7-9.258-7.489-10.373V26.461A2.482,2.482,0,0,0,406,24Z"/><path class="a" d="M403,53a3,3,0,0,0,6,0Z"/><rect class="b" x="390" y="24" width="32" height="32"/><path class="a" d="M420,99V97l-4-4V85.949c0-5.039-2.7-9.258-7.489-10.373V74.461a2.512,2.512,0,0,0-5.024,0v1.115C398.7,76.691,396,80.91,396,85.949V93l-4,4v2Z"/><path class="a" d="M403,101a3,3,0,0,0,6,0Z"/><rect class="b" x="390" y="72" width="32" height="32"/><path class="c" d="M177.346,45.467a12.046,12.046,0,1,1,2.121-2.121L189.621,53.5a1.505,1.505,0,0,1-2.121,2.121ZM170,27a9,9,0,1,0,9,9A9,9,0,0,0,170,27Z"/><rect class="b" x="158" y="24" width="32" height="32"/><path class="c" d="M46,32a1.921,1.921,0,0,1,1.832-2H68.169a2.008,2.008,0,0,1,0,4H47.832A1.921,1.921,0,0,1,46,32Z"/><path class="c" d="M46,40a1.921,1.921,0,0,1,1.832-2H68.169a2.008,2.008,0,0,1,0,4H47.832A1.921,1.921,0,0,1,46,40Z"/><path class="c" d="M46,48a1.921,1.921,0,0,1,1.832-2H68.169a2.008,2.008,0,0,1,0,4H47.832A1.921,1.921,0,0,1,46,48Z"/><rect class="b" x="42" y="24" width="32" height="32"/><rect class="b" x="12" y="227" width="91.33" height="32"/><path class="d" d="M17.316,238.676a9.2,9.2,0,0,1,1.507-1.258,3.187,3.187,0,0,1,1.733-.441,2.509,2.509,0,0,1,2.323,1.113,5.589,5.589,0,0,1,.692,2.941v7.93a.609.609,0,0,1-.5.637,6.276,6.276,0,0,1-1.349.211v.352h6.423v-.293c-.193-.016-.4-.047-.619-.07s-.424-.078-.616-.125a1.4,1.4,0,0,1-.482-.234.474.474,0,0,1-.2-.383v-9.242a5.883,5.883,0,0,0-.977-3.5,3.254,3.254,0,0,0-2.8-1.348,4.381,4.381,0,0,0-1.63.324,7.093,7.093,0,0,0-1.448.84,7.569,7.569,0,0,0-1.178,1.113,11.01,11.01,0,0,0-.87,1.152"/><path class="d" d="M16.531,239.258v9.762a.782.782,0,0,0,.219.453,1.014,1.014,0,0,0,.377.207,2.524,2.524,0,0,0,.5.082,4.928,4.928,0,0,1,.6.074v.324H12.16v-.324a3.771,3.771,0,0,0,1.243-.281.742.742,0,0,0,.519-.723V238.02a1.183,1.183,0,0,0-.046-.383.884.884,0,0,0-.269-.285l-.665-.363c-.251-.129-.5-.25-.753-.363v-.184l4.125-1.477h.209Z"/><path class="d" d="M91.952,238.676a9.142,9.142,0,0,1,1.5-1.258,3.2,3.2,0,0,1,1.726-.441,2.527,2.527,0,0,1,2.335,1.113,5.567,5.567,0,0,1,.689,2.941v7.93a.615.615,0,0,1-.5.637,6.506,6.506,0,0,1-1.356.211v.352h6.418v-.293c-.187-.016-.388-.047-.609-.07a6.008,6.008,0,0,1-.612-.129,1.359,1.359,0,0,1-.489-.231.509.509,0,0,1-.207-.383v-9.242a5.9,5.9,0,0,0-.972-3.5,3.242,3.242,0,0,0-2.8-1.348,4.433,4.433,0,0,0-1.638.324,7.021,7.021,0,0,0-1.444.84,7.276,7.276,0,0,0-1.182,1.113,11.138,11.138,0,0,0-.862,1.152"/><path class="d" d="M91.16,239.258v9.762a.839.839,0,0,0,.221.453.976.976,0,0,0,.376.207,2.637,2.637,0,0,0,.508.082,4.909,4.909,0,0,1,.594.074v.324h-6.07v-.324a3.8,3.8,0,0,0,1.247-.281.733.733,0,0,0,.515-.723V238.02a1.332,1.332,0,0,0-.046-.383.758.758,0,0,0-.267-.285c-.19-.105-.409-.219-.657-.363-.257-.129-.506-.25-.757-.363v-.184l4.116-1.477h.216Z"/><path class="d" d="M28.921,250.16v-.332c.254-.016.512-.039.768-.07a3.075,3.075,0,0,0,.688-.164,1.381,1.381,0,0,0,.512-.309.578.578,0,0,0,.206-.469V237.828a1.878,1.878,0,0,0-.047-.449.641.641,0,0,0-.274-.352,5.521,5.521,0,0,0-.686-.379,7.754,7.754,0,0,0-.847-.352v-.2l4.328-1.4h.189V249a.714.714,0,0,0,.271.461,1.464,1.464,0,0,0,.495.211,4.862,4.862,0,0,0,.625.082,6.013,6.013,0,0,1,.658.07v.332Z"/><path class="d" d="M33.486,231.52a1.64,1.64,0,0,1-1.2.473,1.7,1.7,0,0,1-1.676-1.672,1.573,1.573,0,0,1,.482-1.187,1.781,1.781,0,0,1,2.391,0,1.584,1.584,0,0,1,.476,1.188A1.654,1.654,0,0,1,33.486,231.52Z"/><path class="d" d="M75.121,239.531l-.065.434a4.8,4.8,0,0,1-.036.59c-.016.234-.028.453-.028.691a8.594,8.594,0,0,0,.384,2.582,6.713,6.713,0,0,0,1.118,2.164,5.1,5.1,0,0,0,1.862,1.5,5.845,5.845,0,0,0,2.589.543,4.879,4.879,0,0,0,2.805-.812,3.847,3.847,0,0,0,1.58-2l.258.055a5.681,5.681,0,0,1-.58,1.594,6.057,6.057,0,0,1-1.213,1.613,6.566,6.566,0,0,1-1.841,1.219,5.9,5.9,0,0,1-2.388.477,7,7,0,0,1-2.98-.613,6.224,6.224,0,0,1-2.285-1.707,7.83,7.83,0,0,1-1.457-2.59,9.68,9.68,0,0,1-.512-3.156,7.674,7.674,0,0,1,.483-2.664,7.929,7.929,0,0,1,1.356-2.387,6.691,6.691,0,0,1,2.144-1.711,6,6,0,0,1,2.8-.656,8.355,8.355,0,0,1,2.353.316,5.471,5.471,0,0,1,1.924.977,5.223,5.223,0,0,1,1.331,1.648,5.936,5.936,0,0,1,.6,2.332H76.441l.14-.434c.39,0,.613-.012.983-.016l1.17-.035c.406-.012.854-.016,1.346-.016a8.092,8.092,0,0,0,.892-.035,2.291,2.291,0,0,0,.736-.152,2.689,2.689,0,0,0,.341-.48,1.694,1.694,0,0,0,.108-.672,2.864,2.864,0,0,0-.812-2.039,2.929,2.929,0,0,0-2.189-.848,2.634,2.634,0,0,0-1.619.531A5.917,5.917,0,0,0,76.289,237a6.544,6.544,0,0,0-.82,1.418A6,6,0,0,0,75.121,239.531Z"/><path class="d" d="M39.6,239.523l-.07.441c0,.172-.008.371-.028.586a6.159,6.159,0,0,0-.033.7,8.79,8.79,0,0,0,.383,2.578,6.79,6.79,0,0,0,1.122,2.168,5.226,5.226,0,0,0,1.852,1.5,5.924,5.924,0,0,0,2.6.543,4.866,4.866,0,0,0,2.8-.812,3.9,3.9,0,0,0,1.588-2l.258.059a5.967,5.967,0,0,1-.58,1.59,5.813,5.813,0,0,1-1.219,1.613,6.254,6.254,0,0,1-1.84,1.215,5.838,5.838,0,0,1-2.387.484,7.007,7.007,0,0,1-2.975-.613,6.451,6.451,0,0,1-2.294-1.707,7.842,7.842,0,0,1-1.454-2.59,9.684,9.684,0,0,1-.515-3.156,8.072,8.072,0,0,1,1.845-5.055,6.832,6.832,0,0,1,2.143-1.707,6.013,6.013,0,0,1,2.8-.66,8.312,8.312,0,0,1,2.348.32,5.306,5.306,0,0,1,1.922.977,5,5,0,0,1,1.331,1.648,6.011,6.011,0,0,1,.611,2.332H40.914l.148-.441c.378,0,.6,0,.98-.012l1.169-.035c.4-.008.853-.012,1.34-.012.317,0,.62-.008.895-.035a2.314,2.314,0,0,0,.736-.152,2.516,2.516,0,0,0,.336-.484,1.549,1.549,0,0,0,.111-.672,2.83,2.83,0,0,0-.815-2.035,2.925,2.925,0,0,0-2.19-.848,2.669,2.669,0,0,0-1.615.527A5.851,5.851,0,0,0,40.76,237a6.154,6.154,0,0,0-.815,1.414A5.854,5.854,0,0,0,39.6,239.523Z"/><path class="d" d="M50.658,250.16V249.8a7.369,7.369,0,0,0,1.951-.3.731.731,0,0,0,.476-.719v-18.41a1.1,1.1,0,0,0-.05-.391.658.658,0,0,0-.27-.281c-.187-.113-.482-.273-.86-.5a10.683,10.683,0,0,0-.964-.5v-.191L55.523,227h.227v21.934a.716.716,0,0,0,.14.484.756.756,0,0,0,.437.223,3.868,3.868,0,0,0,.737.082c.3.008.647.039,1.054.082v.356Z"/><path class="d" d="M69.893,247.594a4.233,4.233,0,0,1-1.327,1.5,5.752,5.752,0,0,1-1.9.824,9.67,9.67,0,0,1-2.263.258,12.955,12.955,0,0,1-2.645-.258,11.071,11.071,0,0,1-2.309-.73v-4.231h.232a16.987,16.987,0,0,0,.648,1.613,7.556,7.556,0,0,0,.928,1.566,4.69,4.69,0,0,0,1.314,1.191,3.489,3.489,0,0,0,1.828.469,3.413,3.413,0,0,0,2.457-.879,3.627,3.627,0,0,0,.92-2.711,2.334,2.334,0,0,0-.624-1.652,3.246,3.246,0,0,0-1.723-.879c-.578-.106-1.127-.227-1.662-.356a12.4,12.4,0,0,1-1.442-.414,3.98,3.98,0,0,1-1.976-1.437A4.058,4.058,0,0,1,59.6,239a3.8,3.8,0,0,1,.42-1.8,4.342,4.342,0,0,1,1.124-1.379,5.254,5.254,0,0,1,1.638-.883,6.4,6.4,0,0,1,1.978-.3,10.877,10.877,0,0,1,2.367.234,16.544,16.544,0,0,1,1.956.59l.387,3.98-.257.063c-.3-.648-.6-1.238-.895-1.781a7.054,7.054,0,0,0-.992-1.4,3.844,3.844,0,0,0-1.234-.918,3.679,3.679,0,0,0-1.584-.316,2.96,2.96,0,0,0-1.071.188,2.667,2.667,0,0,0-.931.563,2.8,2.8,0,0,0-.654.934,3.025,3.025,0,0,0-.26,1.285,2.023,2.023,0,0,0,.672,1.707,4.75,4.75,0,0,0,1.7.766c.478.1.981.219,1.54.34s1.035.219,1.439.332a4.7,4.7,0,0,1,2.448,1.473,3.985,3.985,0,0,1,1,2.758A4.445,4.445,0,0,1,69.893,247.594Z"/><path class="d" d="M16.648,257.348a1.635,1.635,0,1,1-1.633-1.641A1.636,1.636,0,0,1,16.648,257.348Z"/><path class="d" d="M27.221,257.348a1.635,1.635,0,1,1-1.632-1.641A1.637,1.637,0,0,1,27.221,257.348Z"/><path class="d" d="M37.8,257.348a1.637,1.637,0,1,1-1.633-1.641A1.638,1.638,0,0,1,37.8,257.348Z"/><path class="d" d="M48.373,257.348a1.638,1.638,0,1,1-1.636-1.641A1.642,1.642,0,0,1,48.373,257.348Z"/><path class="d" d="M58.947,257.348a1.638,1.638,0,1,1-1.639-1.641A1.644,1.644,0,0,1,58.947,257.348Z"/><path class="d" d="M69.52,257.348a1.638,1.638,0,1,1-1.641-1.641A1.645,1.645,0,0,1,69.52,257.348Z"/><path class="d" d="M80.093,257.348a1.637,1.637,0,1,1-1.642-1.641A1.642,1.642,0,0,1,80.093,257.348Z"/><path class="d" d="M101.237,257.348a1.634,1.634,0,1,1-1.635-1.641A1.637,1.637,0,0,1,101.237,257.348Z"/><path class="d" d="M90.664,257.348a1.634,1.634,0,1,1-1.639-1.641A1.642,1.642,0,0,1,90.664,257.348Z"/><text class="e" transform="translate(29.072 135.426)">hamburger</text><text class="e" transform="translate(261.668 135.426)">application</text><text class="e" transform="translate(156.968 135.426)">search</text><text class="e" transform="translate(26.111 298.426)">nielsen_logo</text><text class="e" transform="translate(391.633 135.426)">alerts</text><text class="e" transform="translate(494.059 135.426)">n_tab_blue</text><text class="e" transform="translate(607.206 135.426)">n_tab_white</text><path class="f" d="M508,24V64h28V24Zm11.845,34.108h-6.814v-.355a4.635,4.635,0,0,0,1.395-.32.845.845,0,0,0,.582-.817V44.4a1.276,1.276,0,0,0-.054-.426.805.805,0,0,0-.3-.32q-.319-.178-.742-.409c-.284-.154-.565-.289-.847-.409v-.213l4.625-1.668h.24l.007,4.85V56.829a.909.909,0,0,0,.247.515,1.049,1.049,0,0,0,.423.232,2.642,2.642,0,0,0,.565.09,4.465,4.465,0,0,1,.672.089Zm11.125,0h-7.208v-.39a7.908,7.908,0,0,0,1.518-.233.7.7,0,0,0,.565-.727V47.806a6.276,6.276,0,0,0-.777-3.322,2.825,2.825,0,0,0-2.613-1.26,3.539,3.539,0,0,0-1.941.5,10.183,10.183,0,0,0-1.691,1.427l0-.325a12.585,12.585,0,0,1,.969-1.3,8.372,8.372,0,0,1,1.326-1.26,7.353,7.353,0,0,1,1.623-.942,4.665,4.665,0,0,1,1.835-.372,3.633,3.633,0,0,1,3.144,1.526,6.626,6.626,0,0,1,1.094,3.943V56.865a.527.527,0,0,0,.229.426,1.6,1.6,0,0,0,.547.266,5.327,5.327,0,0,0,.688.142c.246.037.478.066.689.089Z"/><path class="g" d="M624,24V64h28V24Zm11.845,34.108h-6.814v-.355a4.635,4.635,0,0,0,1.395-.32.845.845,0,0,0,.582-.817V44.4a1.276,1.276,0,0,0-.054-.426.805.805,0,0,0-.3-.32q-.319-.178-.742-.409c-.284-.154-.565-.289-.847-.409v-.213l4.625-1.668h.24l.007,4.85V56.829a.909.909,0,0,0,.247.515,1.049,1.049,0,0,0,.423.232,2.642,2.642,0,0,0,.565.09,4.465,4.465,0,0,1,.672.089Zm11.125,0h-7.208v-.39a7.908,7.908,0,0,0,1.518-.233.7.7,0,0,0,.565-.727V47.806a6.276,6.276,0,0,0-.777-3.322,2.825,2.825,0,0,0-2.613-1.26,3.539,3.539,0,0,0-1.941.5,10.183,10.183,0,0,0-1.691,1.427l0-.325a12.585,12.585,0,0,1,.969-1.3,8.372,8.372,0,0,1,1.326-1.26,7.353,7.353,0,0,1,1.623-.942,4.665,4.665,0,0,1,1.835-.372,3.633,3.633,0,0,1,3.144,1.526,6.626,6.626,0,0,1,1.094,3.943V56.865a.527.527,0,0,0,.229.426,1.6,1.6,0,0,0,.547.266,5.327,5.327,0,0,0,.688.142c.246.037.478.066.689.089Z"/><rect class="b" width="696" height="326"/></svg>