<svg xmlns="http://www.w3.org/2000/svg" width="696" height="310" viewBox="0 0 696 310"><defs><style>.a,.b{fill:#354052;}.a{fill-rule:evenodd;}.c{fill:none;}.d{fill:#fff;}.e{font-size:11px;fill:#464646;font-family:OpenSans, Open Sans;}</style></defs><title>i_common_actions</title><path class="a" d="M306,40a16,16,0,1,1-16-16A16,16,0,0,1,306,40Zm-2,0a14,14,0,1,0-14,14A14,14,0,0,0,304,40Z"/><rect class="b" x="288" y="38" width="4" height="12"/><circle class="b" cx="290" cy="32" r="3"/><rect class="c" x="274" y="24" width="32" height="32"/><path class="a" d="M422,40a16,16,0,1,1-16-16A16,16,0,0,1,422,40Zm-2,0a14,14,0,1,0-14,14A14,14,0,0,0,420,40Z"/><path class="b" d="M400,37c.076-3.573,2.132-6,5.779-6C410.5,31,412,33.9,412,35.823a4.657,4.657,0,0,1-2.1,4.223c-1.074.8-2.176,1.448-2.4,2.923V44H404V43a5.389,5.389,0,0,1,2.253-4.129c.974-.775,1.823-1.349,1.823-2.7a1.96,1.96,0,0,0-2.124-2.248c-1.8,0-2.546,1.3-2.573,3.076Zm4,8h4v4h-4Z"/><rect class="c" x="390" y="24" width="32" height="32"/><circle class="b" cx="638" cy="28" r="4"/><circle class="b" cx="638" cy="40" r="4"/><circle class="b" cx="638" cy="52" r="4"/><rect class="c" x="622" y="24" width="32" height="32"/><path class="a" d="M306,88a16,16,0,1,1-16-16A16,16,0,0,1,306,88Zm-14-2h-4V98h4Zm-2-9a3,3,0,1,0,3,3A3,3,0,0,0,290,77Z"/><rect class="c" x="274" y="72" width="32" height="32"/><path class="a" d="M422,88a16,16,0,1,1-16-16A16,16,0,0,1,422,88Z"/><path class="d" d="M400,85c.076-3.573,2.132-6,5.779-6C410.5,79,412,81.9,412,83.823a4.657,4.657,0,0,1-2.1,4.223c-1.074.8-2.176,1.448-2.4,2.923V92H404V91a5.389,5.389,0,0,1,2.253-4.129c.974-.775,1.823-1.349,1.823-2.7a1.96,1.96,0,0,0-2.124-2.248c-1.8,0-2.546,1.3-2.573,3.076Zm4,8h4v4h-4Z"/><rect class="c" x="390" y="72" width="32" height="32"/><path class="a" d="M42,223H52v2H44v24H68v-8h2v10H42Zm10,15.172L54.827,241,70,225.828V233h4V219H60v4h7.172Z"/><rect class="c" x="42" y="219" width="32" height="32"/><path class="a" d="M160,229v20h20v2H158V229Zm6-10h24v24H168.827L182,229.828V237h4V223H172v4h7.172L166,240.172Z"/><rect class="c" x="158" y="219" width="32" height="32"/><path class="b" d="M292.109,231.477a5.994,5.994,0,1,1,1.413,1.414l-4.916,4.918A6.951,6.951,0,0,1,289.928,241h5.2a4,4,0,1,1,0,2h-5.2A7,7,0,1,1,282,235.071v-5.2a4,4,0,1,1,2,0v5.2a6.946,6.946,0,0,1,3.19,1.322ZM288,242a5,5,0,1,0-5,5A5,5,0,0,0,288,242Zm9-18a4,4,0,1,0,4,4A4,4,0,0,0,297,224Zm-14,0a2,2,0,1,0,2,2A2,2,0,0,0,283,224Zm16,16a2,2,0,1,0,2,2A2,2,0,0,0,299,240Z"/><rect class="c" x="274" y="219" width="32" height="32"/><path class="b" d="M530.015,26.331a10.884,10.884,0,0,1,3.271,2.385,10.593,10.593,0,0,1,2.385,3.271L517.579,50.079l-8.438,2.78,2.779-8.436,18.1-18.093m-.306-2.089a.906.906,0,0,0-.665.231L510.169,43.346,506,56l12.656-4.17,18.873-18.873c.781-.781-.484-3.312-2.829-5.656-1.874-1.874-3.867-3.059-4.991-3.059Z"/><rect class="c" x="506" y="24" width="32" height="32"/><path class="a" d="M510.169,91.346,506,104l12.656-4.17,18.873-18.873c.781-.781-.484-3.312-2.829-5.656s-4.874-3.609-5.655-2.828Z"/><rect class="c" x="506" y="72" width="32" height="32"/><path class="a" d="M190,40a16,16,0,1,1-16-16A16,16,0,0,1,190,40Zm-2,0a14,14,0,1,0-14,14A14,14,0,0,0,188,40Z"/><polygon class="a" points="172 30 176 30 176 38 184 38 184 42 176 42 176 50 172 50 172 42 164 42 164 38 172 38 172 30"/><rect class="c" x="158" y="24" width="32" height="32"/><path class="a" d="M190,88a16,16,0,1,1-16-16A16,16,0,0,1,190,88Zm-18-2h-8v4h8v8h4V90h8V86h-8V78h-4Z"/><rect class="c" x="158" y="72" width="32" height="32"/><path class="a" d="M74,40A16,16,0,1,1,58,24,16,16,0,0,1,74,40Zm-2,0A14,14,0,1,0,58,54,14,14,0,0,0,72,40Z"/><polygon class="a" points="49.515 34.344 52.344 31.516 58 37.172 63.656 31.514 66.484 34.344 60.827 40 66.484 45.656 63.656 48.484 58 42.828 52.344 48.484 49.513 45.656 55.172 40 49.515 34.344"/><rect class="c" x="42" y="24" width="32" height="32"/><path class="a" d="M74,88A16,16,0,1,1,58,72,16,16,0,0,1,74,88ZM55.172,88l-5.659,5.656,2.831,2.828L58,90.828l5.656,5.656,2.828-2.828L60.827,88l5.657-5.656-2.828-2.83L58,85.172l-5.656-5.656-2.829,2.828Z"/><rect class="c" x="42" y="72" width="32" height="32"/><text class="e" transform="translate(44.828 282.426)">open</text><text class="e" transform="translate(260.273 282.426)">find_similar</text><text class="e" transform="translate(512.198 135.426)">edit</text><text class="e" transform="translate(153.584 282.426)">open_in</text><text class="e" transform="translate(164.187 135.426)">add</text><text class="e" transform="translate(44.941 135.426)">close</text><text class="e" transform="translate(623.025 135.426)">menu</text><text class="e" transform="translate(280.034 135.426)">info</text><text class="e" transform="translate(394.76 135.426)">help</text><rect class="c" width="696" height="310"/></svg>