<svg xmlns="http://www.w3.org/2000/svg" width="696" height="308" viewBox="0 0 696 308"><defs><style>.a,.c{fill:#354052;}.a,.d{fill-rule:evenodd;}.b{fill:none;}.d{fill:#ddd;}.e{fill:#fff;}.f{font-size:11px;fill:#464646;font-family:OpenSans, Open Sans;}</style></defs><title>i_data-report-types</title><path class="a" d="M160,24V56h28V30l-6-6Zm2,2V54h24V32h-6V26Zm4,24h12v2H166Zm12-14h4v8h-4Zm-6-6h4V44h-4Zm-6,2h4V44h-4Zm0,14h16v2H166Z"/><path class="a" d="M276,24V56h28V30l-6-6Zm2,2V54h24V32h-6V26Zm4,22h12v2H282Zm0-4h16v2H282Zm0-4h16v2H282Zm0-4h16v2H282Zm0-4h12v2H282Z"/><path class="a" d="M72,38V52H44V38Zm2-4a4,4,0,0,0-4-4H58.6l-4-4H46a4,4,0,0,0-4,4V54H74Zm-2,2V34a2,2,0,0,0-2-2H58l-4-4H46a2,2,0,0,0-2,2v6Z"/><rect class="b" x="42" y="24" width="32" height="32"/><rect class="c" x="42" y="86" width="32" height="16"/><path class="a" d="M74,82a4,4,0,0,0-4-4H58.6l-4-4H46a4,4,0,0,0-4,4v6H74Z"/><rect class="b" x="42" y="72" width="32" height="32"/><path class="c" d="M414,24H392V56h28V30Zm4,30H394V26h18v6h6Z"/><path class="c" d="M400,38v4h-6V38h6m2-2H392v8h10V36Z"/><path class="c" d="M406,38v4h-4V38h4m2-2h-8v8h8V36Z"/><path class="c" d="M412,38v4h-4V38h4m2-2h-8v8h8V36Z"/><path class="c" d="M418,38v4h-4V38h4m2-2h-8v8h8V36Z"/><path class="c" d="M400,44v4h-6V44h6m2-2H392v8h10V42Z"/><path class="c" d="M406,44v4h-4V44h4m2-2h-8v8h8V42Z"/><path class="c" d="M412,44v4h-4V44h4m2-2h-8v8h8V42Z"/><path class="c" d="M418,44v4h-4V44h4m2-2h-8v8h8V42Z"/><path class="c" d="M400,50v4h-6V50h6m2-2H392v8h10V48Z"/><path class="c" d="M406,50v4h-4V50h4m2-2h-8v8h8V48Z"/><path class="c" d="M412,50v4h-4V50h4m2-2h-8v8h8V48Z"/><rect class="b" x="390" y="24" width="32" height="32"/><rect class="c" x="528" y="34" width="4" height="18"/><rect class="c" x="510" y="32" width="4" height="20"/><rect class="c" x="522" y="26" width="4" height="26"/><rect class="c" x="516" y="36" width="4" height="16"/><rect class="c" x="506" y="52" width="30" height="2"/><rect class="b" x="506" y="24" width="32" height="32"/><rect class="c" x="636" y="40" width="14" height="4"/><rect class="c" x="636" y="46" width="14" height="4"/><rect class="c" x="636" y="28" width="14" height="4"/><rect class="c" x="636" y="34" width="14" height="4"/><rect class="c" x="626" y="40" width="6" height="4"/><rect class="c" x="626" y="46" width="6" height="4"/><rect class="c" x="626" y="28" width="6" height="4"/><rect class="c" x="626" y="34" width="6" height="4"/><path class="d" d="M635,34"/><rect class="b" x="622" y="24" width="32" height="32"/><rect class="b" x="42" y="219" width="32" height="32"/><path class="c" d="M67.554,222.171a9.573,9.573,0,0,1,3.446.646v20.492q-.286-.011-.581-.011A23.914,23.914,0,0,0,58,247.158a23.914,23.914,0,0,0-12.419-3.86q-.294,0-.581.011V222.817a9.562,9.562,0,0,1,3.446-.646,8.17,8.17,0,0,1,7.061,3.972L58,229.87l2.494-3.727a8.167,8.167,0,0,1,7.06-3.972m0-3a11.172,11.172,0,0,0-9.554,5.3,11.174,11.174,0,0,0-9.554-5.3A12.041,12.041,0,0,0,42,221v26a8.1,8.1,0,0,1,3.581-.7C49.857,246.3,55.4,248.4,58,251c2.6-2.6,8.143-4.7,12.419-4.7A8.1,8.1,0,0,1,74,247V221a12.045,12.045,0,0,0-6.446-1.829Z"/><path class="c" d="M48,219.18a11.466,11.466,0,0,1,4,.551V237l-4,4Z"/><circle class="c" cx="174.001" cy="228" r="2"/><circle class="c" cx="167.637" cy="230.635" r="2"/><circle class="c" cx="165.001" cy="237" r="2"/><circle class="c" cx="167.636" cy="243.365" r="2"/><circle class="c" cx="180.364" cy="230.635" r="2"/><circle class="c" cx="183.001" cy="237" r="2"/><circle class="c" cx="180.365" cy="243.365" r="2"/><path class="c" d="M177.8,228.844l-5.629,6.445a2.659,2.659,0,0,0-.44.654,2.5,2.5,0,0,0,4.531,2.113,2.725,2.725,0,0,0,.218-.759Z"/><path class="c" d="M185.315,248.313a1.5,1.5,0,0,1-2.123-2.121,13,13,0,1,0-18.385,0,1.5,1.5,0,1,1-2.121,2.123,16,16,0,1,1,22.627,0Z"/><rect class="b" x="158.001" y="219" width="32" height="32"/><rect class="b" x="274" y="219" width="32" height="32"/><path class="c" d="M298,221H282a4,4,0,0,0-4,4v20a4,4,0,0,0,4,4h16a4,4,0,0,0,4-4V225A4,4,0,0,0,298,221Zm2,24a2,2,0,0,1-2,2H282a2,2,0,0,1-2-2v-4h20Zm0-6H280V225a2,2,0,0,1,2-2h16a2,2,0,0,1,2,2Z"/><rect class="c" x="396" y="228" width="20" height="2"/><rect class="b" x="390" y="219" width="32" height="32"/><path class="c" d="M420,246H392V224h28Zm-2-20H394v18h24Z"/><path class="c" d="M416,242h-6V232h6Zm-2-8h-2v6h2Z"/><path class="c" d="M408,242H396V232h12Zm-2-8h-8v6h8Z"/><path class="c" d="M536,235a6,6,0,0,0-5.051-5.925,7.383,7.383,0,0,0-.493-2.11,3,3,0,1,0-3.163-4.258,7.875,7.875,0,0,0-1.744-.987,5,5,0,1,1,7.8,5.991l-.007.019A8,8,0,0,1,538,235v8a2,2,0,0,1-2,2Z"/><path class="c" d="M508,235a6,6,0,0,1,5.051-5.925,7.383,7.383,0,0,1,.493-2.11,3,3,0,1,1,3.166-4.258,7.786,7.786,0,0,1,1.741-.987,5,5,0,1,0-7.8,5.991l.007.019A8,8,0,0,0,506,235v8a2,2,0,0,0,2,2Z"/><path class="c" d="M516,251a3,3,0,0,1-3-3v-6a9,9,0,0,1,4.65-7.881l-.008.008a6,6,0,1,1,8.715,0l-.008-.008A8.991,8.991,0,0,1,531,242v6a3,3,0,0,1-3,3"/><circle class="e" cx="522" cy="230" r="3"/><path class="e" d="M519.5,251v-7a1,1,0,0,0-2,0v4H516v-6a6,6,0,0,1,12,0v6h-1.5v-4a1,1,0,0,0-2,0v7Z"/><rect class="b" x="506" y="219" width="32" height="32"/><text class="f" transform="translate(157.768 135.426)">report</text><text class="f" transform="translate(42.699 135.426)">folder</text><text class="f" transform="translate(263.756 135.426)">document</text><text class="f" transform="translate(386.892 135.426)">dataset</text><text class="f" transform="translate(506.914 135.426)">graph</text><text class="f" transform="translate(627.966 135.426)">grid</text><text class="f" transform="translate(45.078 282.426)">story</text><text class="f" transform="translate(146.165 282.426)">dashboard</text><text class="f" transform="translate(278.691 282.426)">card</text><text class="f" transform="translate(382.976 282.426)">template</text><text class="f" transform="translate(492.835 282.426)">user_group</text><rect class="b" width="696" height="308"/></svg>