<svg xmlns="http://www.w3.org/2000/svg" width="408" height="83.15" viewBox="0 0 408 83.15"><defs><style>.a{fill:none;}.b,.h{fill:#354052;}.b{fill-rule:evenodd;}.c{font-size:13px;font-family:RobotoMono-Regular, Roboto Mono;}.d{letter-spacing:-0.026em;}.e{letter-spacing:-0.037em;}.f{letter-spacing:-0.085em;}.g{letter-spacing:-0.02em;}.i{fill:#edeef0;}</style></defs><title>icons_01</title><rect class="a" x="142" y="28" width="16" height="16"/><path class="b" d="M153.47,43.953l1.3-.75-2.837-4.912A2.986,2.986,0,0,0,153,36a2.952,2.952,0,0,0-.046-.534,1.989,1.989,0,0,1-1.763,1.526l-1.819-3.145a2.009,2.009,0,0,1,1.208-.791A3.054,3.054,0,0,0,150,33a2.978,2.978,0,0,0-1.017.178l-2.959-5.131-1.3.75,1.324,2.289A7.752,7.752,0,0,0,142,36a8.221,8.221,0,0,0,8,5.885,8.521,8.521,0,0,0,2.121-.268Zm-2.893-5.01a3,3,0,0,1-2.839-4.918l-1.216-2.106A6.205,6.205,0,0,0,143,36c.757,3.176,4.151,4.885,7,4.885a7.815,7.815,0,0,0,1.6-.171Zm4.286,1.428A7.557,7.557,0,0,0,158,36a8.222,8.222,0,0,0-8-5.885,8.618,8.618,0,0,0-1.022.062l.553.953c.158-.01.313-.015.469-.015,2.849,0,6.242,1.709,7,4.885a5.922,5.922,0,0,1-2.6,3.563Z"/><rect class="a" x="26" y="12" width="32" height="32"/><path class="b" d="M48.94,43.906l2.6-1.5-5.674-9.824A5.972,5.972,0,0,0,47.99,28a5.9,5.9,0,0,0-.093-1.068,3.978,3.978,0,0,1-3.526,3.053l-3.639-6.291a4.017,4.017,0,0,1,2.416-1.582A6.109,6.109,0,0,0,41.99,22a5.957,5.957,0,0,0-2.034.355L34.039,12.094l-2.6,1.5,2.649,4.578A15.5,15.5,0,0,0,26,28c1.514,6.352,8.133,11.77,16,11.77a17.043,17.043,0,0,0,4.241-.535ZM43.155,33.887a6,6,0,0,1-5.679-9.836l-2.432-4.213A12.41,12.41,0,0,0,28,28c1.514,6.352,8.3,9.77,14,9.77a15.63,15.63,0,0,0,3.2-.342Zm8.572,2.855A15.113,15.113,0,0,0,58,28c-1.516-6.352-8.133-11.77-16-11.77a17.235,17.235,0,0,0-2.044.123l1.107,1.906c.316-.02.627-.029.937-.029,5.7,0,12.484,3.418,14,9.77a11.843,11.843,0,0,1-5.205,7.125Z"/><text class="c" transform="translate(243.984 77.477)"><tspan class="d">32</tspan><tspan class="e" x="14.914" y="0">p</tspan><tspan x="22.23" y="0">x</tspan></text><text class="c" transform="translate(351.319 77.477)"><tspan class="f">1</tspan><tspan class="g" x="6.699" y="0">6</tspan><tspan class="e" x="14.245" y="0">p</tspan><tspan x="21.562" y="0">x</tspan></text><text class="c" transform="translate(26.984 77.477)"><tspan class="d">32</tspan><tspan class="e" x="14.914" y="0">p</tspan><tspan x="22.23" y="0">x</tspan></text><text class="c" transform="translate(135.318 77.477)"><tspan class="f">1</tspan><tspan class="g" x="6.699" y="0">6</tspan><tspan class="e" x="14.245" y="0">p</tspan><tspan x="21.562" y="0">x</tspan></text><rect class="h" x="352" y="28" width="28" height="28" rx="3.5" ry="3.5"/><path class="i" d="M367.054,40.238a3,3,0,1,1,.707.707L365.3,43.4a3.475,3.475,0,0,1,.661,1.6h2.6a2,2,0,1,1,0,1h-2.6A3.5,3.5,0,1,1,362,42.036v-2.6a2,2,0,1,1,1,0v2.6a3.473,3.473,0,0,1,1.6.661ZM365,45.5a2.5,2.5,0,1,0-2.5,2.5A2.5,2.5,0,0,0,365,45.5Zm4.5-9a2,2,0,1,0,2,2A2,2,0,0,0,369.5,36.5Zm-7,0a1,1,0,1,0,1,1A1,1,0,0,0,362.5,36.5Zm8,8a1,1,0,1,0,1,1A1,1,0,0,0,370.5,44.5Z"/><rect class="a" x="358" y="34" width="16" height="16"/><rect class="h" x="231" width="56" height="56" rx="7" ry="7"/><path class="i" d="M261.108,24.477a5.994,5.994,0,1,1,1.413,1.414l-4.916,4.918A6.951,6.951,0,0,1,258.928,34h5.2a4,4,0,1,1,0,2h-5.2A7,7,0,1,1,251,28.071v-5.2a4,4,0,1,1,2,0v5.2a6.946,6.946,0,0,1,3.19,1.322ZM257,35a5,5,0,1,0-5,5A5,5,0,0,0,257,35Zm9-18a4,4,0,1,0,4,4A4,4,0,0,0,266,17Zm-14,0a2,2,0,1,0,2,2A2,2,0,0,0,252,17Zm16,16a2,2,0,1,0,2,2A2,2,0,0,0,268,33Z"/><rect class="a" x="243" y="12" width="32" height="32"/><text></text><rect class="a" width="408" height="83.15"/></svg>