<svg xmlns="http://www.w3.org/2000/svg" width="500" height="495" viewBox="0 0 500 495"><defs><style>.a{fill:#fff;}.aq,.b{fill:#a8afb3;}.ax,.c{font-size:15px;font-family:OpenSans-Semibold, Open Sans;}.ax,.bp,.c{fill:#151921;}.ay,.c{font-weight:700;}.d{letter-spacing:-0.003em;}.e{letter-spacing:-0.004em;}.f{letter-spacing:-0.002em;}.g{letter-spacing:-0.008em;}.h{letter-spacing:-0.006em;}.i{letter-spacing:0.002em;}.j{letter-spacing:-0.003em;}.k{letter-spacing:-0.006em;}.l{letter-spacing:0.024em;}.m{letter-spacing:-0.009em;}.n{letter-spacing:0.004em;}.o{letter-spacing:-0.006em;}.p{letter-spacing:-0.007em;}.q{letter-spacing:-0.008em;}.r{letter-spacing:-0.006em;}.s{letter-spacing:0.03em;}.t{letter-spacing:0.027em;}.u{letter-spacing:0.014em;}.v{letter-spacing:-0.001em;}.w{letter-spacing:0em;}.x{letter-spacing:-0.002em;}.bv,.co,.y{fill:#ff8300;}.z{fill:#0097f2;}.aa{letter-spacing:0.002em;}.ab{letter-spacing:0.001em;}.ac{letter-spacing:-0.007em;}.ad{letter-spacing:0.002em;}.ae{letter-spacing:-0.011em;}.af{letter-spacing:0.011em;}.ag{letter-spacing:-0.006em;}.ah{fill:#efefef;}.ai{fill:#a7aeb2;}.aj{letter-spacing:-0.003em;}.ak{letter-spacing:-0.001em;}.al{letter-spacing:0.006em;}.am{letter-spacing:-0.007em;}.an{letter-spacing:-0.001em;}.ao{letter-spacing:-0.003em;}.ap{letter-spacing:0.004em;}.aq,.bk,.bp,.bv{font-size:13px;font-family:OpenSans, Open Sans;}.ar{letter-spacing:-0.006em;}.as{letter-spacing:-0.008em;}.at{letter-spacing:-0.002em;}.au{letter-spacing:-0.078em;}.av{letter-spacing:0.005em;}.aw{letter-spacing:0.032em;}.az{letter-spacing:0.011em;}.ba{letter-spacing:-0.002em;}.bb{letter-spacing:0.005em;}.bc{letter-spacing:0.002em;}.bd{letter-spacing:-0.011em;}.be{letter-spacing:-0.001em;}.bf{letter-spacing:-0.008em;}.bg{letter-spacing:-0.006em;}.bh{letter-spacing:0.039em;}.bi{letter-spacing:0.016em;}.bj{letter-spacing:0.002em;}.bl{letter-spacing:-0.003em;}.bm{letter-spacing:-0.003em;}.bn{letter-spacing:-0.008em;}.bo{letter-spacing:-0.004em;}.bq{letter-spacing:-0.007em;}.br{letter-spacing:-0.005em;}.bs{letter-spacing:-0.003em;}.bt{letter-spacing:0.005em;}.bu{letter-spacing:-0.009em;}.bw{letter-spacing:-0.004em;}.bx{letter-spacing:0.005em;}.by{letter-spacing:-0.005em;}.bz{letter-spacing:-0.004em;}.ca{letter-spacing:0.006em;}.cb{letter-spacing:-0.008em;}.cc{letter-spacing:-0.004em;}.cd{letter-spacing:0.014em;}.ce{letter-spacing:0.004em;}.cf{letter-spacing:-0.026em;}.cg{letter-spacing:0.001em;}.ch{letter-spacing:-0.004em;}.ci{letter-spacing:0.003em;}.cj{letter-spacing:-0.007em;}.ck{letter-spacing:-0.007em;}.cl{letter-spacing:-0.006em;}.cm{letter-spacing:0.001em;}.cn{fill:none;}.co{fill-rule:evenodd;}</style></defs><title>input_01</title><rect class="a" x="0.5" y="23.5" width="499" height="35"/><path class="b" d="M499,24V58H1V24H499m1-1H0V59H500V23Z"/><text class="c" transform="translate(0 13.402)"><tspan class="d">N</tspan><tspan class="e" x="11.703" y="0">o</tspan><tspan class="f" x="20.807" y="0">r</tspan><tspan class="g" x="27.249" y="0">m</tspan><tspan class="h" x="41.465" y="0">a</tspan><tspan x="50.072" y="0">l </tspan><tspan class="i" x="58.15" y="0">w</tspan><tspan class="j" x="70.434" y="0">i</tspan><tspan class="k" x="74.579" y="0">t</tspan><tspan x="80.389" y="0">h </tspan><tspan class="l" x="93.807" y="0">‘</tspan><tspan class="m" x="97.053" y="0">R</tspan><tspan class="n" x="106.506" y="0">e</tspan><tspan class="o" x="115.205" y="0">q</tspan><tspan class="p" x="124.468" y="0">u</tspan><tspan class="q" x="133.889" y="0">i</tspan><tspan class="r" x="137.956" y="0">r</tspan><tspan class="n" x="144.33" y="0">e</tspan><tspan class="s" x="153.028" y="0">d</tspan><tspan x="162.828" y="0">’ </tspan><tspan class="t" x="169.618" y="0">A</tspan><tspan class="u" x="179.942" y="0">s</tspan><tspan class="q" x="187.449" y="0">t</tspan><tspan class="v" x="193.229" y="0">e</tspan><tspan class="f" x="201.863" y="0">r</tspan><tspan class="w" x="208.305" y="0">i</tspan><tspan class="x" x="212.479" y="0">s</tspan><tspan x="219.751" y="0">k </tspan><tspan class="y" x="232.225" y="0">*</tspan></text><rect class="a" x="0.5" y="237.5" width="499" height="36"/><path class="z" d="M499,238v35H1V238H499m1-1H0v37H500V237Z"/><text class="c" transform="translate(0 227.402)"><tspan class="aa">F</tspan><tspan class="ab" x="8.015" y="0">o</tspan><tspan class="ac" x="17.197" y="0">c</tspan><tspan class="ad" x="24.523" y="0">u</tspan><tspan x="34.075" y="0">s </tspan><tspan class="ae" x="45.273" y="0">S</tspan><tspan class="af" x="53.351" y="0">t</tspan><tspan class="ag" x="59.418" y="0">a</tspan><tspan class="q" x="68.035" y="0">t</tspan><tspan x="73.816" y="0">e</tspan></text><rect class="ah" x="0.5" y="459.5" width="499" height="35"/><path class="ai" d="M499,460v34H1V460H499m1-1H0v36H500V459Z"/><text class="c" transform="translate(0 449.406)"><tspan class="aj">D</tspan><tspan class="ak" x="10.958" y="0">i</tspan><tspan class="al" x="15.132" y="0">s</tspan><tspan class="am" x="22.517" y="0">a</tspan><tspan class="an" x="31.12" y="0">b</tspan><tspan class="ao" x="40.45" y="0">l</tspan><tspan class="ap" x="44.59" y="0">e</tspan><tspan x="53.288" y="0">d </tspan><tspan class="ae" x="66.53" y="0">S</tspan><tspan class="af" x="74.607" y="0">t</tspan><tspan class="ag" x="80.674" y="0">a</tspan><tspan class="q" x="89.292" y="0">t</tspan><tspan x="95.072" y="0">e</tspan></text><text class="aq" transform="translate(17.002 45.882)"><tspan class="ar">H</tspan><tspan class="as" x="9.517" y="0">i</tspan><tspan class="at" x="12.703" y="0">n</tspan><tspan x="20.653" y="0">t </tspan><tspan class="au" x="28.619" y="0">T</tspan><tspan class="av" x="34.794" y="0">e</tspan><tspan class="aw" x="42.154" y="0">x</tspan><tspan x="49.377" y="0">t</tspan></text><rect class="a" x="0.5" y="140.5" width="499" height="35"/><path class="ai" d="M499,141v34H1V141H499m1-1H0v36H500V140Z"/><text class="ax" transform="translate(0 110.402)"><tspan class="ay"><tspan class="d">N</tspan><tspan class="e" x="11.703" y="0">o</tspan><tspan class="f" x="20.807" y="0">r</tspan><tspan class="g" x="27.249" y="0">m</tspan><tspan class="h" x="41.465" y="0">a</tspan><tspan x="50.072" y="0">l </tspan><tspan class="az" x="58.15" y="0">W</tspan><tspan class="ba" x="72.507" y="0">i</tspan><tspan class="k" x="76.652" y="0">t</tspan><tspan x="82.462" y="0">h </tspan><tspan class="bb" x="95.88" y="0">S</tspan><tspan class="bc" x="104.207" y="0">e</tspan><tspan class="bd" x="112.873" y="0">c</tspan><tspan class="e" x="120.138" y="0">o</tspan><tspan class="be" x="129.242" y="0">n</tspan><tspan class="bf" x="138.743" y="0">d</tspan><tspan class="bg" x="147.973" y="0">a</tspan><tspan class="bh" x="156.577" y="0">r</tspan><tspan x="163.636" y="0">y </tspan><tspan class="bi" x="175.575" y="0">L</tspan><tspan class="bg" x="183.941" y="0">a</tspan><tspan class="bj" x="192.545" y="0">b</tspan><tspan x="201.925" y="0">el</tspan></tspan><tspan class="bk"><tspan class="bl" x="0" y="20">H</tspan><tspan class="bm" x="9.552" y="20">e</tspan><tspan class="bn" x="16.812" y="20">l</tspan><tspan x="19.995" y="20">p</tspan><tspan class="bo" x="27.961" y="20">e</tspan><tspan x="35.208" y="20">r </tspan><tspan class="au" x="43.891" y="20">T</tspan><tspan class="av" x="50.066" y="20">e</tspan><tspan class="aw" x="57.426" y="20">x</tspan><tspan x="64.649" y="20">t</tspan></tspan></text><text class="bp" transform="translate(17.002 162.882)"><tspan class="bq">I</tspan><tspan class="br" x="3.539" y="0">n</tspan><tspan class="bs" x="11.446" y="0">p</tspan><tspan class="bt" x="19.38" y="0">u</tspan><tspan x="27.428" y="0">t </tspan><tspan class="au" x="35.394" y="0">T</tspan><tspan class="av" x="41.569" y="0">e</tspan><tspan class="aw" x="48.929" y="0">x</tspan><tspan x="56.152" y="0">t</tspan></text><text class="bp" transform="translate(17.002 259.882)"><tspan class="bq">I</tspan><tspan class="br" x="3.539" y="0">n</tspan><tspan class="bs" x="11.446" y="0">p</tspan><tspan class="bt" x="19.38" y="0">u</tspan><tspan x="27.428" y="0">t </tspan><tspan class="au" x="35.394" y="0">T</tspan><tspan class="av" x="41.569" y="0">e</tspan><tspan class="aw" x="48.929" y="0">x</tspan><tspan x="56.152" y="0">t</tspan></text><rect class="a" x="0.5" y="341.5" width="457" height="36"/><path class="y" d="M457,342v35H1V342H457m1-1H0v37H458V341Z"/><text class="c" transform="translate(0 331.402)"><tspan class="bu">E</tspan><tspan class="f" x="8.235" y="0">r</tspan><tspan class="k" x="14.677" y="0">r</tspan><tspan class="e" x="21.059" y="0">o</tspan><tspan x="30.163" y="0">r </tspan><tspan class="ae" x="40.526" y="0">S</tspan><tspan class="af" x="48.604" y="0">t</tspan><tspan class="ag" x="54.671" y="0">a</tspan><tspan class="q" x="63.288" y="0">t</tspan><tspan x="69.069" y="0">e</tspan></text><text class="bp" transform="translate(17.002 363.882)"><tspan class="bq">I</tspan><tspan class="br" x="3.539" y="0">n</tspan><tspan class="bs" x="11.446" y="0">p</tspan><tspan class="bt" x="19.38" y="0">u</tspan><tspan x="27.428" y="0">t </tspan><tspan class="au" x="35.394" y="0">T</tspan><tspan class="av" x="41.569" y="0">e</tspan><tspan class="aw" x="48.929" y="0">x</tspan><tspan x="56.152" y="0">t</tspan></text><text class="bp" transform="translate(17.002 481.882)"><tspan class="bq">I</tspan><tspan class="br" x="3.539" y="0">n</tspan><tspan class="bs" x="11.446" y="0">p</tspan><tspan class="bt" x="19.38" y="0">u</tspan><tspan x="27.428" y="0">t </tspan><tspan class="au" x="35.394" y="0">T</tspan><tspan class="av" x="41.569" y="0">e</tspan><tspan class="aw" x="48.929" y="0">x</tspan><tspan x="56.152" y="0">t</tspan></text><text class="bv" transform="translate(0 398.142)"><tspan class="bl">H</tspan><tspan class="bm" x="9.552" y="0">e</tspan><tspan class="bn" x="16.812" y="0">l</tspan><tspan x="19.995" y="0">p</tspan><tspan class="bw" x="27.961" y="0">e</tspan><tspan x="35.208" y="0">r </tspan><tspan class="au" x="43.891" y="0">T</tspan><tspan class="bx" x="50.067" y="0">e</tspan><tspan class="aw" x="57.426" y="0">x</tspan><tspan x="64.649" y="0">t </tspan><tspan class="by" x="72.616" y="0">f</tspan><tspan class="bz" x="76.952" y="0">o</tspan><tspan x="84.751" y="0">r </tspan><tspan class="bo" x="93.435" y="0">e</tspan><tspan class="ca" x="100.681" y="0">r</tspan><tspan class="cb" x="106.072" y="0">r</tspan><tspan class="cc" x="111.269" y="0">o</tspan><tspan class="cd" x="119.067" y="0">r</tspan><tspan class="ce" x="124.556" y="0">s</tspan><tspan x="130.815" y="0">. </tspan><tspan class="cf" x="137.651" y="0">(</tspan><tspan class="cg" x="141.165" y="0">O</tspan><tspan class="ch" x="151.296" y="0">p</tspan><tspan class="ci" x="159.214" y="0">t</tspan><tspan class="cj" x="163.844" y="0">i</tspan><tspan class="cc" x="167.036" y="0">o</tspan><tspan class="ck" x="174.834" y="0">n</tspan><tspan class="cl" x="182.725" y="0">a</tspan><tspan class="cm" x="189.884" y="0">l</tspan><tspan x="193.179" y="0">)</tspan></text><rect class="cn" width="500" height="495"/><path class="co" d="M472.5,367a.5.5,0,0,1-.5-.5.493.493,0,0,1,.053-.224l6.5-13a.5.5,0,0,1,.894,0l6.5,13a.5.5,0,0,1-.447.724Zm0,1a1.5,1.5,0,0,1-1.344-2.172l6.5-13a1.5,1.5,0,0,1,2.688,0l6.5,13A1.5,1.5,0,0,1,485.5,368Zm6.564-1.5a1,1,0,1,0-1-1A1,1,0,0,0,479.064,366.5Zm0-9.75a5.265,5.265,0,0,0-1.622.265l1.159,6.566a1.351,1.351,0,0,1,.922,0l1.159-6.566A5.261,5.261,0,0,0,479.064,356.75Z"/><rect class="cn" x="471" y="352" width="16" height="16"/></svg>