<svg xmlns="http://www.w3.org/2000/svg" width="224" height="291" viewBox="0 0 224 291"><defs><style>.a,.ah{fill:#fff;}.b{fill:#bababa;}.ae,.c{fill:#354052;}.d{fill:#d3edfc;}.e{font-size:13px;fill:#172730;font-family:OpenSans, Open Sans;}.f{letter-spacing:-0.003em;}.g{letter-spacing:-0.004em;}.h{letter-spacing:-0.005em;}.i{letter-spacing:0.002em;}.j{letter-spacing:-0.009em;}.k{letter-spacing:-0.004em;}.l{letter-spacing:-0.005em;}.m{letter-spacing:-0.011em;}.n{letter-spacing:0.017em;}.o{letter-spacing:0em;}.af,.p{fill:#ecedef;}.q{letter-spacing:0.006em;}.r{letter-spacing:-0.003em;}.s{letter-spacing:0.002em;}.t{letter-spacing:0.032em;}.u{letter-spacing:0.002em;}.v{letter-spacing:0.002em;}.w{letter-spacing:-0.002em;}.x{letter-spacing:0.013em;}.y{letter-spacing:0.013em;}.z{letter-spacing:-0.006em;}.aa{letter-spacing:-0.005em;}.ab{letter-spacing:0em;}.ac{fill:#dde6ed;}.ad{fill:none;}.ae,.af,.ag,.ah{fill-rule:evenodd;}.ag,.ai{fill:#272525;}</style></defs><title>menu_01</title><rect class="a" x="0.497" y="0.497" width="223.007" height="290.006" rx="3.476" ry="3.476"/><path class="b" d="M220.027.993a2.983,2.983,0,0,1,2.98,2.98V287.027a2.983,2.983,0,0,1-2.98,2.98H3.973a2.983,2.983,0,0,1-2.98-2.98V3.973A2.983,2.983,0,0,1,3.973.993H220.027m0-.993H3.973A3.985,3.985,0,0,0,0,3.973V287.027A3.985,3.985,0,0,0,3.973,291H220.027A3.985,3.985,0,0,0,224,287.027V3.973A3.985,3.985,0,0,0,220.027,0Z"/><polyline class="c" points="223 97 1 97 1 145 223 145 223 97"/><polyline class="d" points="223 49 1 49 1 97 223 97 223 49"/><text class="e" transform="translate(41 30)"><tspan class="f">M</tspan><tspan class="g" x="11.698" y="0">e</tspan><tspan class="h" x="18.944" y="0">n</tspan><tspan x="26.854" y="0">u </tspan><tspan class="i" x="38.209" y="0">I</tspan><tspan class="j" x="41.861" y="0">t</tspan><tspan class="k" x="46.334" y="0">e</tspan><tspan x="53.582" y="0">m</tspan><tspan class="f" x="0" y="48">H</tspan><tspan class="l" x="9.552" y="48">ov</tspan><tspan class="g" x="23.777" y="48">e</tspan><tspan x="31.023" y="48">r </tspan><tspan class="m" x="39.707" y="48">S</tspan><tspan class="n" x="46.692" y="48">t</tspan><tspan class="o" x="51.504" y="48">a</tspan><tspan class="j" x="58.729" y="48">t</tspan><tspan x="63.202" y="48">e</tspan><tspan class="p"><tspan class="q" x="0" y="96">S</tspan><tspan class="r" x="7.208" y="96">e</tspan><tspan class="g" x="14.467" y="96">l</tspan><tspan class="s" x="17.708" y="96">e</tspan><tspan class="t" x="25.023" y="96">c</tspan><tspan class="j" x="31.624" y="96">t</tspan><tspan class="u" x="36.098" y="96">e</tspan><tspan x="43.412" y="96">d </tspan><tspan class="v" x="54.755" y="96">I</tspan><tspan class="j" x="58.407" y="96">t</tspan><tspan class="g" x="62.88" y="96">e</tspan><tspan x="70.127" y="96">m</tspan></tspan><tspan class="f" x="0" y="144">M</tspan><tspan class="g" x="11.698" y="144">e</tspan><tspan class="h" x="18.944" y="144">n</tspan><tspan x="26.854" y="144">u </tspan><tspan class="i" x="38.209" y="144">I</tspan><tspan class="j" x="41.861" y="144">t</tspan><tspan class="k" x="46.334" y="144">e</tspan><tspan x="53.582" y="144">m</tspan><tspan class="f" x="0" y="192">M</tspan><tspan class="g" x="11.698" y="192">e</tspan><tspan class="h" x="18.944" y="192">n</tspan><tspan x="26.854" y="192">u </tspan><tspan class="i" x="38.209" y="192">I</tspan><tspan class="j" x="41.861" y="192">t</tspan><tspan class="k" x="46.334" y="192">e</tspan><tspan x="53.582" y="192">m</tspan><tspan class="w" x="0" y="241">D</tspan><tspan class="x" x="9.458" y="241">i</tspan><tspan class="y" x="12.911" y="241">v</tspan><tspan class="z" x="19.595" y="241">i</tspan><tspan class="aa" x="22.812" y="241">d</tspan><tspan class="s" x="30.719" y="241">e</tspan><tspan x="38.034" y="241">d </tspan><tspan class="f" x="49.377" y="241">M</tspan><tspan class="g" x="61.075" y="241">e</tspan><tspan class="h" x="68.321" y="241">n</tspan><tspan class="ab" x="76.23" y="241">u </tspan><tspan class="v" x="87.586" y="241">I</tspan><tspan class="j" x="91.238" y="241">t</tspan><tspan class="k" x="95.711" y="241">e</tspan><tspan x="102.958" y="241">m</tspan></text><polyline class="ac" points="223 241 1 241 1 242 223 242 223 241"/><rect class="ad" x="13" y="17" width="16" height="16"/><path class="ae" d="M13,29h1v3H28V29h1v4H13Zm9-11H20v9.022L17.979,25l-1.25,1.25L21,30.522l4.27-4.271L24.021,25,22,27.022Z"/><rect class="ad" x="13" y="65" width="16" height="16"/><path class="ae" d="M16,69V66H26v3h3v7H26v1.5L23.5,80H16V76H13V69Zm9-2H17v2h8ZM17,79h6V77h2V74H17Zm7-4H18v1h6Zm-2,2H18v1h4Z"/><rect class="ad" x="13" y="113" width="16" height="16"/><path class="af" d="M20,117v-3h3v3Zm8-.5v10a1.5,1.5,0,0,1-1.5,1.5h-11a1.5,1.5,0,0,1-1.5-1.5v-11a1.5,1.5,0,0,1,1.5-1.5H17v4.5a.5.5,0,0,0,.5.5h6a.5.5,0,0,0,.5-.5V114h1.5Zm-3,6a.5.5,0,0,0-.5-.5H17.514a.514.514,0,0,0-.514.5V127h8Z"/><rect class="ad" x="13" y="161" width="16" height="16"/><path class="ae" d="M13,173h1v3H28v-3h1v4H13Zm9-11H20v9.022L17.979,169l-1.25,1.25L21,174.522l4.27-4.272L24.021,169,22,171.022Z"/><rect class="ad" x="13" y="209" width="16" height="16"/><path class="ae" d="M16,213v-3H26v3h3v7H26v1.5L23.5,224H16v-4H13v-7Zm9-2H17v2h8Zm-8,12h6v-2h2v-3H17Zm7-4H18v1h6Zm-2,2H18v1h4Z"/><rect class="ad" x="13" y="257" width="16" height="16"/><path class="ae" d="M20,261v-3h3v3Zm8-.5v10a1.5,1.5,0,0,1-1.5,1.5h-11a1.5,1.5,0,0,1-1.5-1.5v-11a1.5,1.5,0,0,1,1.5-1.5H17v4.5a.5.5,0,0,0,.5.5h6a.5.5,0,0,0,.5-.5V258h1.5Zm-3,6a.5.5,0,0,0-.5-.5H17.514a.514.514,0,0,0-.514.5V271h8Z"/><polygon class="ag" points="159 92 159 89 158 89 158 87 157 87 157 85 156 85 156 83 155 83 155 82 154 82 154 79 157 79 157 80 158 80 158 71 159 71 159 70 161 70 161 71 162 71 162 75 164 75 164 76 167 76 167 77 169 77 169 78 170 78 170 79 171 79 171 86 170 86 170 89 169 89 169 92 159 92"/><polygon class="ah" points="160 91 160 89 159 89 159 87 158 87 158 85 157 85 157 83 156 83 156 82 155 82 155 80 157 80 157 81 158 81 158 84 159 84 159 71 161 71 161 80 162 80 162 76 164 76 164 80 165 80 165 77 167 77 167 81 168 81 168 78 169 78 169 79 170 79 170 86 169 86 169 89 168 89 168 91 160 91"/><rect class="ai" x="161" y="82" width="1" height="4"/><rect class="ai" x="164" y="82" width="1" height="4"/><rect class="ai" x="167" y="82" width="1" height="4"/></svg>