<svg xmlns="http://www.w3.org/2000/svg" width="600" height="376" viewBox="0 0 600 376"><defs><style>.a{fill:#eee;}.b,.g{fill:#ffce00;}.b,.c,.d,.e,.f{opacity:0.3;}.c,.h{fill:#ff8300;}.d,.i{fill:#85c63f;}.e,.j{fill:#009dd9;}.f,.k{fill:#9e28b5;}.l{fill:#354052;}.m{font-size:20px;fill:#edeef0;font-family:OpenSans-Semibold, Open Sans;font-weight:700;}</style></defs><title>progress_linear</title><rect class="a" width="600" height="64"/><rect class="a" y="78" width="600" height="64"/><rect class="a" y="156" width="600" height="64"/><rect class="a" y="234" width="600" height="64"/><polyline class="b" points="0 118 600 118 600 121 0 121"/><polyline class="c" points="0 196 600 196 600 199 0 199"/><polyline class="d" points="0 274 600 274 600 277 0 277"/><polyline class="e" points="0 40 600 40 600 43 0 43"/><rect class="a" y="312" width="600" height="64"/><polyline class="f" points="0 352 600 352 600 355 0 355"/><polyline class="g" points="0 118 160 118 160 121 0 121"/><polyline class="h" points="0 196 240 196 240 199 0 199"/><polyline class="i" points="0 274 330 274 330 277 0 277"/><polyline class="j" points="0 40 80 40 80 43 0 43"/><polyline class="k" points="0 352 410 352 410 355 0 355"/><rect class="l" width="600" height="40"/><text class="m" transform="translate(40 26.667)">[CONSUMER APPS]</text><rect class="l" y="78" width="600" height="40"/><text class="m" transform="translate(40 104.667)">[EVENTS APPS]</text><rect class="l" y="156" width="600" height="40"/><text class="m" transform="translate(40 182.667)">[PANELIST APPS]</text><rect class="l" y="234" width="600" height="40"/><text class="m" transform="translate(40 260.667)">[CLIENT APPS]</text><rect class="l" y="312" width="600" height="40"/><text class="m" transform="translate(40 338.667)">[INTERNAL APPS]</text></svg>