<svg xmlns="http://www.w3.org/2000/svg" width="120" height="126" viewBox="0 0 120 126"><defs><style>.a{fill:#84919a;}.b{font-size:13px;fill:#151921;font-family:OpenSans, Open Sans;}.c{letter-spacing:-0.031em;}.d{letter-spacing:-0.005em;}.e{letter-spacing:-0.006em;}.f{letter-spacing:-0.005em;}.g{letter-spacing:0.006em;}.h{letter-spacing:-0.003em;}.i{letter-spacing:-0.004em;}.j{letter-spacing:0.002em;}.k{letter-spacing:0.032em;}.l{letter-spacing:-0.009em;}.m{letter-spacing:0.002em;}.n{fill:#26b910;}.o{fill:none;}</style></defs><title>radio_01</title><path class="a" d="M9,2A7,7,0,1,1,2,9,7.008,7.008,0,0,1,9,2M9,1a8,8,0,1,0,8,8A8,8,0,0,0,9,1Z"/><path class="a" d="M9,74a7,7,0,1,1-7,7,7.008,7.008,0,0,1,7-7m0-1a8,8,0,1,0,8,8,8,8,0,0,0-8-8Z"/><path class="a" d="M9,110a7,7,0,1,1-7,7,7.008,7.008,0,0,1,7-7m0-1a8,8,0,1,0,8,8,8,8,0,0,0-8-8Z"/><text class="b" transform="translate(29 13.854)"><tspan class="c">V</tspan><tspan class="d" x="7.333" y="0">a</tspan><tspan class="e" x="14.492" y="0">l</tspan><tspan class="f" x="17.702" y="0">u</tspan><tspan x="25.623" y="0">e</tspan><tspan class="g" x="0" y="36">S</tspan><tspan class="h" x="7.208" y="36">e</tspan><tspan class="i" x="14.467" y="36">l</tspan><tspan class="j" x="17.708" y="36">e</tspan><tspan class="k" x="25.023" y="36">c</tspan><tspan class="l" x="31.624" y="36">t</tspan><tspan class="m" x="36.098" y="36">e</tspan><tspan x="43.412" y="36">d </tspan><tspan class="c" x="54.755" y="36">V</tspan><tspan class="d" x="62.088" y="36">a</tspan><tspan class="e" x="69.247" y="36">l</tspan><tspan class="f" x="72.457" y="36">u</tspan><tspan x="80.377" y="36">e</tspan><tspan class="c" x="0" y="72">V</tspan><tspan class="d" x="7.333" y="72">a</tspan><tspan class="e" x="14.492" y="72">l</tspan><tspan class="f" x="17.702" y="72">u</tspan><tspan x="25.623" y="72">e</tspan><tspan class="c" x="0" y="108">V</tspan><tspan class="d" x="7.333" y="108">a</tspan><tspan class="e" x="14.492" y="108">l</tspan><tspan class="f" x="17.702" y="108">u</tspan><tspan x="25.623" y="108">e</tspan></text><path class="n" d="M9,38a7,7,0,1,1-7,7,7.008,7.008,0,0,1,7-7m0-1a8,8,0,1,0,8,8,8,8,0,0,0-8-8Z"/><circle class="n" cx="9" cy="45" r="4"/><rect class="o" width="120" height="126"/></svg>