<svg xmlns="http://www.w3.org/2000/svg" width="550" height="864" viewBox="0 0 550 864"><defs><style>.a{fill:#069;}.b{fill:#4aa;}.c{fill:#473;}.d{fill:#ba4;}.e{fill:#c71;}.f{fill:#934;}.g{fill:#a5a;}.h{fill:#528;}.i{fill:#999;}.j{fill:#79b;}.k{fill:#acc;}.l{fill:#8a7;}.m{fill:#ed5;}.n{fill:#da7;}.o{fill:#c78;}.p{fill:#dcd;}.q{fill:#97b;}.r{fill:#777;}.s{font-size:13px;fill:#fff;font-family:RobotoMono-Medium, Roboto Mono;}.t{letter-spacing:-0.009em;}.u{letter-spacing:-0.031em;}.v{letter-spacing:-0.007em;}.w{letter-spacing:-0.019em;}.x{letter-spacing:-0.002em;}.y{letter-spacing:-0.027em;}.z{letter-spacing:-0.002em;}.aa{letter-spacing:-0.01em;}.ab{letter-spacing:-0.026em;}.ac{letter-spacing:-0.018em;}.ad{letter-spacing:-0.001em;}.ae{letter-spacing:-0.008em;}.af{letter-spacing:-0.003em;}.ag{letter-spacing:0.018em;}.ah{letter-spacing:0.006em;}.ai{letter-spacing:-0.001em;}.aj{letter-spacing:-0.005em;}.ak{letter-spacing:-0.019em;}.al{letter-spacing:-0.032em;}.am{letter-spacing:-0.003em;}.an{letter-spacing:-0.005em;}.ao{letter-spacing:-0.011em;}.ap{letter-spacing:-0.015em;}.aq{letter-spacing:-0.025em;}.ar{fill:#151921;}.as{letter-spacing:-0.029em;}.at{letter-spacing:-0.047em;}.au{letter-spacing:0.003em;}.av{letter-spacing:-0.001em;}.aw{letter-spacing:-0.077em;}.ax{letter-spacing:-0.031em;}.ay{letter-spacing:-0.031em;}.az{letter-spacing:-0.029em;}.ba{letter-spacing:-0.005em;}.bb{letter-spacing:-0.015em;}.bc{letter-spacing:-0.021em;}.bd{letter-spacing:-0.04em;}.be{letter-spacing:-0.025em;}.bf{letter-spacing:0.003em;}.bg{letter-spacing:-0.016em;}.bh{letter-spacing:0.025em;}.bi{letter-spacing:-0.047em;}.bj{letter-spacing:-0.009em;}.bk{letter-spacing:-0.028em;}.bl{letter-spacing:-0.02em;}.bm{letter-spacing:-0.007em;}.bn{letter-spacing:-0.003em;}.bo{letter-spacing:-0.012em;}.bp{letter-spacing:-0.002em;}.bq{letter-spacing:0.003em;}.br{letter-spacing:0.007em;}.bs{letter-spacing:-0.004em;}.bt{letter-spacing:-0.016em;}.bu{letter-spacing:-0.04em;}.bv{letter-spacing:-0.106em;}.bw{letter-spacing:0em;}.bx{letter-spacing:-0.021em;}.by{letter-spacing:-0.013em;}.bz{letter-spacing:-0.033em;}.ca{letter-spacing:-0.022em;}.cb{letter-spacing:-0.024em;}.cc{letter-spacing:-0.022em;}.cd{letter-spacing:-0.027em;}.ce{letter-spacing:-0.017em;}.cf{letter-spacing:-0.034em;}.cg{letter-spacing:-0.023em;}.ch{letter-spacing:-0.024em;}.ci{letter-spacing:-0.037em;}.cj{letter-spacing:-0.024em;}.ck{letter-spacing:-0.022em;}.cl{letter-spacing:-0.003em;}.cm{letter-spacing:-0.019em;}.cn{letter-spacing:-0.004em;}.co{letter-spacing:-0.027em;}.cp{letter-spacing:-0.025em;}.cq{letter-spacing:-0.003em;}.cr{letter-spacing:-0.029em;}.cs{letter-spacing:0.025em;}.ct{letter-spacing:-0.026em;}.cu{letter-spacing:-0.043em;}.cv{letter-spacing:0.001em;}.cw{letter-spacing:-0.008em;}.cx{letter-spacing:-0.034em;}.cy{letter-spacing:-0.06em;}.cz{letter-spacing:-0.126em;}.da{letter-spacing:-0.102em;}.db{letter-spacing:-0.202em;}.dc{letter-spacing:-0.079em;}.dd{letter-spacing:-0.009em;}.de{letter-spacing:-0.095em;}.df{letter-spacing:-0.093em;}.dg{letter-spacing:-0.129em;}.dh{letter-spacing:-0.129em;}.di{letter-spacing:-0.092em;}.dj{letter-spacing:-0.201em;}.dk{letter-spacing:-0.082em;}.dl{letter-spacing:-0.043em;}.dm{letter-spacing:-0.121em;}.dn{letter-spacing:-0.09em;}.do{letter-spacing:-0.128em;}.dp{letter-spacing:-0.122em;}.dq{letter-spacing:-0.045em;}.dr{letter-spacing:-0.144em;}.ds{letter-spacing:-0.128em;}.dt{letter-spacing:-0.087em;}.du{letter-spacing:-0.198em;}.dv{letter-spacing:-0.082em;}.dw{letter-spacing:-0.044em;}.dx{letter-spacing:-0.102em;}.dy{letter-spacing:-0.126em;}.dz{letter-spacing:-0.122em;}.ea{letter-spacing:-0.113em;}.eb{letter-spacing:-0.041em;}.ec{letter-spacing:-0.006em;}.ed{letter-spacing:-0.092em;}.ee{letter-spacing:-0.072em;}.ef{letter-spacing:-0.093em;}.eg{letter-spacing:-0.01em;}.eh{letter-spacing:-0.104em;}.ei{letter-spacing:-0.146em;}.ej{letter-spacing:-0.125em;}.ek{letter-spacing:-0.118em;}.el{letter-spacing:-0.093em;}.em{letter-spacing:-0.128em;}.en{letter-spacing:-0.025em;}.eo{letter-spacing:-0.093em;}.ep{letter-spacing:-0.106em;}.eq{letter-spacing:-0.083em;}.er{letter-spacing:-0.028em;}.es{letter-spacing:-0.129em;}.et{letter-spacing:-0.087em;}.eu{letter-spacing:-0.072em;}.ev{letter-spacing:-0.1em;}.ew{letter-spacing:-0.041em;}.ex{letter-spacing:-0.006em;}.ey{letter-spacing:-0.109em;}.ez{letter-spacing:-0.083em;}.fa{letter-spacing:-0.028em;}.fb{letter-spacing:-0.101em;}.fc{letter-spacing:-0.106em;}.fd{letter-spacing:-0.09em;}.fe{letter-spacing:-0.134em;}.ff{letter-spacing:-0.032em;}.fg{letter-spacing:-0.017em;}.fh{letter-spacing:-0.051em;}.fi{letter-spacing:-0.146em;}.fj{letter-spacing:-0.118em;}.fk{letter-spacing:-0.082em;}.fl{letter-spacing:-0.134em;}.fm{letter-spacing:-0.015em;}</style></defs><title>reporting_palette_01</title><rect class="a" width="550" height="48"/><rect class="b" y="48" width="550" height="48"/><rect class="c" y="96" width="550" height="48"/><rect class="d" y="144" width="550" height="48"/><rect class="e" y="192" width="550" height="48"/><rect class="f" y="240" width="550" height="48"/><rect class="g" y="288" width="550" height="48"/><rect class="h" y="336" width="550" height="48"/><rect class="i" y="384" width="550" height="48"/><rect class="j" y="432" width="550" height="48"/><rect class="k" y="480" width="550" height="48"/><rect class="l" y="528" width="550" height="48"/><rect class="m" y="576" width="550" height="48"/><rect class="n" y="624" width="550" height="48"/><rect class="o" y="672" width="550" height="48"/><rect class="p" y="720" width="550" height="48"/><rect class="q" y="768" width="550" height="48"/><rect class="r" y="816" width="550" height="48"/><text class="s" transform="translate(24 28.936)"><tspan class="t">B</tspan><tspan class="u" x="7.686" y="0">L</tspan><tspan class="v" x="15.084" y="0">U</tspan><tspan x="22.789" y="0">E</tspan><tspan class="w" x="0" y="48">A</tspan><tspan class="x" x="7.561" y="48">Q</tspan><tspan class="y" x="15.332" y="48">U</tspan><tspan x="22.776" y="48">A</tspan><tspan class="z" x="0" y="96">G</tspan><tspan class="aa" x="7.775" y="96">R</tspan><tspan class="ab" x="15.453" y="96">E</tspan><tspan class="ac" x="22.923" y="96">E</tspan><tspan x="30.497" y="96">N</tspan><tspan class="ad" x="0" y="144">G</tspan><tspan class="ae" x="7.79" y="144">O</tspan><tspan class="w" x="15.491" y="144">L</tspan><tspan x="23.051" y="144">D</tspan><tspan class="af" x="0" y="192">O</tspan><tspan class="ag" x="7.76" y="192">R</tspan><tspan class="ah" x="15.79" y="192">A</tspan><tspan class="ai" x="23.663" y="192">N</tspan><tspan class="aj" x="31.455" y="192">G</tspan><tspan x="39.197" y="192">E</tspan><tspan class="aa" x="0" y="240">R</tspan><tspan class="ak" x="7.678" y="240">E</tspan><tspan x="15.232" y="240">D</tspan><tspan class="u" x="0" y="288">P</tspan><tspan class="al" x="7.398" y="288">I</tspan><tspan class="am" x="14.79" y="288">N</tspan><tspan x="22.554" y="288">K</tspan><tspan class="an" x="0" y="336">PU</tspan><tspan class="ao" x="15.473" y="336">R</tspan><tspan class="ap" x="23.137" y="336">P</tspan><tspan class="aq" x="30.744" y="336">L</tspan><tspan x="38.22" y="336">E</tspan><tspan class="ar"><tspan class="as" x="0" y="384">L</tspan><tspan class="at" x="7.418" y="384">I</tspan><tspan class="au" x="14.608" y="384">G</tspan><tspan class="av" x="22.455" y="384">H</tspan><tspan x="30.243" y="384">T </tspan><tspan class="z" x="45.846" y="384">G</tspan><tspan class="ag" x="53.621" y="384">R</tspan><tspan class="aw" x="61.651" y="384">A</tspan><tspan x="68.457" y="384">Y</tspan><tspan class="as" x="0" y="432">L</tspan><tspan class="at" x="7.418" y="432">I</tspan><tspan class="au" x="14.608" y="432">G</tspan><tspan class="av" x="22.455" y="432">H</tspan><tspan x="30.243" y="432">T </tspan><tspan class="t" x="45.846" y="432">B</tspan><tspan class="u" x="53.531" y="432">L</tspan><tspan class="v" x="60.93" y="432">U</tspan><tspan x="68.635" y="432">E</tspan><tspan class="as" x="0" y="480">L</tspan><tspan class="at" x="7.418" y="480">I</tspan><tspan class="au" x="14.608" y="480">G</tspan><tspan class="av" x="22.455" y="480">H</tspan><tspan x="30.243" y="480">T </tspan><tspan class="w" x="45.846" y="480">A</tspan><tspan class="x" x="53.406" y="480">Q</tspan><tspan class="y" x="61.178" y="480">U</tspan><tspan x="68.622" y="480">A</tspan><tspan class="as" x="0" y="528">L</tspan><tspan class="at" x="7.418" y="528">I</tspan><tspan class="au" x="14.608" y="528">G</tspan><tspan class="av" x="22.455" y="528">H</tspan><tspan x="30.243" y="528">T </tspan><tspan class="z" x="45.846" y="528">G</tspan><tspan class="aa" x="53.621" y="528">R</tspan><tspan class="ab" x="61.299" y="528">E</tspan><tspan class="ac" x="68.769" y="528">E</tspan><tspan x="76.342" y="528">N</tspan><tspan class="as" x="0" y="576">L</tspan><tspan class="at" x="7.418" y="576">I</tspan><tspan class="au" x="14.608" y="576">G</tspan><tspan class="av" x="22.455" y="576">H</tspan><tspan x="30.243" y="576">T </tspan><tspan class="ad" x="45.846" y="576">G</tspan><tspan class="ae" x="53.635" y="576">O</tspan><tspan class="w" x="61.336" y="576">L</tspan><tspan x="68.897" y="576">D</tspan><tspan class="as" x="0" y="624">L</tspan><tspan class="at" x="7.418" y="624">I</tspan><tspan class="au" x="14.608" y="624">G</tspan><tspan class="av" x="22.455" y="624">H</tspan><tspan x="30.243" y="624">T </tspan><tspan class="af" x="45.846" y="624">O</tspan><tspan class="ag" x="53.605" y="624">R</tspan><tspan class="ah" x="61.635" y="624">A</tspan><tspan class="ai" x="69.508" y="624">N</tspan><tspan class="aj" x="77.3" y="624">G</tspan><tspan x="85.043" y="624">E</tspan><tspan class="as" x="0" y="672">L</tspan><tspan class="at" x="7.418" y="672">I</tspan><tspan class="au" x="14.608" y="672">G</tspan><tspan class="av" x="22.455" y="672">H</tspan><tspan x="30.243" y="672">T </tspan><tspan class="aa" x="45.846" y="672">R</tspan><tspan class="ak" x="53.523" y="672">E</tspan><tspan x="61.078" y="672">D</tspan><tspan class="as" x="0" y="720">L</tspan><tspan class="at" x="7.418" y="720">I</tspan><tspan class="au" x="14.608" y="720">G</tspan><tspan class="av" x="22.455" y="720">H</tspan><tspan x="30.243" y="720">T </tspan><tspan class="ax" x="45.846" y="720">P</tspan><tspan class="ay" x="53.244" y="720">I</tspan><tspan class="am" x="60.636" y="720">N</tspan><tspan x="68.399" y="720">K</tspan></tspan><tspan class="as" x="0" y="768">L</tspan><tspan class="at" x="7.418" y="768">I</tspan><tspan class="au" x="14.608" y="768">G</tspan><tspan class="av" x="22.455" y="768">H</tspan><tspan x="30.243" y="768">T </tspan><tspan class="an" x="45.846" y="768">PU</tspan><tspan class="ao" x="61.318" y="768">R</tspan><tspan class="ap" x="68.983" y="768">P</tspan><tspan class="aq" x="76.589" y="768">L</tspan><tspan x="84.065" y="768">E</tspan><tspan class="az" x="0" y="816">D</tspan><tspan x="7.423" y="816">A</tspan><tspan class="ba" x="15.224" y="816">R</tspan><tspan x="22.954" y="816">K </tspan><tspan class="z" x="38.557" y="816">G</tspan><tspan class="ag" x="46.332" y="816">R</tspan><tspan class="aw" x="54.362" y="816">A</tspan><tspan x="61.167" y="816">Y</tspan></text><text class="s" transform="translate(287 28.936)"><tspan class="ba">#</tspan><tspan class="bb" x="7.73" y="0">0</tspan><tspan class="ak" x="15.34" y="0">0</tspan><tspan class="bc" x="22.894" y="0">6</tspan><tspan class="bd" x="30.416" y="0">6</tspan><tspan class="be" x="37.691" y="0">9</tspan><tspan x="45.173" y="0">9</tspan><tspan class="ba" x="0" y="48">#</tspan><tspan class="bf" x="7.73" y="48">4</tspan><tspan class="bg" x="15.57" y="48">4</tspan><tspan class="bh" x="23.163" y="48">AAA</tspan><tspan x="47.526" y="48">A</tspan><tspan class="ba" x="0" y="96">#</tspan><tspan class="bf" x="7.73" y="96">4</tspan><tspan class="bi" x="15.57" y="96">4</tspan><tspan class="bj" x="22.759" y="96">7</tspan><tspan class="bk" x="30.437" y="96">7</tspan><tspan class="bl" x="37.88" y="96">3</tspan><tspan x="45.416" y="96">3</tspan><tspan class="bm" x="0" y="144">#</tspan><tspan class="bn" x="7.71" y="144">B</tspan><tspan class="bo" x="15.467" y="144">B</tspan><tspan class="bh" x="23.113" y="144">A</tspan><tspan class="bp" x="31.234" y="144">A</tspan><tspan class="bq" x="39.004" y="144">4</tspan><tspan x="46.844" y="144">4</tspan><tspan class="br" x="0" y="192">#</tspan><tspan class="bs" x="7.892" y="192">C</tspan><tspan class="bt" x="15.642" y="192">C</tspan><tspan class="aa" x="23.229" y="192">7</tspan><tspan class="bu" x="30.906" y="192">7</tspan><tspan class="bv" x="38.188" y="192">1</tspan><tspan x="44.608" y="192">1</tspan><tspan class="bw" x="0" y="240">#</tspan><tspan class="be" x="7.795" y="240">99</tspan><tspan class="bx" x="22.76" y="240">3</tspan><tspan class="by" x="30.295" y="240">3</tspan><tspan class="bq" x="37.921" y="240">4</tspan><tspan x="45.761" y="240">4</tspan><tspan class="bz" x="0" y="288">#</tspan><tspan class="bh" x="7.372" y="288">A</tspan><tspan class="ca" x="15.493" y="288">A</tspan><tspan class="cb" x="23.002" y="288">5</tspan><tspan class="ab" x="30.491" y="288">5</tspan><tspan class="bh" x="37.961" y="288">A</tspan><tspan x="46.082" y="288">A</tspan><tspan class="cc" x="0" y="336">#</tspan><tspan class="cb" x="7.515" y="336">5</tspan><tspan class="cd" x="15.004" y="336">5</tspan><tspan class="ce" x="22.455" y="336">2</tspan><tspan class="cf" x="30.035" y="336">2</tspan><tspan class="cg" x="37.395" y="336">8</tspan><tspan x="44.896" y="336">8</tspan><tspan class="ar"><tspan class="bw" x="0" y="384">#</tspan><tspan class="be" x="7.795" y="384">99999</tspan><tspan x="45.208" y="384">9</tspan><tspan class="ch" x="0" y="432">#</tspan><tspan class="aa" x="7.488" y="432">7</tspan><tspan class="ci" x="15.166" y="432">7</tspan><tspan class="cj" x="22.486" y="432">9</tspan><tspan class="ck" x="29.969" y="432">9</tspan><tspan class="cl" x="37.488" y="432">B</tspan><tspan x="45.245" y="432">B</tspan><tspan class="bz" x="0" y="480">#</tspan><tspan class="bh" x="7.372" y="480">A</tspan><tspan class="cm" x="15.493" y="480">A</tspan><tspan class="cn" x="23.048" y="480">CCC</tspan><tspan x="46.295" y="480">C</tspan><tspan class="by" x="0" y="528">#</tspan><tspan class="cg" x="7.626" y="528">88</tspan><tspan class="bh" x="22.63" y="528">A</tspan><tspan class="co" x="30.751" y="528">A</tspan><tspan class="aa" x="38.208" y="528">7</tspan><tspan x="45.886" y="528">7</tspan><tspan class="ao" x="0" y="576">#</tspan><tspan class="cp" x="7.665" y="576">E</tspan><tspan class="ak" x="15.135" y="576">E</tspan><tspan class="cq" x="22.689" y="576">D</tspan><tspan class="ca" x="30.452" y="576">D</tspan><tspan class="cb" x="37.961" y="576">5</tspan><tspan x="45.45" y="576">5</tspan><tspan class="bs" x="0" y="624">#</tspan><tspan class="cq" x="7.75" y="624">D</tspan><tspan class="cr" x="15.513" y="624">D</tspan><tspan class="cs" x="22.936" y="624">A</tspan><tspan class="ct" x="31.057" y="624">A</tspan><tspan class="aa" x="38.514" y="624">7</tspan><tspan x="46.191" y="624">7</tspan><tspan class="br" x="0" y="672">#</tspan><tspan class="bs" x="7.892" y="672">C</tspan><tspan class="bt" x="15.642" y="672">C</tspan><tspan class="aa" x="23.229" y="672">7</tspan><tspan class="cu" x="30.906" y="672">7</tspan><tspan class="cg" x="38.148" y="672">8</tspan><tspan x="45.65" y="672">8</tspan><tspan class="bs" x="0" y="720">#</tspan><tspan class="cq" x="7.75" y="720">D</tspan><tspan class="cv" x="15.513" y="720">D</tspan><tspan class="cn" x="23.321" y="720">C</tspan><tspan class="cw" x="31.07" y="720">C</tspan><tspan class="am" x="38.761" y="720">D</tspan><tspan x="46.524" y="720">D</tspan></tspan><tspan class="bw" x="0" y="768">#</tspan><tspan class="be" x="7.795" y="768">9</tspan><tspan class="cx" x="15.277" y="768">9</tspan><tspan class="aa" x="22.63" y="768">7</tspan><tspan class="cb" x="30.308" y="768">7</tspan><tspan class="bn" x="37.797" y="768">B</tspan><tspan x="45.554" y="768">B</tspan><tspan class="ch" x="0" y="816">#</tspan><tspan class="aa" x="7.488" y="816">77777</tspan><tspan x="45.877" y="816">7</tspan></text><text class="s" transform="translate(396 28.936)"><tspan class="aj">R</tspan><tspan class="av" x="7.743" y="0">G</tspan><tspan class="cy" x="15.531" y="0">B</tspan><tspan class="cz" x="22.551" y="0">(</tspan><tspan class="da" x="28.712" y="0">0</tspan><tspan class="db" x="35.191" y="0">,</tspan><tspan class="dc" x="40.373" y="0">1</tspan><tspan class="dd" x="47.152" y="0">0</tspan><tspan class="de" x="54.836" y="0">2</tspan><tspan class="db" x="61.405" y="0">,</tspan><tspan class="df" x="66.587" y="0">1</tspan><tspan class="ao" x="73.185" y="0">5</tspan><tspan class="dg" x="80.849" y="0">3</tspan><tspan x="86.971" y="0">)</tspan><tspan class="aj" x="0" y="48">R</tspan><tspan class="av" x="7.743" y="48">G</tspan><tspan class="cy" x="15.531" y="48">B</tspan><tspan class="dh" x="22.551" y="48">(</tspan><tspan class="co" x="28.671" y="48">6</tspan><tspan class="di" x="36.128" y="48">8</tspan><tspan class="dj" x="42.736" y="48">,</tspan><tspan class="dk" x="47.918" y="48">1</tspan><tspan class="dl" x="54.658" y="48">7</tspan><tspan class="da" x="61.894" y="48">0</tspan><tspan class="dj" x="68.373" y="48">,</tspan><tspan class="dk" x="73.555" y="48">1</tspan><tspan class="dl" x="80.295" y="48">7</tspan><tspan class="dm" x="87.531" y="48">0</tspan><tspan x="93.763" y="48">)</tspan><tspan class="aj" x="0" y="96">R</tspan><tspan class="av" x="7.743" y="96">G</tspan><tspan class="cy" x="15.531" y="96">B</tspan><tspan class="dh" x="22.551" y="96">(</tspan><tspan class="co" x="28.671" y="96">6</tspan><tspan class="di" x="36.128" y="96">8</tspan><tspan class="dj" x="42.736" y="96">,</tspan><tspan class="bv" x="47.918" y="96">1</tspan><tspan class="dn" x="54.338" y="96">1</tspan><tspan class="do" x="60.975" y="96">9</tspan><tspan class="dp" x="67.116" y="96">,</tspan><tspan class="dq" x="73.335" y="96">5</tspan><tspan class="dr" x="80.558" y="96">1</tspan><tspan x="86.491" y="96">)</tspan><tspan class="aj" x="0" y="144">R</tspan><tspan class="av" x="7.743" y="144">G</tspan><tspan class="cy" x="15.531" y="144">B</tspan><tspan class="ds" x="22.551" y="144">(</tspan><tspan class="dt" x="28.692" y="144">1</tspan><tspan class="cj" x="35.362" y="144">8</tspan><tspan class="du" x="42.845" y="144">7</tspan><tspan class="db" x="48.071" y="144">,</tspan><tspan class="dv" x="53.253" y="144">1</tspan><tspan class="dw" x="59.994" y="144">7</tspan><tspan class="dx" x="67.229" y="144">0</tspan><tspan class="dy" x="73.708" y="144">,</tspan><tspan class="ct" x="79.878" y="144">6</tspan><tspan class="dz" x="87.335" y="144">8</tspan><tspan x="93.547" y="144">)</tspan><tspan class="aj" x="0" y="192">R</tspan><tspan class="av" x="7.743" y="192">G</tspan><tspan class="cy" x="15.531" y="192">B</tspan><tspan class="ea" x="22.551" y="192">(</tspan><tspan class="eb" x="28.887" y="192">2</tspan><tspan class="ec" x="36.155" y="192">0</tspan><tspan class="ed" x="43.879" y="192">4</tspan><tspan class="db" x="50.483" y="192">,</tspan><tspan class="bv" x="55.665" y="192">1</tspan><tspan class="dn" x="62.085" y="192">1</tspan><tspan class="do" x="68.722" y="192">9</tspan><tspan class="db" x="74.863" y="192">,</tspan><tspan class="dv" x="80.044" y="192">1</tspan><tspan class="ee" x="86.785" y="192">7</tspan><tspan x="93.655" y="192">)</tspan><tspan class="aj" x="0" y="240">R</tspan><tspan class="av" x="7.743" y="240">G</tspan><tspan class="cy" x="15.531" y="240">B</tspan><tspan class="ds" x="22.551" y="240">(</tspan><tspan class="ef" x="28.692" y="240">1</tspan><tspan class="eg" x="35.29" y="240">5</tspan><tspan class="eh" x="42.955" y="240">3</tspan><tspan class="dp" x="49.408" y="240">,</tspan><tspan class="dq" x="55.627" y="240">5</tspan><tspan class="ei" x="62.85" y="240">1</tspan><tspan class="ej" x="68.75" y="240">,</tspan><tspan class="ct" x="74.92" y="240">6</tspan><tspan class="dz" x="82.377" y="240">8</tspan><tspan x="88.589" y="240">)</tspan><tspan class="aj" x="0" y="288">R</tspan><tspan class="av" x="7.743" y="288">G</tspan><tspan class="cy" x="15.531" y="288">B</tspan><tspan class="ds" x="22.551" y="288">(</tspan><tspan class="dk" x="28.692" y="288">1</tspan><tspan class="dl" x="35.433" y="288">7</tspan><tspan class="da" x="42.668" y="288">0</tspan><tspan class="ek" x="49.147" y="288">,</tspan><tspan class="aq" x="55.417" y="288">8</tspan><tspan class="el" x="62.894" y="288">5</tspan><tspan class="db" x="69.483" y="288">,</tspan><tspan class="dv" x="74.665" y="288">1</tspan><tspan class="dl" x="81.406" y="288">7</tspan><tspan class="dm" x="88.642" y="288">0</tspan><tspan x="94.874" y="288">)</tspan><tspan class="aj" x="0" y="336">R</tspan><tspan class="av" x="7.743" y="336">G</tspan><tspan class="cy" x="15.531" y="336">B</tspan><tspan class="em" x="22.551" y="336">(</tspan><tspan class="en" x="28.686" y="336">8</tspan><tspan class="eo" x="36.162" y="336">5</tspan><tspan class="ep" x="42.751" y="336">,</tspan><tspan class="by" x="49.171" y="336">3</tspan><tspan class="ed" x="56.797" y="336">4</tspan><tspan class="db" x="63.401" y="336">,</tspan><tspan class="eq" x="68.583" y="336">1</tspan><tspan class="er" x="75.304" y="336">3</tspan><tspan class="do" x="82.741" y="336">6</tspan><tspan x="88.882" y="336">)</tspan><tspan class="ar"><tspan class="aj" x="0" y="384">R</tspan><tspan class="av" x="7.743" y="384">G</tspan><tspan class="cy" x="15.531" y="384">B</tspan><tspan class="ds" x="22.551" y="384">(</tspan><tspan class="ef" x="28.692" y="384">1</tspan><tspan class="eg" x="35.29" y="384">5</tspan><tspan class="eh" x="42.955" y="384">3</tspan><tspan class="db" x="49.408" y="384">,</tspan><tspan class="df" x="54.589" y="384">1</tspan><tspan class="ao" x="61.187" y="384">5</tspan><tspan class="eh" x="68.852" y="384">3</tspan><tspan class="db" x="75.305" y="384">,</tspan><tspan class="df" x="80.486" y="384">1</tspan><tspan class="ao" x="87.084" y="384">5</tspan><tspan class="es" x="94.749" y="384">3</tspan><tspan x="100.871" y="384">)</tspan><tspan class="aj" x="0" y="432">R</tspan><tspan class="av" x="7.743" y="432">G</tspan><tspan class="cy" x="15.531" y="432">B</tspan><tspan class="ds" x="22.551" y="432">(</tspan><tspan class="bv" x="28.692" y="432">1</tspan><tspan class="dn" x="35.113" y="432">1</tspan><tspan class="do" x="41.75" y="432">9</tspan><tspan class="db" x="47.891" y="432">,</tspan><tspan class="df" x="53.072" y="432">1</tspan><tspan class="ao" x="59.67" y="432">5</tspan><tspan class="eh" x="67.334" y="432">3</tspan><tspan class="db" x="73.788" y="432">,</tspan><tspan class="et" x="78.969" y="432">1</tspan><tspan class="cj" x="85.64" y="432">8</tspan><tspan class="eu" x="93.123" y="432">7</tspan><tspan x="99.993" y="432">)</tspan><tspan class="aj" x="0" y="480">R</tspan><tspan class="av" x="7.743" y="480">G</tspan><tspan class="cy" x="15.531" y="480">B</tspan><tspan class="ds" x="22.551" y="480">(</tspan><tspan class="dk" x="28.692" y="480">1</tspan><tspan class="dl" x="35.433" y="480">7</tspan><tspan class="da" x="42.668" y="480">0</tspan><tspan class="ev" x="49.147" y="480">,</tspan><tspan class="ew" x="55.647" y="480">2</tspan><tspan class="ex" x="62.916" y="480">0</tspan><tspan class="ed" x="70.639" y="480">4</tspan><tspan class="ev" x="77.243" y="480">,</tspan><tspan class="eb" x="83.743" y="480">2</tspan><tspan class="ex" x="91.011" y="480">0</tspan><tspan class="ey" x="98.734" y="480">4</tspan><tspan x="105.116" y="480">)</tspan><tspan class="aj" x="0" y="528">R</tspan><tspan class="av" x="7.743" y="528">G</tspan><tspan class="cy" x="15.531" y="528">B</tspan><tspan class="ds" x="22.551" y="528">(</tspan><tspan class="ez" x="28.692" y="528">1</tspan><tspan class="fa" x="35.413" y="528">3</tspan><tspan class="fb" x="42.851" y="528">6</tspan><tspan class="db" x="49.337" y="528">,</tspan><tspan class="dv" x="54.519" y="528">1</tspan><tspan class="dl" x="61.26" y="528">7</tspan><tspan class="da" x="68.496" y="528">0</tspan><tspan class="db" x="74.975" y="528">,</tspan><tspan class="fc" x="80.156" y="528">1</tspan><tspan class="fd" x="86.577" y="528">1</tspan><tspan class="fe" x="93.213" y="528">9</tspan><tspan x="99.277" y="528">)</tspan><tspan class="aj" x="0" y="576">R</tspan><tspan class="av" x="7.743" y="576">G</tspan><tspan class="cy" x="15.531" y="576">B</tspan><tspan class="ea" x="22.551" y="576">(</tspan><tspan class="ca" x="28.887" y="576">2</tspan><tspan class="ff" x="36.396" y="576">3</tspan><tspan class="di" x="43.781" y="576">8</tspan><tspan class="ev" x="50.389" y="576">,</tspan><tspan class="fg" x="56.889" y="576">2</tspan><tspan class="fh" x="64.469" y="576">2</tspan><tspan class="fi" x="71.601" y="576">1</tspan><tspan class="fj" x="77.502" y="576">,</tspan><tspan class="en" x="83.771" y="576">8</tspan><tspan class="fk" x="91.248" y="576">5</tspan><tspan x="97.982" y="576">)</tspan><tspan class="aj" x="0" y="624">R</tspan><tspan class="av" x="7.743" y="624">G</tspan><tspan class="cy" x="15.531" y="624">B</tspan><tspan class="ea" x="22.551" y="624">(</tspan><tspan class="fg" x="28.887" y="624">2</tspan><tspan class="fh" x="36.467" y="624">2</tspan><tspan class="fi" x="43.599" y="624">1</tspan><tspan class="db" x="49.5" y="624">,</tspan><tspan class="dv" x="54.682" y="624">1</tspan><tspan class="dw" x="61.422" y="624">7</tspan><tspan class="dx" x="68.658" y="624">0</tspan><tspan class="db" x="75.137" y="624">,</tspan><tspan class="bv" x="80.319" y="624">1</tspan><tspan class="dn" x="86.739" y="624">1</tspan><tspan class="fl" x="93.376" y="624">9</tspan><tspan x="99.439" y="624">)</tspan><tspan class="aj" x="0" y="672">R</tspan><tspan class="av" x="7.743" y="672">G</tspan><tspan class="cy" x="15.531" y="672">B</tspan><tspan class="ea" x="22.551" y="672">(</tspan><tspan class="al" x="28.887" y="672">2</tspan><tspan class="fm" x="36.279" y="672">4</tspan><tspan class="da" x="43.879" y="672">0</tspan><tspan class="db" x="50.358" y="672">,</tspan><tspan class="fc" x="55.54" y="672">1</tspan><tspan class="fd" x="61.96" y="672">1</tspan><tspan class="do" x="68.597" y="672">9</tspan><tspan class="dj" x="74.738" y="672">,</tspan><tspan class="ez" x="79.92" y="672">1</tspan><tspan class="fa" x="86.641" y="672">3</tspan><tspan class="do" x="94.078" y="672">6</tspan><tspan x="100.219" y="672">)</tspan><tspan class="aj" x="0" y="720">R</tspan><tspan class="av" x="7.743" y="720">G</tspan><tspan class="cy" x="15.531" y="720">B</tspan><tspan class="ea" x="22.551" y="720">(</tspan><tspan class="fg" x="28.887" y="720">2</tspan><tspan class="fh" x="36.467" y="720">2</tspan><tspan class="fi" x="43.599" y="720">1</tspan><tspan class="ev" x="49.5" y="720">,</tspan><tspan class="eb" x="56" y="720">2</tspan><tspan class="ex" x="63.268" y="720">0</tspan><tspan class="ed" x="70.991" y="720">4</tspan><tspan class="ev" x="77.595" y="720">,</tspan><tspan class="ce" x="84.095" y="720">2</tspan><tspan class="fh" x="91.676" y="720">2</tspan><tspan class="dr" x="98.808" y="720">1</tspan><tspan x="104.741" y="720">)</tspan></tspan><tspan class="aj" x="0" y="768">R</tspan><tspan class="av" x="7.743" y="768">G</tspan><tspan class="cy" x="15.531" y="768">B</tspan><tspan class="ds" x="22.551" y="768">(</tspan><tspan class="ef" x="28.692" y="768">1</tspan><tspan class="eg" x="35.29" y="768">5</tspan><tspan class="eh" x="42.955" y="768">3</tspan><tspan class="db" x="49.408" y="768">,</tspan><tspan class="fc" x="54.589" y="768">1</tspan><tspan class="fd" x="61.01" y="768">1</tspan><tspan class="do" x="67.646" y="768">9</tspan><tspan class="db" x="73.788" y="768">,</tspan><tspan class="et" x="78.969" y="768">1</tspan><tspan class="cj" x="85.64" y="768">8</tspan><tspan class="eu" x="93.123" y="768">7</tspan><tspan x="99.993" y="768">)</tspan><tspan class="aj" x="0" y="816">R</tspan><tspan class="av" x="7.743" y="816">G</tspan><tspan class="cy" x="15.531" y="816">B</tspan><tspan class="ds" x="22.551" y="816">(</tspan><tspan class="bv" x="28.692" y="816">1</tspan><tspan class="dn" x="35.113" y="816">1</tspan><tspan class="do" x="41.75" y="816">9</tspan><tspan class="db" x="47.891" y="816">,</tspan><tspan class="fc" x="53.072" y="816">1</tspan><tspan class="fd" x="59.493" y="816">1</tspan><tspan class="do" x="66.129" y="816">9</tspan><tspan class="db" x="72.271" y="816">,</tspan><tspan class="fc" x="77.452" y="816">1</tspan><tspan class="fd" x="83.873" y="816">1</tspan><tspan class="fe" x="90.509" y="816">9</tspan><tspan x="96.573" y="816">)</tspan></text></svg>