<svg xmlns="http://www.w3.org/2000/svg" width="554" height="96" viewBox="0 0 554 96"><defs><style>.a{fill:#26b910;}.b{fill:#d60037;}.c{font-size:15px;fill:#fff;font-family:OpenSans, Open Sans;}.d{letter-spacing:0.01em;}.e{letter-spacing:-0.006em;}.f{letter-spacing:-0.01em;}.g{letter-spacing:-0.008em;}.h{letter-spacing:-0.004em;}.i{letter-spacing:-0.003em;}.j{letter-spacing:0.002em;}.k{letter-spacing:0.001em;}.l{letter-spacing:-0.004em;}.m{letter-spacing:-0.01em;}.n{letter-spacing:0.001em;}.o{letter-spacing:-0.032em;}.p{letter-spacing:-0.02em;}.q{letter-spacing:-0.007em;}.r{letter-spacing:-0.006em;}.s{letter-spacing:-0.022em;}.t{letter-spacing:-0.054em;}.u{letter-spacing:0.001em;}.v{letter-spacing:-0.004em;}.w{letter-spacing:0.022em;}.x{letter-spacing:-0.016em;}.y{letter-spacing:-0.012em;}.z{letter-spacing:0.004em;}.aa{letter-spacing:0em;}.ab{letter-spacing:0.016em;}.ac{letter-spacing:0.005em;}.ad{letter-spacing:0.006em;}.ae{letter-spacing:0.011em;}.af{letter-spacing:-0.081em;}.ag{letter-spacing:-0.061em;}.ah{letter-spacing:-0.003em;}.ai{letter-spacing:-0.062em;}.aj{letter-spacing:-0.002em;}.ak{letter-spacing:0.009em;}.al{letter-spacing:-0.013em;}.am{letter-spacing:0.015em;}.an{letter-spacing:-0.003em;}.ao{letter-spacing:0em;}.ap{letter-spacing:0.021em;}.aq{letter-spacing:-0.008em;}.ar{letter-spacing:-0.026em;}</style></defs><title>reporting_palette_02</title><rect class="a" width="554" height="48"/><rect class="b" y="48" width="554" height="48"/><text class="c" transform="translate(24 28.936)"><tspan class="d">T</tspan><tspan class="e" x="8.451" y="0">h</tspan><tspan class="f" x="17.563" y="0">r</tspan><tspan x="23.538" y="0">e</tspan><tspan class="g" x="31.954" y="0">s</tspan><tspan class="h" x="38.988" y="0">ho</tspan><tspan class="i" x="57.14" y="0">l</tspan><tspan x="60.889" y="0">d </tspan><tspan class="j" x="73.978" y="0">G</tspan><tspan class="f" x="84.934" y="0">r</tspan><tspan class="k" x="90.909" y="0">e</tspan><tspan class="l" x="99.336" y="0">e</tspan><tspan x="107.686" y="0">n</tspan><tspan class="d" x="0" y="48">T</tspan><tspan class="e" x="8.451" y="48">h</tspan><tspan class="f" x="17.563" y="48">r</tspan><tspan x="23.538" y="48">e</tspan><tspan class="g" x="31.954" y="48">s</tspan><tspan class="h" x="38.988" y="48">ho</tspan><tspan class="i" x="57.14" y="48">l</tspan><tspan x="60.889" y="48">d </tspan><tspan class="m" x="73.978" y="48">R</tspan><tspan class="n" x="83.099" y="48">e</tspan><tspan x="91.526" y="48">d</tspan></text><text class="c" transform="translate(281 28.936)"><tspan class="o">#</tspan><tspan class="p" x="9.217" y="0">2</tspan><tspan class="q" x="17.49" y="0">6</tspan><tspan class="r" x="25.966" y="0">B</tspan><tspan class="s" x="35.597" y="0">9</tspan><tspan class="t" x="43.837" y="0">1</tspan><tspan x="51.596" y="0">0</tspan><tspan class="u" x="0" y="48">#</tspan><tspan class="v" x="9.699" y="48">E</tspan><tspan class="w" x="17.983" y="48">00</tspan><tspan class="x" x="35.784" y="48">0</tspan><tspan class="y" x="44.124" y="48">2</tspan><tspan x="52.523" y="48">0</tspan></text><text class="c" transform="translate(400 28.936)"><tspan class="z">r</tspan><tspan class="aa" x="6.179" y="0">g</tspan><tspan class="ab" x="14.402" y="0">b</tspan><tspan class="ac" x="23.831" y="0">(</tspan><tspan class="ad" x="28.348" y="0">3</tspan><tspan class="ae" x="37.011" y="0">8</tspan><tspan class="af" x="45.759" y="0">,</tspan><tspan class="ag" x="48.227" y="0">1</tspan><tspan class="ah" x="55.881" y="0">8</tspan><tspan class="j" x="64.417" y="0">5</tspan><tspan class="af" x="73.03" y="0">,</tspan><tspan class="ai" x="75.498" y="0">1</tspan><tspan class="q" x="83.15" y="0">6</tspan><tspan x="91.626" y="0">)</tspan><tspan class="z" x="0" y="48">r</tspan><tspan class="aa" x="6.179" y="48">g</tspan><tspan class="ab" x="14.402" y="48">b</tspan><tspan class="aj" x="23.831" y="48">(</tspan><tspan class="ak" x="28.235" y="48">2</tspan><tspan class="al" x="36.951" y="48">2</tspan><tspan class="am" x="45.336" y="48">4</tspan><tspan class="an" x="54.135" y="48">,</tspan><tspan class="ao" x="57.764" y="48">0</tspan><tspan class="ap" x="66.34" y="48">,</tspan><tspan class="aq" x="70.332" y="48">3</tspan><tspan class="ar" x="78.784" y="48">2</tspan><tspan x="86.972" y="48">)</tspan></text></svg>