<svg xmlns="http://www.w3.org/2000/svg" width="554" height="864" viewBox="0 0 554 864"><defs><style>.a{fill:#069;}.b{fill:#4aa;}.c{fill:#473;}.d{fill:#ba4;}.e{fill:#c71;}.f{fill:#934;}.g{fill:#a5a;}.h{fill:#528;}.i{fill:#999;}.j{fill:#79b;}.k{fill:#acc;}.l{fill:#8a7;}.m{fill:#ed5;}.n{fill:#da7;}.o{fill:#c78;}.p{fill:#dcd;}.q{fill:#97b;}.r{fill:#777;}.s{font-size:15px;fill:#fff;font-family:OpenSans, Open Sans;}.t{letter-spacing:0.001em;}.u{letter-spacing:-0.007em;}.v{letter-spacing:-0.005em;}.w{letter-spacing:-0.003em;}.x{letter-spacing:-0.007em;}.y{letter-spacing:-0.011em;}.z{letter-spacing:0.002em;}.aa{letter-spacing:-0.01em;}.ab{letter-spacing:0.001em;}.ac{letter-spacing:-0.004em;}.ad{letter-spacing:0.003em;}.ae{letter-spacing:-0.004em;}.af{letter-spacing:-0.003em;}.ag{letter-spacing:-0.006em;}.ah{letter-spacing:-0.017em;}.ai{letter-spacing:-0.01em;}.aj{letter-spacing:-0.011em;}.ak{letter-spacing:-0.009em;}.al{letter-spacing:-0.006em;}.am{letter-spacing:-0.008em;}.an{letter-spacing:0.006em;}.ao{letter-spacing:-0.003em;}.ap{fill:#151921;}.aq{letter-spacing:0.004em;}.ar{letter-spacing:-0.008em;}.as{letter-spacing:0em;}.at{letter-spacing:-0.004em;}.au{letter-spacing:0.002em;}.av{letter-spacing:-0.005em;}.aw{letter-spacing:-0.011em;}.ax{letter-spacing:0.001em;}.ay{letter-spacing:-0.006em;}.az{letter-spacing:-0.017em;}.ba{letter-spacing:-0.01em;}.bb{letter-spacing:-0.009em;}.bc{letter-spacing:-0.006em;}.bd{letter-spacing:-0.003em;}.be{letter-spacing:-0.009em;}.bf{letter-spacing:0.022em;}.bg{letter-spacing:0.016em;}.bh{letter-spacing:0.006em;}.bi{letter-spacing:-0.016em;}.bj{letter-spacing:0.007em;}.bk{letter-spacing:0.019em;}.bl{letter-spacing:0.04em;}.bm{letter-spacing:0.02em;}.bn{letter-spacing:0.06em;}.bo{letter-spacing:-0.026em;}.bp{letter-spacing:0.012em;}.bq{letter-spacing:0.01em;}.br{letter-spacing:0.005em;}.bs{letter-spacing:0.06em;}.bt{letter-spacing:0.021em;}.bu{letter-spacing:0.015em;}.bv{letter-spacing:-0.032em;}.bw{letter-spacing:0.023em;}.bx{letter-spacing:0.012em;}.by{letter-spacing:-0.097em;}.bz{letter-spacing:-0.02em;}.ca{letter-spacing:-0.008em;}.cb{letter-spacing:0.026em;}.cc{letter-spacing:-0.012em;}.cd{letter-spacing:0.001em;}.ce{letter-spacing:0.005em;}.cf{letter-spacing:0.009em;}.cg{letter-spacing:-0.002em;}.ch{letter-spacing:-0.019em;}.ci{letter-spacing:-0.009em;}.cj{letter-spacing:0.003em;}.ck{letter-spacing:-0.032em;}.cl{letter-spacing:0.009em;}.cm{letter-spacing:0.01em;}.cn{letter-spacing:-0.01em;}.co{letter-spacing:-0.014em;}.cp{letter-spacing:-0.005em;}.cq{letter-spacing:-0.012em;}.cr{letter-spacing:-0.005em;}.cs{letter-spacing:-0.019em;}.ct{letter-spacing:0.009em;}.cu{letter-spacing:-0.001em;}.cv{letter-spacing:-0.004em;}.cw{letter-spacing:-0.015em;}.cx{letter-spacing:-0.015em;}.cy{letter-spacing:0.016em;}.cz{letter-spacing:-0.017em;}.da{letter-spacing:-0.081em;}.db{letter-spacing:-0.054em;}.dc{letter-spacing:-0.016em;}.dd{letter-spacing:0.004em;}.de{letter-spacing:-0.07em;}.df{letter-spacing:-0.025em;}.dg{letter-spacing:-0.024em;}.dh{letter-spacing:0.01em;}.di{letter-spacing:0.011em;}.dj{letter-spacing:-0.074em;}.dk{letter-spacing:-0.017em;}.dl{letter-spacing:-0.07em;}.dm{letter-spacing:-0.019em;}.dn{letter-spacing:-0.064em;}.do{letter-spacing:-0.066em;}.dp{letter-spacing:-0.039em;}.dq{letter-spacing:-0.061em;}.dr{letter-spacing:-0.096em;}.ds{letter-spacing:-0.005em;}.dt{letter-spacing:-0.021em;}.du{letter-spacing:-0.002em;}.dv{letter-spacing:-0.012em;}.dw{letter-spacing:0.022em;}.dx{letter-spacing:0.015em;}.dy{letter-spacing:-0.074em;}.dz{letter-spacing:0.02em;}.ea{letter-spacing:-0.07em;}.eb{letter-spacing:0.005em;}.ec{letter-spacing:0.011em;}.ed{letter-spacing:-0.057em;}.ee{letter-spacing:0.015em;}.ef{letter-spacing:-0.016em;}.eg{letter-spacing:-0.017em;}.eh{letter-spacing:-0.021em;}.ei{letter-spacing:0.021em;}.ej{letter-spacing:0.002em;}.ek{letter-spacing:-0.007em;}.el{letter-spacing:0.005em;}.em{letter-spacing:0.016em;}.en{letter-spacing:0.016em;}.eo{letter-spacing:-0.018em;}.ep{letter-spacing:0.002em;}.eq{letter-spacing:0.009em;}.er{letter-spacing:-0.022em;}.es{letter-spacing:0.011em;}.et{letter-spacing:0.006em;}.eu{letter-spacing:-0.028em;}.ev{letter-spacing:-0.057em;}.ew{letter-spacing:0.015em;}.ex{letter-spacing:-0.009em;}.ey{letter-spacing:-0.07em;}.ez{letter-spacing:-0.013em;}.fa{letter-spacing:0.022em;}.fb{letter-spacing:-0.007em;}.fc{letter-spacing:-0.066em;}.fd{letter-spacing:-0.022em;}</style></defs><title>reporting_palette_01</title><rect class="a" width="554" height="48"/><rect class="b" y="48" width="554" height="48"/><rect class="c" y="96" width="554" height="48"/><rect class="d" y="144" width="554" height="48"/><rect class="e" y="192" width="554" height="48"/><rect class="f" y="240" width="554" height="48"/><rect class="g" y="288" width="554" height="48"/><rect class="h" y="336" width="554" height="48"/><rect class="i" y="384" width="554" height="48"/><rect class="j" y="432" width="554" height="48"/><rect class="k" y="480" width="554" height="48"/><rect class="l" y="528" width="554" height="48"/><rect class="m" y="576" width="554" height="48"/><rect class="n" y="624" width="554" height="48"/><rect class="o" y="672" width="554" height="48"/><rect class="p" y="720" width="554" height="48"/><rect class="q" y="768" width="554" height="48"/><rect class="r" y="816" width="554" height="48"/><text class="s" transform="translate(24 28.936)"><tspan class="t">B</tspan><tspan class="u" x="9.728" y="0">l</tspan><tspan class="v" x="13.42" y="0">u</tspan><tspan x="22.549" y="0">e</tspan><tspan class="w" x="0" y="48">A</tspan><tspan class="x" x="9.452" y="48">q</tspan><tspan class="y" x="18.542" y="48">u</tspan><tspan x="27.589" y="48">a</tspan><tspan class="z" x="0" y="96">G</tspan><tspan class="aa" x="10.957" y="96">r</tspan><tspan class="ab" x="16.931" y="96">e</tspan><tspan class="ac" x="25.358" y="96">e</tspan><tspan x="33.708" y="96">n</tspan><tspan class="ad" x="0" y="144">G</tspan><tspan class="ae" x="10.968" y="144">o</tspan><tspan class="af" x="19.968" y="144">l</tspan><tspan x="23.717" y="144">d</tspan><tspan x="0" y="192">O</tspan><tspan class="x" x="11.682" y="192">r</tspan><tspan class="ag" x="17.703" y="192">an</tspan><tspan class="ah" x="35.066" y="192">g</tspan><tspan x="43.026" y="192">e</tspan><tspan class="ai" x="0" y="240">R</tspan><tspan class="ab" x="9.121" y="240">e</tspan><tspan x="17.548" y="240">d</tspan><tspan class="aj" x="0" y="288">P</tspan><tspan class="ak" x="8.869" y="288">i</tspan><tspan class="al" x="12.532" y="288">n</tspan><tspan x="21.644" y="288">k</tspan><tspan class="am" x="0" y="336">Pu</tspan><tspan class="an" x="17.988" y="336">r</tspan><tspan class="ao" x="24.198" y="336">p</tspan><tspan class="ac" x="33.341" y="336">l</tspan><tspan x="37.069" y="336">e</tspan><tspan class="ap"><tspan class="aq" x="0" y="384">L</tspan><tspan class="ar" x="7.841" y="384">i</tspan><tspan class="as" x="11.514" y="384">g</tspan><tspan class="at" x="19.737" y="384">h</tspan><tspan x="28.89" y="384">t </tspan><tspan class="au" x="38.082" y="384">G</tspan><tspan class="x" x="49.038" y="384">r</tspan><tspan class="av" x="55.059" y="384">a</tspan><tspan x="63.324" y="384">y</tspan><tspan class="aq" x="0" y="432">L</tspan><tspan class="ar" x="7.841" y="432">i</tspan><tspan class="as" x="11.514" y="432">g</tspan><tspan class="at" x="19.737" y="432">h</tspan><tspan x="28.89" y="432">t </tspan><tspan class="t" x="38.082" y="432">B</tspan><tspan class="x" x="47.81" y="432">l</tspan><tspan class="v" x="51.502" y="432">u</tspan><tspan x="60.63" y="432">e</tspan><tspan class="aq" x="0" y="480">L</tspan><tspan class="ar" x="7.841" y="480">i</tspan><tspan class="as" x="11.514" y="480">g</tspan><tspan class="at" x="19.737" y="480">h</tspan><tspan x="28.89" y="480">t </tspan><tspan class="w" x="38.082" y="480">A</tspan><tspan class="x" x="47.534" y="480">q</tspan><tspan class="aw" x="56.624" y="480">u</tspan><tspan x="65.671" y="480">a</tspan><tspan class="aq" x="0" y="528">L</tspan><tspan class="ar" x="7.841" y="528">i</tspan><tspan class="as" x="11.514" y="528">g</tspan><tspan class="at" x="19.737" y="528">h</tspan><tspan x="28.89" y="528">t </tspan><tspan class="au" x="38.082" y="528">G</tspan><tspan class="aa" x="49.038" y="528">r</tspan><tspan class="ax" x="55.013" y="528">e</tspan><tspan class="ac" x="63.44" y="528">e</tspan><tspan x="71.79" y="528">n</tspan><tspan class="aq" x="0" y="576">L</tspan><tspan class="ar" x="7.841" y="576">i</tspan><tspan class="as" x="11.514" y="576">g</tspan><tspan class="at" x="19.737" y="576">h</tspan><tspan x="28.89" y="576">t </tspan><tspan class="ad" x="38.082" y="576">G</tspan><tspan class="ae" x="49.05" y="576">o</tspan><tspan class="af" x="58.05" y="576">l</tspan><tspan x="61.799" y="576">d</tspan><tspan class="aq" x="0" y="624">L</tspan><tspan class="ar" x="7.841" y="624">i</tspan><tspan class="as" x="11.514" y="624">g</tspan><tspan class="at" x="19.737" y="624">h</tspan><tspan x="28.89" y="624">t O</tspan><tspan class="x" x="49.764" y="624">r</tspan><tspan class="ay" x="55.785" y="624">an</tspan><tspan class="az" x="73.148" y="624">g</tspan><tspan x="81.107" y="624">e</tspan><tspan class="aq" x="0" y="672">L</tspan><tspan class="ar" x="7.841" y="672">i</tspan><tspan class="as" x="11.514" y="672">g</tspan><tspan class="at" x="19.737" y="672">h</tspan><tspan x="28.89" y="672">t </tspan><tspan class="ba" x="38.082" y="672">R</tspan><tspan class="ax" x="47.203" y="672">e</tspan><tspan x="55.63" y="672">d</tspan><tspan class="aq" x="0" y="720">L</tspan><tspan class="ar" x="7.841" y="720">i</tspan><tspan class="as" x="11.514" y="720">g</tspan><tspan class="at" x="19.737" y="720">h</tspan><tspan x="28.89" y="720">t </tspan><tspan class="aj" x="38.082" y="720">P</tspan><tspan class="bb" x="46.951" y="720">i</tspan><tspan class="bc" x="50.614" y="720">n</tspan><tspan x="59.726" y="720">k</tspan></tspan><tspan class="aq" x="0" y="768">L</tspan><tspan class="ar" x="7.841" y="768">i</tspan><tspan class="as" x="11.514" y="768">g</tspan><tspan class="at" x="19.737" y="768">h</tspan><tspan x="28.89" y="768">t </tspan><tspan class="am" x="38.082" y="768">Pu</tspan><tspan class="an" x="56.07" y="768">r</tspan><tspan class="bd" x="62.28" y="768">p</tspan><tspan class="ac" x="71.422" y="768">l</tspan><tspan x="75.15" y="768">e</tspan><tspan class="be" x="0" y="816">D</tspan><tspan class="ag" x="10.794" y="816">a</tspan><tspan class="an" x="19.043" y="816">r</tspan><tspan x="25.253" y="816">k </tspan><tspan class="z" x="37.023" y="816">G</tspan><tspan class="x" x="47.98" y="816">r</tspan><tspan class="v" x="54.001" y="816">a</tspan><tspan x="62.265" y="816">y</tspan></text><text class="s" transform="translate(281 28.936)"><tspan class="bf">#0</tspan><tspan class="bg" x="18.92" y="0">0</tspan><tspan class="bh" x="27.73" y="0">6</tspan><tspan class="bi" x="36.401" y="0">6</tspan><tspan class="bj" x="44.733" y="0">9</tspan><tspan x="53.412" y="0">9</tspan><tspan class="bk" x="0" y="48">#</tspan><tspan class="bl" x="9.978" y="48">4</tspan><tspan class="bm" x="19.155" y="48">4</tspan><tspan class="bn" x="28.037" y="48">AAA</tspan><tspan x="59.214" y="48">A</tspan><tspan class="bk" x="0" y="96">#</tspan><tspan class="bl" x="9.978" y="96">4</tspan><tspan class="bo" x="19.155" y="96">4</tspan><tspan class="bp" x="27.343" y="96">7</tspan><tspan class="bq" x="36.096" y="96">7</tspan><tspan class="ab" x="44.82" y="96">3</tspan><tspan x="53.409" y="96">3</tspan><tspan class="t" x="0" y="144">#</tspan><tspan x="9.699" y="144">B</tspan><tspan class="br" x="19.418" y="144">B</tspan><tspan class="bs" x="29.215" y="144">A</tspan><tspan class="bt" x="39.607" y="144">A</tspan><tspan class="bl" x="49.413" y="144">4</tspan><tspan x="58.59" y="144">4</tspan><tspan class="bu" x="0" y="192">#</tspan><tspan class="bv" x="9.918" y="192">C</tspan><tspan class="bw" x="18.895" y="192">C</tspan><tspan class="bx" x="28.7" y="192">7</tspan><tspan class="bo" x="37.454" y="192">7</tspan><tspan class="by" x="45.642" y="192">1</tspan><tspan x="52.76" y="192">1</tspan><tspan class="bf" x="0" y="240">#</tspan><tspan class="bj" x="10.017" y="240">9</tspan><tspan class="bz" x="18.696" y="240">9</tspan><tspan class="ax" x="26.974" y="240">3</tspan><tspan class="bt" x="35.563" y="240">3</tspan><tspan class="bl" x="44.453" y="240">4</tspan><tspan x="53.629" y="240">4</tspan><tspan class="ca" x="0" y="288">#</tspan><tspan class="bn" x="9.571" y="288">A</tspan><tspan class="cb" x="19.964" y="288">A</tspan><tspan class="cc" x="29.843" y="288">5</tspan><tspan class="cd" x="38.243" y="288">5</tspan><tspan class="bn" x="46.837" y="288">A</tspan><tspan x="57.229" y="288">A</tspan><tspan class="ce" x="0" y="336">#</tspan><tspan class="cc" x="9.759" y="336">55</tspan><tspan class="cf" x="26.558" y="336">2</tspan><tspan class="cg" x="35.274" y="336">2</tspan><tspan class="cf" x="43.816" y="336">8</tspan><tspan x="52.533" y="336">8</tspan><tspan class="ap"><tspan class="bf" x="0" y="384">#</tspan><tspan class="bj" x="10.017" y="384">99999</tspan><tspan x="53.41" y="384">9</tspan><tspan class="ch" x="0" y="432">#</tspan><tspan class="bx" x="9.399" y="432">7</tspan><tspan class="ci" x="18.153" y="432">7</tspan><tspan class="bj" x="26.597" y="432">9</tspan><tspan class="cj" x="35.276" y="432">9</tspan><tspan x="43.893" y="432">BB</tspan><tspan class="ca" x="0" y="480">#</tspan><tspan class="bn" x="9.571" y="480">A</tspan><tspan class="bi" x="19.964" y="480">A</tspan><tspan class="ck" x="29.211" y="480">CCC</tspan><tspan x="56.142" y="480">C</tspan><tspan class="cl" x="0" y="528">#</tspan><tspan class="cf" x="9.82" y="528">8</tspan><tspan class="cm" x="18.537" y="528">8</tspan><tspan class="bs" x="27.26" y="528">A</tspan><tspan class="cn" x="37.652" y="528">A</tspan><tspan class="bx" x="46.998" y="528">7</tspan><tspan x="55.751" y="528">7</tspan><tspan class="t" x="0" y="576">#</tspan><tspan class="co" x="9.699" y="576">EE</tspan><tspan class="cp" x="25.958" y="576">D</tspan><tspan class="cq" x="36.819" y="576">D5</tspan><tspan x="55.974" y="576">5</tspan><tspan class="t" x="0" y="624">#</tspan><tspan class="cr" x="9.699" y="624">D</tspan><tspan class="cs" x="20.561" y="624">D</tspan><tspan class="bs" x="31.21" y="624">A</tspan><tspan class="cn" x="41.603" y="624">A</tspan><tspan class="bx" x="50.948" y="624">7</tspan><tspan x="59.702" y="624">7</tspan><tspan class="bu" x="0" y="672">#</tspan><tspan class="bv" x="9.918" y="672">C</tspan><tspan class="bw" x="18.895" y="672">C</tspan><tspan class="bx" x="28.7" y="672">7</tspan><tspan class="aj" x="37.454" y="672">7</tspan><tspan class="ct" x="45.868" y="672">8</tspan><tspan x="54.584" y="672">8</tspan><tspan class="t" x="0" y="720">#</tspan><tspan class="cr" x="9.699" y="720">D</tspan><tspan class="cu" x="20.561" y="720">D</tspan><tspan class="bv" x="31.475" y="720">C</tspan><tspan class="cv" x="40.452" y="720">C</tspan><tspan class="cp" x="49.857" y="720">D</tspan><tspan x="60.719" y="720">D</tspan></tspan><tspan class="bf" x="0" y="768">#</tspan><tspan class="bj" x="10.017" y="768">9</tspan><tspan class="cw" x="18.696" y="768">9</tspan><tspan class="bp" x="27.05" y="768">7</tspan><tspan class="cx" x="35.804" y="768">7</tspan><tspan x="44.159" y="768">BB</tspan><tspan class="ch" x="0" y="816">#</tspan><tspan class="bx" x="9.399" y="816">77777</tspan><tspan x="53.167" y="816">7</tspan></text><text class="s" transform="translate(400 28.936)"><tspan class="aq">r</tspan><tspan class="as" x="6.179" y="0">g</tspan><tspan class="cy" x="14.402" y="0">b</tspan><tspan class="cz" x="23.831" y="0">(</tspan><tspan x="28.021" y="0">0</tspan><tspan class="da" x="36.597" y="0">,</tspan><tspan class="db" x="39.065" y="0">1</tspan><tspan class="dc" x="46.824" y="0">0</tspan><tspan class="dd" x="55.164" y="0">2</tspan><tspan class="da" x="63.804" y="0">,</tspan><tspan class="de" x="66.271" y="0">1</tspan><tspan class="cg" x="73.792" y="0">5</tspan><tspan class="df" x="82.334" y="0">3</tspan><tspan x="90.537" y="0">)</tspan><tspan class="aq" x="0" y="48">r</tspan><tspan class="as" x="6.179" y="48">g</tspan><tspan class="cy" x="14.402" y="48">b</tspan><tspan class="dg" x="23.831" y="48">(</tspan><tspan class="dh" x="27.904" y="48">6</tspan><tspan class="di" x="36.635" y="48">8</tspan><tspan class="da" x="45.382" y="48">,</tspan><tspan class="dj" x="47.85" y="48">1</tspan><tspan class="bi" x="55.315" y="48">7</tspan><tspan x="63.647" y="48">0</tspan><tspan class="da" x="72.224" y="48">,</tspan><tspan class="dj" x="74.692" y="48">1</tspan><tspan class="bi" x="82.157" y="48">7</tspan><tspan class="dk" x="90.489" y="48">0</tspan><tspan x="98.811" y="48">)</tspan><tspan class="aq" x="0" y="96">r</tspan><tspan class="as" x="6.179" y="96">g</tspan><tspan class="cy" x="14.402" y="96">b</tspan><tspan class="dg" x="23.831" y="96">(</tspan><tspan class="dh" x="27.904" y="96">6</tspan><tspan class="di" x="36.635" y="96">8</tspan><tspan class="da" x="45.382" y="96">,</tspan><tspan class="by" x="47.85" y="96">1</tspan><tspan class="dl" x="54.969" y="96">1</tspan><tspan class="dm" x="62.496" y="96">9</tspan><tspan class="di" x="70.786" y="96">,</tspan><tspan class="dn" x="74.633" y="96">5</tspan><tspan class="do" x="82.25" y="96">1</tspan><tspan x="89.835" y="96">)</tspan><tspan class="aq" x="0" y="144">r</tspan><tspan class="as" x="6.179" y="144">g</tspan><tspan class="cy" x="14.402" y="144">b</tspan><tspan class="dp" x="23.831" y="144">(</tspan><tspan class="dq" x="27.685" y="144">1</tspan><tspan class="al" x="35.339" y="144">8</tspan><tspan class="dr" x="43.821" y="144">7</tspan><tspan class="da" x="50.96" y="144">,</tspan><tspan class="dj" x="53.428" y="144">1</tspan><tspan class="bi" x="60.894" y="144">7</tspan><tspan x="69.226" y="144">0</tspan><tspan class="ds" x="77.802" y="144">,</tspan><tspan class="dh" x="81.41" y="144">6</tspan><tspan class="dt" x="90.141" y="144">8</tspan><tspan x="98.398" y="144">)</tspan><tspan class="aq" x="0" y="192">r</tspan><tspan class="as" x="6.179" y="192">g</tspan><tspan class="cy" x="14.402" y="192">b</tspan><tspan class="du" x="23.831" y="192">(</tspan><tspan class="dv" x="28.235" y="192">2</tspan><tspan class="dw" x="36.635" y="192">0</tspan><tspan class="dx" x="45.547" y="192">4</tspan><tspan class="da" x="54.346" y="192">,</tspan><tspan class="by" x="56.814" y="192">1</tspan><tspan class="dl" x="63.933" y="192">1</tspan><tspan class="dm" x="71.459" y="192">9</tspan><tspan class="da" x="79.75" y="192">,</tspan><tspan class="dy" x="82.217" y="192">1</tspan><tspan class="dz" x="89.682" y="192">7</tspan><tspan x="98.558" y="192">)</tspan><tspan class="aq" x="0" y="240">r</tspan><tspan class="as" x="6.179" y="240">g</tspan><tspan class="cy" x="14.402" y="240">b</tspan><tspan class="dp" x="23.831" y="240">(</tspan><tspan class="ea" x="27.685" y="240">1</tspan><tspan class="cg" x="35.206" y="240">5</tspan><tspan class="eb" x="43.748" y="240">3</tspan><tspan class="ec" x="52.397" y="240">,</tspan><tspan class="dn" x="56.246" y="240">5</tspan><tspan class="ed" x="63.862" y="240">1</tspan><tspan class="ds" x="71.578" y="240">,</tspan><tspan class="dh" x="75.186" y="240">6</tspan><tspan class="dt" x="83.917" y="240">8</tspan><tspan x="92.174" y="240">)</tspan><tspan class="aq" x="0" y="288">r</tspan><tspan class="as" x="6.179" y="288">g</tspan><tspan class="cy" x="14.402" y="288">b</tspan><tspan class="dp" x="23.831" y="288">(</tspan><tspan class="dj" x="27.685" y="288">1</tspan><tspan class="bi" x="35.15" y="288">7</tspan><tspan x="43.482" y="288">0</tspan><tspan class="ee" x="52.059" y="288">,</tspan><tspan class="w" x="55.959" y="288">8</tspan><tspan class="z" x="64.495" y="288">5</tspan><tspan class="da" x="73.108" y="288">,</tspan><tspan class="dy" x="75.576" y="288">1</tspan><tspan class="ef" x="83.041" y="288">7</tspan><tspan class="eg" x="91.373" y="288">0</tspan><tspan x="99.694" y="288">)</tspan><tspan class="aq" x="0" y="336">r</tspan><tspan class="as" x="6.179" y="336">g</tspan><tspan class="cy" x="14.402" y="336">b</tspan><tspan class="eh" x="23.831" y="336">(</tspan><tspan class="w" x="27.956" y="336">8</tspan><tspan class="z" x="36.492" y="336">5</tspan><tspan class="ei" x="45.105" y="336">,3</tspan><tspan class="dx" x="57.988" y="336">4</tspan><tspan class="da" x="66.787" y="336">,</tspan><tspan class="dj" x="69.255" y="336">1</tspan><tspan class="ej" x="76.72" y="336">3</tspan><tspan class="ek" x="85.331" y="336">6</tspan><tspan x="93.807" y="336">)</tspan><tspan class="ap"><tspan class="aq" x="0" y="384">r</tspan><tspan class="as" x="6.179" y="384">g</tspan><tspan class="cy" x="14.402" y="384">b</tspan><tspan class="dp" x="23.831" y="384">(</tspan><tspan class="ea" x="27.685" y="384">1</tspan><tspan class="cg" x="35.206" y="384">5</tspan><tspan class="eb" x="43.748" y="384">3</tspan><tspan class="da" x="52.397" y="384">,</tspan><tspan class="ea" x="54.865" y="384">1</tspan><tspan class="cg" x="62.386" y="384">5</tspan><tspan class="el" x="70.928" y="384">3</tspan><tspan class="da" x="79.579" y="384">,</tspan><tspan class="de" x="82.046" y="384">1</tspan><tspan class="cg" x="89.567" y="384">5</tspan><tspan class="df" x="98.109" y="384">3</tspan><tspan x="106.312" y="384">)</tspan><tspan class="aq" x="0" y="432">r</tspan><tspan class="as" x="6.179" y="432">g</tspan><tspan class="cy" x="14.402" y="432">b</tspan><tspan class="dp" x="23.831" y="432">(</tspan><tspan class="by" x="27.685" y="432">1</tspan><tspan class="dl" x="34.803" y="432">1</tspan><tspan class="dm" x="42.33" y="432">9</tspan><tspan class="da" x="50.62" y="432">,</tspan><tspan class="de" x="53.088" y="432">1</tspan><tspan class="du" x="60.608" y="432">5</tspan><tspan class="eb" x="69.151" y="432">3</tspan><tspan class="da" x="77.801" y="432">,</tspan><tspan class="dq" x="80.269" y="432">1</tspan><tspan class="al" x="87.923" y="432">8</tspan><tspan class="dz" x="96.405" y="432">7</tspan><tspan x="105.28" y="432">)</tspan><tspan class="aq" x="0" y="480">r</tspan><tspan class="as" x="6.179" y="480">g</tspan><tspan class="cy" x="14.402" y="480">b</tspan><tspan class="dp" x="23.831" y="480">(</tspan><tspan class="dj" x="27.685" y="480">1</tspan><tspan class="bi" x="35.15" y="480">7</tspan><tspan x="43.482" y="480">0</tspan><tspan class="em" x="52.059" y="480">,</tspan><tspan class="dv" x="55.974" y="480">2</tspan><tspan class="dw" x="64.374" y="480">0</tspan><tspan class="dx" x="73.286" y="480">4</tspan><tspan class="en" x="82.085" y="480">,</tspan><tspan class="cc" x="86" y="480">2</tspan><tspan class="dw" x="94.4" y="480">0</tspan><tspan class="eo" x="103.313" y="480">4</tspan><tspan x="111.621" y="480">)</tspan><tspan class="aq" x="0" y="528">r</tspan><tspan class="as" x="6.179" y="528">g</tspan><tspan class="cy" x="14.402" y="528">b</tspan><tspan class="dp" x="23.831" y="528">(</tspan><tspan class="dj" x="27.685" y="528">1</tspan><tspan class="ep" x="35.15" y="528">3</tspan><tspan class="eq" x="43.761" y="528">6</tspan><tspan class="da" x="52.48" y="528">,</tspan><tspan class="dj" x="54.948" y="528">1</tspan><tspan class="bi" x="62.413" y="528">7</tspan><tspan x="70.745" y="528">0</tspan><tspan class="da" x="79.322" y="528">,</tspan><tspan class="by" x="81.79" y="528">1</tspan><tspan class="dl" x="88.908" y="528">1</tspan><tspan class="er" x="96.435" y="528">9</tspan><tspan x="104.676" y="528">)</tspan><tspan class="aq" x="0" y="576">r</tspan><tspan class="as" x="6.179" y="576">g</tspan><tspan class="cy" x="14.402" y="576">b</tspan><tspan class="du" x="23.831" y="576">(</tspan><tspan class="es" x="28.235" y="576">2</tspan><tspan class="et" x="36.974" y="576">3</tspan><tspan class="di" x="45.638" y="576">8</tspan><tspan class="en" x="54.385" y="576">,</tspan><tspan class="cf" x="58.3" y="576">2</tspan><tspan class="eu" x="67.017" y="576">2</tspan><tspan class="ev" x="75.175" y="576">1</tspan><tspan class="ew" x="82.891" y="576">,</tspan><tspan class="w" x="86.791" y="576">8</tspan><tspan class="ex" x="95.327" y="576">5</tspan><tspan x="103.771" y="576">)</tspan><tspan class="aq" x="0" y="624">r</tspan><tspan class="as" x="6.179" y="624">g</tspan><tspan class="cy" x="14.402" y="624">b</tspan><tspan class="du" x="23.831" y="624">(</tspan><tspan class="ct" x="28.235" y="624">2</tspan><tspan class="eu" x="36.951" y="624">2</tspan><tspan class="ev" x="45.109" y="624">1</tspan><tspan class="da" x="52.825" y="624">,</tspan><tspan class="dj" x="55.293" y="624">1</tspan><tspan class="bi" x="62.758" y="624">7</tspan><tspan x="71.09" y="624">0</tspan><tspan class="da" x="79.667" y="624">,</tspan><tspan class="by" x="82.135" y="624">1</tspan><tspan class="ey" x="89.253" y="624">1</tspan><tspan class="er" x="96.78" y="624">9</tspan><tspan x="105.021" y="624">)</tspan><tspan class="aq" x="0" y="672">r</tspan><tspan class="as" x="6.179" y="672">g</tspan><tspan class="cy" x="14.402" y="672">b</tspan><tspan class="du" x="23.831" y="672">(</tspan><tspan class="ez" x="28.235" y="672">2</tspan><tspan class="fa" x="36.62" y="672">4</tspan><tspan x="45.525" y="672">0</tspan><tspan class="da" x="54.102" y="672">,</tspan><tspan class="by" x="56.569" y="672">1</tspan><tspan class="dl" x="63.688" y="672">1</tspan><tspan class="dm" x="71.215" y="672">9</tspan><tspan class="da" x="79.505" y="672">,</tspan><tspan class="dj" x="81.973" y="672">1</tspan><tspan class="ej" x="89.438" y="672">3</tspan><tspan class="fb" x="98.049" y="672">6</tspan><tspan x="106.525" y="672">)</tspan><tspan class="aq" x="0" y="720">r</tspan><tspan class="as" x="6.179" y="720">g</tspan><tspan class="cy" x="14.402" y="720">b</tspan><tspan class="du" x="23.831" y="720">(</tspan><tspan class="ct" x="28.235" y="720">2</tspan><tspan class="eu" x="36.951" y="720">2</tspan><tspan class="ev" x="45.109" y="720">1</tspan><tspan class="en" x="52.825" y="720">,</tspan><tspan class="cc" x="56.74" y="720">2</tspan><tspan class="dw" x="65.14" y="720">0</tspan><tspan class="dx" x="74.053" y="720">4</tspan><tspan class="en" x="82.852" y="720">,</tspan><tspan class="cf" x="86.767" y="720">2</tspan><tspan class="eu" x="95.483" y="720">2</tspan><tspan class="fc" x="103.641" y="720">1</tspan><tspan x="111.226" y="720">)</tspan></tspan><tspan class="aq" x="0" y="768">r</tspan><tspan class="as" x="6.179" y="768">g</tspan><tspan class="cy" x="14.402" y="768">b</tspan><tspan class="dp" x="23.831" y="768">(</tspan><tspan class="ea" x="27.685" y="768">1</tspan><tspan class="cg" x="35.206" y="768">5</tspan><tspan class="eb" x="43.748" y="768">3</tspan><tspan class="da" x="52.397" y="768">,</tspan><tspan class="by" x="54.865" y="768">1</tspan><tspan class="dl" x="61.984" y="768">1</tspan><tspan class="dm" x="69.511" y="768">9</tspan><tspan class="da" x="77.801" y="768">,</tspan><tspan class="dq" x="80.269" y="768">1</tspan><tspan class="al" x="87.923" y="768">8</tspan><tspan class="dz" x="96.405" y="768">7</tspan><tspan x="105.28" y="768">)</tspan><tspan class="aq" x="0" y="816">r</tspan><tspan class="as" x="6.179" y="816">g</tspan><tspan class="cy" x="14.402" y="816">b</tspan><tspan class="dp" x="23.831" y="816">(</tspan><tspan class="by" x="27.685" y="816">1</tspan><tspan class="dl" x="34.803" y="816">1</tspan><tspan class="dm" x="42.33" y="816">9</tspan><tspan class="da" x="50.62" y="816">,</tspan><tspan class="by" x="53.088" y="816">1</tspan><tspan class="dl" x="60.207" y="816">1</tspan><tspan class="dm" x="67.733" y="816">9</tspan><tspan class="da" x="76.023" y="816">,</tspan><tspan class="by" x="78.491" y="816">1</tspan><tspan class="dl" x="85.61" y="816">1</tspan><tspan class="fd" x="93.137" y="816">9</tspan><tspan x="101.377" y="816">)</tspan></text></svg>