<svg xmlns="http://www.w3.org/2000/svg" width="520" height="96" viewBox="0 0 520 96"><defs><style>.a{fill:#26b910;}.b{fill:#d60037;}.c{font-size:13px;fill:#fff;font-family:RobotoMono-Medium, Roboto Mono;}.d{letter-spacing:0.001em;}.e{letter-spacing:-0.004em;}.f{letter-spacing:-0.01em;}.g{letter-spacing:-0.024em;}.h{letter-spacing:0.001em;}.i{letter-spacing:0.001em;}.j{letter-spacing:-0.008em;}.k{letter-spacing:-0.018em;}.l{letter-spacing:-0.002em;}.m{letter-spacing:-0.025em;}.n{letter-spacing:-0.018em;}.o{letter-spacing:-0.019em;}.p{letter-spacing:0.011em;}.q{letter-spacing:-0.04em;}.r{letter-spacing:-0.028em;}.s{letter-spacing:-0.013em;}.t{letter-spacing:-0.043em;}.u{letter-spacing:-0.079em;}.v{letter-spacing:-0.011em;}.w{letter-spacing:-0.036em;}.x{letter-spacing:-0.015em;}.y{letter-spacing:-0.009em;}.z{letter-spacing:-0.041em;}.aa{letter-spacing:-0.005em;}.ab{letter-spacing:-0.001em;}.ac{letter-spacing:-0.06em;}.ad{letter-spacing:-0.115em;}.ae{letter-spacing:-0.032em;}.af{letter-spacing:-0.092em;}.ag{letter-spacing:-0.201em;}.ah{letter-spacing:-0.087em;}.ai{letter-spacing:-0.025em;}.aj{letter-spacing:-0.093em;}.ak{letter-spacing:-0.082em;}.al{letter-spacing:-0.128em;}.am{letter-spacing:-0.113em;}.an{letter-spacing:-0.017em;}.ao{letter-spacing:-0.031em;}.ap{letter-spacing:-0.092em;}.aq{letter-spacing:-0.128em;}.ar{letter-spacing:-0.102em;}.as{letter-spacing:-0.106em;}.at{letter-spacing:-0.022em;}.au{letter-spacing:-0.122em;}</style></defs><title>reporting_palette_02</title><rect class="a" width="520" height="48"/><rect class="b" y="48" width="520" height="48"/><text class="c" transform="translate(24 28.936)"><tspan class="d">T</tspan><tspan class="e" x="7.814" y="0">H</tspan><tspan class="f" x="15.565" y="0">R</tspan><tspan class="g" x="23.243" y="0">E</tspan><tspan class="h" x="30.726" y="0">S</tspan><tspan class="i" x="38.535" y="0">H</tspan><tspan class="j" x="46.353" y="0">O</tspan><tspan class="k" x="54.054" y="0">L</tspan><tspan x="61.615" y="0">D </tspan><tspan class="l" x="77.217" y="0">G</tspan><tspan class="f" x="84.992" y="0">R</tspan><tspan class="m" x="92.67" y="0">E</tspan><tspan class="n" x="100.14" y="0">E</tspan><tspan x="107.714" y="0">N</tspan><tspan class="d" x="0" y="48">T</tspan><tspan class="e" x="7.814" y="48">H</tspan><tspan class="f" x="15.565" y="48">R</tspan><tspan class="g" x="23.243" y="48">E</tspan><tspan class="h" x="30.726" y="48">S</tspan><tspan class="i" x="38.535" y="48">H</tspan><tspan class="j" x="46.353" y="48">O</tspan><tspan class="k" x="54.054" y="48">L</tspan><tspan x="61.615" y="48">D </tspan><tspan class="f" x="77.217" y="48">R</tspan><tspan class="o" x="84.895" y="48">E</tspan><tspan x="92.449" y="48">D</tspan></text><text class="c" transform="translate(257 28.936)"><tspan class="p">#</tspan><tspan class="q" x="7.938" y="0">2</tspan><tspan class="r" x="15.219" y="0">6</tspan><tspan class="s" x="22.656" y="0">B</tspan><tspan class="t" x="30.282" y="0">9</tspan><tspan class="u" x="37.531" y="0">1</tspan><tspan x="44.311" y="0">0</tspan><tspan class="v" x="0" y="48">#</tspan><tspan class="w" x="7.665" y="48">E</tspan><tspan class="x" x="14.998" y="48">00</tspan><tspan class="y" x="30.218" y="48">0</tspan><tspan class="z" x="37.903" y="48">2</tspan><tspan x="45.171" y="48">0</tspan></text><text class="c" transform="translate(366 28.936)"><tspan class="aa">R</tspan><tspan class="ab" x="7.743" y="0">G</tspan><tspan class="ac" x="15.531" y="0">B</tspan><tspan class="ad" x="22.551" y="0">(</tspan><tspan class="ae" x="28.854" y="0">3</tspan><tspan class="af" x="36.24" y="0">8</tspan><tspan class="ag" x="42.848" y="0">,</tspan><tspan class="ah" x="48.03" y="0">1</tspan><tspan class="ai" x="54.7" y="0">8</tspan><tspan class="aj" x="62.176" y="0">5</tspan><tspan class="ag" x="68.766" y="0">,</tspan><tspan class="ak" x="73.948" y="0">1</tspan><tspan class="al" x="80.683" y="0">6</tspan><tspan x="86.824" y="0">)</tspan><tspan class="aa" x="0" y="48">R</tspan><tspan class="ab" x="7.743" y="48">G</tspan><tspan class="ac" x="15.531" y="48">B</tspan><tspan class="am" x="22.551" y="48">(</tspan><tspan class="an" x="28.887" y="48">2</tspan><tspan class="ao" x="36.467" y="48">2</tspan><tspan class="ap" x="43.859" y="48">4</tspan><tspan class="aq" x="50.463" y="48">,</tspan><tspan class="ar" x="56.598" y="48">0</tspan><tspan class="as" x="63.077" y="48">,</tspan><tspan class="at" x="69.497" y="48">3</tspan><tspan class="au" x="77.018" y="48">2</tspan><tspan x="83.231" y="48">)</tspan></text></svg>