<svg xmlns="http://www.w3.org/2000/svg" width="400" height="796" viewBox="0 0 400 796"><defs><style>.a,.aw{fill:#354052;}.b{fill:#d3edfc;}.c,.n{fill:#a8afb3;}.d{font-size:15px;}.d,.o{fill:#151921;}.ay,.bs,.d{font-family:OpenSans-Semibold, Open Sans;font-weight:700;}.e{letter-spacing:0.002em;}.f{letter-spacing:-0.001em;}.g{letter-spacing:0.005em;}.h{letter-spacing:-0.003em;}.i{letter-spacing:0.002em;}.j{letter-spacing:0.022em;}.k{letter-spacing:-0.002em;}.l{letter-spacing:-0.005em;}.m{letter-spacing:-0.001em;}.ah,.ai,.aw,.ax,.n{fill-rule:evenodd;}.ac,.ag,.ay,.bs,.o{font-size:13px;}.ac,.ag,.o{font-family:OpenSans, Open Sans;}.p{letter-spacing:0.006em;}.q{letter-spacing:-0.003em;}.r{letter-spacing:-0.004em;}.s{letter-spacing:0.002em;}.t{letter-spacing:0.032em;}.u{letter-spacing:-0.009em;}.v{letter-spacing:0.002em;}.w{letter-spacing:0.002em;}.x{letter-spacing:-0.003em;}.y{letter-spacing:-0.005em;}.z{letter-spacing:-0.011em;}.aa{letter-spacing:0.017em;}.ab{letter-spacing:0em;}.ac,.bs{fill:#172730;}.ad{letter-spacing:-0.005em;}.ae{letter-spacing:0.002em;}.af{letter-spacing:-0.004em;}.ag,.ao,.ax{fill:#ecedef;}.ah,.aj{fill:#272525;}.ai,.am{fill:#fff;}.ak{fill:#ff8300;}.al{fill:none;}.an{fill:#bababa;}.ap{letter-spacing:-0.002em;}.aq{letter-spacing:0.013em;}.ar{letter-spacing:0.013em;}.as{letter-spacing:-0.006em;}.at{letter-spacing:-0.005em;}.au{letter-spacing:0em;}.av{fill:#dcdcdc;}.ay{fill:#989ea7;}.az{letter-spacing:0.012em;}.ba{letter-spacing:-0.068em;}.bb{letter-spacing:0.004em;}.bc{letter-spacing:-0.005em;}.bd{letter-spacing:0.007em;}.be{letter-spacing:0.011em;}.bf{letter-spacing:-0.053em;}.bg{letter-spacing:-0.005em;}.bh{letter-spacing:-0.003em;}.bi{letter-spacing:-0.01em;}.bj{letter-spacing:0.035em;}.bk{letter-spacing:-0.006em;}.bl{letter-spacing:-0.005em;}.bm{letter-spacing:-0.003em;}.bn{letter-spacing:-0.009em;}.bo{letter-spacing:0.007em;}.bp{letter-spacing:-0.01em;}.bq{letter-spacing:0.035em;}.br{letter-spacing:-0.005em;}.bt{letter-spacing:-0.011em;}.bu{letter-spacing:-0.005em;}.bv{letter-spacing:0.012em;}.bw{letter-spacing:0.006em;}.bx{letter-spacing:0.001em;}.by{letter-spacing:-0.002em;}.bz{letter-spacing:0.002em;}.ca{letter-spacing:0.023em;}.cb{letter-spacing:-0.008em;}.cc{letter-spacing:-0.003em;}.cd{letter-spacing:0em;}</style></defs><title>select_01_1</title><rect class="a" x="1" y="258" width="398" height="36"/><rect class="b" x="1" y="186" width="398" height="36"/><path class="c" d="M399,151v34H1V151H399m1-1H0v36H400V150Z"/><path class="c" d="M399,186V366H1V186H399m1-1H0V367H400V185Z"/><text class="d" transform="translate(0 140.4)">O<tspan class="e" x="11.807" y="0">p</tspan><tspan class="f" x="21.187" y="0">e</tspan><tspan x="29.82" y="0">n </tspan><tspan class="g" x="43.238" y="0">S</tspan><tspan x="51.565" y="0">e</tspan><tspan class="h" x="60.208" y="0">l</tspan><tspan class="i" x="64.348" y="0">e</tspan><tspan class="j" x="73.014" y="0">c</tspan><tspan x="80.777" y="0">t </tspan><tspan class="k" x="90.569" y="0">F</tspan><tspan class="l" x="98.523" y="0">i</tspan><tspan x="102.627" y="0">e</tspan><tspan class="m" x="111.27" y="0">l</tspan><tspan x="115.431" y="0">d</tspan></text><polygon class="n" points="383.5 165.4 378 171 372.5 165.399 373.873 164 378 168.2 382.125 164 383.5 165.4"/><text class="o" transform="translate(17 172.854)"><tspan class="p">S</tspan><tspan class="q" x="7.208" y="0">e</tspan><tspan class="r" x="14.467" y="0">l</tspan><tspan class="s" x="17.708" y="0">e</tspan><tspan class="t" x="25.023" y="0">c</tspan><tspan class="u" x="31.624" y="0">t</tspan><tspan class="v" x="36.098" y="0">e</tspan><tspan x="43.412" y="0">d </tspan><tspan class="w" x="54.755" y="0">I</tspan><tspan class="u" x="58.407" y="0">t</tspan><tspan class="r" x="62.88" y="0">e</tspan><tspan x="70.127" y="0">m</tspan></text><text class="o" transform="translate(17 208.854)"><tspan class="x">H</tspan><tspan class="y" x="9.552" y="0">ov</tspan><tspan class="r" x="23.777" y="0">e</tspan><tspan x="31.023" y="0">r </tspan><tspan class="z" x="39.707" y="0">S</tspan><tspan class="aa" x="46.692" y="0">t</tspan><tspan class="ab" x="51.504" y="0">a</tspan><tspan class="u" x="58.729" y="0">t</tspan><tspan x="63.202" y="0">e</tspan></text><text class="ac" transform="translate(17 244.854)"><tspan class="x">M</tspan><tspan class="r" x="11.698" y="0">e</tspan><tspan class="ad" x="18.944" y="0">n</tspan><tspan x="26.854" y="0">u </tspan><tspan class="ae" x="38.209" y="0">I</tspan><tspan class="u" x="41.861" y="0">t</tspan><tspan class="af" x="46.334" y="0">e</tspan><tspan x="53.582" y="0">m</tspan></text><text class="ag" transform="translate(17 280.854)"><tspan class="p">S</tspan><tspan class="q" x="7.208" y="0">e</tspan><tspan class="r" x="14.467" y="0">l</tspan><tspan class="s" x="17.708" y="0">e</tspan><tspan class="t" x="25.023" y="0">c</tspan><tspan class="u" x="31.624" y="0">t</tspan><tspan class="v" x="36.098" y="0">e</tspan><tspan x="43.412" y="0">d </tspan><tspan class="w" x="54.755" y="0">I</tspan><tspan class="u" x="58.407" y="0">t</tspan><tspan class="r" x="62.88" y="0">e</tspan><tspan x="70.127" y="0">m</tspan></text><text class="ac" transform="translate(17 316.854)"><tspan class="x">M</tspan><tspan class="r" x="11.698" y="0">e</tspan><tspan class="ad" x="18.944" y="0">n</tspan><tspan x="26.854" y="0">u </tspan><tspan class="ae" x="38.209" y="0">I</tspan><tspan class="u" x="41.861" y="0">t</tspan><tspan class="af" x="46.334" y="0">e</tspan><tspan x="53.582" y="0">m</tspan></text><text class="ac" transform="translate(17 352.855)"><tspan class="x">M</tspan><tspan class="r" x="11.698" y="0">e</tspan><tspan class="ad" x="18.944" y="0">n</tspan><tspan x="26.854" y="0">u </tspan><tspan class="ae" x="38.209" y="0">I</tspan><tspan class="u" x="41.861" y="0">t</tspan><tspan class="af" x="46.334" y="0">e</tspan><tspan x="53.582" y="0">m</tspan></text><polygon class="ah" points="131 218 131 215 130 215 130 213 129 213 129 211 128 211 128 209 127 209 127 208 126 208 126 205 129 205 129 206 130 206 130 197 131 197 131 196 133 196 133 197 134 197 134 201 136 201 136 202 139 202 139 203 141 203 141 204 142 204 142 205 143 205 143 212 142 212 142 215 141 215 141 218 131 218"/><polygon class="ai" points="132 217 132 215 131 215 131 213 130 213 130 211 129 211 129 209 128 209 128 208 127 208 127 206 129 206 129 207 130 207 130 210 131 210 131 197 133 197 133 206 134 206 134 202 136 202 136 206 137 206 137 203 139 203 139 207 140 207 140 204 141 204 141 205 142 205 142 212 141 212 141 215 140 215 140 217 132 217"/><rect class="aj" x="133" y="208" width="1" height="4"/><rect class="aj" x="136" y="208" width="1" height="4"/><rect class="aj" x="139" y="208" width="1" height="4"/><path class="c" d="M399,51V85H1V51H399m1-1H0V86H400V50Z"/><text class="d" transform="translate(0 40.4)"><tspan class="g">S</tspan><tspan x="8.327" y="0">e</tspan><tspan class="h" x="16.969" y="0">l</tspan><tspan class="i" x="21.109" y="0">e</tspan><tspan class="j" x="29.776" y="0">c</tspan><tspan x="37.539" y="0">t </tspan><tspan class="k" x="47.331" y="0">F</tspan><tspan class="l" x="55.285" y="0">i</tspan><tspan x="59.389" y="0">e</tspan><tspan class="m" x="68.031" y="0">l</tspan><tspan x="72.192" y="0">d </tspan><tspan class="ak" x="85.435" y="0">*</tspan></text><polygon class="n" points="383.5 65.4 378 71 372.5 65.399 373.873 64 378 68.2 382.125 64 383.5 65.4"/><text class="o" transform="translate(17 72.855)"><tspan class="p">S</tspan><tspan class="q" x="7.208" y="0">e</tspan><tspan class="r" x="14.467" y="0">l</tspan><tspan class="s" x="17.708" y="0">e</tspan><tspan class="t" x="25.023" y="0">c</tspan><tspan class="u" x="31.624" y="0">t</tspan><tspan class="v" x="36.098" y="0">e</tspan><tspan x="43.412" y="0">d </tspan><tspan class="w" x="54.755" y="0">I</tspan><tspan class="u" x="58.407" y="0">t</tspan><tspan class="r" x="62.88" y="0">e</tspan><tspan x="70.127" y="0">m</tspan></text><rect class="al" width="400" height="796"/><rect class="am" x="88.497" y="505.497" width="223.007" height="290.006" rx="3.476" ry="3.476"/><path class="an" d="M308.027,505.993a2.983,2.983,0,0,1,2.98,2.98V792.027a2.983,2.983,0,0,1-2.98,2.98H91.973a2.983,2.983,0,0,1-2.98-2.98V508.973a2.983,2.983,0,0,1,2.98-2.98H308.027m0-.993H91.973A3.985,3.985,0,0,0,88,508.973V792.027A3.985,3.985,0,0,0,91.973,796H308.027A3.985,3.985,0,0,0,312,792.027V508.973A3.985,3.985,0,0,0,308.027,505Z"/><polyline class="a" points="311 602 89 602 89 650 311 650 311 602"/><polyline class="b" points="311 554 89 554 89 602 311 602 311 554"/><text class="ac" transform="translate(129 535)"><tspan class="x">M</tspan><tspan class="r" x="11.698" y="0">e</tspan><tspan class="ad" x="18.944" y="0">n</tspan><tspan x="26.854" y="0">u </tspan><tspan class="ae" x="38.209" y="0">I</tspan><tspan class="u" x="41.861" y="0">t</tspan><tspan class="af" x="46.334" y="0">e</tspan><tspan x="53.582" y="0">m</tspan><tspan class="x" x="0" y="48">H</tspan><tspan class="y" x="9.552" y="48">ov</tspan><tspan class="r" x="23.777" y="48">e</tspan><tspan x="31.023" y="48">r </tspan><tspan class="z" x="39.707" y="48">S</tspan><tspan class="aa" x="46.692" y="48">t</tspan><tspan class="ab" x="51.504" y="48">a</tspan><tspan class="u" x="58.729" y="48">t</tspan><tspan x="63.202" y="48">e</tspan><tspan class="ao"><tspan class="p" x="0" y="96">S</tspan><tspan class="q" x="7.208" y="96">e</tspan><tspan class="r" x="14.467" y="96">l</tspan><tspan class="s" x="17.708" y="96">e</tspan><tspan class="t" x="25.023" y="96">c</tspan><tspan class="u" x="31.624" y="96">t</tspan><tspan class="v" x="36.098" y="96">e</tspan><tspan x="43.412" y="96">d </tspan><tspan class="w" x="54.755" y="96">I</tspan><tspan class="u" x="58.407" y="96">t</tspan><tspan class="r" x="62.88" y="96">e</tspan><tspan x="70.127" y="96">m</tspan></tspan><tspan class="x" x="0" y="144">M</tspan><tspan class="r" x="11.698" y="144">e</tspan><tspan class="ad" x="18.944" y="144">n</tspan><tspan x="26.854" y="144">u </tspan><tspan class="ae" x="38.209" y="144">I</tspan><tspan class="u" x="41.861" y="144">t</tspan><tspan class="af" x="46.334" y="144">e</tspan><tspan x="53.582" y="144">m</tspan><tspan class="x" x="0" y="192">M</tspan><tspan class="r" x="11.698" y="192">e</tspan><tspan class="ad" x="18.944" y="192">n</tspan><tspan x="26.854" y="192">u </tspan><tspan class="ae" x="38.209" y="192">I</tspan><tspan class="u" x="41.861" y="192">t</tspan><tspan class="af" x="46.334" y="192">e</tspan><tspan x="53.582" y="192">m</tspan><tspan class="ap" x="0" y="241">D</tspan><tspan class="aq" x="9.458" y="241">i</tspan><tspan class="ar" x="12.911" y="241">v</tspan><tspan class="as" x="19.595" y="241">i</tspan><tspan class="at" x="22.812" y="241">d</tspan><tspan class="s" x="30.719" y="241">e</tspan><tspan x="38.034" y="241">d </tspan><tspan class="x" x="49.377" y="241">M</tspan><tspan class="r" x="61.075" y="241">e</tspan><tspan class="ad" x="68.321" y="241">n</tspan><tspan class="au" x="76.23" y="241">u </tspan><tspan class="w" x="87.586" y="241">I</tspan><tspan class="u" x="91.238" y="241">t</tspan><tspan class="af" x="95.711" y="241">e</tspan><tspan x="102.958" y="241">m</tspan></text><polyline class="av" points="311 746 89 746 89 747 311 747 311 746"/><rect class="al" x="101" y="522" width="16" height="16"/><path class="aw" d="M101,534h1v3h14v-3h1v4H101Zm9-11h-2v9.021L105.979,530l-1.25,1.25L109,535.522l4.27-4.271-1.25-1.25L110,532.022Z"/><rect class="al" x="101" y="570" width="16" height="16"/><path class="aw" d="M104,574v-3h10v3h3v7h-3v1.5l-2.5,2.5H104v-4h-3v-7Zm9-2h-8v2h8Zm-8,12h6v-2h2v-3h-8Zm7-4h-6v1h6Zm-2,2h-4v1h4Z"/><rect class="al" x="101" y="618" width="16" height="16"/><path class="ax" d="M108,622v-3h3v3Zm8-.5v10a1.5,1.5,0,0,1-1.5,1.5h-11a1.5,1.5,0,0,1-1.5-1.5v-11a1.5,1.5,0,0,1,1.5-1.5H105v4.5a.5.5,0,0,0,.5.5h6a.5.5,0,0,0,.5-.5V619h1.5Zm-3,6a.5.5,0,0,0-.5-.5h-6.986a.514.514,0,0,0-.514.5V632h8Z"/><rect class="al" x="101" y="666" width="16" height="16"/><path class="aw" d="M101,678h1v3h14v-3h1v4H101Zm9-11h-2v9.021L105.979,674l-1.25,1.25L109,679.522l4.27-4.271-1.25-1.25L110,676.022Z"/><rect class="al" x="101" y="714" width="16" height="16"/><path class="aw" d="M104,718v-3h10v3h3v7h-3v1.5l-2.5,2.5H104v-4h-3v-7Zm9-2h-8v2h8Zm-8,12h6v-2h2v-3h-8Zm7-4h-6v1h6Zm-2,2h-4v1h4Z"/><rect class="al" x="101" y="762" width="16" height="16"/><path class="aw" d="M108,766v-3h3v3Zm8-.5v10a1.5,1.5,0,0,1-1.5,1.5h-11a1.5,1.5,0,0,1-1.5-1.5v-11a1.5,1.5,0,0,1,1.5-1.5H105v4.5a.5.5,0,0,0,.5.5h6a.5.5,0,0,0,.5-.5V763h1.5Zm-3,6a.5.5,0,0,0-.5-.5h-6.986a.514.514,0,0,0-.514.5V776h8Z"/><polygon class="ah" points="247 597 247 594 246 594 246 592 245 592 245 590 244 590 244 588 243 588 243 587 242 587 242 584 245 584 245 585 246 585 246 576 247 576 247 575 249 575 249 576 250 576 250 580 252 580 252 581 255 581 255 582 257 582 257 583 258 583 258 584 259 584 259 591 258 591 258 594 257 594 257 597 247 597"/><polygon class="ai" points="248 596 248 594 247 594 247 592 246 592 246 590 245 590 245 588 244 588 244 587 243 587 243 585 245 585 245 586 246 586 246 589 247 589 247 576 249 576 249 585 250 585 250 581 252 581 252 585 253 585 253 582 255 582 255 586 256 586 256 583 257 583 257 584 258 584 258 591 257 591 257 594 256 594 256 596 248 596"/><rect class="aj" x="249" y="587" width="1" height="4"/><rect class="aj" x="252" y="587" width="1" height="4"/><rect class="aj" x="255" y="587" width="1" height="4"/><text class="ay" transform="translate(121.734 461.331)"><tspan class="az">A</tspan><tspan class="ba" x="8.747" y="0">L</tspan><tspan class="bb" x="14.91" y="0">T</tspan><tspan class="bc" x="22.316" y="0">E</tspan><tspan class="bd" x="29.504" y="0">R</tspan><tspan class="be" x="37.9" y="0">N</tspan><tspan class="bf" x="48.226" y="0">A</tspan><tspan class="bb" x="56.125" y="0">T</tspan><tspan x="63.532" y="0">E </tspan><tspan class="ap" x="74.164" y="0">S</tspan><tspan class="bg" x="81.292" y="0">E</tspan><tspan class="bh" x="88.48" y="0">L</tspan><tspan class="bi" x="95.489" y="0">E</tspan><tspan class="bj" x="102.611" y="0">C</tspan><tspan x="111.31" y="0">T </tspan><tspan class="bk" x="122.044" y="0">F</tspan><tspan class="bl" x="128.886" y="0">IE</tspan><tspan class="bm" x="139.981" y="0">L</tspan><tspan x="146.991" y="0">D</tspan></text><text class="ay" transform="translate(137.629 12)"><tspan class="bl">IN</tspan><tspan class="bn" x="14.021" y="0">P</tspan><tspan class="bo" x="21.897" y="0">U</tspan><tspan x="31.64" y="0">T </tspan><tspan class="ap" x="42.374" y="0">S</tspan><tspan class="bc" x="49.501" y="0">E</tspan><tspan class="bm" x="56.689" y="0">L</tspan><tspan class="bp" x="63.699" y="0">E</tspan><tspan class="bq" x="70.82" y="0">C</tspan><tspan x="79.52" y="0">T </tspan><tspan class="bk" x="90.253" y="0">F</tspan><tspan class="br" x="97.096" y="0">IE</tspan><tspan class="bh" x="108.191" y="0">L</tspan><tspan x="115.2" y="0">D</tspan></text><text class="bs" transform="translate(149 489.331)"><tspan class="bt">D</tspan><tspan class="bu" x="9.402" y="0">a</tspan><tspan class="bv" x="16.878" y="0">t</tspan><tspan x="22.142" y="0">a </tspan><tspan class="bw" x="33.06" y="0">S</tspan><tspan class="bx" x="40.284" y="0">e</tspan><tspan class="by" x="47.785" y="0">l</tspan><tspan class="bz" x="51.379" y="0">e</tspan><tspan class="ca" x="58.898" y="0">c</tspan><tspan class="cb" x="65.633" y="0">t</tspan><tspan class="cc" x="70.644" y="0">o</tspan><tspan class="cd" x="78.542" y="0">r</tspan></text><polygon class="aw" points="248.656 482.88 243 488.535 237.344 482.88 238.758 481.466 243 485.708 247.242 481.466 248.656 482.88"/><rect class="al" x="235" y="477" width="16" height="16"/></svg>