<svg xmlns="http://www.w3.org/2000/svg" width="172" height="282" viewBox="0 0 172 282"><defs><style>.a,.ab,.ac{fill:#fff;}.b{fill:#bbb;}.c,.y{fill:#354052;}.d{fill:#d4eefd;}.e{font-size:13px;fill:#172730;}.ac,.e{font-family:OpenSans, Open Sans;}.f{letter-spacing:-0.003em;}.g{letter-spacing:-0.005em;}.h{letter-spacing:-0.004em;}.i{letter-spacing:-0.011em;}.j{letter-spacing:0.017em;}.k{letter-spacing:0em;}.l{letter-spacing:-0.009em;}.m{letter-spacing:-0.005em;}.n{letter-spacing:0.002em;}.o{letter-spacing:-0.004em;}.p,.z{fill:#edeef0;}.q{letter-spacing:0.006em;}.r{letter-spacing:-0.003em;}.s{letter-spacing:0.002em;}.t{letter-spacing:0.032em;}.u{letter-spacing:0.002em;}.v{letter-spacing:0.002em;}.w{fill:#ddd;}.x{fill:none;}.ab,.y,.z{fill-rule:evenodd;}.aa{fill:#838f93;}.ac{font-size:15px;}.ad{letter-spacing:0.015em;}.ae{letter-spacing:0.004em;}.af{letter-spacing:-0.01em;}.ag{letter-spacing:-0.004em;}.ah{letter-spacing:0.006em;}.ai{letter-spacing:-0.008em;}.aj{letter-spacing:-0.001em;}.ak{letter-spacing:0.005em;}.al{letter-spacing:-0.003em;}.am{letter-spacing:-0.004em;}.an{letter-spacing:0.001em;}.ao{letter-spacing:0.031em;}.ap{letter-spacing:-0.01em;}.aq{letter-spacing:-0.005em;}</style></defs><title>select_02</title><rect class="a" x="0.5" y="67.5" width="171" height="214" rx="3.5" ry="3.5"/><path class="b" d="M168,68a3,3,0,0,1,3,3V278a3,3,0,0,1-3,3H4a3,3,0,0,1-3-3V71a3,3,0,0,1,3-3H168m0-1H4a4.012,4.012,0,0,0-4,4V278a4.012,4.012,0,0,0,4,4H168a4.012,4.012,0,0,0,4-4V71a4.012,4.012,0,0,0-4-4Z"/><polyline class="c" points="171 142 1 142 1 176 171 176 171 142"/><polyline class="d" points="171 72 1 72 1 106 171 106 171 72"/><text class="e" transform="translate(41 94)"><tspan class="f">H</tspan><tspan class="g" x="9.552" y="0">ov</tspan><tspan class="h" x="23.777" y="0">e</tspan><tspan x="31.023" y="0">r </tspan><tspan class="i" x="39.707" y="0">S</tspan><tspan class="j" x="46.692" y="0">t</tspan><tspan class="k" x="51.504" y="0">a</tspan><tspan class="l" x="58.729" y="0">t</tspan><tspan x="63.202" y="0">e</tspan><tspan class="f" x="0" y="35">M</tspan><tspan class="h" x="11.698" y="35">e</tspan><tspan class="m" x="18.944" y="35">n</tspan><tspan x="26.854" y="35">u </tspan><tspan class="n" x="38.209" y="35">I</tspan><tspan class="l" x="41.861" y="35">t</tspan><tspan class="o" x="46.334" y="35">e</tspan><tspan x="53.582" y="35">m</tspan><tspan class="p"><tspan class="q" x="0" y="70">S</tspan><tspan class="r" x="7.208" y="70">e</tspan><tspan class="h" x="14.467" y="70">l</tspan><tspan class="s" x="17.708" y="70">e</tspan><tspan class="t" x="25.023" y="70">c</tspan><tspan class="l" x="31.624" y="70">t</tspan><tspan class="u" x="36.098" y="70">e</tspan><tspan x="43.412" y="70">d </tspan><tspan class="v" x="54.755" y="70">I</tspan><tspan class="l" x="58.407" y="70">t</tspan><tspan class="h" x="62.88" y="70">e</tspan><tspan x="70.127" y="70">m</tspan></tspan><tspan class="f" x="0" y="105">M</tspan><tspan class="h" x="11.698" y="105">e</tspan><tspan class="m" x="18.944" y="105">n</tspan><tspan x="26.854" y="105">u </tspan><tspan class="n" x="38.209" y="105">I</tspan><tspan class="l" x="41.861" y="105">t</tspan><tspan class="o" x="46.334" y="105">e</tspan><tspan x="53.582" y="105">m</tspan><tspan class="f" x="0" y="140">M</tspan><tspan class="h" x="11.698" y="140">e</tspan><tspan class="m" x="18.944" y="140">n</tspan><tspan x="26.854" y="140">u </tspan><tspan class="n" x="38.209" y="140">I</tspan><tspan class="l" x="41.861" y="140">t</tspan><tspan class="o" x="46.334" y="140">e</tspan><tspan x="53.582" y="140">m</tspan><tspan class="f" x="0" y="175">M</tspan><tspan class="h" x="11.698" y="175">e</tspan><tspan class="m" x="18.944" y="175">n</tspan><tspan x="26.854" y="175">u </tspan><tspan class="n" x="38.209" y="175">I</tspan><tspan class="l" x="41.861" y="175">t</tspan><tspan class="o" x="46.334" y="175">e</tspan><tspan x="53.582" y="175">m</tspan></text><polyline class="w" points="171 106 1 106 1 107 171 107 171 106"/><polyline class="w" points="171 141 1 141 1 142 171 142 171 141"/><polyline class="w" points="171 176 1 176 1 177 171 177 171 176"/><polyline class="w" points="171 211 1 211 1 212 171 212 171 211"/><polyline class="w" points="171 246 1 246 1 247 171 247 171 246"/><rect class="x" x="13" y="81" width="16" height="16"/><path class="y" d="M13,93h1v3H28V93h1v4H13Zm9-11H20v9.022L17.979,89l-1.25,1.25L21,94.522l4.27-4.272L24.021,89,22,91.022Z"/><rect class="x" x="13" y="116" width="16" height="16"/><path class="y" d="M16,120v-3H26v3h3v7H26v1.5L23.5,131H16v-4H13v-7Zm9-2H17v2h8Zm-8,12h6v-2h2v-3H17Zm7-4H18v1h6Zm-2,2H18v1h4Z"/><rect class="x" x="13" y="151" width="16" height="16"/><path class="z" d="M20,155v-3h3v3Zm8-.5v10a1.5,1.5,0,0,1-1.5,1.5h-11a1.5,1.5,0,0,1-1.5-1.5v-11a1.5,1.5,0,0,1,1.5-1.5H17v4.5a.5.5,0,0,0,.5.5h6a.5.5,0,0,0,.5-.5V152h1.5Zm-3,6a.5.5,0,0,0-.5-.5H17.514a.514.514,0,0,0-.514.5V165h8Z"/><rect class="x" x="13" y="186" width="16" height="16"/><path class="y" d="M13,198h1v3H28v-3h1v4H13Zm9-11H20v9.022L17.979,194l-1.25,1.25L21,199.522l4.27-4.272L24.021,194,22,196.022Z"/><rect class="x" x="13" y="221" width="16" height="16"/><path class="y" d="M16,225v-3H26v3h3v7H26v1.5L23.5,236H16v-4H13v-7Zm9-2H17v2h8Zm-8,12h6v-2h2v-3H17Zm7-4H18v1h6Zm-2,2H18v1h4Z"/><rect class="x" x="13" y="256" width="16" height="16"/><path class="y" d="M20,260v-3h3v3Zm8-.5v10a1.5,1.5,0,0,1-1.5,1.5h-11a1.5,1.5,0,0,1-1.5-1.5v-11a1.5,1.5,0,0,1,1.5-1.5H17v4.5a.5.5,0,0,0,.5.5h6a.5.5,0,0,0,.5-.5V257h1.5Zm-3,6a.5.5,0,0,0-.5-.5H17.514a.514.514,0,0,0-.514.5V270h8Z"/><rect class="aa" width="172" height="24" rx="4" ry="4"/><polygon class="ab" points="162 10.4 156.5 16 151 10.399 152.375 9 156.5 13.2 160.628 9 162 10.4"/><text class="ac" transform="translate(12 17)"><tspan class="ad">A</tspan><tspan class="ae" x="9.716" y="0">l</tspan><tspan class="af" x="13.575" y="0">t</tspan><tspan class="ag" x="18.726" y="0">e</tspan><tspan class="ah" x="27.075" y="0">r</tspan><tspan class="ai" x="33.285" y="0">n</tspan><tspan class="aj" x="42.378" y="0">a</tspan><tspan class="af" x="50.702" y="0">t</tspan><tspan x="55.852" y="0">e </tspan><tspan class="ak" x="68.164" y="0">S</tspan><tspan class="al" x="76.469" y="0">e</tspan><tspan class="am" x="84.834" y="0">l</tspan><tspan class="an" x="88.563" y="0">e</tspan><tspan class="ao" x="96.99" y="0">c</tspan><tspan class="ap" x="104.596" y="0">t</tspan><tspan class="aq" x="109.738" y="0">o</tspan><tspan x="118.725" y="0">r</tspan></text><rect class="aa" y="48" width="172" height="24" rx="4" ry="4"/><polygon class="ab" points="162 58.4 156.5 64 151 58.399 152.375 57 156.5 61.2 160.628 57 162 58.4"/><text class="ac" transform="translate(12 65)"><tspan class="ad">A</tspan><tspan class="ae" x="9.716" y="0">l</tspan><tspan class="af" x="13.575" y="0">t</tspan><tspan class="ag" x="18.726" y="0">e</tspan><tspan class="ah" x="27.075" y="0">r</tspan><tspan class="ai" x="33.285" y="0">n</tspan><tspan class="aj" x="42.378" y="0">a</tspan><tspan class="af" x="50.702" y="0">t</tspan><tspan x="55.852" y="0">e </tspan><tspan class="ak" x="68.164" y="0">S</tspan><tspan class="al" x="76.469" y="0">e</tspan><tspan class="am" x="84.834" y="0">l</tspan><tspan class="an" x="88.563" y="0">e</tspan><tspan class="ao" x="96.99" y="0">c</tspan><tspan class="ap" x="104.596" y="0">t</tspan><tspan class="aq" x="109.738" y="0">o</tspan><tspan x="118.725" y="0">r</tspan></text></svg>