<svg xmlns="http://www.w3.org/2000/svg" width="400" height="319" viewBox="0 0 400 319"><defs><style>.a{fill:none;}.ah,.b{fill:#fff;}.c{fill:#bababa;}.ae,.d{fill:#354052;}.e{fill:#d3edfc;}.aj,.f{font-size:13px;fill:#172730;}.f{font-family:OpenSans, Open Sans;}.g{letter-spacing:-0.003em;}.h{letter-spacing:-0.004em;}.i{letter-spacing:-0.005em;}.j{letter-spacing:0.002em;}.k{letter-spacing:-0.009em;}.l{letter-spacing:-0.004em;}.m{letter-spacing:-0.005em;}.n{letter-spacing:-0.011em;}.o{letter-spacing:0.017em;}.p{letter-spacing:0em;}.af,.q{fill:#ecedef;}.r{letter-spacing:0.006em;}.s{letter-spacing:-0.003em;}.t{letter-spacing:0.002em;}.u{letter-spacing:0.032em;}.v{letter-spacing:0.002em;}.w{letter-spacing:0.002em;}.x{letter-spacing:-0.002em;}.y{letter-spacing:0.013em;}.z{letter-spacing:0.013em;}.aa{letter-spacing:-0.006em;}.ab{letter-spacing:-0.005em;}.ac{letter-spacing:0em;}.ad{fill:#dcdcdc;}.ae,.af,.ag,.ah{fill-rule:evenodd;}.ag,.ai{fill:#272525;}.aj{font-family:OpenSans-Semibold, Open Sans;font-weight:700;}.ak{letter-spacing:-0.011em;}.al{letter-spacing:-0.005em;}.am{letter-spacing:0.012em;}.an{letter-spacing:0.006em;}.ao{letter-spacing:0.001em;}.ap{letter-spacing:-0.002em;}.aq{letter-spacing:0.002em;}.ar{letter-spacing:0.023em;}.as{letter-spacing:-0.008em;}.at{letter-spacing:-0.003em;}.au{letter-spacing:0em;}</style></defs><title>select_02</title><rect class="a" width="400" height="319"/><rect class="b" x="88.497" y="28.497" width="223.007" height="290.006" rx="3.476" ry="3.476"/><path class="c" d="M308.027,28.993a2.983,2.983,0,0,1,2.98,2.98V315.027a2.983,2.983,0,0,1-2.98,2.98H91.973a2.983,2.983,0,0,1-2.98-2.98V31.973a2.983,2.983,0,0,1,2.98-2.98H308.027m0-.993H91.973A3.985,3.985,0,0,0,88,31.973V315.027A3.985,3.985,0,0,0,91.973,319H308.027A3.985,3.985,0,0,0,312,315.027V31.973A3.985,3.985,0,0,0,308.027,28Z"/><polyline class="d" points="311 125 89 125 89 173 311 173 311 125"/><polyline class="e" points="311 77 89 77 89 125 311 125 311 77"/><text class="f" transform="translate(129 58)"><tspan class="g">M</tspan><tspan class="h" x="11.698" y="0">e</tspan><tspan class="i" x="18.944" y="0">n</tspan><tspan x="26.854" y="0">u </tspan><tspan class="j" x="38.209" y="0">I</tspan><tspan class="k" x="41.861" y="0">t</tspan><tspan class="l" x="46.334" y="0">e</tspan><tspan x="53.582" y="0">m</tspan><tspan class="g" x="0" y="48">H</tspan><tspan class="m" x="9.552" y="48">ov</tspan><tspan class="h" x="23.777" y="48">e</tspan><tspan x="31.023" y="48">r </tspan><tspan class="n" x="39.707" y="48">S</tspan><tspan class="o" x="46.692" y="48">t</tspan><tspan class="p" x="51.504" y="48">a</tspan><tspan class="k" x="58.729" y="48">t</tspan><tspan x="63.202" y="48">e</tspan><tspan class="q"><tspan class="r" x="0" y="96">S</tspan><tspan class="s" x="7.208" y="96">e</tspan><tspan class="h" x="14.467" y="96">l</tspan><tspan class="t" x="17.708" y="96">e</tspan><tspan class="u" x="25.023" y="96">c</tspan><tspan class="k" x="31.624" y="96">t</tspan><tspan class="v" x="36.098" y="96">e</tspan><tspan x="43.412" y="96">d </tspan><tspan class="w" x="54.755" y="96">I</tspan><tspan class="k" x="58.407" y="96">t</tspan><tspan class="h" x="62.88" y="96">e</tspan><tspan x="70.127" y="96">m</tspan></tspan><tspan class="g" x="0" y="144">M</tspan><tspan class="h" x="11.698" y="144">e</tspan><tspan class="i" x="18.944" y="144">n</tspan><tspan x="26.854" y="144">u </tspan><tspan class="j" x="38.209" y="144">I</tspan><tspan class="k" x="41.861" y="144">t</tspan><tspan class="l" x="46.334" y="144">e</tspan><tspan x="53.582" y="144">m</tspan><tspan class="g" x="0" y="192">M</tspan><tspan class="h" x="11.698" y="192">e</tspan><tspan class="i" x="18.944" y="192">n</tspan><tspan x="26.854" y="192">u </tspan><tspan class="j" x="38.209" y="192">I</tspan><tspan class="k" x="41.861" y="192">t</tspan><tspan class="l" x="46.334" y="192">e</tspan><tspan x="53.582" y="192">m</tspan><tspan class="x" x="0" y="241">D</tspan><tspan class="y" x="9.458" y="241">i</tspan><tspan class="z" x="12.911" y="241">v</tspan><tspan class="aa" x="19.595" y="241">i</tspan><tspan class="ab" x="22.812" y="241">d</tspan><tspan class="t" x="30.719" y="241">e</tspan><tspan x="38.034" y="241">d </tspan><tspan class="g" x="49.377" y="241">M</tspan><tspan class="h" x="61.075" y="241">e</tspan><tspan class="i" x="68.321" y="241">n</tspan><tspan class="ac" x="76.23" y="241">u </tspan><tspan class="w" x="87.586" y="241">I</tspan><tspan class="k" x="91.238" y="241">t</tspan><tspan class="l" x="95.711" y="241">e</tspan><tspan x="102.958" y="241">m</tspan></text><polyline class="ad" points="311 269 89 269 89 270 311 270 311 269"/><rect class="a" x="101" y="45" width="16" height="16"/><path class="ae" d="M101,57h1v3h14V57h1v4H101Zm9-11h-2v9.022L105.979,53l-1.25,1.25L109,58.522l4.27-4.272L112.021,53,110,55.022Z"/><rect class="a" x="101" y="93" width="16" height="16"/><path class="ae" d="M104,97V94h10v3h3v7h-3v1.5l-2.5,2.5H104v-4h-3V97Zm9-2h-8v2h8Zm-8,12h6v-2h2v-3h-8Zm7-4h-6v1h6Zm-2,2h-4v1h4Z"/><rect class="a" x="101" y="141" width="16" height="16"/><path class="af" d="M108,145v-3h3v3Zm8-.5v10a1.5,1.5,0,0,1-1.5,1.5h-11a1.5,1.5,0,0,1-1.5-1.5v-11a1.5,1.5,0,0,1,1.5-1.5H105v4.5a.5.5,0,0,0,.5.5h6a.5.5,0,0,0,.5-.5V142h1.5Zm-3,6a.5.5,0,0,0-.5-.5h-6.986a.514.514,0,0,0-.514.5V155h8Z"/><rect class="a" x="101" y="189" width="16" height="16"/><path class="ae" d="M101,201h1v3h14v-3h1v4H101Zm9-11h-2v9.022L105.979,197l-1.25,1.25L109,202.522l4.27-4.272-1.25-1.25L110,199.022Z"/><rect class="a" x="101" y="237" width="16" height="16"/><path class="ae" d="M104,241v-3h10v3h3v7h-3v1.5l-2.5,2.5H104v-4h-3v-7Zm9-2h-8v2h8Zm-8,12h6v-2h2v-3h-8Zm7-4h-6v1h6Zm-2,2h-4v1h4Z"/><rect class="a" x="101" y="285" width="16" height="16"/><path class="ae" d="M108,289v-3h3v3Zm8-.5v10a1.5,1.5,0,0,1-1.5,1.5h-11a1.5,1.5,0,0,1-1.5-1.5v-11a1.5,1.5,0,0,1,1.5-1.5H105v4.5a.5.5,0,0,0,.5.5h6a.5.5,0,0,0,.5-.5V286h1.5Zm-3,6a.5.5,0,0,0-.5-.5h-6.986a.514.514,0,0,0-.514.5V299h8Z"/><polygon class="ag" points="247 120 247 117 246 117 246 115 245 115 245 113 244 113 244 111 243 111 243 110 242 110 242 107 245 107 245 108 246 108 246 99 247 99 247 98 249 98 249 99 250 99 250 103 252 103 252 104 255 104 255 105 257 105 257 106 258 106 258 107 259 107 259 114 258 114 258 117 257 117 257 120 247 120"/><polygon class="ah" points="248 119 248 117 247 117 247 115 246 115 246 113 245 113 245 111 244 111 244 110 243 110 243 108 245 108 245 109 246 109 246 112 247 112 247 99 249 99 249 108 250 108 250 104 252 104 252 108 253 108 253 105 255 105 255 109 256 109 256 106 257 106 257 107 258 107 258 114 257 114 257 117 256 117 256 119 248 119"/><rect class="ai" x="249" y="110" width="1" height="4"/><rect class="ai" x="252" y="110" width="1" height="4"/><rect class="ai" x="255" y="110" width="1" height="4"/><text class="aj" transform="translate(149 12.331)"><tspan class="ak">D</tspan><tspan class="al" x="9.402" y="0">a</tspan><tspan class="am" x="16.878" y="0">t</tspan><tspan x="22.142" y="0">a </tspan><tspan class="an" x="33.06" y="0">S</tspan><tspan class="ao" x="40.284" y="0">e</tspan><tspan class="ap" x="47.785" y="0">l</tspan><tspan class="aq" x="51.379" y="0">e</tspan><tspan class="ar" x="58.898" y="0">c</tspan><tspan class="as" x="65.633" y="0">t</tspan><tspan class="at" x="70.644" y="0">o</tspan><tspan class="au" x="78.542" y="0">r</tspan></text><polygon class="ae" points="248.656 5.88 243 11.535 237.344 5.88 238.758 4.466 243 8.708 247.242 4.466 248.656 5.88"/><rect class="a" x="235" width="16" height="16"/></svg>