<svg xmlns="http://www.w3.org/2000/svg" width="236" height="28" viewBox="0 0 236 28"><defs><style>.a,.c,.m{fill:#354052;}.a,.d{fill-rule:evenodd;}.b{fill:#dde6ec;}.d,.e{fill:#fff;}.e,.m{font-size:13px;font-family:OpenSans-Semibold, Open Sans;font-weight:700;}.f{letter-spacing:0.006em;}.g{letter-spacing:0.001em;}.h{letter-spacing:-0.002em;}.i{letter-spacing:0.002em;}.j{letter-spacing:0.023em;}.k{letter-spacing:-0.007em;}.l{letter-spacing:0.004em;}.n{letter-spacing:-0.002em;}.o{letter-spacing:-0.01em;}.p{letter-spacing:-0.006em;}.q{letter-spacing:0.002em;}.r{letter-spacing:0em;}.s{letter-spacing:0.002em;}.t{letter-spacing:0.023em;}.u{letter-spacing:0.004em;}</style></defs><title>switch_03</title><path class="a" d="M78,0H4A4,4,0,0,0,0,4V24a4,4,0,0,0,4,4H78Z"/><rect class="b" x="77.5" y="0.5" width="63" height="27"/><path class="c" d="M140,1V27H78V1h62m1-1H77V28h64V0Z"/><path class="d" d="M140.5,27.5V.5H232A3.5,3.5,0,0,1,235.5,4V24a3.5,3.5,0,0,1-3.5,3.5Z"/><path class="c" d="M232,1a3,3,0,0,1,3,3V24a3,3,0,0,1-3,3H141V1h91m0-1H140V28h92a4,4,0,0,0,4-4V4a4,4,0,0,0-4-4Z"/><text class="e" transform="translate(12.632 18.88)"><tspan class="f">S</tspan><tspan class="g" x="7.224" y="0">e</tspan><tspan class="h" x="14.725" y="0">l</tspan><tspan class="i" x="18.319" y="0">e</tspan><tspan class="j" x="25.838" y="0">c</tspan><tspan class="k" x="32.572" y="0">t</tspan><tspan class="l" x="37.59" y="0">e</tspan><tspan x="45.136" y="0">d</tspan></text><text class="m" transform="translate(90.513 18.88)"><tspan class="n">H</tspan><tspan class="o" x="9.742" y="0">ov</tspan><tspan x="24.38" y="0">er</tspan></text><text class="m" transform="translate(153.162 18.88)"><tspan class="p">U</tspan><tspan class="q" x="9.569" y="0">n</tspan><tspan class="r" x="17.843" y="0">s</tspan><tspan class="g" x="24.166" y="0">e</tspan><tspan class="h" x="31.666" y="0">l</tspan><tspan class="s" x="35.261" y="0">e</tspan><tspan class="t" x="42.779" y="0">c</tspan><tspan class="k" x="49.514" y="0">t</tspan><tspan class="u" x="54.531" y="0">e</tspan><tspan x="62.077" y="0">d</tspan></text><text class="m" transform="translate(90.513 18.88)"><tspan class="n">H</tspan><tspan class="o" x="9.742" y="0">ov</tspan><tspan x="24.38" y="0">er</tspan></text></svg>