<svg xmlns="http://www.w3.org/2000/svg" width="600" height="173" viewBox="0 0 600 173"><defs><style>.a{fill:#009dd9;}.b,.h{fill:#354052;}.c,.e{fill:#fff;}.d{fill:none;}.e,.g{fill-rule:evenodd;}.f,.g,.i{fill:#edeef0;}.h,.m{font-size:13px;}.h,.i,.m{font-family:OpenSans-Semibold, Open Sans;}.h,.j,.m{font-weight:700;}.i{font-size:20px;}.k{font-family:OpenSans, Open Sans;}.l,.m{fill:#eee;}</style></defs><title>toolbar_01</title><polyline class="a" points="0 40 600 40 600 43 0 43"/><rect class="b" width="600" height="40"/><rect class="a" x="548" width="28" height="40"/><path class="c" d="M559.4,16.632a8.654,8.654,0,0,1,1.478-1.233,3.055,3.055,0,0,1,1.69-.437,2.488,2.488,0,0,1,2.285,1.094,5.48,5.48,0,0,1,.676,2.886V26.7a.611.611,0,0,1-.49.636,7.344,7.344,0,0,1-1.328.2v.336h6.293V27.6c-.188-.018-.391-.049-.6-.081a5.024,5.024,0,0,1-.6-.118,1.511,1.511,0,0,1-.478-.228.466.466,0,0,1-.2-.374v-9.06a5.742,5.742,0,0,0-.954-3.426,3.18,3.18,0,0,0-2.743-1.321,4,4,0,0,0-1.6.327,5.9,5.9,0,0,0-1.417.817,6.929,6.929,0,0,0-1.16,1.093,10.745,10.745,0,0,0-.848,1.125"/><path class="c" d="M558.632,17.2v9.561a.747.747,0,0,0,.218.446.771.771,0,0,0,.367.2,2.241,2.241,0,0,0,.492.08,3.9,3.9,0,0,1,.587.08v.306h-5.947v-.306a4.049,4.049,0,0,0,1.216-.28.733.733,0,0,0,.506-.705v-10.6a1.12,1.12,0,0,0-.045-.376.685.685,0,0,0-.262-.271c-.184-.1-.4-.224-.648-.357a8.127,8.127,0,0,0-.735-.357v-.181l4.035-1.451h.211Z"/><rect class="d" x="13" y="12" width="16" height="16"/><path class="e" d="M15,16a.961.961,0,0,1,.916-1H26.084a1,1,0,0,1,0,2H15.916A.961.961,0,0,1,15,16Z"/><path class="e" d="M15,20a.961.961,0,0,1,.916-1H26.084a1,1,0,0,1,0,2H15.916A.961.961,0,0,1,15,20Z"/><path class="e" d="M15,24a.961.961,0,0,1,.916-1H26.084a1,1,0,0,1,0,2H15.916A.961.961,0,0,1,15,24Z"/><rect class="d" x="447" y="12" width="16" height="16"/><circle class="f" cx="449" cy="14" r="2"/><circle class="f" cx="449" cy="20" r="2"/><circle class="f" cx="449" cy="26" r="2"/><circle class="f" cx="455" cy="14" r="2"/><circle class="f" cx="455" cy="20" r="2"/><circle class="f" cx="455" cy="26" r="2"/><circle class="f" cx="461" cy="14" r="2"/><circle class="f" cx="461" cy="20" r="2"/><circle class="f" cx="461" cy="26" r="2"/><rect class="d" x="411" y="12" width="16" height="16"/><path class="g" d="M420.673,22.733a6.022,6.022,0,1,1,1.06-1.06l5.077,5.077a.753.753,0,0,1-1.06,1.061ZM417,13.5a4.5,4.5,0,1,0,4.5,4.5A4.5,4.5,0,0,0,417,13.5Z"/><text class="h" transform="translate(521.535 24.815)">LJ</text><rect class="d" x="483" y="12" width="16" height="16"/><path class="f" d="M491,28a1.662,1.662,0,0,0,1.674-1.641h-3.35A1.658,1.658,0,0,0,491,28"/><path class="f" d="M491,13a.241.241,0,0,1,.256.23v1.352l.773.18a4.01,4.01,0,0,1,3,4.213V23.5l.3.294.763.747H485.912l.763-.747.3-.294V18.975a4.007,4.007,0,0,1,3-4.212l.774-.18V13.23A.241.241,0,0,1,491,13m0-1a1.241,1.241,0,0,0-1.256,1.23v.558a5,5,0,0,0-3.77,5.187v4.1L484.3,24.718v.821h13.4v-.821l-1.674-1.641v-4.1a5.013,5.013,0,0,0-3.77-5.187V13.23A1.241,1.241,0,0,0,491,12Z"/><text class="i" transform="translate(42 26.667)"><tspan class="j" xml:space="preserve">NIELSEN APP NAME  | </tspan><tspan class="k" x="214.921" y="0" xml:space="preserve"> Page Title</tspan></text><rect class="l" y="43" width="600" height="130"/><text class="m" transform="translate(521.535 24.815)">LJ</text></svg>