<svg xmlns="http://www.w3.org/2000/svg" width="232.029" height="232" viewBox="0 0 232.029 232"><defs><style>.a{fill:#ddd;}.b,.d{fill:#0076a4;}.c{fill:#fff;}.d,.m{font-size:24px;font-family:OpenSans, Open Sans;}.e{letter-spacing:0.002em;}.f{letter-spacing:-0.003em;}.g{letter-spacing:0.004em;}.h{letter-spacing:-0.006em;}.i{font-size:12px;fill:#989ea7;font-family:OpenSans-Semibold, Open Sans;font-weight:700;}.j{letter-spacing:-0.001em;}.k{letter-spacing:0.012em;}.l{letter-spacing:0.007em;}.m{fill:#d60037;}.n{letter-spacing:-0.025em;}.o{letter-spacing:0.008em;}.p{letter-spacing:-0.024em;}.q{letter-spacing:-0.004em;}.r{letter-spacing:0.012em;}.s{letter-spacing:-0.003em;}.t{letter-spacing:-0.001em;}</style></defs><title>charts_04</title><circle class="a" cx="116" cy="116" r="116"/><path class="b" d="M226.329,80.147A116.035,116.035,0,0,0,116,0V116Z"/><path class="b" d="M184.73,209.457A116.032,116.032,0,0,0,226.115,79.524L116,116Z"/><path class="c" d="M213,116a97,97,0,1,0-97,97A96.989,96.989,0,0,0,213,116Z"/><text class="d" transform="translate(82.385 99.449)"><tspan class="e">4</tspan><tspan class="f" x="13.761" y="0">3</tspan><tspan class="g" x="27.424" y="0">.</tspan><tspan class="h" x="33.897" y="0">8</tspan><tspan x="47.476" y="0">%</tspan></text><text class="i" transform="translate(96.866 67.449)"><tspan class="j">S</tspan><tspan class="k" x="6.583" y="0">HA</tspan><tspan class="l" x="23.819" y="0">R</tspan><tspan x="31.573" y="0">E</tspan></text><text class="m" transform="translate(85.869 168.949)"><tspan class="n">-</tspan><tspan class="f" x="7.13" y="0">3</tspan><tspan class="o" x="20.792" y="0">.</tspan><tspan class="p" x="27.359" y="0">5</tspan><tspan x="40.508" y="0">%</tspan></text><text class="i" transform="translate(91.225 136.949)"><tspan class="q">C</tspan><tspan class="r" x="7.554" y="0">HA</tspan><tspan class="s" x="24.79" y="0">N</tspan><tspan class="t" x="34.152" y="0">G</tspan><tspan x="42.856" y="0">E</tspan></text></svg>