<svg xmlns="http://www.w3.org/2000/svg" width="600" height="180" viewBox="0 0 600 180"><defs><style>.a{fill:#dde6ed;}.b{fill:#151921;}.c{fill:#00b4b3;}.d{fill:#0076a4;}.e{fill:#ceb253;}.f,.w{fill:none;}.f{stroke:#ceb253;stroke-miterlimit:10;stroke-width:2px;}.g{font-size:12px;fill:#989ea7;font-family:OpenSans-Semibold, Open Sans;font-weight:700;}.h{letter-spacing:-0.003em;}.i{letter-spacing:0.016em;}.j{letter-spacing:0.022em;}.k{letter-spacing:0.026em;}.l{letter-spacing:-0.008em;}.m{letter-spacing:0.045em;}.n{letter-spacing:0.017em;}.o{letter-spacing:-0.005em;}.p{letter-spacing:0.003em;}.q{letter-spacing:0.001em;}.r{letter-spacing:0.048em;}.s{letter-spacing:0.002em;}.t{letter-spacing:0.001em;}.u{letter-spacing:0.003em;}.v{letter-spacing:0.001em;}</style></defs><title>charts_02</title><rect class="a" x="56" y="7" width="488" height="1"/><rect class="a" x="56" y="40" width="488" height="1"/><rect class="a" x="56" y="108" width="488" height="1"/><rect class="a" x="504" y="8" width="1" height="133"/><rect class="a" x="463" y="8" width="1" height="133"/><rect class="a" x="422" y="8" width="1" height="133"/><rect class="a" x="382" y="8" width="1" height="133"/><rect class="a" x="341" y="8" width="1" height="133"/><rect class="a" x="300" y="8" width="1" height="133"/><rect class="a" x="260" y="8" width="1" height="133"/><rect class="a" x="219" y="8" width="1" height="133"/><rect class="a" x="178" y="8" width="1" height="133"/><rect class="a" x="137" y="8" width="1" height="133"/><rect class="a" x="97" y="8" width="1" height="133"/><rect class="a" x="56" y="141" width="488" height="1"/><rect class="b" x="56" y="73" width="488" height="2"/><rect class="c" x="98" y="46" width="12" height="27"/><rect class="d" x="85" y="54" width="12" height="19"/><rect class="c" x="138" y="20" width="12" height="53"/><rect class="d" x="125" y="75" width="12" height="35"/><rect class="c" x="179" y="44" width="12" height="29"/><rect class="d" x="166" y="75" width="12" height="37"/><rect class="c" x="220" y="47" width="12" height="26"/><rect class="d" x="207" y="75" width="12" height="30"/><rect class="c" x="261" y="41" width="12" height="32"/><rect class="d" x="248" y="67" width="12" height="6"/><rect class="c" x="301" y="52" width="12" height="21"/><rect class="d" x="288" y="75" width="12" height="51"/><rect class="c" x="342" y="17" width="12" height="56"/><rect class="d" x="329" y="75" width="12" height="46"/><rect class="c" x="383" y="47" width="12" height="26"/><rect class="d" x="370" y="75" width="12" height="57"/><rect class="c" x="423" y="44" width="12" height="29"/><rect class="d" x="410" y="75" width="12" height="48"/><rect class="c" x="464" y="47" width="12" height="26"/><rect class="d" x="451" y="75" width="12" height="44"/><rect class="c" x="505" y="12" width="12" height="61"/><rect class="d" x="492" y="75" width="12" height="29"/><circle class="e" cx="97" cy="79" r="4"/><circle class="e" cx="138" cy="118" r="4"/><circle class="e" cx="179" cy="108.5" r="4"/><circle class="e" cx="219.5" cy="105" r="4"/><circle class="e" cx="261" cy="83" r="4"/><circle class="e" cx="301" cy="118" r="4"/><circle class="e" cx="341" cy="127" r="4"/><circle class="e" cx="383" cy="119" r="4"/><circle class="e" cx="423" cy="110" r="4"/><circle class="e" cx="464" cy="97" r="4"/><circle class="e" cx="505" cy="105" r="4"/><polyline class="f" points="97 79 138 118 179 108.5 219.5 105 260.5 82.783 301 118 341 127 383 119 423 110 464 97 505 105"/><text class="g" transform="translate(26.994 12.12)">0<tspan class="h" x="6.85" y="0">.</tspan><tspan class="i" x="10.114" y="0">0</tspan><tspan x="17.156" y="0">8</tspan></text><text class="g" transform="translate(26.927 28.87)">0<tspan class="h" x="6.85" y="0">.</tspan><tspan class="j" x="10.114" y="0">0</tspan><tspan x="17.224" y="0">6</tspan></text><text class="g" transform="translate(26.88 45.62)">0<tspan class="h" x="6.85" y="0">.</tspan><tspan class="k" x="10.114" y="0">0</tspan><tspan x="17.271" y="0">4</tspan></text><text class="g" transform="translate(27.282 62.37)">0<tspan class="h" x="6.85" y="0">.</tspan><tspan class="l" x="10.114" y="0">0</tspan><tspan x="16.868" y="0">2</tspan></text><text class="g" transform="translate(44.15 79.12)">0</text><text class="g" transform="translate(22.882 95.87)"><tspan class="m">-</tspan><tspan x="4.4" y="0">0</tspan><tspan class="h" x="11.25" y="0">.</tspan><tspan class="l" x="14.514" y="0">0</tspan><tspan x="21.269" y="0">2</tspan></text><text class="g" transform="translate(22.48 112.62)"><tspan class="m">-</tspan><tspan x="4.4" y="0">0</tspan><tspan class="h" x="11.25" y="0">.</tspan><tspan class="k" x="14.514" y="0">0</tspan><tspan x="21.671" y="0">4</tspan></text><text class="g" transform="translate(22.527 129.37)"><tspan class="m">-</tspan><tspan x="4.4" y="0">0</tspan><tspan class="h" x="11.25" y="0">.</tspan><tspan class="j" x="14.514" y="0">0</tspan><tspan x="21.624" y="0">6</tspan></text><text class="g" transform="translate(22.594 146.12)"><tspan class="m">-</tspan><tspan x="4.4" y="0">0</tspan><tspan class="h" x="11.25" y="0">.</tspan><tspan class="i" x="14.514" y="0">0</tspan><tspan x="21.557" y="0">8</tspan></text><text class="g" transform="translate(81.816 175.648) rotate(-45)"><tspan class="n">L</tspan><tspan class="o" x="6.706" y="0">a</tspan><tspan class="p" x="13.602" y="0">b</tspan><tspan class="q" x="21.118" y="0">e</tspan><tspan x="28.049" y="0">l</tspan></text><text class="g" transform="translate(122.506 175.648) rotate(-45)"><tspan class="n">L</tspan><tspan class="o" x="6.706" y="0">a</tspan><tspan class="p" x="13.602" y="0">b</tspan><tspan class="q" x="21.118" y="0">e</tspan><tspan x="28.049" y="0">l</tspan></text><text class="g" transform="translate(163.198 175.649) rotate(-45)"><tspan class="n">L</tspan><tspan class="o" x="6.706" y="0">a</tspan><tspan class="p" x="13.602" y="0">b</tspan><tspan class="q" x="21.118" y="0">e</tspan><tspan x="28.049" y="0">l</tspan></text><text class="g" transform="translate(203.888 175.647) rotate(-45)"><tspan class="n">L</tspan><tspan class="o" x="6.706" y="0">a</tspan><tspan class="p" x="13.602" y="0">b</tspan><tspan class="q" x="21.118" y="0">e</tspan><tspan x="28.049" y="0">l</tspan></text><text class="g" transform="translate(244.58 175.649) rotate(-45)"><tspan class="n">L</tspan><tspan class="o" x="6.706" y="0">a</tspan><tspan class="p" x="13.602" y="0">b</tspan><tspan class="q" x="21.118" y="0">e</tspan><tspan x="28.049" y="0">l</tspan></text><text class="g" transform="translate(285.271 175.648) rotate(-45)"><tspan class="n">L</tspan><tspan class="o" x="6.706" y="0">a</tspan><tspan class="p" x="13.602" y="0">b</tspan><tspan class="q" x="21.118" y="0">e</tspan><tspan x="28.049" y="0">l</tspan></text><text class="g" transform="translate(325.962 175.648) rotate(-45)"><tspan class="n">L</tspan><tspan class="o" x="6.706" y="0">a</tspan><tspan class="p" x="13.602" y="0">b</tspan><tspan class="q" x="21.118" y="0">e</tspan><tspan x="28.049" y="0">l</tspan></text><text class="g" transform="translate(366.654 175.648) rotate(-45)"><tspan class="n">L</tspan><tspan class="o" x="6.706" y="0">a</tspan><tspan class="p" x="13.602" y="0">b</tspan><tspan class="q" x="21.118" y="0">e</tspan><tspan x="28.049" y="0">l</tspan></text><text class="g" transform="translate(407.345 175.649) rotate(-45)"><tspan class="n">L</tspan><tspan class="o" x="6.706" y="0">a</tspan><tspan class="p" x="13.602" y="0">b</tspan><tspan class="q" x="21.118" y="0">e</tspan><tspan x="28.049" y="0">l</tspan></text><text class="g" transform="translate(448.035 175.648) rotate(-45)"><tspan class="n">L</tspan><tspan class="o" x="6.706" y="0">a</tspan><tspan class="p" x="13.602" y="0">b</tspan><tspan class="q" x="21.118" y="0">e</tspan><tspan x="28.049" y="0">l</tspan></text><text class="g" transform="translate(488.726 175.648) rotate(-45)"><tspan class="n">L</tspan><tspan class="o" x="6.706" y="0">a</tspan><tspan class="p" x="13.602" y="0">b</tspan><tspan class="q" x="21.118" y="0">e</tspan><tspan x="28.049" y="0">l</tspan></text><text class="g" transform="translate(11.12 103.428) rotate(-90)"><tspan class="r">A</tspan><tspan class="s" x="8.512" y="0">x</tspan><tspan class="t" x="15.146" y="0">i</tspan><tspan x="18.498" y="0">s </tspan><tspan class="n" x="27.457" y="0">L</tspan><tspan class="o" x="34.163" y="0">a</tspan><tspan class="u" x="41.059" y="0">b</tspan><tspan class="v" x="48.575" y="0">e</tspan><tspan x="55.506" y="0">l</tspan></text><rect class="w" width="600" height="180"/></svg>