<svg xmlns="http://www.w3.org/2000/svg" width="600" height="180" viewBox="0 0 600 180"><defs><style>.a{fill:#dde6ed;}.b{fill:#151921;}.c{fill:#0076a4;}.d,.j{font-size:12px;font-family:OpenSans-Semibold, Open Sans;font-weight:700;}.d{fill:#989ea7;}.e{letter-spacing:0.017em;}.f{letter-spacing:-0.005em;}.g{letter-spacing:0.003em;}.h{letter-spacing:0.001em;}.i{fill:#00b4b3;}.j{fill:#888;}.k{fill:#ba4;}.l{fill:#c71;}.m{letter-spacing:-0.037em;}.n{letter-spacing:0.025em;}.o{letter-spacing:0.012em;}.p{letter-spacing:0.016em;}.q{letter-spacing:0.012em;}.r{letter-spacing:0.015em;}.s{letter-spacing:0.027em;}.t{letter-spacing:0.002em;}.u{fill:none;}</style></defs><title>charts_01</title><rect class="a" x="56" y="7.191" width="488" height="1"/><rect class="a" x="56" y="36.191" width="488" height="1"/><rect class="a" x="56" y="65.191" width="488" height="1"/><rect class="a" x="56" y="93.191" width="488" height="1"/><rect class="a" x="56" y="122.191" width="488" height="1"/><rect class="b" x="56" y="151.191" width="488" height="2"/><rect class="c" x="101" y="131.191" width="48" height="20"/><text class="d" transform="translate(109.303 168.312)"><tspan class="e">L</tspan><tspan class="f" x="6.706" y="0">a</tspan><tspan class="g" x="13.602" y="0">b</tspan><tspan class="h" x="21.118" y="0">e</tspan><tspan x="28.049" y="0">l</tspan></text><rect class="i" x="218" y="99.191" width="48" height="52"/><text class="j" transform="translate(226.303 168.312)"><tspan class="e">L</tspan><tspan class="f" x="6.706" y="0">a</tspan><tspan class="g" x="13.602" y="0">b</tspan><tspan class="h" x="21.118" y="0">e</tspan><tspan x="28.049" y="0">l</tspan></text><rect class="k" x="334" y="23.191" width="48" height="128"/><text class="j" transform="translate(343.303 168.312)"><tspan class="e">L</tspan><tspan class="f" x="6.706" y="0">a</tspan><tspan class="g" x="13.602" y="0">b</tspan><tspan class="h" x="21.118" y="0">e</tspan><tspan x="28.049" y="0">l</tspan></text><rect class="l" x="451" y="126.191" width="48" height="25"/><text class="j" transform="translate(460.303 168.312)"><tspan class="e">L</tspan><tspan class="f" x="6.706" y="0">a</tspan><tspan class="g" x="13.602" y="0">b</tspan><tspan class="h" x="21.118" y="0">e</tspan><tspan x="28.049" y="0">l</tspan></text><text class="d" transform="translate(22.787 11.312)"><tspan class="m">1</tspan><tspan class="n" x="6.401" y="0">0</tspan><tspan class="o" x="13.554" y="0">0</tspan><tspan x="20.543" y="0">K</tspan></text><text class="d" transform="translate(29.298 40.132)"><tspan class="p">8</tspan><tspan class="q" x="7.043" y="0">0</tspan><tspan x="14.032" y="0">K</tspan></text><text class="d" transform="translate(29.311 68.953)"><tspan class="r">6</tspan><tspan class="o" x="7.031" y="0">0</tspan><tspan x="14.02" y="0">K</tspan></text><text class="d" transform="translate(29.172 97.774)"><tspan class="s">4</tspan><tspan class="q" x="7.169" y="0">0</tspan><tspan x="14.158" y="0">K</tspan></text><text class="d" transform="translate(29.464 126.595)"><tspan class="t">2</tspan><tspan class="o" x="6.877" y="0">0</tspan><tspan x="13.866" y="0">K</tspan></text><rect class="u" width="600" height="180"/></svg>