<svg xmlns="http://www.w3.org/2000/svg" width="600" height="218" viewBox="0 0 600 218"><defs><style>.a{fill:#dde6ed;}.b{fill:#151921;}.c{font-size:12px;fill:#989ea7;font-family:OpenSans-Semibold, Open Sans;font-weight:700;}.d{letter-spacing:0.025em;}.e{letter-spacing:0.048em;}.f{letter-spacing:0.002em;}.g{letter-spacing:0.001em;}.h{letter-spacing:0.017em;}.i{letter-spacing:-0.005em;}.j{letter-spacing:0.003em;}.k{letter-spacing:0.001em;}.l{fill:#069;}.l,.m,.n,.o,.p,.q,.r{opacity:0.6;}.m{fill:#4aa;}.n{fill:#473;}.o{fill:#ba4;}.p{fill:#c71;}.q{fill:#934;}.r{fill:#a5a;}.s{fill:none;}</style></defs><title>charts_03</title><rect class="a" x="56" width="488" height="1"/><rect class="a" x="56" y="30" width="488" height="1"/><rect class="a" x="56" y="59" width="488" height="1"/><rect class="a" x="56" y="118" width="488" height="1"/><rect class="a" x="56" y="148" width="488" height="1"/><rect class="a" x="56" y="177" width="488" height="1"/><rect class="a" x="251" width="1" height="178"/><rect class="a" x="202" width="1" height="178"/><rect class="a" x="153" width="1" height="178"/><rect class="a" x="105" width="1" height="178"/><rect class="a" x="348" width="1" height="178"/><rect class="a" x="397" width="1" height="178"/><rect class="a" x="494" width="1" height="178"/><rect class="a" x="446" width="1" height="178"/><rect class="a" x="543" width="1" height="178"/><rect class="b" x="299" width="2" height="178"/><rect class="a" x="56" width="1" height="178"/><rect class="b" x="56" y="88" width="488" height="2"/><text class="c" transform="translate(98.532 192.12)"><tspan class="d">0</tspan><tspan x="7.153" y="0">0</tspan></text><text class="c" transform="translate(36.997 152.453)"><tspan class="d">0</tspan><tspan x="7.153" y="0">0</tspan></text><text class="c" transform="translate(36.997 123.036)"><tspan class="d">0</tspan><tspan x="7.153" y="0">0</tspan></text><text class="c" transform="translate(36.997 93.62)"><tspan class="d">0</tspan><tspan x="7.153" y="0">0</tspan></text><text class="c" transform="translate(36.997 64.204)"><tspan class="d">0</tspan><tspan x="7.153" y="0">0</tspan></text><text class="c" transform="translate(36.997 34.787)"><tspan class="d">0</tspan><tspan x="7.153" y="0">0</tspan></text><text class="c" transform="translate(147.143 192.12)"><tspan class="d">0</tspan><tspan x="7.153" y="0">0</tspan></text><text class="c" transform="translate(195.754 192.12)"><tspan class="d">0</tspan><tspan x="7.153" y="0">0</tspan></text><text class="c" transform="translate(244.365 192.12)"><tspan class="d">0</tspan><tspan x="7.153" y="0">0</tspan></text><text class="c" transform="translate(292.976 192.12)"><tspan class="d">0</tspan><tspan x="7.153" y="0">0</tspan></text><text class="c" transform="translate(341.587 192.12)"><tspan class="d">0</tspan><tspan x="7.153" y="0">0</tspan></text><text class="c" transform="translate(438.809 192.12)"><tspan class="d">0</tspan><tspan x="7.153" y="0">0</tspan></text><text class="c" transform="translate(390.198 192.12)"><tspan class="d">0</tspan><tspan x="7.153" y="0">0</tspan></text><text class="c" transform="translate(487.42 192.12)"><tspan class="d">0</tspan><tspan x="7.153" y="0">0</tspan></text><text class="c" transform="translate(270.552 213.12)"><tspan class="e">A</tspan><tspan class="f" x="8.512" y="0">x</tspan><tspan class="g" x="15.146" y="0">i</tspan><tspan x="18.498" y="0">s </tspan><tspan class="h" x="27.457" y="0">L</tspan><tspan class="i" x="34.163" y="0">a</tspan><tspan class="j" x="41.059" y="0">b</tspan><tspan class="k" x="48.575" y="0">e</tspan><tspan x="55.506" y="0">l</tspan></text><text class="c" transform="translate(25.12 118.426) rotate(-90)"><tspan class="e">A</tspan><tspan class="f" x="8.512" y="0">x</tspan><tspan class="g" x="15.146" y="0">i</tspan><tspan x="18.498" y="0">s </tspan><tspan class="h" x="27.457" y="0">L</tspan><tspan class="i" x="34.163" y="0">a</tspan><tspan class="j" x="41.059" y="0">b</tspan><tspan class="k" x="48.575" y="0">e</tspan><tspan x="55.506" y="0">l</tspan></text><circle class="l" cx="117.416" cy="34.416" r="22.833"/><circle class="m" cx="334.5" cy="38.916" r="23.584"/><circle class="n" cx="357.9" cy="133.567" r="33.317"/><circle class="o" cx="275" cy="24.5" r="17.501"/><circle class="p" cx="155.04" cy="60" r="45.417"/><circle class="q" cx="207" cy="137.333" r="12.417"/><circle class="r" cx="480" cy="63.283" r="54.291"/><rect class="s" width="600" height="218"/></svg>