<svg xmlns="http://www.w3.org/2000/svg" width="120" height="126" viewBox="0 0 120 126"><defs><style>.a{font-size:13px;fill:#151921;font-family:OpenSans, Open Sans;}.b{letter-spacing:-0.031em;}.c{letter-spacing:-0.005em;}.d{letter-spacing:-0.006em;}.e{letter-spacing:-0.005em;}.f{letter-spacing:0.006em;}.g{letter-spacing:-0.003em;}.h{letter-spacing:-0.004em;}.i{letter-spacing:0.002em;}.j{letter-spacing:0.032em;}.k{letter-spacing:-0.009em;}.l{letter-spacing:0.002em;}.m{fill:none;}.n{fill:#26b910;}.n,.o{fill-rule:evenodd;}.o{fill:#fff;}.p{fill:#84919a;}</style></defs><title>check_01</title><text class="a" transform="translate(29 13.854)"><tspan class="b">V</tspan><tspan class="c" x="7.333" y="0">a</tspan><tspan class="d" x="14.492" y="0">l</tspan><tspan class="e" x="17.702" y="0">u</tspan><tspan x="25.623" y="0">e</tspan><tspan class="f" x="0" y="36">S</tspan><tspan class="g" x="7.208" y="36">e</tspan><tspan class="h" x="14.467" y="36">l</tspan><tspan class="i" x="17.708" y="36">e</tspan><tspan class="j" x="25.023" y="36">c</tspan><tspan class="k" x="31.624" y="36">t</tspan><tspan class="l" x="36.098" y="36">e</tspan><tspan x="43.412" y="36">d </tspan><tspan class="b" x="54.755" y="36">V</tspan><tspan class="c" x="62.088" y="36">a</tspan><tspan class="d" x="69.247" y="36">l</tspan><tspan class="e" x="72.457" y="36">u</tspan><tspan x="80.377" y="36">e</tspan><tspan class="b" x="0" y="72">V</tspan><tspan class="c" x="7.333" y="72">a</tspan><tspan class="d" x="14.492" y="72">l</tspan><tspan class="e" x="17.702" y="72">u</tspan><tspan x="25.623" y="72">e</tspan><tspan class="b" x="0" y="108">V</tspan><tspan class="c" x="7.333" y="108">a</tspan><tspan class="d" x="14.492" y="108">l</tspan><tspan class="e" x="17.702" y="108">u</tspan><tspan x="25.623" y="108">e</tspan></text><rect class="m" width="120" height="126"/><path class="n" d="M17,53H1V37H17Z"/><polygon class="o" points="7.573 49.646 15 42.219 13.135 40.354 7.573 45.912 4.867 43.206 3 45.071 7.573 49.646"/><path class="p" d="M16,2V16H2V2H16m1-1H1V17H17V1Z"/><path class="p" d="M16,74V88H2V74H16m1-1H1V89H17V73Z"/><path class="p" d="M16,110v14H2V110H16m1-1H1v16H17V109Z"/></svg>