<svg xmlns="http://www.w3.org/2000/svg" width="520" height="144" viewBox="0 0 520 144"><defs><style>@import url('https://fonts.googleapis.com/css?family=Open+Sans:400,600,700|Roboto+Mono:400,600,700');
.a{fill:#354052;}.b{fill:#151921;}.c{fill:#989ea7;}.d{font-size:13px;fill:#fff;font-family:RobotoMono-Medium, 'Roboto Mono';}.e{letter-spacing:-0.011em;}.f{letter-spacing:-0.012em;}.g{letter-spacing:-0.009em;}.h{letter-spacing:-0.025em;}.i{letter-spacing:-0.024em;}.j{letter-spacing:-0.011em;}.k{letter-spacing:-0.014em;}.l{letter-spacing:-0.033em;}.m{letter-spacing:0.003em;}.n{letter-spacing:-0.025em;}.o{letter-spacing:-0.007em;}.p{letter-spacing:0.001em;}.q{letter-spacing:0.022em;}.r{letter-spacing:-0.007em;}.s{letter-spacing:-0.032em;}.t{letter-spacing:-0.004em;}.u{letter-spacing:0.002em;}.v{letter-spacing:0em;}.w{letter-spacing:-0.029em;}.x{letter-spacing:-0.007em;}.y{letter-spacing:0em;}.z{letter-spacing:-0.002em;}.aa{letter-spacing:-0.034em;}.ab{letter-spacing:-0.003em;}.ac{letter-spacing:-0.016em;}.ad{letter-spacing:-0.028em;}.ae{letter-spacing:-0.027em;}.af{letter-spacing:-0.017em;}.ag{letter-spacing:-0.093em;}.ah{letter-spacing:-0.045em;}.ai{letter-spacing:-0.09em;}.aj{letter-spacing:-0.014em;}.ak{letter-spacing:-0.051em;}.al{letter-spacing:0em;}.am{letter-spacing:-0.038em;}.an{letter-spacing:-0.026em;}.ao{letter-spacing:-0.025em;}.ap{letter-spacing:0.001em;}.aq{letter-spacing:-0.026em;}.ar{letter-spacing:-0.005em;}.as{letter-spacing:-0.001em;}.at{letter-spacing:-0.06em;}.au{letter-spacing:-0.109em;}.av{letter-spacing:-0.027em;}.aw{letter-spacing:-0.095em;}.ax{letter-spacing:-0.126em;}.ay{letter-spacing:-0.008em;}.az{letter-spacing:-0.092em;}.ba{letter-spacing:-0.118em;}.bb{letter-spacing:-0.122em;}.bc{letter-spacing:-0.113em;}.bd{letter-spacing:-0.146em;}.be{letter-spacing:-0.1em;}.bf{letter-spacing:-0.038em;}.bg{letter-spacing:-0.093em;}.bh{letter-spacing:-0.106em;}.bi{letter-spacing:-0.021em;}.bj{letter-spacing:-0.129em;}.bk{letter-spacing:0em;}.bl{letter-spacing:-0.128em;}.bm{letter-spacing:-0.093em;}.bn{letter-spacing:-0.201em;}.bo{letter-spacing:-0.021em;}.bp{letter-spacing:-0.092em;}.bq{letter-spacing:-0.202em;}.br{letter-spacing:-0.082em;}.bs{letter-spacing:-0.066em;}.bt{letter-spacing:-0.072em;}</style></defs><title>colors_01</title><rect class="a" width="520" height="48"/><rect class="b" y="48" width="520" height="48"/><rect class="c" y="96" width="520" height="48"/><text class="d" transform="translate(24 28.936)"><tspan class="e">T</tspan><tspan class="f" x="7.652" y="0">I</tspan><tspan class="g" x="15.297" y="0">T</tspan><tspan class="h" x="22.981" y="0">L</tspan><tspan class="i" x="30.458" y="0">E</tspan><tspan x="37.94" y="0">S</tspan><tspan class="j" x="0" y="48">P</tspan><tspan class="k" x="7.665" y="48">R</tspan><tspan class="l" x="15.284" y="48">I</tspan><tspan class="m" x="22.663" y="48">M</tspan><tspan x="30.503" y="48">A</tspan><tspan class="n" x="38.304" y="48">R</tspan><tspan x="45.781" y="48">Y </tspan><tspan class="o" x="61.383" y="48">T</tspan><tspan class="p" x="69.093" y="48">E</tspan><tspan class="q" x="76.901" y="48">X</tspan><tspan x="84.99" y="48">T</tspan><tspan class="r" x="0" y="96">S</tspan><tspan class="s" x="7.705" y="96">E</tspan><tspan class="t" x="15.097" y="96">C</tspan><tspan class="u" x="22.846" y="96">O</tspan><tspan class="v" x="30.677" y="96">N</tspan><tspan class="w" x="38.473" y="96">D</tspan><tspan x="45.896" y="96">A</tspan><tspan class="h" x="53.698" y="96">R</tspan><tspan x="61.174" y="96">Y </tspan><tspan class="x" x="76.776" y="96">T</tspan><tspan class="y" x="84.487" y="96">E</tspan><tspan class="q" x="92.294" y="96">X</tspan><tspan x="100.383" y="96">T</tspan></text><text class="d" transform="translate(257 28.936)"><tspan class="z">#</tspan><tspan class="aa" x="7.782" y="0">3</tspan><tspan class="ab" x="15.141" y="0">5</tspan><tspan class="ac" x="22.903" y="0">4</tspan><tspan class="ad" x="30.503" y="0">0</tspan><tspan class="ae" x="37.94" y="0">5</tspan><tspan x="45.391" y="0">2</tspan><tspan class="af" x="0" y="48">#</tspan><tspan class="ag" x="7.58" y="48">1</tspan><tspan class="ah" x="14.178" y="48">5</tspan><tspan class="ai" x="21.4" y="48">1</tspan><tspan class="aj" x="28.037" y="48">9</tspan><tspan class="ak" x="35.65" y="48">2</tspan><tspan x="42.782" y="48">1</tspan><tspan class="al" x="0" y="96">#</tspan><tspan class="am" x="7.795" y="96">9</tspan><tspan class="an" x="15.096" y="96">8</tspan><tspan class="ao" x="22.559" y="96">9</tspan><tspan class="ap" x="30.033" y="96">E</tspan><tspan class="aq" x="37.853" y="96">A</tspan><tspan x="45.31" y="96">7</tspan></text><text class="d" transform="translate(366 28.936)"><tspan class="ar">R</tspan><tspan class="as" x="7.743" y="0">G</tspan><tspan class="at" x="15.531" y="0">B</tspan><tspan class="au" x="22.551" y="0">(</tspan><tspan class="av" x="28.939" y="0">5</tspan><tspan class="aw" x="36.39" y="0">2</tspan><tspan class="ax" x="42.958" y="0">,</tspan><tspan class="ay" x="49.128" y="0">6</tspan><tspan class="az" x="56.825" y="0">4</tspan><tspan class="ba" x="63.429" y="0">,</tspan><tspan class="aj" x="69.699" y="0">8</tspan><tspan class="bb" x="77.312" y="0">2</tspan><tspan x="83.524" y="0">)</tspan><tspan class="ar"><tspan x="0" y="48">R</tspan><tspan class="as" x="7.743" y="48">G</tspan><tspan class="at" x="15.531" y="48">B</tspan><tspan class="bc" x="22.551" y="48">(</tspan><tspan class="ak" x="28.887" y="48">2</tspan><tspan class="bd" x="36.019" y="48">1</tspan><tspan class="be" x="41.919" y="48">,</tspan><tspan class="bf" x="48.419" y="48">2</tspan><tspan class="bg" x="55.727" y="48">5</tspan><tspan class="bh" x="62.316" y="48">,</tspan><tspan class="bi" x="68.736" y="48">3</tspan><tspan class="bj" x="76.271" y="48">3</tspan><tspan class="bk" x="82.393" y="48">)</tspan></tspan><tspan class="ar" x="0" y="96">R</tspan><tspan class="as" x="7.743" y="96">G</tspan><tspan class="at" x="15.531" y="96">B</tspan><tspan class="bl" x="22.551" y="96">(</tspan><tspan class="bm" x="28.692" y="96">1</tspan><tspan class="ae" x="35.29" y="96">5</tspan><tspan class="aw" x="42.74" y="96">2</tspan><tspan class="bn" x="49.309" y="96">,</tspan><tspan class="bm" x="54.491" y="96">1</tspan><tspan class="bo" x="61.088" y="96">5</tspan><tspan class="bp" x="68.61" y="96">8</tspan><tspan class="bq" x="75.218" y="96">,</tspan><tspan class="br" x="80.399" y="96">1</tspan><tspan class="bs" x="87.135" y="96">6</tspan><tspan class="bt" x="94.083" y="96">7</tspan><tspan x="100.954" y="96">)</tspan></text></svg>
