<svg xmlns="http://www.w3.org/2000/svg" width="250" height="138" viewBox="0 0 250 138"><defs><style>.a{fill:#fff;}.b{fill:#a7aeb2;}.c,.n{font-size:13px;font-family:OpenSans, Open Sans;}.c{fill:#a8afb3;}.d{letter-spacing:0.001em;}.e{letter-spacing:-0.003em;}.f{letter-spacing:0em;}.g{letter-spacing:-0.004em;}.h{letter-spacing:-0.01em;}.i{letter-spacing:-0.009em;}.j,.k{fill:#354052;}.j{fill-rule:evenodd;}.l{fill:none;}.m,.n{fill:#ff8300;}.o{letter-spacing:-0.014em;}.p{letter-spacing:0.006em;}.q{letter-spacing:-0.009em;}.r{letter-spacing:-0.004em;}.s{letter-spacing:-0.003em;}.t{letter-spacing:0.005em;}.u{letter-spacing:0.011em;}.v{letter-spacing:-0.006em;}.w{letter-spacing:-0.016em;}</style></defs><title>date_picker_01</title><rect class="a" x="0.5" y="0.5" width="249" height="35"/><path class="b" d="M249,1V35H1V1H249m1-1H0V36H250V0Z"/><text class="c" transform="translate(17.002 22.88)"><tspan class="d">C</tspan><tspan class="e" x="8.215" y="0">h</tspan><tspan class="f" x="16.155" y="0">o</tspan><tspan class="g" x="24.002" y="0">o</tspan><tspan class="d" x="31.804" y="0">s</tspan><tspan x="38.02" y="0">e a </tspan><tspan class="h" x="59.297" y="0">d</tspan><tspan class="f" x="67.136" y="0">a</tspan><tspan class="i" x="74.361" y="0">t</tspan><tspan x="78.834" y="0">e</tspan></text><path class="j" d="M234.5,11H233V10h-1v1h-7V10h-1v1h-1.5a1.5,1.5,0,0,0-1.5,1.5v11a1.5,1.5,0,0,0,1.5,1.5h12a1.5,1.5,0,0,0,1.5-1.5v-11A1.5,1.5,0,0,0,234.5,11Zm0,12.5h-12V14h12Z"/><rect class="k" x="224" y="17" width="1" height="1"/><rect class="k" x="224" y="19" width="1" height="1"/><rect class="k" x="224" y="21" width="1" height="1"/><polyline class="j" points="227 16 226 16 226 15 227 15"/><rect class="k" x="226" y="17" width="1" height="1"/><rect class="k" x="226" y="19" width="1" height="1"/><rect class="k" x="226" y="21" width="1" height="1"/><rect class="k" x="228" y="15" width="1" height="1"/><rect class="k" x="228" y="17" width="1" height="1"/><rect class="k" x="228" y="19" width="1" height="1"/><rect class="k" x="228" y="21" width="1" height="1"/><rect class="k" x="230" y="21" width="1" height="1"/><rect class="k" x="230" y="15" width="1" height="1"/><rect class="k" x="230" y="17" width="1" height="1"/><rect class="k" x="230" y="19" width="1" height="1"/><rect class="k" x="232" y="15" width="1" height="1"/><rect class="k" x="232" y="17" width="1" height="1"/><rect class="k" x="232" y="19" width="1" height="1"/><rect class="l" x="221" y="10" width="16" height="16"/><rect class="a" x="0.5" y="76.5" width="249" height="35"/><path class="m" d="M249,77v34H1V77H249m1-1H0v36H250V76Z"/><text class="c" transform="translate(17.002 98.88)"><tspan class="d">C</tspan><tspan class="e" x="8.215" y="0">h</tspan><tspan class="f" x="16.155" y="0">o</tspan><tspan class="g" x="24.002" y="0">o</tspan><tspan class="d" x="31.804" y="0">s</tspan><tspan x="38.02" y="0">e a </tspan><tspan class="h" x="59.297" y="0">d</tspan><tspan class="f" x="67.136" y="0">a</tspan><tspan class="i" x="74.361" y="0">t</tspan><tspan x="78.834" y="0">e</tspan></text><path class="j" d="M234.5,87H233V86h-1v1h-7V86h-1v1h-1.5a1.5,1.5,0,0,0-1.5,1.5v11a1.5,1.5,0,0,0,1.5,1.5h12a1.5,1.5,0,0,0,1.5-1.5v-11A1.5,1.5,0,0,0,234.5,87Zm0,12.5h-12V90h12Z"/><rect class="k" x="224" y="93" width="1" height="1"/><rect class="k" x="224" y="95" width="1" height="1"/><rect class="k" x="224" y="97" width="1" height="1"/><polyline class="j" points="227 92 226 92 226 91 227 91"/><rect class="k" x="226" y="93" width="1" height="1"/><rect class="k" x="226" y="95" width="1" height="1"/><rect class="k" x="226" y="97" width="1" height="1"/><rect class="k" x="228" y="91" width="1" height="1"/><rect class="k" x="228" y="93" width="1" height="1"/><rect class="k" x="228" y="95" width="1" height="1"/><rect class="k" x="228" y="97" width="1" height="1"/><rect class="k" x="230" y="97" width="1" height="1"/><rect class="k" x="230" y="91" width="1" height="1"/><rect class="k" x="230" y="93" width="1" height="1"/><rect class="k" x="230" y="95" width="1" height="1"/><rect class="k" x="232" y="91" width="1" height="1"/><rect class="k" x="232" y="93" width="1" height="1"/><rect class="k" x="232" y="95" width="1" height="1"/><rect class="l" x="221" y="86" width="16" height="16"/><text class="n" transform="translate(0 134.478)"><tspan class="o">E</tspan><tspan class="p" x="7.049" y="0">r</tspan><tspan class="q" x="12.44" y="0">r</tspan><tspan class="r" x="17.636" y="0">o</tspan><tspan x="25.435" y="0">r </tspan><tspan class="s" x="34.119" y="0">m</tspan><tspan class="d" x="46.17" y="0">e</tspan><tspan class="t" x="53.477" y="0">s</tspan><tspan class="u" x="59.739" y="0">s</tspan><tspan class="v" x="66.078" y="0">a</tspan><tspan class="w" x="73.234" y="0">g</tspan><tspan x="80.143" y="0">e</tspan></text></svg>