<svg xmlns="http://www.w3.org/2000/svg" width="696" height="310" viewBox="0 0 696 310"><defs><style>.a,.c{fill:#354052;}.a{fill-rule:evenodd;}.b{fill:none;}.d{fill:#fff;}.e{font-size:11px;fill:#464646;font-family:OpenSans, Open Sans;}</style></defs><title>i_communication</title><path class="a" d="M45,54a1,1,0,0,1-1-1,.986.986,0,0,1,.105-.447l13-26a1,1,0,0,1,1.789,0l13,26A1,1,0,0,1,71,54Zm0,2a3.009,3.009,0,0,1-2.687-4.344l13-26a3.009,3.009,0,0,1,5.375,0l13,26A3.009,3.009,0,0,1,71,56Zm13.128-3a2,2,0,1,0-2-2A2,2,0,0,0,58.128,53Zm0-19.5a10.529,10.529,0,0,0-3.243.529L57.2,47.162a2.7,2.7,0,0,1,1.844,0l2.318-13.133A10.521,10.521,0,0,0,58.128,33.5Z"/><path class="a" d="M277,52a3,3,0,0,1-3-3V31a3,3,0,0,1,3-3h26a3,3,0,0,1,3,3V49a3,3,0,0,1-3,3Zm13-10.453a2.523,2.523,0,0,1-1.8-.748l-9.946-9.945A.5.5,0,0,1,278.6,30h22.8a.5.5,0,0,1,.348.854L291.8,40.8A2.529,2.529,0,0,1,290,41.547Zm0,1.977a4.539,4.539,0,0,1-3.211-1.336l-9.941-9.941a.5.5,0,0,0-.7,0,.508.508,0,0,0-.144.359V49a1,1,0,0,0,1,1h26a1,1,0,0,0,1-1V32.606a.492.492,0,0,0-.141-.359.5.5,0,0,0-.707,0l-9.939,9.941A4.538,4.538,0,0,1,290,43.523Z"/><rect class="b" x="274" y="24" width="32" height="32"/><path class="a" d="M392,26V54h28V32l-6-6Zm2,2V52h24V34h-6V28Zm4,16h12v2H398Zm0-4h16v2H398Zm0-4h16v2H398Z"/><rect class="b" x="390" y="24" width="32" height="32"/><path class="c" d="M48.827,221.462a2.472,2.472,0,0,1,.9.175c1.6.607,2.956,3.006,3.264,4.174a2.132,2.132,0,0,1-.571,2.048c-.349.348-.69.509-1.779.548l-2.464.081.086,2.462c.087,2.462,1.63,5.015,5.157,8.536,3.543,3.546,6.112,5.1,8.6,5.214l2.485.111.086-2.486c.042-1.166.241-1.457.542-1.755a2.21,2.21,0,0,1,1.53-.645,2.07,2.07,0,0,1,.52.067c1.17.308,3.563,1.656,4.175,3.265.551,1.438-.156,2.471-1.957,4.261l-.186.189a18.206,18.206,0,0,1-5.206.817c-4.442,0-8.717-2.118-13.074-6.471-5.983-5.979-7.676-11.444-5.655-18.267l.011-.01.2-.2c1.227-1.235,2.186-2.112,3.34-2.112m0-2.462c-2.27,0-3.834,1.574-5.091,2.839l-.207.214-.433.433-.178.592c-2.284,7.711-.35,14.1,6.269,20.723,4.847,4.843,9.692,7.192,14.817,7.192a20.605,20.605,0,0,0,5.906-.921l.589-.175.435-.431.21-.212c1.483-1.469,3.721-3.693,2.51-6.867-1.034-2.717-4.39-4.385-5.86-4.769a4.289,4.289,0,0,0-1.136-.151,4.673,4.673,0,0,0-3.269,1.358,4.581,4.581,0,0,0-1.27,3.418c-1.784-.079-3.947-1.481-6.966-4.5-3.437-3.436-4.379-5.439-4.433-6.88a4.522,4.522,0,0,0,4.656-5.682c-.392-1.465-2.065-4.822-4.776-5.852A4.942,4.942,0,0,0,48.827,219Z"/><rect class="b" x="42" y="219" width="32" height="32"/><rect class="c" x="164" y="219" width="20" height="32" rx="4" ry="4"/><rect class="d" x="166" y="223" width="16" height="22"/><circle class="d" cx="174" cy="248" r="1"/><rect class="b" x="158" y="219" width="32" height="32"/><path class="c" d="M185,32a4.976,4.976,0,0,0-1.767.339,11.909,11.909,0,0,0-12.015-4,4.99,4.99,0,1,0-7.841,6.091,11.941,11.941,0,0,0,.989,12.705,4.988,4.988,0,0,0,8.652,4.816c.324.025.649.049.98.049a12,12,0,0,0,11.836-10.084A4.993,4.993,0,0,0,185,32Zm-20.8-1a2.8,2.8,0,0,1,5.6,0c0,.064-.016.125-.019.189A2.793,2.793,0,0,1,167,33.8a3.073,3.073,0,0,1-.492-.048A2.814,2.814,0,0,1,164.2,31ZM169,51.8a2.8,2.8,0,0,1-2.789-2.684c0-.039-.012-.076-.012-.117a2.779,2.779,0,1,1,2.8,2.8Zm5-2c-.027,0-.053-.008-.08-.008A5.163,5.163,0,0,0,174,49a4.975,4.975,0,0,0-8.258-3.764,9.565,9.565,0,0,1-.492-9.568A4.965,4.965,0,0,0,172,31a4.89,4.89,0,0,0-.058-.576,9.65,9.65,0,0,1,9.416,3.168,4.965,4.965,0,0,0,2.263,8.191A9.791,9.791,0,0,1,174,49.8Zm11.981-10.187a2.676,2.676,0,0,1-2.231-.121A2.794,2.794,0,0,1,182.2,37a2.765,2.765,0,0,1,.452-1.514,2.793,2.793,0,0,1,1.88-1.24A2.843,2.843,0,0,1,185,34.2a2.795,2.795,0,0,1,.981,5.414Z"/><rect class="b" x="158" y="24" width="32" height="32"/><path class="c" d="M628,85.6a4.7,4.7,0,0,1,1.6-4l7.6-7.6c1.2-1.2,2-2,2.8-2h2.4c.8,0,1.6.8,1.6,2.4a11.556,11.556,0,0,1-1.066,4,11.45,11.45,0,0,0-.534,3.2c0,.8,0,1.4,1.6,1.4h7.2c1.6,0,3.845,1.834,2.268,5.533-.994,2.338-5.127,11.666-5.532,12.533S646.4,104,644,104H630.4a2.555,2.555,0,0,1-2.4-2.4Z"/><rect class="c" x="622" y="86" width="4" height="16"/><rect class="b" x="622" y="72" width="32" height="32"/><path class="c" d="M641.961,26a2.009,2.009,0,0,1,.036.4,7.682,7.682,0,0,1-.7,2.663c-.1.242-.184.465-.254.664A13.358,13.358,0,0,0,640.4,33.6c0,2.256,1.211,3.4,3.6,3.4h7.2a.844.844,0,0,1,.6.4,2.666,2.666,0,0,1-.174,2.355c-1.025,2.412-5.145,11.7-5.507,12.476C645.571,53.4,644.858,54,644,54h-13.54c-.1-.031-.458-.189-.458-.4v-16a2.81,2.81,0,0,1,1.014-2.586l7.61-7.613a13.319,13.319,0,0,1,1.528-1.4h1.81m.435-2H640c-.8,0-1.6.8-2.8,2l-7.6,7.6a4.7,4.7,0,0,0-1.6,4v16a2.555,2.555,0,0,0,2.4,2.4H644c2.4,0,3.532-2.066,3.934-2.934s4.538-10.2,5.532-12.533c1.577-3.7-.669-5.533-2.268-5.533H644c-1.6,0-1.6-.6-1.6-1.4a11.45,11.45,0,0,1,.534-3.2,11.555,11.555,0,0,0,1.066-4c0-1.6-.8-2.4-1.6-2.4Z"/><rect class="c" x="622" y="38" width="4" height="16"/><rect class="b" x="622" y="24" width="32" height="32"/><path class="a" d="M529,30.69a6.008,6.008,0,0,0-6,6v5a1,1,0,0,0,1,1h5a1,1,0,0,0,1-1v-5a1,1,0,0,0-1-1H527.27a2,2,0,0,1,1.731-1,1,1,0,0,0,1-1v-2A1,1,0,0,0,529,30.69Zm-9,0a6.008,6.008,0,0,0-6,6v5a1,1,0,0,0,1,1h5a1,1,0,0,0,1-1v-5a1,1,0,0,0-1-1H518.27a2,2,0,0,1,1.731-1,1,1,0,0,0,1-1v-2A1,1,0,0,0,520,30.69Z"/><path class="a" d="M510,24a4,4,0,0,0-4,4V46a4,4,0,0,0,4,4h4v6l6-6h14a4,4,0,0,0,4-4V28a4,4,0,0,0-4-4Zm24,2a2,2,0,0,1,2,2V46a2,2,0,0,1-2,2H519l-3,3V48h-6a2,2,0,0,1-2-2V28a2,2,0,0,1,2-2Z"/><rect class="b" x="506" y="24" width="32" height="32"/><path class="a" d="M534,70H510a4,4,0,0,0-4,4V92a4,4,0,0,0,4,4h4v6l6-6h14a4,4,0,0,0,4-4V74A4,4,0,0,0,534,70ZM521,79.69a1,1,0,0,1-1,1,2,2,0,0,0-1.731,1H520a1,1,0,0,1,1,1v5a1,1,0,0,1-1,1h-5a1,1,0,0,1-1-1v-5a6.008,6.008,0,0,1,6-6,1,1,0,0,1,1,1Zm9,0a1,1,0,0,1-1,1,2,2,0,0,0-1.731,1H529a1,1,0,0,1,1,1v5a1,1,0,0,1-1,1h-5a1,1,0,0,1-1-1v-5a6.008,6.008,0,0,1,6-6,1,1,0,0,1,1,1Z"/><rect class="b" x="506" y="70" width="32" height="32"/><rect class="c" x="286" y="221" width="6" height="20"/><rect class="c" x="286" y="245" width="6" height="6"/><rect class="b" x="274" y="219" width="32" height="32"/><polygon class="c" points="414.464 225 402.16 237.304 397.856 233 394.322 236.536 398.624 240.84 402.16 244.376 405.696 240.84 418 228.536 414.464 225"/><rect class="b" x="390" y="219" width="32" height="32"/><text class="e" transform="translate(37.231 135.427)">warning</text><text class="e" transform="translate(275.937 135.427)">email</text><text class="e" transform="translate(391.631 135.427)">notes</text><text class="e" transform="translate(41.445 282.143)">phone</text><text class="e" transform="translate(137.276 282.143)">phone_mobile</text><text class="e" transform="translate(253.856 282.143)">toast_warning</text><text class="e" transform="translate(377.451 282.143)">toast_done</text><text class="e" transform="translate(159.589 135.427)">share</text><text class="e" transform="translate(629.232 135.427)">like</text><text class="e" transform="translate(497.389 135.427)">comment</text><rect class="b" width="696" height="310"/></svg>