<svg xmlns="http://www.w3.org/2000/svg" width="696" height="556" viewBox="0 0 696 556"><defs><style>.a,.c{fill:none;}.a{stroke:#dedede;stroke-miterlimit:3.864;stroke-width:0.2px;}.b,.d{fill:#354052;}.b{fill-rule:evenodd;}.e{font-size:11px;fill:#464646;font-family:OpenSans, Open Sans;}</style></defs><title>i_toolbar</title><circle class="a" cx="48" cy="344" r="6"/><path class="b" d="M54,334l-3.568,3.566a1.692,1.692,0,0,1-1.439.517A5.827,5.827,0,0,0,48,338a5.993,5.993,0,1,0,5.576,3.779A1.644,1.644,0,0,1,54,340l3-3,10,10c1.594,1.594,5,2.75,7,1L60,334l14-14c-2-1.75-5.406-.594-7,1L57,331l-3-3a1.644,1.644,0,0,1-.424-1.779,5.989,5.989,0,1,0-4.584,3.7,1.685,1.685,0,0,1,1.439.515Zm-6-14a4,4,0,1,1-4,4A4,4,0,0,1,48,320Zm0,20a4,4,0,1,1-4,4A4,4,0,0,1,48,340Z"/><rect class="c" x="42" y="318" width="32" height="32"/><path class="b" d="M301,323a3,3,0,0,1,3,3v21a3,3,0,0,1-3,3H279a3,3,0,0,1-3-3V326a3,3,0,0,1,3-3v24h22Z"/><path class="b" d="M286,322a4,4,0,0,1,8,0h2a3,3,0,0,1,3,3v3H281v-3a3,3,0,0,1,3-3Zm4-2a2,2,0,1,0,2,2A2,2,0,0,0,290,320Z"/><rect class="c" x="274" y="318" width="32" height="32"/><path class="b" d="M394,187v12a4,4,0,0,0,4,4h16a4,4,0,0,0,4-4V187a4,4,0,0,0-4-4v-4a8,8,0,0,0-16,0v4A4,4,0,0,0,394,187Zm10,8a2,2,0,0,0,2,2h0a2,2,0,0,0,2-2v-4a2,2,0,0,0-2-2h0a2,2,0,0,0-2,2Zm-6,5a1,1,0,0,1-1-1V187a1,1,0,0,1,1-1h16a1,1,0,0,1,1,1v12a1,1,0,0,1-1,1Zm3-21a5,5,0,0,1,10,0v4H401Z"/><rect class="c" x="390" y="171" width="32" height="32"/><path class="b" d="M516,191a2,2,0,0,1,2-2h0a2,2,0,0,1,2,2v4a2,2,0,0,1-2,2h0a2,2,0,0,1-2-2Zm-6,9a1,1,0,0,1-1-1V187a1,1,0,0,1,1-1h16a1,1,0,0,1,1,1v12a1,1,0,0,1-1,1Zm25-14v-7a5,5,0,0,0-10,0v4h1a4,4,0,0,1,4,4v12a4,4,0,0,1-4,4H510a4,4,0,0,1-4-4V187a4,4,0,0,1,4-4h12v-4a8,8,0,0,1,16,0v7Z"/><rect class="c" x="506" y="171" width="32" height="32"/><path class="b" d="M393,341.006a6.989,6.989,0,0,0,6.99-6.99,10.984,10.984,0,0,1,10.984-10.984h4.039l-2.042-2.039,2.5-2.5L422,325.028l-6.536,6.533-2.5-2.5,2.042-2.04h-4.039a6.99,6.99,0,0,0-6.99,6.99A10.984,10.984,0,0,1,393,345h-3v-3.994Zm4.9-11.989a13.911,13.911,0,0,1,1.989-3.555l.018-.019A10.953,10.953,0,0,0,393,323h-3v3.994h3a6.97,6.97,0,0,1,4.913,2.017Zm6.159,13.5a10.934,10.934,0,0,0,6.912,2.448h4.039l-2.042,2.038,2.5,2.5L422,342.972l-6.536-6.534-2.5,2.5,2.042,2.04h-4.039a6.973,6.973,0,0,1-4.907-2.012v0a13.937,13.937,0,0,1-1.985,3.539Z"/><rect class="c" x="390" y="318" width="32" height="32"/><path class="b" d="M166,322v28h22V328l-6-6Zm2,2v24h18V330h-6v-6Zm10-4H164v24h-2V318h16Z"/><rect class="c" x="158" y="318" width="32" height="32"/><path class="b" d="M402,487h-8v-8h8Zm-2-6h-4v4h4Z"/><path class="b" d="M402,497h-8v-8h8Zm-2-6h-4v4h4Z"/><polygon class="b" points="391.475 471.736 394.128 469.086 396.738 471.695 403.35 465.086 406 467.736 396.738 477 391.475 471.736"/><rect class="d" x="404" y="491" width="14" height="4"/><rect class="d" x="404" y="481" width="14" height="4"/><rect class="d" x="404" y="471" width="14" height="4"/><rect class="c" x="390" y="465" width="32" height="32"/><path class="b" d="M526,474.962A4,4,0,1,1,521.961,471,4,4,0,0,1,526,474.962Z"/><path class="b" d="M520,484.963A4,4,0,1,1,515.964,481,4,4,0,0,1,520,484.963Z"/><circle class="d" cx="528" cy="485.001" r="4" transform="translate(-4.595 5.051) rotate(-0.546)"/><path class="b" d="M524.087,465.139a16.02,16.02,0,0,0-4.176,0l.26,1.983a14.143,14.143,0,0,1,3.656,0Z"/><path class="b" d="M515.879,466.22a15.9,15.9,0,0,0-3.62,2.085l1.218,1.587a13.959,13.959,0,0,1,3.166-1.823Z"/><path class="b" d="M509.214,471.384a16.029,16.029,0,0,0-2.057,3.635l1.856.748a14.105,14.105,0,0,1,1.8-3.181Z"/><path class="b" d="M506.119,479.065a15.953,15.953,0,0,0,.037,4.176l1.979-.278a14.026,14.026,0,0,1-.031-3.655Z"/><path class="b" d="M507.278,487.264a15.926,15.926,0,0,0,2.121,3.6l1.578-1.233a14.088,14.088,0,0,1-1.859-3.151Z"/><path class="b" d="M512.382,493.785a16.1,16.1,0,0,0,3.636,2.057l.75-1.853a14.137,14.137,0,0,1-3.182-1.8Z"/><path class="b" d="M520.063,496.881a15.959,15.959,0,0,0,4.176-.037l-.279-1.979a14.124,14.124,0,0,1-3.656.032Z"/><path class="b" d="M528.265,495.721a15.992,15.992,0,0,0,3.595-2.119l-1.231-1.573a14.115,14.115,0,0,1-3.148,1.854Z"/><path class="b" d="M534.784,490.617a16.016,16.016,0,0,0,2.057-3.636l-1.853-.748a14.2,14.2,0,0,1-1.8,3.185Z"/><path class="b" d="M537.879,482.938a15.8,15.8,0,0,0-.037-4.178l-1.979.277a13.96,13.96,0,0,1,.033,3.658Z"/><path class="b" d="M536.723,474.735a15.993,15.993,0,0,0-2.125-3.6l-1.576,1.231a13.879,13.879,0,0,1,1.859,3.149Z"/><path class="b" d="M531.735,468.309a15.924,15.924,0,0,0-3.607-2.091l-.772,1.847a13.965,13.965,0,0,1,3.166,1.827Z"/><rect class="c" x="506" y="465" width="32" height="32"/><path class="d" d="M60.172,471l3.414,3.414.586.586H70v16H46V475h5.828l.586-.586L55.828,471h4.343M61,469H55l-4,4H44v20H72V473H65l-4-4Z"/><path class="d" d="M58,478a5,5,0,1,1-5,5,5.006,5.006,0,0,1,5-5m0-2a7,7,0,1,0,7,7,7,7,0,0,0-7-7Z"/><rect class="d" x="44" y="469" width="6" height="2"/><rect class="c" x="42" y="465" width="32" height="32"/><polygon class="b" points="274 467 281 467 285 483 302 483 302 487 282 487 278 471 274 471 274 467"/><polygon class="b" points="284.75 471 287 481 302 481 305.75 471 284.75 471"/><circle class="d" cx="286" cy="493" r="4"/><circle class="d" cx="300" cy="493" r="4"/><rect class="c" x="274" y="465" width="32" height="32"/><path class="d" d="M514,350v-2h4a2.151,2.151,0,0,0,2-2V321h-8a2.224,2.224,0,0,0-2,2v3h-2v-8h28v8h-2v-3a2.218,2.218,0,0,0-2-2h-8v25a2.151,2.151,0,0,0,2,2h4v2Z"/><rect class="c" x="506" y="318" width="32" height="32"/><path class="b" d="M42,48h2v6H72V48h2v8H42ZM60,26H56V44.043L51.96,40l-2.5,2.5L58,51.043,66.544,42.5l-2.5-2.5L60,44.043Z"/><rect class="c" x="42" y="24" width="32" height="32"/><path class="b" d="M288.938,188.061a4.5,4.5,0,0,1,0-6.363l6.011-6.01a4.5,4.5,0,1,1,6.364,6.363l-3.539,3.541a7.036,7.036,0,0,1,.4,3.85l5.265-5.269a7.5,7.5,0,1,0-10.607-10.607l-6.009,6.01a7.5,7.5,0,0,0,0,10.607,1.5,1.5,0,0,0,2.119-2.121Zm2.123-2.121a4.5,4.5,0,0,1,0,6.363l-6.01,6.01a4.5,4.5,0,1,1-6.364-6.363l3.54-3.541a6.991,6.991,0,0,1-.391-3.85l-5.271,5.269a7.5,7.5,0,0,0,10.607,10.607l6.01-6.01a7.5,7.5,0,0,0,0-10.607,1.5,1.5,0,1,0-2.121,2.121Z"/><rect class="c" x="274" y="171" width="32" height="32"/><path class="b" d="M158,48h2v6h28V48h2v8H158Zm14,4h4V33l4.044,4.043,2.5-2.5L174,26l-8.54,8.543,2.5,2.5L172,33Z"/><rect class="c" x="158" y="24" width="32" height="32"/><path class="b" d="M69.5,187a11.5,11.5,0,1,1-2.369-6.992L60,180v3H72V171H69v6.553A14.5,14.5,0,1,0,72.5,187Z"/><rect class="c" x="42" y="171" width="32" height="32"/><path class="b" d="M512,32V26h20v6h6V46h-6v3l-5,5H512V46h-6V32Zm18-4H514v4h16ZM514,52h12V48h4V42H514Zm14-8H516v2h12Zm-4,4h-8v2h8Z"/><rect class="c" x="506" y="24" width="32" height="32"/><path class="b" d="M288,32V26h6v6Zm16-1V51a3,3,0,0,1-3,3H279a3,3,0,0,1-3-3V29a3,3,0,0,1,3-3h3v9a1,1,0,0,0,1,1h12a1,1,0,0,0,1-1V26h3Zm-6,12a1,1,0,0,0-1-1H283.031A1.029,1.029,0,0,0,282,43v9h16Z"/><rect class="c" x="274" y="24" width="32" height="32"/><rect class="d" x="162" y="173" width="3" height="14"/><path class="b" d="M168.794,197.708a11.249,11.249,0,1,0,7.949-19.208h-3l4.267-4.267-2.121-2.122L168,180l7.889,7.889,2.121-2.122-4.267-4.267h3a8.25,8.25,0,1,1-5.84,14.079Z"/><rect class="c" x="158" y="171" width="32" height="32"/><path class="b" d="M394,34V30a2,2,0,0,1,2-2h2V26a2,2,0,0,1,2-2h12a2,2,0,0,1,2,2v2h2a2,2,0,0,1,2,2v4h-2V54a2,2,0,0,1-2,2H398a2,2,0,0,1-2-2V34Zm16,18h4V34h-4Zm-12,0h4V34h-4Zm6,0h4V34h-4Zm8-26H400v2h12Z"/><rect class="c" x="390" y="24" width="32" height="32"/><path class="b" d="M185,467h-3v-2h-2v2H166v-2h-2v2h-3a3,3,0,0,0-3,3v22a3,3,0,0,0,3,3h24a3,3,0,0,0,3-3V470A3,3,0,0,0,185,467Zm0,25H161V473h24Z"/><rect class="d" x="164" y="479" width="2" height="2"/><rect class="d" x="164" y="483" width="2" height="2"/><rect class="d" x="164" y="487" width="2" height="2"/><polyline class="b" points="170 477 168 477 168 475 170 475"/><rect class="d" x="168" y="479" width="2" height="2"/><rect class="d" x="168" y="483" width="2" height="2"/><rect class="d" x="168" y="487" width="2" height="2"/><rect class="d" x="172" y="475" width="2" height="2"/><rect class="d" x="172" y="479" width="2" height="2"/><rect class="d" x="172" y="483" width="2" height="2"/><rect class="d" x="172" y="487" width="2" height="2"/><rect class="d" x="176" y="487" width="2" height="2"/><rect class="d" x="176" y="475" width="2" height="2"/><rect class="d" x="176" y="479" width="2" height="2"/><rect class="d" x="176" y="483" width="2" height="2"/><rect class="d" x="180" y="475" width="2" height="2"/><rect class="d" x="180" y="479" width="2" height="2"/><rect class="d" x="180" y="483" width="2" height="2"/><rect class="c" x="158" y="465" width="32" height="32"/><text class="e" transform="translate(50.053 384.71)">cut</text><text class="e" transform="translate(275.899 384.71)">paste</text><text class="e" transform="translate(395.766 236.71)">lock</text><text class="e" transform="translate(492.303 236.71)">lock_unlock</text><text class="e" transform="translate(389.43 384.71)">merge</text><text class="e" transform="translate(161.9 384.71)">copy</text><text class="e" transform="translate(611.893 89.426)">reposition</text><text class="e" transform="translate(380.503 530.71)">selections</text><text class="e" transform="translate(608.443 236.71)">attachment</text><text class="e" transform="translate(280.121 530.71)">cart</text><text class="e" transform="translate(38.788 530.71)">camera</text><text class="e" transform="translate(506.651 530.71)">group</text><text class="e" transform="translate(499.675 384.71)">text_tool</text><text class="e" transform="translate(596.723 384.71)">template_adjust</text><text class="e" transform="translate(32.474 89.426)">download</text><text class="e" transform="translate(156.085 89.426)">upload</text><text class="e" transform="translate(39.449 236.71)">refresh</text><text class="e" transform="translate(509.658 89.426)">print</text><text class="e" transform="translate(278.459 89.426)">save</text><text class="e" transform="translate(280.942 236.71)">link</text><text class="e" transform="translate(392.736 89.426)">trash</text><text class="e" transform="translate(160.999 236.71)">reset</text><text class="e" transform="translate(151.764 530.71)">calendar</text><rect class="c" width="696" height="556"/><polygon class="b" points="636 29.5 633.978 31.521 632.228 29.771 638 24 643.772 29.771 642.022 31.521 640 29.5 640 38 648.5 38 646.478 35.979 648.228 34.229 654 40 648.228 45.771 646.478 44.021 648.5 42 640 42 640 50.5 642.022 48.479 643.772 50.229 638 56 632.228 50.229 633.978 48.479 636 50.5 636 42 627.5 42 629.522 44.021 627.772 45.771 622 40 627.772 34.229 629.522 35.979 627.5 38 636 38 636 29.5"/><rect class="c" x="622" y="24" width="32" height="32"/><rect class="d" x="624" y="339" width="4" height="2"/><rect class="d" x="624" y="349" width="4" height="2"/><rect class="d" x="630" y="339" width="4" height="2"/><rect class="d" x="630" y="349" width="4" height="2"/><rect class="d" x="636" y="339" width="4" height="2"/><rect class="d" x="636" y="349" width="4" height="2"/><rect class="d" x="624" y="343" width="2" height="4"/><rect class="d" x="638" y="343" width="2" height="4"/><rect class="d" x="642" y="339" width="4" height="2"/><rect class="d" x="642" y="349" width="4" height="2"/><rect class="d" x="648" y="339" width="4" height="2"/><rect class="d" x="648" y="349" width="4" height="2"/><rect class="d" x="642" y="343" width="2" height="4"/><rect class="d" x="650" y="343" width="2" height="4"/><rect class="d" x="624" y="325" width="4" height="2"/><rect class="d" x="624" y="335" width="4" height="2"/><rect class="d" x="630" y="325" width="4" height="2"/><rect class="d" x="630" y="335" width="4" height="2"/><rect class="d" x="636" y="325" width="4" height="2"/><rect class="d" x="636" y="335" width="4" height="2"/><rect class="d" x="624" y="329" width="2" height="4"/><rect class="d" x="638" y="329" width="2" height="4"/><rect class="d" x="642" y="325" width="4" height="2"/><rect class="d" x="642" y="335" width="4" height="2"/><rect class="d" x="648" y="325" width="4" height="2"/><rect class="d" x="648" y="335" width="4" height="2"/><rect class="d" x="642" y="329" width="2" height="4"/><rect class="d" x="650" y="329" width="2" height="4"/><rect class="d" x="624" y="319" width="28" height="4"/><rect class="c" x="622" y="319" width="32" height="32"/><path class="b" d="M647,194a9,9,0,0,1-18,0V178a7,7,0,0,1,14,0v12a5,5,0,0,1-10,0v-9a1,1,0,0,1,2,0v9a3,3,0,0,0,6,0V178a5,5,0,0,0-10,0v16a7,7,0,0,0,14,0V181a1,1,0,0,1,2,0Z"/><rect class="c" x="622" y="171" width="32" height="32"/></svg>