<svg xmlns="http://www.w3.org/2000/svg" width="696" height="408" viewBox="0 0 696 408"><defs><style>.a{fill:none;}.b{fill:#354052;fill-rule:evenodd;}.c{font-size:11px;fill:#464646;font-family:OpenSans, Open Sans;}</style></defs><title>i_ui_component_controls</title><rect class="a" width="696" height="408"/><polygon class="b" points="70 36 68.061 34.06 58 44.121 48 34 46 36 58 48 70 36"/><rect class="a" x="42" y="24" width="32" height="32"/><polygon class="b" points="302 36 300.06 34.06 290 44.121 280 34 278 36 290 48 302 36"/><rect class="a" x="274" y="24" width="32" height="32"/><polygon class="b" points="418.029 44 416.089 45.94 406.029 35.879 396.029 46 394.029 44 406.029 32 418.029 44"/><rect class="a" x="390.029" y="24" width="32" height="32"/><polygon class="b" points="170 28 168.061 29.94 178.12 40 168 50 170 52 182 40 170 28"/><rect class="a" x="158" y="24" width="32" height="32"/><path class="b" d="M538,40a16,16,0,1,1-16-16A16,16,0,0,1,538,40ZM522,26a14,14,0,1,0,14,14A14,14,0,0,0,522,26Zm2.761,14-8.523-8.5,2.5-2.5,11.019,11L518.742,51l-2.5-2.5,8.514-8.49Z"/><rect class="a" x="506" y="24" width="32" height="32"/><path class="b" d="M638,24a16,16,0,1,1-16,16A16,16,0,0,1,638,24ZM624,40a14,14,0,1,0,14-14A14,14,0,0,0,624,40Zm11.25.01,8.511,8.49-2.5,2.5L630.238,40l11.019-11,2.5,2.5L635.238,40Z"/><rect class="a" x="622" y="24" width="32" height="32"/><path class="b" d="M304,187a14,14,0,1,1-14-14A14,14,0,0,1,304,187Zm-14-12a12,12,0,1,0,12,12A12,12,0,0,0,290,175Z"/><rect class="a" x="274" y="171" width="32" height="32"/><path class="b" d="M420,187a14,14,0,1,1-14-14A14,14,0,0,1,420,187Zm-14-12a12,12,0,1,0,12,12A12,12,0,0,0,406,175Zm7,12a7,7,0,1,1-7-7A7,7,0,0,1,413,187Z"/><rect class="a" x="390" y="171" width="32" height="32"/><path class="b" d="M72,201H44V173H72Zm-2-26H46v24H70Z"/><rect class="a" x="42" y="171" width="32" height="32"/><path class="b" d="M188,201H160V173h28Zm-16.852-6.06L184,182.086l-3.026-3.025-9.826,9.824-4.121-4.119L164,187.791ZM186,175H162v24h24Z"/><rect class="a" x="158" y="171" width="32" height="32"/><path class="b" d="M188,334a14,14,0,1,1-14-14A14,14,0,0,1,188,334Zm-16.852,9L184,330.147l-3.026-3.025-9.826,9.824-4.121-4.119L164,335.852Z"/><rect class="a" x="158" y="318" width="32" height="32"/><path class="b" d="M72,334a14,14,0,1,1-14-14A14,14,0,0,1,72,334ZM58,322a12,12,0,1,0,12,12A12,12,0,0,0,58,322Z"/><rect class="a" x="42" y="318" width="32" height="32"/><path class="b" d="M303.855,342A16,16,0,0,0,290,318v4a12,12,0,0,1,10.392,18Z"/><rect class="a" x="274" y="318" width="32" height="32"/><polygon class="b" points="536 188.5 513.742 188.5 522.092 196.85 519.97 198.971 508 187 519.97 175.029 522.092 177.15 513.742 185.5 536 185.5 536 188.5"/><rect class="a" x="506" y="171" width="32" height="32"/><rect class="a" x="506" y="171" width="32" height="32"/><polygon class="b" points="624 188.5 646.257 188.5 637.908 196.85 640.029 198.971 652 187 640.029 175.029 637.908 177.15 646.257 185.5 624 185.5 624 188.5"/><rect class="a" x="622" y="171" width="32" height="32"/><rect class="a" x="622" y="171" width="32" height="32"/><text class="c" transform="translate(31.985 87)">tree_open</text><text class="c" transform="translate(148.088 87)">tree_close</text><text class="c" transform="translate(248.979 87)">accordion_open</text><text class="c" transform="translate(365.112 87)">accordion_close</text><text class="c" transform="translate(477.366 87)">carousel_forward</text><text class="c" transform="translate(601.827 87)">carousel_back</text><text class="c" transform="translate(3.504 234)">checkbox_unchecked</text><text class="c" transform="translate(24.845 381)">wizard_to-do</text><text class="c" transform="translate(126.265 234)">checkbox_checked</text><text class="c" transform="translate(246.129 234)">radio_unselected</text><text class="c" transform="translate(368.891 234)">radio_selected</text><text class="c" transform="translate(127.249 381)">wizard_completed</text><text class="c" transform="translate(255.285 381)">throbber_line</text><text class="c" transform="translate(510.048 234)">back</text><text class="c" transform="translate(617.587 234)">forward</text></svg>