<svg xmlns="http://www.w3.org/2000/svg" width="696" height="358" viewBox="0 0 696 358"><defs><style>.a,.c{fill:#354052;}.a{fill-rule:evenodd;}.b{fill:none;}.d{font-size:11px;fill:#464646;font-family:OpenSans, Open Sans;}</style></defs><title>i_view_controls</title><path class="a" d="M274,235a16,16,0,1,1,16,16A16,16,0,0,1,274,235Zm3,0a13,13,0,1,1,13,13A13,13,0,0,1,277,235Z"/><path class="a" d="M288,235a1.986,1.986,0,0,0,.586,1.414l4.242,4.242a2,2,0,1,0,2.829-2.828L292,234.173V227a2,2,0,0,0-4,0Z"/><rect class="b" x="506" y="219" width="32" height="32"/><path class="c" d="M406,232a3,3,0,1,1-3,3,3,3,0,0,1,3-3m0-3a6,6,0,1,0,6,6,6,6,0,0,0-6-6Z"/><path class="a" d="M404,221a2,2,0,0,1,4,0v4a2,2,0,1,1-4,0Z"/><path class="a" d="M404,245a2,2,0,0,1,4,0v4a2,2,0,1,1-4,0Z"/><path class="a" d="M416,237a2,2,0,0,1,0-4h4a2,2,0,1,1,0,4Z"/><path class="a" d="M392,237a2,2,0,0,1,0-4h4a2,2,0,1,1,0,4Z"/><path class="a" d="M394.685,226.514a2,2,0,1,1,2.828-2.828l2.828,2.828a2,2,0,1,1-2.828,2.828Z"/><path class="a" d="M411.657,243.484a2,2,0,0,1,2.827-2.828l2.828,2.828a2,2,0,0,1-2.828,2.828Z"/><path class="a" d="M414.484,229.344a2,2,0,0,1-2.827-2.828l2.827-2.832a2,2,0,0,1,2.828,2.828Z"/><path class="a" d="M397.511,246.313a2,2,0,0,1-2.828-2.828l2.832-2.828a2,2,0,0,1,2.828,2.828Z"/><rect class="b" x="390" y="219" width="32" height="32"/><rect class="b" x="274" y="24" width="32" height="32"/><rect class="c" x="274" y="36" width="6" height="6"/><rect class="c" x="274" y="26" width="6" height="6"/><polygon class="c" points="296 26 292.669 26 284 26 284 32 292.669 32 296 32 306 32 306 26 296 26"/><polygon class="c" points="296 36 292.669 36 284 36 284 42 292.669 42 296 42 306 42 306 36 296 36"/><polygon class="c" points="296 46 292.669 46 284 46 284 52 292.669 52 296 52 306 52 306 46 296 46"/><rect class="c" x="274" y="46" width="6" height="6"/><rect class="b" x="274" y="24" width="32" height="32"/><rect class="c" x="392" y="26" width="12" height="12"/><rect class="c" x="408" y="26" width="12" height="12"/><rect class="c" x="392" y="42" width="12" height="12"/><rect class="c" x="408" y="42" width="12" height="12"/><rect class="b" x="390" y="24" width="32" height="32"/><polygon class="c" points="534 44 534 49.172 528.828 44 526 44 526 46.828 531.172 52 526 52 526 56 538 56 538 44 534 44"/><polygon class="c" points="518 52 512.828 52 518 46.828 518 44 515.172 44 510 49.172 510 44 506 44 506 56 518 56 518 52"/><polygon class="c" points="534 36 534 30.828 528.828 36 526 36 526 33.172 531.172 28 526 28 526 24 538 24 538 36 534 36"/><polygon class="c" points="518 28 512.828 28 518 33.172 518 36 515.172 36 510 30.828 510 36 506 36 506 24 518 24 518 28"/><rect class="b" x="506" y="24" width="32" height="32"/><polygon class="c" points="622 32 627.171 32 622 26.828 622 24 624.828 24 630 29.172 630 24 634 24 634 36 622 36 622 32"/><polygon class="c" points="630 56 630 50.828 624.828 56 622 56 622 53.172 627.171 48 622 48 622 44 634 44 634 56 630 56"/><polygon class="c" points="654 32 648.828 32 654 26.828 654 24 651.171 24 646 29.172 646 24 642 24 642 36 654 36 654 32"/><polygon class="c" points="646 56 646 50.828 651.171 56 654 56 654 53.172 648.828 48 654 48 654 44 642 44 642 56 646 56"/><rect class="b" x="622" y="24" width="32" height="32"/><path class="c" d="M174,225.035l2.233,6.356.449,1.279,1.354.056,6.682.277-5.333,4.422-.988.819.333,1.239,1.8,6.717-5.384-3.778L174,241.615l-1.149.806-5.383,3.778,1.8-6.716.333-1.239-.987-.819L163.282,233l6.679-.277,1.354-.056.45-1.279L174,225.035M174,219l-4.119,11.729L158,231.221l9.336,7.744L164.106,251,174,244.059,183.888,251l-3.228-12.035,9.34-7.744-11.883-.492L174,219Z"/><polygon class="c" points="173.997 267 178.117 278.729 190 279.221 180.66 286.965 183.888 299 173.997 292.059 164.107 299 167.336 286.965 158 279.221 169.878 278.729 173.997 267"/><path class="a" d="M64,40a6,6,0,1,1-6-6,6.126,6.126,0,0,1,1.155.111,3.992,3.992,0,1,0,4.75,4.82A6.005,6.005,0,0,1,64,40ZM58,51.77c7.866,0,14.483-5.418,16-11.769-1.517-6.352-8.134-11.769-16-11.769S43.515,33.648,42,40C43.515,46.352,50.132,51.77,58,51.77Zm0-2c5.7,0,12.483-3.418,14-9.769-1.517-6.352-8.3-9.769-14-9.769S45.515,33.648,44,40C45.515,46.352,52.3,49.77,58,49.77Z"/><rect class="b" x="42" y="24" width="32" height="32"/><path class="a" d="M64,88a6,6,0,1,1-6-6,6.126,6.126,0,0,1,1.155.111,3.992,3.992,0,1,0,4.75,4.82A6.005,6.005,0,0,1,64,88ZM58,99.77c7.866,0,14.483-5.418,16-11.769-1.517-6.352-8.134-11.769-16-11.769S43.515,81.648,42,88C43.515,94.352,50.132,99.77,58,99.77Z"/><rect class="b" x="42" y="72" width="32" height="32"/><path class="a" d="M180.94,55.906l2.6-1.5-5.672-9.824a6.022,6.022,0,0,0,2.032-5.65,3.982,3.982,0,0,1-3.527,3.053l-3.638-6.291a4.013,4.013,0,0,1,2.415-1.582A6.122,6.122,0,0,0,173.991,34a5.979,5.979,0,0,0-2.035.355l-5.919-10.26-2.6,1.5,2.647,4.577A15.505,15.505,0,0,0,158,40c1.515,6.352,8.132,11.77,16,11.77a17.1,17.1,0,0,0,4.241-.535Zm-5.784-10.019a6.1,6.1,0,0,1-1.164.112,6,6,0,0,1-4.516-9.949l-2.432-4.213A12.406,12.406,0,0,0,160,40c1.515,6.352,8.3,9.77,14,9.77a15.613,15.613,0,0,0,3.2-.342Zm8.572,2.854A15.115,15.115,0,0,0,190,40c-1.517-6.352-8.134-11.769-16-11.769a17.039,17.039,0,0,0-2.044.123l1.107,1.906q.472-.029.936-.029c5.7,0,12.483,3.418,14,9.77a11.854,11.854,0,0,1-5.205,7.125Z"/><rect class="b" x="158" y="24" width="32" height="32"/><path class="c" d="M69,223c.485,0,.792.145.91.431a1.094,1.094,0,0,1-.324,1.154l-9,9-.586.586v10.609l-.033.02c-.559.337-3.233,1.776-3.967,2.126V234.172l-.586-.586-9-9a1.1,1.1,0,0,1-.322-1.157c.118-.285.423-.43.907-.43H69m0-2H47c-3,0-3.831,3.168-2,5l9,9v12.014A1.774,1.774,0,0,0,55.773,249a2.443,2.443,0,0,0,1.021-.237c.737-.344,3.584-1.875,4.206-2.25a1.7,1.7,0,0,0,1-1.5V235l9-9c1.836-1.832,1-5-2-5Z"/><rect class="b" x="42" y="219" width="32" height="32"/><path class="c" d="M47,269c-3,0-3.831,3.168-2,5l9,9v12.014a1.838,1.838,0,0,0,2.794,1.75c.737-.344,3.584-1.875,4.206-2.25a1.7,1.7,0,0,0,1-1.5V283l9-9c1.836-1.832,1-5-2-5Z"/><rect class="b" x="42" y="267" width="32" height="32"/><path class="a" d="M175.165,93.887a6,6,0,0,1-5.682-9.838Zm5.783,10.02,2.6-1.5-17.5-30.312-2.6,1.5,2.643,4.576A15.533,15.533,0,0,0,158,88c1.515,6.352,8.142,11.769,16.007,11.769a17.088,17.088,0,0,0,4.246-.536Zm2.8-7.17A15.083,15.083,0,0,0,190,88c-1.517-6.352-8.126-11.769-15.993-11.769a17.028,17.028,0,0,0-2.032.122Zm-8.5-22.236-2.207,2-.591,6.311"/><rect class="b" x="158" y="72" width="32" height="32"/><text class="d" transform="translate(273.624 330.426)">recent</text><text class="d" transform="translate(395.245 330.426)">new</text><text class="d" transform="translate(497.416 330.426)">restricted</text><text class="d" transform="translate(496.908 135.426)">fullscreen</text><text class="d" transform="translate(601.125 135.426)">fullscreen_exit</text><text class="d" transform="translate(268.646 135.426)">view_list</text><text class="d" transform="translate(381.969 135.426)">view_grid</text><text class="d" transform="translate(46.064 330.426)">filter</text><text class="d" transform="translate(30.385 135.426)">view_show</text><text class="d" transform="translate(148.765 135.426)">view_hide</text><text class="d" transform="translate(154.308 330.426)">favorite</text><path class="a" d="M538,235a16,16,0,1,1-16-16A16,16,0,0,1,538,235Zm-28,0a11.987,11.987,0,0,0,18.946,9.773l-16.72-16.721A11.937,11.937,0,0,0,510,235Zm24,0a11.988,11.988,0,0,0-18.945-9.774l16.72,16.72A11.93,11.93,0,0,0,534,235Zm-2.226,6.945-16.72-16.72m13.892,19.548-16.72-16.721"/><rect class="b" width="696" height="358"/></svg>