<svg xmlns="http://www.w3.org/2000/svg" width="400" height="341" viewBox="0 0 400 341"><defs><style>.a{fill:#354052;}.b{fill:#d3edfc;}.c,.n{fill:#a8afb3;}.d{font-size:15px;font-family:OpenSans-Semibold, Open Sans;font-weight:700;}.d,.o{fill:#151921;}.e{letter-spacing:0.002em;}.f{letter-spacing:-0.001em;}.g{letter-spacing:0.005em;}.h{letter-spacing:-0.003em;}.i{letter-spacing:0.002em;}.j{letter-spacing:0.022em;}.k{letter-spacing:-0.002em;}.l{letter-spacing:-0.005em;}.m{letter-spacing:-0.001em;}.ah,.ai,.n{fill-rule:evenodd;}.ac,.ag,.o{font-size:13px;font-family:OpenSans, Open Sans;}.p{letter-spacing:0.006em;}.q{letter-spacing:-0.003em;}.r{letter-spacing:-0.004em;}.s{letter-spacing:0.002em;}.t{letter-spacing:0.032em;}.u{letter-spacing:-0.009em;}.v{letter-spacing:0.002em;}.w{letter-spacing:0.002em;}.x{letter-spacing:-0.003em;}.y{letter-spacing:-0.005em;}.z{letter-spacing:-0.011em;}.aa{letter-spacing:0.017em;}.ab{letter-spacing:0em;}.ac{fill:#172730;}.ad{letter-spacing:-0.005em;}.ae{letter-spacing:0.002em;}.af{letter-spacing:-0.004em;}.ag{fill:#ecedef;}.ah,.aj{fill:#272525;}.ai{fill:#fff;}.ak{fill:#ff8300;}.al{fill:none;}</style></defs><title>select_01</title><rect class="a" x="1" y="232" width="398" height="36"/><rect class="b" x="1" y="160" width="398" height="36"/><path class="c" d="M399,125v34H1V125H399m1-1H0v36H400V124Z"/><path class="c" d="M399,160V340H1V160H399m1-1H0V341H400V159Z"/><text class="d" transform="translate(0 114.4)">O<tspan class="e" x="11.807" y="0">p</tspan><tspan class="f" x="21.187" y="0">e</tspan><tspan x="29.82" y="0">n </tspan><tspan class="g" x="43.238" y="0">S</tspan><tspan x="51.565" y="0">e</tspan><tspan class="h" x="60.208" y="0">l</tspan><tspan class="i" x="64.348" y="0">e</tspan><tspan class="j" x="73.014" y="0">c</tspan><tspan x="80.777" y="0">t </tspan><tspan class="k" x="90.569" y="0">F</tspan><tspan class="l" x="98.523" y="0">i</tspan><tspan x="102.627" y="0">e</tspan><tspan class="m" x="111.27" y="0">l</tspan><tspan x="115.431" y="0">d</tspan></text><polygon class="n" points="383.5 139.4 378 145 372.5 139.399 373.873 138 378 142.2 382.125 138 383.5 139.4"/><text class="o" transform="translate(17 146.854)"><tspan class="p">S</tspan><tspan class="q" x="7.208" y="0">e</tspan><tspan class="r" x="14.467" y="0">l</tspan><tspan class="s" x="17.708" y="0">e</tspan><tspan class="t" x="25.023" y="0">c</tspan><tspan class="u" x="31.624" y="0">t</tspan><tspan class="v" x="36.098" y="0">e</tspan><tspan x="43.412" y="0">d </tspan><tspan class="w" x="54.755" y="0">I</tspan><tspan class="u" x="58.407" y="0">t</tspan><tspan class="r" x="62.88" y="0">e</tspan><tspan x="70.127" y="0">m</tspan></text><text class="o" transform="translate(17 182.854)"><tspan class="x">H</tspan><tspan class="y" x="9.552" y="0">ov</tspan><tspan class="r" x="23.777" y="0">e</tspan><tspan x="31.023" y="0">r </tspan><tspan class="z" x="39.707" y="0">S</tspan><tspan class="aa" x="46.692" y="0">t</tspan><tspan class="ab" x="51.504" y="0">a</tspan><tspan class="u" x="58.729" y="0">t</tspan><tspan x="63.202" y="0">e</tspan></text><text class="ac" transform="translate(17 218.854)"><tspan class="x">M</tspan><tspan class="r" x="11.698" y="0">e</tspan><tspan class="ad" x="18.944" y="0">n</tspan><tspan x="26.854" y="0">u </tspan><tspan class="ae" x="38.209" y="0">I</tspan><tspan class="u" x="41.861" y="0">t</tspan><tspan class="af" x="46.334" y="0">e</tspan><tspan x="53.582" y="0">m</tspan></text><text class="ag" transform="translate(17 254.854)"><tspan class="p">S</tspan><tspan class="q" x="7.208" y="0">e</tspan><tspan class="r" x="14.467" y="0">l</tspan><tspan class="s" x="17.708" y="0">e</tspan><tspan class="t" x="25.023" y="0">c</tspan><tspan class="u" x="31.624" y="0">t</tspan><tspan class="v" x="36.098" y="0">e</tspan><tspan x="43.412" y="0">d </tspan><tspan class="w" x="54.755" y="0">I</tspan><tspan class="u" x="58.407" y="0">t</tspan><tspan class="r" x="62.88" y="0">e</tspan><tspan x="70.127" y="0">m</tspan></text><text class="ac" transform="translate(17 290.854)"><tspan class="x">M</tspan><tspan class="r" x="11.698" y="0">e</tspan><tspan class="ad" x="18.944" y="0">n</tspan><tspan x="26.854" y="0">u </tspan><tspan class="ae" x="38.209" y="0">I</tspan><tspan class="u" x="41.861" y="0">t</tspan><tspan class="af" x="46.334" y="0">e</tspan><tspan x="53.582" y="0">m</tspan></text><text class="ac" transform="translate(17 326.855)"><tspan class="x">M</tspan><tspan class="r" x="11.698" y="0">e</tspan><tspan class="ad" x="18.944" y="0">n</tspan><tspan x="26.854" y="0">u </tspan><tspan class="ae" x="38.209" y="0">I</tspan><tspan class="u" x="41.861" y="0">t</tspan><tspan class="af" x="46.334" y="0">e</tspan><tspan x="53.582" y="0">m</tspan></text><polygon class="ah" points="131 192 131 189 130 189 130 187 129 187 129 185 128 185 128 183 127 183 127 182 126 182 126 179 129 179 129 180 130 180 130 171 131 171 131 170 133 170 133 171 134 171 134 175 136 175 136 176 139 176 139 177 141 177 141 178 142 178 142 179 143 179 143 186 142 186 142 189 141 189 141 192 131 192"/><polygon class="ai" points="132 191 132 189 131 189 131 187 130 187 130 185 129 185 129 183 128 183 128 182 127 182 127 180 129 180 129 181 130 181 130 184 131 184 131 171 133 171 133 180 134 180 134 176 136 176 136 180 137 180 137 177 139 177 139 181 140 181 140 178 141 178 141 179 142 179 142 186 141 186 141 189 140 189 140 191 132 191"/><rect class="aj" x="133" y="182" width="1" height="4"/><rect class="aj" x="136" y="182" width="1" height="4"/><rect class="aj" x="139" y="182" width="1" height="4"/><path class="c" d="M399,25V59H1V25H399m1-1H0V60H400V24Z"/><text class="d" transform="translate(0 14.4)"><tspan class="g">S</tspan><tspan x="8.327" y="0">e</tspan><tspan class="h" x="16.969" y="0">l</tspan><tspan class="i" x="21.109" y="0">e</tspan><tspan class="j" x="29.776" y="0">c</tspan><tspan x="37.539" y="0">t </tspan><tspan class="k" x="47.331" y="0">F</tspan><tspan class="l" x="55.285" y="0">i</tspan><tspan x="59.389" y="0">e</tspan><tspan class="m" x="68.031" y="0">l</tspan><tspan x="72.192" y="0">d </tspan><tspan class="ak" x="85.435" y="0">*</tspan></text><polygon class="n" points="383.5 39.4 378 45 372.5 39.399 373.873 38 378 42.2 382.125 38 383.5 39.4"/><text class="o" transform="translate(17 46.855)"><tspan class="p">S</tspan><tspan class="q" x="7.208" y="0">e</tspan><tspan class="r" x="14.467" y="0">l</tspan><tspan class="s" x="17.708" y="0">e</tspan><tspan class="t" x="25.023" y="0">c</tspan><tspan class="u" x="31.624" y="0">t</tspan><tspan class="v" x="36.098" y="0">e</tspan><tspan x="43.412" y="0">d </tspan><tspan class="w" x="54.755" y="0">I</tspan><tspan class="u" x="58.407" y="0">t</tspan><tspan class="r" x="62.88" y="0">e</tspan><tspan x="70.127" y="0">m</tspan></text><rect class="al" width="400" height="341"/></svg>