<svg xmlns="http://www.w3.org/2000/svg" width="309" height="36" viewBox="0 0 309 36"><defs><style>.a{fill:#0098f3;}.b{fill:#d3eefd;}.c,.l{fill:#0097f2;}.d,.e{fill:#fff;}.d{fill-rule:evenodd;}.e,.l{font-size:15px;font-family:OpenSans-Semibold, Open Sans;font-weight:700;}.f{letter-spacing:0.005em;}.g{letter-spacing:-0.003em;}.h{letter-spacing:0.002em;}.i{letter-spacing:0.022em;}.j{letter-spacing:-0.008em;}.k{letter-spacing:0.004em;}.m{letter-spacing:-0.002em;}.n{letter-spacing:-0.011em;}.o{letter-spacing:-0.001em;}.p{letter-spacing:-0.007em;}.q{letter-spacing:0.001em;}.r{letter-spacing:-0.001em;}.s{letter-spacing:0.022em;}.t{letter-spacing:-0.008em;}.u{letter-spacing:0.004em;}</style></defs><title>switch_02</title><path class="a" d="M4,0h98a0,0,0,0,1,0,0V36a0,0,0,0,1,0,0H4a4,4,0,0,1-4-4V4A4,4,0,0,1,4,0Z"/><rect class="b" x="101.5" y="0.5" width="85" height="35"/><path class="c" d="M186,1V35H102V1h84m1-1H101V36h86V0Z"/><path class="d" d="M186.5,35.5V.5H305A3.5,3.5,0,0,1,308.5,4V32a3.5,3.5,0,0,1-3.5,3.5Z"/><path class="a" d="M305,1a3,3,0,0,1,3,3V32a3,3,0,0,1-3,3H187V1H305m0-1H186V36H305a4,4,0,0,0,4-4V4a4,4,0,0,0-4-4Z"/><text class="e" transform="translate(20.568 23.4)"><tspan class="f">S</tspan><tspan x="8.327" y="0">e</tspan><tspan class="g" x="16.969" y="0">l</tspan><tspan class="h" x="21.109" y="0">e</tspan><tspan class="i" x="29.776" y="0">c</tspan><tspan class="j" x="37.539" y="0">t</tspan><tspan class="k" x="43.319" y="0">e</tspan><tspan x="52.017" y="0">d</tspan></text><text class="l" transform="translate(122.648 23.4)"><tspan class="m">H</tspan><tspan class="n" x="11.23" y="0">ov</tspan><tspan class="o" x="28.102" y="0">e</tspan><tspan x="36.736" y="0">r</tspan></text><text class="l" transform="translate(206.803 23.4)"><tspan class="p">U</tspan><tspan class="q" x="11.031" y="0">n</tspan><tspan class="r" x="20.57" y="0">s</tspan><tspan x="27.857" y="0">e</tspan><tspan class="g" x="36.5" y="0">l</tspan><tspan class="h" x="40.64" y="0">e</tspan><tspan class="s" x="49.307" y="0">c</tspan><tspan class="t" x="57.07" y="0">t</tspan><tspan class="u" x="62.85" y="0">e</tspan><tspan x="71.548" y="0">d</tspan></text></svg>