<svg xmlns="http://www.w3.org/2000/svg" width="32" height="32" viewBox="0 0 32 32"><defs><style>.a,.b{fill:#354052;}.a{fill-rule:evenodd;}.c{fill:none;}</style></defs><title>calendar</title><path class="a" d="M27,2H24V0H22V2H8V0H6V2H3A3,3,0,0,0,0,5V27a3,3,0,0,0,3,3H27a3,3,0,0,0,3-3V5A3,3,0,0,0,27,2Zm0,25H3V8H27Z"/><rect class="b" x="6" y="14" width="2" height="2"/><rect class="b" x="6" y="18" width="2" height="2"/><rect class="b" x="6" y="22" width="2" height="2"/><polyline class="a" points="12 12 10 12 10 10 12 10"/><rect class="b" x="10" y="14" width="2" height="2"/><rect class="b" x="10" y="18" width="2" height="2"/><rect class="b" x="10" y="22" width="2" height="2"/><rect class="b" x="14" y="10" width="2" height="2"/><rect class="b" x="14" y="14" width="2" height="2"/><rect class="b" x="14" y="18" width="2" height="2"/><rect class="b" x="14" y="22" width="2" height="2"/><rect class="b" x="18" y="22" width="2" height="2"/><rect class="b" x="18" y="10" width="2" height="2"/><rect class="b" x="18" y="14" width="2" height="2"/><rect class="b" x="18" y="18" width="2" height="2"/><rect class="b" x="22" y="10" width="2" height="2"/><rect class="b" x="22" y="14" width="2" height="2"/><rect class="b" x="22" y="18" width="2" height="2"/><rect class="c" width="32" height="32"/></svg>