<svg xmlns="http://www.w3.org/2000/svg" width="32.1" height="32.1" viewBox="0 0 32.1 32.1"><defs><style>.a,.c{fill:none;}.a{stroke:#ddd;stroke-miterlimit:3.864;stroke-width:0.2px;}.b{fill:#354052;fill-rule:evenodd;}</style></defs><title>cut</title><circle class="a" cx="6.1" cy="26" r="6"/><path class="b" d="M12.1,16,8.532,19.566a1.692,1.692,0,0,1-1.439.517A5.827,5.827,0,0,0,6.1,20a5.993,5.993,0,1,0,5.576,3.779A1.644,1.644,0,0,1,12.1,22l3-3,10,10c1.594,1.594,5,2.75,7,1l-14-14,14-14c-2-1.75-5.406-.594-7,1l-10,10-3-3a1.644,1.644,0,0,1-.424-1.779,5.989,5.989,0,1,0-4.584,3.7,1.685,1.685,0,0,1,1.439.515ZM6.1,2a4,4,0,1,1-4,4A4,4,0,0,1,6.1,2Zm0,20a4,4,0,1,1-4,4A4,4,0,0,1,6.1,22Z"/><rect class="c" x="0.1" width="32" height="32"/></svg>