<svg xmlns="http://www.w3.org/2000/svg" width="32" height="32" viewBox="0 0 32 32"><defs><style>.a,.b{fill:#354052;}.a{fill-rule:evenodd;}.c{fill:none;}</style></defs><title>group</title><path class="a" d="M20,9.962A4,4,0,1,1,15.961,6,4,4,0,0,1,20,9.962Z"/><path class="a" d="M14,19.963A4,4,0,1,1,9.964,16,4,4,0,0,1,14,19.963Z"/><circle class="b" cx="22.001" cy="20.001" r="4" transform="translate(-0.189 0.21) rotate(-0.546)"/><path class="a" d="M18.087.139a16.02,16.02,0,0,0-4.176,0l.26,1.983a14.143,14.143,0,0,1,3.656,0Z"/><path class="a" d="M9.879,1.22A15.9,15.9,0,0,0,6.259,3.3L7.477,4.892a13.959,13.959,0,0,1,3.166-1.823Z"/><path class="a" d="M3.214,6.384a16.029,16.029,0,0,0-2.057,3.635l1.856.748a14.105,14.105,0,0,1,1.8-3.181Z"/><path class="a" d="M.119,14.065A15.953,15.953,0,0,0,.156,18.24l1.979-.278A14.026,14.026,0,0,1,2.1,14.307Z"/><path class="a" d="M1.278,22.264a15.926,15.926,0,0,0,2.121,3.6l1.578-1.233a14.088,14.088,0,0,1-1.859-3.151Z"/><path class="a" d="M6.382,28.785a16.1,16.1,0,0,0,3.636,2.057l.75-1.854a14.137,14.137,0,0,1-3.182-1.8Z"/><path class="a" d="M14.064,31.881a15.959,15.959,0,0,0,4.176-.037l-.279-1.98A14.124,14.124,0,0,1,14.3,29.9Z"/><path class="a" d="M22.266,30.721A15.992,15.992,0,0,0,25.861,28.6l-1.232-1.573a14.115,14.115,0,0,1-3.148,1.854Z"/><path class="a" d="M28.784,25.617a16.016,16.016,0,0,0,2.057-3.636l-1.854-.748a14.2,14.2,0,0,1-1.8,3.185Z"/><path class="a" d="M31.879,17.938a15.8,15.8,0,0,0-.037-4.178l-1.98.277A13.96,13.96,0,0,1,29.9,17.7Z"/><path class="a" d="M30.724,9.735A15.993,15.993,0,0,0,28.6,6.14L27.023,7.37a13.879,13.879,0,0,1,1.859,3.148Z"/><path class="a" d="M25.736,3.309a15.924,15.924,0,0,0-3.608-2.091l-.772,1.847a13.965,13.965,0,0,1,3.166,1.827Z"/><rect class="c" width="32" height="32"/></svg>