<svg xmlns="http://www.w3.org/2000/svg" width="32" height="32" viewBox="0 0 32 32"><defs><style>.a{fill:#354052;fill-rule:evenodd;}.b{fill:none;}</style></defs><title>link</title><path class="a" d="M14.938,17.061a4.5,4.5,0,0,1,0-6.363l6.011-6.01a4.5,4.5,0,0,1,6.364,6.363l-3.539,3.541a7.036,7.036,0,0,1,.4,3.85l5.265-5.27A7.5,7.5,0,0,0,18.827,2.565l-6.009,6.01a7.5,7.5,0,0,0,0,10.607,1.5,1.5,0,0,0,2.119-2.121Zm2.123-2.121a4.5,4.5,0,0,1,0,6.363l-6.01,6.01a4.5,4.5,0,0,1-6.364-6.363l3.54-3.541a6.991,6.991,0,0,1-.391-3.85L2.565,18.828A7.5,7.5,0,0,0,13.172,29.436l6.01-6.01a7.5,7.5,0,0,0,0-10.607,1.5,1.5,0,1,0-2.121,2.121Z"/><rect class="b" width="32" height="32"/></svg>