<svg xmlns="http://www.w3.org/2000/svg" width="32" height="32" viewBox="0 0 32 32"><defs><style>.a{fill:#354052;fill-rule:evenodd;}.b{fill:none;}</style></defs><title>lock</title><path class="a" d="M4,16V28a4,4,0,0,0,4,4H24a4,4,0,0,0,4-4V16a4,4,0,0,0-4-4V8A8,8,0,0,0,8,8v4A4,4,0,0,0,4,16Zm10,8a2,2,0,0,0,2,2h0a2,2,0,0,0,2-2V20a2,2,0,0,0-2-2h0a2,2,0,0,0-2,2ZM8,29a1,1,0,0,1-1-1V16a1,1,0,0,1,1-1H24a1,1,0,0,1,1,1V28a1,1,0,0,1-1,1ZM11,8A5,5,0,0,1,21,8v4H11Z"/><rect class="b" width="32" height="32"/></svg>