<svg xmlns="http://www.w3.org/2000/svg" width="32" height="32" viewBox="0 0 32 32"><defs><style>.a{fill:#354052;fill-rule:evenodd;}.b{fill:none;}</style></defs><title>lock_unlock</title><path class="a" d="M10,20a2,2,0,0,1,2-2h0a2,2,0,0,1,2,2v4a2,2,0,0,1-2,2h0a2,2,0,0,1-2-2ZM4,29a1,1,0,0,1-1-1V16a1,1,0,0,1,1-1H20a1,1,0,0,1,1,1V28a1,1,0,0,1-1,1ZM29,15V8A5,5,0,0,0,19,8v4h1a4,4,0,0,1,4,4V28a4,4,0,0,1-4,4H4a4,4,0,0,1-4-4V16a4,4,0,0,1,4-4H16V8A8,8,0,0,1,32,8v7Z"/><rect class="b" width="32" height="32"/></svg>