<svg xmlns="http://www.w3.org/2000/svg" width="32" height="32" viewBox="0 0 32 32"><defs><style>.a{fill:#354052;fill-rule:evenodd;}.b{fill:none;}</style></defs><title>merge</title><path class="a" d="M3,23.006a6.989,6.989,0,0,0,6.99-6.99A10.984,10.984,0,0,1,20.971,5.031H25.01L22.968,2.992l2.5-2.5L32,7.028l-6.536,6.533-2.5-2.5,2.042-2.04H20.971a6.99,6.99,0,0,0-6.99,6.99A10.984,10.984,0,0,1,3,27H0V23.006ZM7.9,11.017A13.911,13.911,0,0,1,9.889,7.462l.018-.019A10.953,10.953,0,0,0,3,5H0V8.994H3a6.97,6.97,0,0,1,4.913,2.017Zm6.159,13.5a10.934,10.934,0,0,0,6.912,2.448H25.01l-2.042,2.038,2.5,2.5L32,24.972l-6.536-6.534-2.5,2.5,2.042,2.04H20.971a6.973,6.973,0,0,1-4.907-2.012v0A13.937,13.937,0,0,1,14.078,24.5Z"/><rect class="b" width="32" height="32"/></svg>