<svg xmlns="http://www.w3.org/2000/svg" width="32" height="32" viewBox="0 0 32 32"><defs><style>.a{fill:#354052;fill-rule:evenodd;}.b{fill:none;}</style></defs><title>reposition</title><polygon class="a" points="14 5.5 11.979 7.521 10.229 5.771 16 0 21.772 5.771 20.022 7.521 18 5.5 18 14 26.5 14 24.479 11.979 26.229 10.229 32 16 26.229 21.771 24.479 20.021 26.5 18 18 18 18 26.5 20.022 24.479 21.772 26.229 16 32 10.229 26.229 11.979 24.479 14 26.5 14 18 5.5 18 7.522 20.021 5.772 21.771 0 16 5.772 10.229 7.522 11.979 5.5 14 14 14 14 5.5"/><rect class="b" width="32" height="32"/></svg>