<svg xmlns="http://www.w3.org/2000/svg" width="32" height="32" viewBox="0 0 32 32"><defs><style>.a{fill:#354052;}.b{fill:none;}</style></defs><title>template_adjust</title><rect class="a" x="2" y="20" width="4" height="2"/><rect class="a" x="2" y="30" width="4" height="2"/><rect class="a" x="8" y="20" width="4" height="2"/><rect class="a" x="8" y="30" width="4" height="2"/><rect class="a" x="14" y="20" width="4" height="2"/><rect class="a" x="14" y="30" width="4" height="2"/><rect class="a" x="2" y="24" width="2" height="4"/><rect class="a" x="16" y="24" width="2" height="4"/><rect class="a" x="20" y="20" width="4" height="2"/><rect class="a" x="20" y="30" width="4" height="2"/><rect class="a" x="26" y="20" width="4" height="2"/><rect class="a" x="26" y="30" width="4" height="2"/><rect class="a" x="20" y="24" width="2" height="4"/><rect class="a" x="28" y="24" width="2" height="4"/><rect class="a" x="2" y="6" width="4" height="2"/><rect class="a" x="2" y="16" width="4" height="2"/><rect class="a" x="8" y="6" width="4" height="2"/><rect class="a" x="8" y="16" width="4" height="2"/><rect class="a" x="14" y="6" width="4" height="2"/><rect class="a" x="14" y="16" width="4" height="2"/><rect class="a" x="2" y="10" width="2" height="4"/><rect class="a" x="16" y="10" width="2" height="4"/><rect class="a" x="20" y="6" width="4" height="2"/><rect class="a" x="20" y="16" width="4" height="2"/><rect class="a" x="26" y="6" width="4" height="2"/><rect class="a" x="26" y="16" width="4" height="2"/><rect class="a" x="20" y="10" width="2" height="4"/><rect class="a" x="28" y="10" width="2" height="4"/><rect class="a" x="2" width="28" height="4"/><rect class="b" width="32" height="32"/></svg>