<svg xmlns="http://www.w3.org/2000/svg" width="32" height="32" viewBox="0 0 32 32"><defs><style>.a{fill:#354052;}.b{fill:none;}</style></defs><title>alerts</title><path class="a" d="M16,2a.483.483,0,0,1,.511.461v2.7l1.546.36C21.723,6.378,24,9.606,24,13.949v7.879l.586.586L27.172,25H4.828l2.586-2.586L8,21.828V13.949c0-4.343,2.276-7.572,5.94-8.425l1.546-.36v-2.7A.484.484,0,0,1,16,2m0-2a2.484,2.484,0,0,0-2.513,2.461V3.576C8.7,4.691,6,8.91,6,13.949V21L2,25v2H30V25l-4-4V13.949c0-5.039-2.7-9.258-7.489-10.373V2.461A2.482,2.482,0,0,0,16,0Z"/><path class="a" d="M13,29a3,3,0,0,0,6,0Z"/><rect class="b" width="32" height="32"/></svg>