<svg xmlns="http://www.w3.org/2000/svg" width="32" height="32" viewBox="0 0 32 32"><defs><style>.a{fill:#354052;fill-rule:evenodd;}.b{fill:none;}</style></defs><title>hamburger</title><path class="a" d="M4,8A1.921,1.921,0,0,1,5.832,6H26.169A1.921,1.921,0,0,1,28,8a1.921,1.921,0,0,1-1.831,2H5.832A1.921,1.921,0,0,1,4,8Z"/><path class="a" d="M4,16a1.921,1.921,0,0,1,1.832-2H26.169A1.921,1.921,0,0,1,28,16a1.921,1.921,0,0,1-1.831,2H5.832A1.921,1.921,0,0,1,4,16Z"/><path class="a" d="M4,24a1.921,1.921,0,0,1,1.832-2H26.169a2.008,2.008,0,0,1,0,4H5.832A1.921,1.921,0,0,1,4,24Z"/><rect class="b" width="32" height="32"/></svg>