<svg xmlns="http://www.w3.org/2000/svg" width="48" height="48" viewBox="0 0 48 48"><defs><style>.a{fill:#00aeef;}.b{fill:#fff;}</style></defs><title>n_square</title><rect class="a" width="48" height="48"/><path class="b" d="M19.086,16.5a17.457,17.457,0,0,1,2.9-2.446,6.067,6.067,0,0,1,3.327-.853,4.843,4.843,0,0,1,4.479,2.161,10.759,10.759,0,0,1,1.332,5.695V36.4a1.191,1.191,0,0,1-.968,1.246,13.556,13.556,0,0,1-2.6.4v.668H39.91v-.549c-.362-.038-.759-.089-1.181-.152a9.132,9.132,0,0,1-1.18-.243,2.739,2.739,0,0,1-.938-.456.9.9,0,0,1-.392-.731v-17.9a11.36,11.36,0,0,0-1.876-6.759,6.228,6.228,0,0,0-5.39-2.617,8,8,0,0,0-3.146.638,12.605,12.605,0,0,0-2.782,1.614,14.352,14.352,0,0,0-2.272,2.161,21.575,21.575,0,0,0-1.662,2.224"/><path class="b" d="M17.57,17.621v18.9a1.559,1.559,0,0,0,.424.883,1.8,1.8,0,0,0,.726.4,4.529,4.529,0,0,0,.968.154,7.655,7.655,0,0,1,1.151.152v.608H9.157v-.608a7.947,7.947,0,0,0,2.391-.549,1.448,1.448,0,0,0,1-1.4V15.211a2.188,2.188,0,0,0-.093-.731,1.381,1.381,0,0,0-.512-.549q-.546-.3-1.272-.7c-.486-.264-.969-.5-1.453-.7v-.365l7.929-2.86h.411Z"/></svg>