<svg xmlns="http://www.w3.org/2000/svg" width="90.68" height="32" viewBox="0 0 90.68 32"><defs><style>.a{fill:#00adee;}.b{fill:#807f83;}</style></defs><title>nielsen_logo</title><path class="a" d="M5.163,11.683A9.048,9.048,0,0,1,6.67,10.419,3.163,3.163,0,0,1,8.4,9.978a2.523,2.523,0,0,1,2.328,1.117,5.537,5.537,0,0,1,.693,2.943V21.97a.618.618,0,0,1-.5.645,7.147,7.147,0,0,1-1.353.2v.346H15.99v-.283q-.284-.03-.615-.079a4.835,4.835,0,0,1-.614-.125,1.418,1.418,0,0,1-.487-.236.466.466,0,0,1-.2-.378V12.811a5.838,5.838,0,0,0-.976-3.493,3.244,3.244,0,0,0-2.8-1.353,4.183,4.183,0,0,0-1.636.33,6.567,6.567,0,0,0-1.447.834,7.475,7.475,0,0,0-1.181,1.117,11.327,11.327,0,0,0-.865,1.149"/><path class="a" d="M4.374,12.263v9.769a.808.808,0,0,0,.22.456.941.941,0,0,0,.378.2,2.335,2.335,0,0,0,.5.079,4.121,4.121,0,0,1,.6.078v.315H0v-.315a4.137,4.137,0,0,0,1.243-.283.749.749,0,0,0,.52-.724V11.017a1.133,1.133,0,0,0-.048-.377.72.72,0,0,0-.267-.284Q1.164,10.2.787,9.994a8.263,8.263,0,0,0-.755-.362V9.444L4.154,7.965h.213Z"/><path class="b" d="M79.854,11.683a9.09,9.09,0,0,1,1.506-1.264,3.166,3.166,0,0,1,1.731-.441,2.526,2.526,0,0,1,2.33,1.117,5.54,5.54,0,0,1,.692,2.943V21.97a.618.618,0,0,1-.5.645,7.159,7.159,0,0,1-1.354.2v.346H90.68v-.283c-.188-.02-.393-.046-.614-.079a4.807,4.807,0,0,1-.613-.125,1.425,1.425,0,0,1-.488-.236.465.465,0,0,1-.2-.378V12.811a5.838,5.838,0,0,0-.976-3.493,3.244,3.244,0,0,0-2.8-1.353,4.19,4.19,0,0,0-1.637.33,6.58,6.58,0,0,0-1.447.834,7.477,7.477,0,0,0-1.181,1.117,11.48,11.48,0,0,0-.864,1.149"/><path class="b" d="M79.065,12.263v9.769a.806.806,0,0,0,.221.456.938.938,0,0,0,.377.2,2.344,2.344,0,0,0,.5.079,4.166,4.166,0,0,1,.6.078v.315H74.691v-.315a4.136,4.136,0,0,0,1.243-.283.748.748,0,0,0,.519-.724V11.017a1.164,1.164,0,0,0-.047-.377.726.726,0,0,0-.268-.284q-.282-.158-.66-.362a8.311,8.311,0,0,0-.756-.362V9.443l4.123-1.478h.214Z"/><path class="b" d="M16.775,23.167v-.32c.257-.021.512-.047.769-.08a3.088,3.088,0,0,0,.688-.161,1.5,1.5,0,0,0,.513-.3.627.627,0,0,0,.208-.481V10.833a1.847,1.847,0,0,0-.048-.448.633.633,0,0,0-.273-.353,5.616,5.616,0,0,0-.688-.384A8.678,8.678,0,0,0,17.1,9.3V9.1l4.329-1.41h.191V22.013a.7.7,0,0,0,.272.464,1.364,1.364,0,0,0,.5.208,3.607,3.607,0,0,0,.624.081,4.27,4.27,0,0,1,.657.08v.32Z"/><path class="b" d="M21.339,4.511a1.682,1.682,0,0,1-2.373-.017,1.612,1.612,0,0,1-.5-1.182,1.575,1.575,0,0,1,.481-1.182,1.76,1.76,0,0,1,2.388,0,1.577,1.577,0,0,1,.481,1.182,1.631,1.631,0,0,1-.481,1.2"/><path class="b" d="M63.011,12.533a5.826,5.826,0,0,1,.352-1.1A6.256,6.256,0,0,1,64.179,10a5.987,5.987,0,0,1,1.249-1.233,2.66,2.66,0,0,1,1.616-.529,2.9,2.9,0,0,1,2.193.849,2.834,2.834,0,0,1,.816,2.035,1.559,1.559,0,0,1-.112.672,2.357,2.357,0,0,1-.337.481,2.513,2.513,0,0,1-.736.16q-.416.032-.9.032c-.492,0-.939.005-1.345.016l-1.168.032c-.374.01-.6.016-.982.016l-.143.437h8.9a5.962,5.962,0,0,0-.608-2.336,5.053,5.053,0,0,0-1.33-1.649,5.432,5.432,0,0,0-1.922-.976,8.424,8.424,0,0,0-2.355-.32,6,6,0,0,0-2.8.656,6.9,6.9,0,0,0-2.146,1.714,8.053,8.053,0,0,0-1.843,5.06,9.636,9.636,0,0,0,.513,3.155,7.894,7.894,0,0,0,1.459,2.594,6.485,6.485,0,0,0,2.29,1.714,7.173,7.173,0,0,0,2.981.607,5.773,5.773,0,0,0,2.388-.48,6.419,6.419,0,0,0,1.842-1.218,6.023,6.023,0,0,0,1.218-1.617,5.875,5.875,0,0,0,.577-1.587l-.257-.063a3.852,3.852,0,0,1-1.585,2,4.861,4.861,0,0,1-2.8.818,5.88,5.88,0,0,1-2.595-.545,5.2,5.2,0,0,1-1.859-1.491,6.787,6.787,0,0,1-1.123-2.178,8.636,8.636,0,0,1-.384-2.579c0-.235.011-.465.033-.688s.032-.422.032-.593Z"/><path class="b" d="M27.454,12.531a5.815,5.815,0,0,1,.353-1.1A6.253,6.253,0,0,1,28.622,10a5.978,5.978,0,0,1,1.25-1.233,2.659,2.659,0,0,1,1.616-.529,2.9,2.9,0,0,1,2.192.849,2.833,2.833,0,0,1,.816,2.035,1.563,1.563,0,0,1-.112.672,2.4,2.4,0,0,1-.336.481,2.543,2.543,0,0,1-.737.16q-.415.032-.895.032-.738,0-1.345.016l-1.168.032c-.374.01-.6.016-.983.016l-.143.437h8.9a5.99,5.99,0,0,0-.608-2.336,5.056,5.056,0,0,0-1.331-1.649,5.436,5.436,0,0,0-1.923-.976,8.41,8.41,0,0,0-2.355-.32,6,6,0,0,0-2.8.656,6.893,6.893,0,0,0-2.146,1.714,8.059,8.059,0,0,0-1.843,5.06,9.633,9.633,0,0,0,.513,3.155,7.892,7.892,0,0,0,1.459,2.594,6.483,6.483,0,0,0,2.29,1.714,7.176,7.176,0,0,0,2.981.607,5.774,5.774,0,0,0,2.388-.48,6.406,6.406,0,0,0,1.842-1.217,6.018,6.018,0,0,0,1.218-1.617,5.878,5.878,0,0,0,.577-1.586l-.257-.064a3.85,3.85,0,0,1-1.586,2,4.859,4.859,0,0,1-2.8.818A5.882,5.882,0,0,1,30.69,20.5a5.209,5.209,0,0,1-1.859-1.49,6.791,6.791,0,0,1-1.122-2.178,8.636,8.636,0,0,1-.384-2.579c0-.235.011-.465.033-.689s.032-.422.032-.593Z"/><path class="b" d="M38.526,23.167v-.354a6.991,6.991,0,0,0,1.953-.3.731.731,0,0,0,.482-.721V3.365a1.163,1.163,0,0,0-.048-.385.735.735,0,0,0-.272-.289c-.193-.106-.482-.272-.866-.5a8.59,8.59,0,0,0-.96-.5V1.506L43.4,0h.224V21.949a.7.7,0,0,0,.144.481.8.8,0,0,0,.433.225,4.236,4.236,0,0,0,.738.079q.448.016,1.057.08v.354Z"/><path class="b" d="M57.782,20.6a4.249,4.249,0,0,1-1.328,1.49,5.6,5.6,0,0,1-1.9.834,9.633,9.633,0,0,1-2.258.257,13.13,13.13,0,0,1-2.657-.257,10.827,10.827,0,0,1-2.306-.737V17.961h.236a16.545,16.545,0,0,0,.643,1.619,8.2,8.2,0,0,0,.931,1.57,4.663,4.663,0,0,0,1.317,1.187,3.484,3.484,0,0,0,1.831.464,3.389,3.389,0,0,0,2.457-.882,3.6,3.6,0,0,0,.915-2.708,2.3,2.3,0,0,0-.625-1.65,3.18,3.18,0,0,0-1.717-.881q-.866-.161-1.667-.353a14.593,14.593,0,0,1-1.444-.417,4,4,0,0,1-1.974-1.442A4.056,4.056,0,0,1,47.479,12a3.811,3.811,0,0,1,.419-1.794,4.38,4.38,0,0,1,1.127-1.378,5.029,5.029,0,0,1,1.637-.882,6.334,6.334,0,0,1,1.986-.3,10.442,10.442,0,0,1,2.37.241,15.533,15.533,0,0,1,1.954.592l.384,3.975-.256.064q-.45-.961-.9-1.779a7.173,7.173,0,0,0-.993-1.411,3.9,3.9,0,0,0-1.233-.913,3.732,3.732,0,0,0-1.586-.32,3.106,3.106,0,0,0-1.073.192,2.739,2.739,0,0,0-.929.561,2.881,2.881,0,0,0-.657.929,3.092,3.092,0,0,0-.257,1.3,2.005,2.005,0,0,0,.673,1.7,4.592,4.592,0,0,0,1.7.769c.469.108.982.22,1.536.337s1.036.229,1.441.336a4.747,4.747,0,0,1,2.449,1.474,3.977,3.977,0,0,1,1.009,2.757,4.468,4.468,0,0,1-.5,2.163"/><path class="b" d="M4.493,30.362a1.637,1.637,0,1,1-1.637-1.637,1.637,1.637,0,0,1,1.637,1.637"/><path class="b" d="M15.076,30.362a1.637,1.637,0,1,1-1.637-1.637,1.638,1.638,0,0,1,1.637,1.637"/><path class="b" d="M25.658,30.362a1.637,1.637,0,1,1-1.637-1.637,1.637,1.637,0,0,1,1.637,1.637"/><path class="b" d="M36.24,30.362A1.637,1.637,0,1,1,34.6,28.725a1.637,1.637,0,0,1,1.637,1.637"/><path class="b" d="M46.822,30.362a1.637,1.637,0,1,1-1.637-1.637,1.638,1.638,0,0,1,1.637,1.637"/><path class="b" d="M57.4,30.362a1.637,1.637,0,1,1-1.637-1.637A1.637,1.637,0,0,1,57.4,30.362"/><path class="b" d="M67.986,30.362a1.637,1.637,0,1,1-1.637-1.637,1.638,1.638,0,0,1,1.637,1.637"/><path class="b" d="M89.15,30.362a1.637,1.637,0,1,1-1.638-1.637,1.637,1.637,0,0,1,1.638,1.637"/><path class="b" d="M78.568,30.362a1.637,1.637,0,1,1-1.637-1.637,1.637,1.637,0,0,1,1.637,1.637"/></svg>