<svg xmlns="http://www.w3.org/2000/svg" width="32" height="32" viewBox="0 0 32 32"><defs><style>.a{fill:#354052;fill-rule:evenodd;}.b{fill:none;}</style></defs><title>close</title><path class="a" d="M32,16A16,16,0,1,1,16,0,16,16,0,0,1,32,16Zm-2,0A14,14,0,1,0,16,30,14,14,0,0,0,30,16Z"/><polygon class="a" points="7.515 10.344 10.344 7.516 16 13.172 21.656 7.514 24.484 10.344 18.827 16 24.484 21.656 21.656 24.484 16 18.828 10.344 24.484 7.513 21.656 13.172 16 7.515 10.344"/><rect class="b" width="32" height="32"/></svg>