<svg xmlns="http://www.w3.org/2000/svg" width="32" height="32" viewBox="0 0 32 32"><defs><style>.a{fill:#354052;}.b{fill:none;}</style></defs><title>find_similar</title><path class="a" d="M18.108,12.477a5.994,5.994,0,1,1,1.413,1.414l-4.916,4.918A6.951,6.951,0,0,1,15.928,22h5.2a4,4,0,1,1,0,2h-5.2A7,7,0,1,1,8,16.071v-5.2a4,4,0,1,1,2,0v5.2a6.946,6.946,0,0,1,3.19,1.322ZM14,23a5,5,0,1,0-5,5A5,5,0,0,0,14,23ZM23,5a4,4,0,1,0,4,4A4,4,0,0,0,23,5ZM9,5a2,2,0,1,0,2,2A2,2,0,0,0,9,5ZM25,21a2,2,0,1,0,2,2A2,2,0,0,0,25,21Z"/><rect class="b" width="32" height="32"/></svg>