<svg xmlns="http://www.w3.org/2000/svg" width="32" height="32" viewBox="0 0 32 32"><defs><style>.a,.b{fill:#354052;}.a{fill-rule:evenodd;}.c{fill:none;}</style></defs><title>help</title><path class="a" d="M32,16A16,16,0,1,1,16,0,16,16,0,0,1,32,16Zm-2,0A14,14,0,1,0,16,30,14,14,0,0,0,30,16Z"/><path class="b" d="M10,13c.076-3.573,2.132-6,5.779-6C20.5,7,22,9.9,22,11.823a4.657,4.657,0,0,1-2.1,4.223c-1.074.8-2.176,1.448-2.4,2.923V20H14V19a5.389,5.389,0,0,1,2.253-4.129c.974-.775,1.823-1.349,1.823-2.7a1.96,1.96,0,0,0-2.124-2.248c-1.8,0-2.546,1.3-2.573,3.076Zm4,8h4v4H14Z"/><rect class="c" width="32" height="32"/></svg>