<svg xmlns="http://www.w3.org/2000/svg" width="32" height="32" viewBox="0 0 32 32"><defs><style>.a{fill:#354052;}</style></defs><title>favorite</title><path class="a" d="M16,6.035l2.233,6.356.449,1.279,1.354.056L26.716,14l-5.333,4.422-.988.819.333,1.239,1.8,6.717-5.384-3.778L16,22.615l-1.149.806L9.465,27.2l1.8-6.716.333-1.239-.987-.819L5.282,14l6.679-.277,1.354-.056.45-1.279L16,6.035M16,0,11.878,11.729,0,12.221l9.336,7.744L6.106,32,16,25.059,25.888,32,22.66,19.965,32,12.221l-11.883-.492L16,0Z"/></svg>