<svg xmlns="http://www.w3.org/2000/svg" width="32" height="32" viewBox="0 0 32 32"><defs><style>.a{fill:#354052;}.b{fill:none;}</style></defs><title>filter</title><path class="a" d="M27,4c.485,0,.792.145.91.431a1.094,1.094,0,0,1-.324,1.154l-9,9L18,15.172V25.781l-.033.02c-.559.337-3.233,1.776-3.967,2.126V15.172l-.586-.586-9-9A1.1,1.1,0,0,1,4.093,4.43C4.211,4.145,4.516,4,5,4H27m0-2H5C2,2,1.169,5.168,3,7l9,9V28.014A1.774,1.774,0,0,0,13.773,30a2.443,2.443,0,0,0,1.021-.237c.737-.344,3.584-1.875,4.206-2.25a1.7,1.7,0,0,0,1-1.5V16l9-9c1.836-1.832,1-5-2-5Z"/><rect class="b" width="32" height="32"/></svg>