<svg xmlns="http://www.w3.org/2000/svg" width="32" height="32" viewBox="0 0 32 32"><defs><style>.a{fill:#354052;}.b{fill:none;}</style></defs><title>fullscreen_exit</title><polygon class="a" points="0 8 5.172 8 0 2.828 0 0 2.828 0 8 5.172 8 0 12 0 12 12 0 12 0 8"/><polygon class="a" points="8 32 8 26.828 2.828 32 0 32 0 29.172 5.172 24 0 24 0 20 12 20 12 32 8 32"/><polygon class="a" points="32 8 26.828 8 32 2.828 32 0 29.172 0 24 5.172 24 0 20 0 20 12 32 12 32 8"/><polygon class="a" points="24 32 24 26.828 29.172 32 32 32 32 29.172 26.828 24 32 24 32 20 20 20 20 32 24 32"/><rect class="b" width="32" height="32"/></svg>