<svg xmlns="http://www.w3.org/2000/svg" width="32" height="32" viewBox="0 0 32 32"><defs><style>.a{fill:#354052;}.b{fill:none;}</style></defs><title>fullscreen</title><polygon class="a" points="28 20 28 25.172 22.828 20 20 20 20 22.828 25.172 28 20 28 20 32 32 32 32 20 28 20"/><polygon class="a" points="12 28 6.828 28 12 22.828 12 20 9.172 20 4 25.172 4 20 0 20 0 32 12 32 12 28"/><polygon class="a" points="28 12 28 6.828 22.828 12 20 12 20 9.172 25.172 4 20 4 20 0 32 0 32 12 28 12"/><polygon class="a" points="12 4 6.828 4 12 9.172 12 12 9.172 12 4 6.828 4 12 0 12 0 0 12 0 12 4"/><rect class="b" width="32" height="32"/></svg>