<svg xmlns="http://www.w3.org/2000/svg" width="32" height="32" viewBox="0 0 32 32"><defs><style>.a,.b{fill:#354052;}.b{fill-rule:evenodd;}.c{fill:none;}</style></defs><title>new</title><path class="a" d="M16,13a3,3,0,1,1-3,3,3,3,0,0,1,3-3m0-3a6,6,0,1,0,6,6,6,6,0,0,0-6-6Z"/><path class="b" d="M14,2a2,2,0,0,1,4,0V6a2,2,0,0,1-4,0Z"/><path class="b" d="M14,26a2,2,0,0,1,4,0v4a2,2,0,0,1-4,0Z"/><path class="b" d="M26,18a2,2,0,0,1,0-4h4a2,2,0,0,1,0,4Z"/><path class="b" d="M2,18a2,2,0,0,1,0-4H6a2,2,0,0,1,0,4Z"/><path class="b" d="M4.686,7.514A2,2,0,0,1,7.514,4.686l2.828,2.828a2,2,0,1,1-2.828,2.828Z"/><path class="b" d="M21.657,24.484a2,2,0,1,1,2.827-2.828l2.828,2.828a2,2,0,0,1-2.828,2.828Z"/><path class="b" d="M24.484,10.344a2,2,0,1,1-2.827-2.828l2.827-2.832a2,2,0,1,1,2.828,2.828Z"/><path class="b" d="M7.512,27.313a2,2,0,0,1-2.828-2.828l2.832-2.828a2,2,0,1,1,2.828,2.828Z"/><rect class="c" width="32" height="32"/></svg>