<svg xmlns="http://www.w3.org/2000/svg" width="32" height="32" viewBox="0 0 32 32"><defs><style>.a{fill:#354052;fill-rule:evenodd;}.b{fill:none;}</style></defs><title>view_show</title><path class="a" d="M22,16a6,6,0,1,1-6-6,6.126,6.126,0,0,1,1.155.111,3.992,3.992,0,1,0,4.75,4.82A6.005,6.005,0,0,1,22,16ZM16,27.77c7.866,0,14.483-5.418,16-11.769C30.483,9.648,23.866,4.231,16,4.231S1.515,9.648,0,16C1.515,22.352,8.132,27.77,16,27.77Zm0-2c5.7,0,12.483-3.418,14-9.769-1.517-6.352-8.3-9.769-14-9.769S3.515,9.648,2,16C3.515,22.352,10.3,25.77,16,25.77Z"/><rect class="b" width="32" height="32"/></svg>