<svg xmlns="http://www.w3.org/2000/svg" width="32" height="32" viewBox="0 0 32 32"><defs><style>.a{fill:none;}.b{fill:#354052;}</style></defs><title>view_list</title><rect class="a" width="32" height="32"/><rect class="b" y="12" width="6" height="6"/><rect class="b" y="2" width="6" height="6"/><polygon class="b" points="22 2 18.669 2 10 2 10 8 18.669 8 22 8 32 8 32 2 22 2"/><polygon class="b" points="22 12 18.669 12 10 12 10 18 18.669 18 22 18 32 18 32 12 22 12"/><polygon class="b" points="22 22 18.669 22 10 22 10 28 18.669 28 22 28 32 28 32 22 22 22"/><rect class="b" y="22" width="6" height="6"/><rect class="a" width="32" height="32"/></svg>