<svg xmlns="http://www.w3.org/2000/svg" width="32" height="32" viewBox="0 0 32 32"><defs><style>.a{fill:#354052;fill-rule:evenodd;}.b{fill:none;}</style></defs><title>view_hide_fill</title><path class="a" d="M17.165,21.887a6,6,0,0,1-5.682-9.838Zm5.783,10.02,2.6-1.5L8.046.095l-2.6,1.5L8.091,6.171A15.533,15.533,0,0,0,0,16c1.515,6.352,8.142,11.77,16.007,11.77a17.088,17.088,0,0,0,4.246-.536Zm2.8-7.17A15.083,15.083,0,0,0,32,16C30.483,9.648,23.874,4.231,16.007,4.231a17.028,17.028,0,0,0-2.032.122ZM17.248,2.5m-2.207,2-.591,6.311"/><rect class="b" width="32" height="32"/></svg>