<svg xmlns="http://www.w3.org/2000/svg" width="32" height="32" viewBox="0 0 32 32"><defs><style>.a{fill:#354052;fill-rule:evenodd;}.b{fill:none;}</style></defs><title>view_hide</title><path class="a" d="M22.94,31.906l2.6-1.5-5.672-9.824a6.022,6.022,0,0,0,2.032-5.65,3.982,3.982,0,0,1-3.527,3.053l-3.638-6.291a4.013,4.013,0,0,1,2.415-1.582A6.122,6.122,0,0,0,15.991,10a5.979,5.979,0,0,0-2.035.354L8.037.095l-2.6,1.5L8.086,6.172A15.505,15.505,0,0,0,0,16c1.515,6.352,8.132,11.77,16,11.77a17.1,17.1,0,0,0,4.241-.535ZM17.155,21.888A6.1,6.1,0,0,1,15.991,22a6,6,0,0,1-4.516-9.949L9.044,7.838A12.406,12.406,0,0,0,2,16c1.515,6.352,8.3,9.77,14,9.77a15.613,15.613,0,0,0,3.2-.342Zm8.572,2.855A15.115,15.115,0,0,0,32,16C30.483,9.648,23.866,4.231,16,4.231a17.039,17.039,0,0,0-2.044.123L15.064,6.26q.472-.029.937-.029c5.7,0,12.483,3.418,14,9.77a11.854,11.854,0,0,1-5.205,7.125Z"/><rect class="b" width="32" height="32"/></svg>