<svg xmlns="http://www.w3.org/2000/svg" width="32" height="32" viewBox="0 0 32 32"><defs><style>.a{fill:#354052;fill-rule:evenodd;}.b{fill:none;}</style></defs><title>comment</title><path class="a" d="M23,6.69a6.008,6.008,0,0,0-6,6v5a1,1,0,0,0,1,1h5a1,1,0,0,0,1-1v-5a1,1,0,0,0-1-1H21.27a2,2,0,0,1,1.73-1,1,1,0,0,0,1-1v-2A1,1,0,0,0,23,6.69Zm-9,0a6.008,6.008,0,0,0-6,6v5a1,1,0,0,0,1,1h5a1,1,0,0,0,1-1v-5a1,1,0,0,0-1-1H12.27a2,2,0,0,1,1.73-1,1,1,0,0,0,1-1v-2A1,1,0,0,0,14,6.69Z"/><path class="a" d="M4,0A4,4,0,0,0,0,4V22a4,4,0,0,0,4,4H8v6l6-6H28a4,4,0,0,0,4-4V4a4,4,0,0,0-4-4ZM28,2a2,2,0,0,1,2,2V22a2,2,0,0,1-2,2H13l-3,3V24H4a2,2,0,0,1-2-2V4A2,2,0,0,1,4,2Z"/><rect class="b" width="32" height="32"/></svg>