<svg xmlns="http://www.w3.org/2000/svg" width="32" height="32" viewBox="0 0 32 32"><defs><style>.a{fill:#354052;fill-rule:evenodd;}.b{fill:none;}</style></defs><title>email</title><path class="a" d="M3,28a3,3,0,0,1-3-3V7A3,3,0,0,1,3,4H29a3,3,0,0,1,3,3V25a3,3,0,0,1-3,3ZM16,17.547a2.523,2.523,0,0,1-1.8-.748L4.254,6.854A.5.5,0,0,1,4.6,6H27.4a.5.5,0,0,1,.348.854L17.8,16.8A2.529,2.529,0,0,1,16,17.547Zm0,1.976a4.539,4.539,0,0,1-3.211-1.336L2.848,8.246a.5.5,0,0,0-.7,0A.508.508,0,0,0,2,8.606V25a1,1,0,0,0,1,1H29a1,1,0,0,0,1-1V8.606a.492.492,0,0,0-.141-.359.5.5,0,0,0-.707,0l-9.939,9.941A4.538,4.538,0,0,1,16,19.523Z"/><rect class="b" width="32" height="32"/></svg>