<svg xmlns="http://www.w3.org/2000/svg" width="32" height="32" viewBox="0 0 32 32"><defs><style>.a{fill:#354052;}.b{fill:none;}</style></defs><title>like_fill</title><path class="a" d="M6,13.6a4.7,4.7,0,0,1,1.6-4L15.2,2c1.2-1.2,2-2,2.8-2h2.4c.8,0,1.6.8,1.6,2.4a11.556,11.556,0,0,1-1.066,4A11.45,11.45,0,0,0,20.4,9.6c0,.8,0,1.4,1.6,1.4h7.2c1.6,0,3.845,1.834,2.268,5.533-.994,2.338-5.127,11.666-5.532,12.533S24.4,32,22,32H8.4A2.555,2.555,0,0,1,6,29.6Z"/><rect class="a" y="14" width="4" height="16"/><rect class="b" width="32" height="32"/></svg>