<svg xmlns="http://www.w3.org/2000/svg" width="32" height="32" viewBox="0 0 32 32"><defs><style>.a{fill:#354052;}.b{fill:none;}</style></defs><title>like</title><path class="a" d="M19.961,2A2.009,2.009,0,0,1,20,2.4a7.682,7.682,0,0,1-.7,2.663c-.1.242-.184.465-.254.664A13.358,13.358,0,0,0,18.4,9.6c0,2.256,1.211,3.4,3.6,3.4h7.2a.844.844,0,0,1,.6.4,2.666,2.666,0,0,1-.174,2.355c-1.025,2.412-5.145,11.7-5.507,12.476C23.571,29.4,22.858,30,22,30H8.458c-.1-.031-.458-.189-.458-.4v-16a2.81,2.81,0,0,1,1.014-2.586L16.624,3.4A13.319,13.319,0,0,1,18.152,2h1.81M20.4,0H18c-.8,0-1.6.8-2.8,2L7.6,9.6a4.7,4.7,0,0,0-1.6,4v16A2.555,2.555,0,0,0,8.4,32H22c2.4,0,3.532-2.066,3.934-2.934s4.538-10.2,5.532-12.533C33.04,12.834,30.794,11,29.2,11H22c-1.6,0-1.6-.6-1.6-1.4a11.45,11.45,0,0,1,.534-3.2A11.555,11.555,0,0,0,22,2.4C22,.8,21.2,0,20.4,0Z"/><rect class="a" y="14" width="4" height="16"/><rect class="b" width="32" height="32"/></svg>