<svg xmlns="http://www.w3.org/2000/svg" width="32" height="32" viewBox="0 0 32 32"><defs><style>.a{fill:#354052;}.b{fill:none;}</style></defs><title>phone</title><path class="a" d="M6.827,2.462a2.472,2.472,0,0,1,.9.175c1.6.607,2.956,3.006,3.264,4.174a2.132,2.132,0,0,1-.571,2.048c-.349.348-.69.509-1.779.548l-2.464.081.086,2.462c.087,2.462,1.63,5.015,5.157,8.536,3.543,3.546,6.112,5.1,8.6,5.214l2.485.111.086-2.486c.042-1.166.241-1.457.542-1.755a2.21,2.21,0,0,1,1.53-.645,2.07,2.07,0,0,1,.521.067c1.17.308,3.563,1.656,4.175,3.265.551,1.438-.156,2.471-1.957,4.261l-.186.188A18.206,18.206,0,0,1,22,29.524c-4.442,0-8.717-2.118-13.074-6.471C2.947,17.074,1.255,11.608,3.275,4.786l.011-.01.2-.2c1.227-1.235,2.186-2.112,3.34-2.112M6.827,0C4.557,0,2.993,1.574,1.736,2.839l-.207.214L1.1,3.485l-.178.592C-1.365,11.788.568,18.18,7.187,24.8,12.034,29.643,16.88,31.992,22,31.992a20.605,20.605,0,0,0,5.906-.921L28.5,30.9l.435-.431.21-.212c1.483-1.469,3.721-3.693,2.51-6.867-1.034-2.717-4.39-4.385-5.86-4.77a4.289,4.289,0,0,0-1.136-.151,4.673,4.673,0,0,0-3.269,1.358,4.581,4.581,0,0,0-1.27,3.418c-1.784-.079-3.947-1.48-6.966-4.5-3.437-3.436-4.379-5.439-4.433-6.88A4.623,4.623,0,0,0,12.159,10.6a4.618,4.618,0,0,0,1.219-4.413C12.986,4.721,11.312,1.363,8.6.334A4.942,4.942,0,0,0,6.827,0Z"/><rect class="b" width="32" height="32"/></svg>