<svg xmlns="http://www.w3.org/2000/svg" width="32" height="32" viewBox="0 0 32 32"><defs><style>.a{fill:#354052;}.b{fill:none;}</style></defs><title>share</title><path class="a" d="M27,8a4.976,4.976,0,0,0-1.767.339,11.909,11.909,0,0,0-12.015-4A4.99,4.99,0,1,0,5.378,10.43a11.941,11.941,0,0,0,.989,12.705,4.988,4.988,0,0,0,8.652,4.816c.324.025.649.049.98.049A12,12,0,0,0,27.836,17.916,4.993,4.993,0,0,0,27,8ZM6.2,7a2.8,2.8,0,0,1,5.6,0c0,.064-.016.125-.02.189A2.793,2.793,0,0,1,9,9.8a3.073,3.073,0,0,1-.492-.048A2.814,2.814,0,0,1,6.2,7ZM11,27.8a2.8,2.8,0,0,1-2.789-2.684c0-.039-.012-.076-.012-.117A2.779,2.779,0,1,1,11,27.8Zm5-2c-.027,0-.053-.008-.08-.008A5.163,5.163,0,0,0,16,25a4.975,4.975,0,0,0-8.258-3.764,9.565,9.565,0,0,1-.492-9.568A4.965,4.965,0,0,0,14,7a4.89,4.89,0,0,0-.058-.576,9.65,9.65,0,0,1,9.416,3.168,4.965,4.965,0,0,0,2.263,8.191A9.791,9.791,0,0,1,16,25.8ZM27.981,15.613a2.676,2.676,0,0,1-2.231-.121A2.794,2.794,0,0,1,24.2,13a2.765,2.765,0,0,1,.452-1.514,2.793,2.793,0,0,1,1.88-1.24A2.843,2.843,0,0,1,27,10.2a2.795,2.795,0,0,1,.981,5.414Z"/><rect class="b" width="32" height="32"/></svg>