<svg xmlns="http://www.w3.org/2000/svg" width="32" height="32" viewBox="0 0 32 32"><defs><style>.a{fill:#354052;fill-rule:evenodd;}</style></defs><title>warning</title><path class="a" d="M3,30a1,1,0,0,1-1-1,.986.986,0,0,1,.106-.447l13-26a1,1,0,0,1,1.789,0l13,26A1,1,0,0,1,29,30Zm0,2A3.009,3.009,0,0,1,.313,27.656l13-26a3.009,3.009,0,0,1,5.375,0l13,26A3.009,3.009,0,0,1,29,32Zm13.128-3a2,2,0,1,0-2-2A2,2,0,0,0,16.128,29Zm0-19.5a10.529,10.529,0,0,0-3.243.529L15.2,23.162a2.7,2.7,0,0,1,1.844,0l2.318-13.133A10.521,10.521,0,0,0,16.128,9.5Z"/></svg>