<?xml version="1.0" encoding="utf-8"?>
<!-- Generator: Adobe Illustrator 16.0.4, SVG Export Plug-In . SVG Version: 6.00 Build 0)  -->
<!DOCTYPE svg PUBLIC "-//W3C//DTD SVG 1.1//EN" "http://www.w3.org/Graphics/SVG/1.1/DTD/svg11.dtd">
<svg version="1.1" id="Layer_1" xmlns="http://www.w3.org/2000/svg" xmlns:xlink="http://www.w3.org/1999/xlink" x="0px" y="0px"
	 width="16px" height="16px" viewBox="0 0 16 16" style="enable-background:new 0 0 16 16;" xml:space="preserve">
<style type="text/css">
<![CDATA[
	.st0{fill-rule:evenodd;clip-rule:evenodd;fill:#354052;}
]]>
</style>
<g>
	<g>
		<g>
			<path class="st0" d="M2,4c0-0.553,0.41-1,0.916-1h10.168C13.59,3,14,3.447,14,4s-0.41,1-0.916,1H2.916C2.41,5,2,4.553,2,4z"/>
		</g>
		<g>
			<path class="st0" d="M2,8c0-0.553,0.41-1,0.916-1h10.168C13.59,7,14,7.447,14,8s-0.41,1-0.916,1H2.916C2.41,9,2,8.553,2,8z"/>
		</g>
		<g>
			<path class="st0" d="M2,12c0-0.553,0.41-1,0.916-1h10.168C13.59,11,14,11.447,14,12s-0.41,1-0.916,1H2.916C2.41,13,2,12.553,2,12
				z"/>
		</g>
	</g>
</g>
</svg>
